<svg width="103" height="135" viewBox="0 0 103 135" fill="none" xmlns="http://www.w3.org/2000/svg">
<path d="M86.9693 119.119C86.9333 118.631 86.904 118.165 86.8867 117.716C86.9653 117.747 87.0467 117.76 87.128 117.781C87.068 118.219 87.0133 118.66 86.9693 119.119ZM85.7453 116.761C85.816 116.863 85.888 116.965 85.9667 117.052C85.932 117.289 85.8973 117.527 85.872 117.756C85.8253 117.4 85.784 117.071 85.7453 116.761ZM74.648 100.091C74.8187 100.091 75.0053 100.091 75.1933 100.091C74.5027 101.66 74.2947 103.184 74.1373 105.08C74.0747 105.587 74.4173 105.895 74.844 105.967C74.6947 106.479 74.5573 106.985 74.4173 107.552C74.3307 107.86 74.4173 108.188 74.62 108.407C74.5307 109.024 74.5813 109.68 74.9093 110.575C75.0573 110.973 75.448 111.245 75.8333 111.28C75.8933 112.116 75.984 112.933 76.12 113.808C76.2547 114.751 77.6213 114.697 78.028 114.027C78.1107 113.9 78.204 113.753 78.2947 113.624C78.2947 113.683 78.2947 113.733 78.2947 113.768C78.352 114.627 79.4947 115.265 80.1133 114.517C81.1307 113.316 81.6027 119.517 84.7707 112.533C84.684 113.644 84.8187 114.639 85.096 115.468C85.0907 115.487 85.0747 115.495 85.0733 115.516C84.9893 117.447 85.0733 119.392 85.016 121.301C84.8573 121.469 84.7507 121.696 84.7707 122.005C84.7707 122.773 84.8093 123.537 84.8573 124.287C84.616 126.447 84.0947 128.503 82.8933 130.447C82.6227 130.884 83.0813 131.284 83.4973 131.211C84.0053 131.139 84.3907 130.923 84.7507 130.608C84.7507 131.392 84.7507 132.176 84.7507 132.975C84.7707 133.868 85.5853 134.176 86.2293 133.904C86.388 133.959 86.548 133.973 86.7133 133.973C87.0787 134.044 87.48 133.973 87.716 133.611C87.9667 133.539 88.2 133.341 88.28 132.96C88.28 132.867 88.28 132.795 88.3053 132.707C88.3053 132.684 88.3053 132.684 88.3053 132.684C88.3933 132.975 88.4973 133.228 88.6507 133.468C88.8573 133.812 89.3147 133.796 89.5267 133.444C90.392 132.105 89.7147 129.649 89.5187 128.139C89.2413 126.229 88.9667 124.337 88.4413 122.503C88.3933 121.955 88.3427 121.408 88.2973 120.865C88.24 119.812 88.224 118.767 88.2413 117.719C89.2627 117.352 90.3147 116.124 91.0987 113.683C93.596 115.936 93.028 116.479 96.2973 117.792C97.0973 118.117 97.7187 117.153 97.5707 116.479C97.3547 115.5 97.1693 114.568 96.9173 113.683C97.7293 114.153 98.5187 114.627 99.2973 115.155C100.08 115.68 100.963 114.751 100.773 113.991C100.407 112.591 100.133 111.205 99.7227 109.88C99.7227 109.88 99.7547 109.897 99.8 109.916C100.609 110.315 101.475 109.644 101.265 108.771C101.008 107.627 100.755 106.573 100.407 105.553C101.048 105.641 101.737 104.935 101.497 104.28C101.016 102.912 100.581 101.549 100.08 100.241C100.336 100.333 100.537 100.44 100.781 100.531C101.507 100.805 102.193 99.9667 101.989 99.292C101.355 97.132 100.373 95.272 99.0787 93.5493C99.5747 93.4027 99.9 92.8213 99.748 92.328C99.2493 90.712 98.572 89.2387 97.7707 87.8027C98.4947 87.9507 99.264 87.4533 99.0107 86.5613C98.752 85.6347 98.5187 84.7093 98.2053 83.816C98.972 84.056 99.7227 83.4173 99.5347 82.584C99.0787 80.728 98.2893 79.0307 97.372 77.4307C97.9693 77.3787 98.4293 76.78 98.2893 76.1107C97.7707 73.5613 96.6613 71.3453 95.3333 69.1787C95.8947 68.996 96.32 68.4347 96.08 67.8893C95.5533 66.6707 95.128 65.4133 94.6253 64.192C94.6693 64.2133 94.7387 64.2467 94.7867 64.2467C95.5373 64.3747 96.4013 63.7213 96.096 62.8893C95.0267 59.956 93.5547 57.2693 91.8347 54.7187C92.136 54.3747 92.2293 53.8493 91.9973 53.4307C91.4613 52.4107 91.148 51.3573 90.8253 50.264C91.5707 50.432 92.3867 49.7893 92.0987 48.9547C91.4613 47.0827 90.8253 45.464 89.7147 44.0293C89.768 44.0293 89.7867 44.0293 89.8467 44.0293C90.4973 43.9373 90.9587 43.4093 90.7867 42.736C90.1347 40.192 89.2627 37.808 87.716 35.6587C87.6827 35.5893 87.6253 35.5533 87.5867 35.5307C86.948 33.772 85.656 26.136 84.5907 28.256C82.5933 32.2587 79.0853 39.4267 79.5613 42.7933C79.6587 43.3547 80.096 43.7547 80.548 43.8093C80.3333 44.68 80.104 45.592 79.8413 46.4973C79.752 46.8307 79.852 47.156 80.0507 47.3907C78.912 50.048 78.06 52.776 77.6213 55.7027C77.5053 56.4893 78.12 57.048 78.7627 56.9653C78.7733 57.1133 78.7787 57.2613 78.7947 57.4107C78.3747 58.864 78.0933 60.368 78.0933 61.9573C78.0933 62.1547 78.1693 62.34 78.2813 62.488C76.3787 65.4307 75.2853 68.7933 75.352 72.4173C75.352 72.9773 75.8853 73.4307 76.4173 73.4547C76.076 75.4133 75.912 77.472 76.64 79.016C76.7827 79.3053 76.9587 79.5613 77.1533 79.7293C75.8333 81.508 74.9587 83.5427 74.6427 85.8587C74.5307 86.6187 75.096 87.308 75.912 87.1093H75.968C75.148 89.2013 74.5027 91.3107 74.368 93.6213C74.312 94.132 74.7267 94.4733 75.1933 94.5653C74.5027 95.896 74 97.2747 73.6613 98.8227C73.4947 99.476 73.9693 100.091 74.648 100.091Z M37.3853 110.732C37.576 111.28 38.0627 111.716 38.6133 111.751C38.6667 112.933 38.8147 114.116 38.984 115.352C39.1733 116.716 40.9213 116.641 41.4853 115.66C41.5853 115.476 41.7253 115.277 41.8333 115.084C41.8333 115.155 41.8493 115.247 41.8493 115.316C41.932 116.519 43.4253 117.408 44.2427 116.351C45.584 114.607 46.1933 123.448 50.3613 113.517C50.18 115.943 50.664 118.005 51.5013 119.365C51.4787 120.272 51.4867 121.187 51.5053 122.103C51.3147 124.029 51.3053 125.988 51.22 127.921C50.9787 129.123 50.5613 130.251 49.852 131.305C49.688 131.54 49.7307 131.957 49.964 132.141C51.0133 133.027 51.724 132.539 52.2307 131.593C52.388 131.556 52.552 131.481 52.672 131.376C52.6893 131.957 52.7187 132.539 52.8693 133.045C52.8693 133.393 53.088 133.668 53.372 133.776C53.4147 133.812 53.4507 133.812 53.532 133.843C53.532 133.843 53.58 133.868 53.6187 133.868C53.6907 133.884 53.7987 133.904 53.88 133.904L53.9373 133.884C54.0307 133.868 54.14 133.843 54.232 133.812C54.2547 133.812 54.2653 133.812 54.2653 133.812C54.5653 133.668 54.7787 133.431 54.8067 133.065C54.9067 132.741 54.964 132.376 55.016 131.993C55.3067 132.011 55.6453 131.865 55.7307 131.507C56.5533 127.883 56.3933 123.901 56.252 119.976C57.1413 119.037 57.992 117.48 58.6827 115.155C61.984 118.388 61.2267 119.137 65.528 121.013C66.5853 121.447 67.38 120.12 67.2026 119.137C66.9293 117.756 66.672 116.444 66.352 115.155C67.4067 115.848 68.464 116.479 69.476 117.261C70.492 118.027 71.6773 116.732 71.4066 115.608C70.9466 113.624 70.576 111.645 69.9907 109.736C70.0413 109.771 70.092 109.804 70.1307 109.804C71.2 110.371 72.3507 109.427 72.056 108.148C71.7227 106.573 71.3987 105.041 70.9467 103.584C71.7907 103.711 72.6667 102.731 72.364 101.784C71.736 99.8427 71.1827 97.912 70.492 96.024C70.8213 96.148 71.1067 96.3093 71.456 96.4573C72.4013 96.8227 73.2747 95.6573 73.024 94.692C72.1933 91.64 70.8907 88.9653 69.1973 86.5267C69.828 86.3107 70.2813 85.4907 70.0706 84.76C69.4186 82.4893 68.5293 80.36 67.4907 78.3253C68.4213 78.5627 69.4613 77.836 69.1067 76.5973C68.7547 75.2707 68.4373 73.9613 68.0547 72.652C69.044 73.0347 70.0413 72.104 69.784 70.924C69.1827 68.2467 68.1533 65.8693 66.9373 63.5907C67.732 63.5213 68.312 62.632 68.1533 61.7053C67.4733 58.084 66.0133 54.9013 64.2773 51.848C64.9813 51.592 65.56 50.792 65.2347 50.0147C64.5467 48.2467 63.972 46.4627 63.3253 44.7387C63.392 44.7733 63.4667 44.7933 63.544 44.812C64.5267 44.9733 65.656 44.08 65.2653 42.88C63.8547 38.6933 61.9267 34.8747 59.6507 31.2587C60.036 30.7533 60.2 30.02 59.8693 29.388C59.1747 27.9693 58.7427 26.4547 58.3333 24.916C59.292 25.1333 60.3827 24.2293 60.016 23.044C59.1747 20.352 58.324 18.08 56.8493 16.0427C56.9147 16.0347 56.9893 16.0267 57.0347 16.0267C57.8907 15.8947 58.4973 15.1493 58.292 14.1907C58.128 13.5013 57.9347 12.8347 57.7427 12.1733C57.4173 11.5573 57.1613 10.9027 57.004 10.1027C56.9653 9.79732 56.8013 9.30666 56.5987 8.72399C55.984 7.10399 55.2173 5.57866 54.2547 4.13199C54.1947 4.02799 54.116 4.00399 54.0693 3.91999C53.9787 3.73066 53.9373 3.46532 53.852 3.17599C52.3413 1.03466 50.5533 -0.293344 48.9333 1.52666C48.84 1.63066 48.7453 1.74532 48.652 1.87332C46.5027 4.84532 45.276 8.16399 43.636 11.2947C43.4493 12.408 43.396 13.4173 43.5027 14.2693C43.6013 15.096 44.1867 15.6333 44.8333 15.6947C44.5053 16.9693 44.2027 18.2613 43.868 19.532C43.7427 20.0253 43.9013 20.476 44.164 20.8267C42.6493 24.5867 41.5387 28.496 40.9493 32.66C40.8067 33.7587 41.5933 34.592 42.4533 34.456C42.4693 34.676 42.4733 34.896 42.4973 35.1147C41.9413 37.1547 41.5853 39.2867 41.5853 41.552C41.5853 41.8453 41.6827 42.0787 41.8333 42.336C39.3053 46.4973 37.872 51.2667 37.948 56.468C37.964 57.2507 38.6667 57.8853 39.36 57.92C38.9067 60.704 38.724 63.632 39.6693 65.8133C39.864 66.2493 40.0787 66.5747 40.3133 66.8507C38.5907 69.3787 37.4493 72.2707 37.028 75.58C36.8987 76.672 37.6147 77.6187 38.6827 77.34L38.7507 77.3227C37.712 80.3253 36.8467 83.3307 36.6453 86.6C36.612 87.3427 37.1333 87.86 37.74 87.9827C36.8467 89.836 36.1947 91.8373 35.7213 94.004C35.5413 94.9467 36.144 95.8053 37.028 95.8053C37.2627 95.8053 37.5213 95.8053 37.752 95.8053C36.8467 98.0573 36.576 100.22 36.356 102.896C36.284 103.659 36.7347 104.08 37.2867 104.187C37.104 104.917 36.9147 105.661 36.7347 106.423C36.612 106.897 36.7347 107.369 37.0053 107.681C36.8987 108.553 36.9533 109.463 37.3853 110.732Z M34.9147 90.4347C34.1533 88.072 32.9933 85.9827 31.456 84.0893C32.028 83.9107 32.4267 83.2907 32.248 82.7267C31.6653 80.9427 30.844 79.288 29.9187 77.7107C30.7547 77.8707 31.6853 77.3227 31.3853 76.3627C31.084 75.3413 30.7547 74.3093 30.4093 73.3093C31.3173 73.58 32.2133 72.8707 31.992 71.9427C31.448 69.892 30.5187 68.0093 29.4267 66.2493C30.12 66.1773 30.6827 65.5053 30.5187 64.7773C29.8987 61.9573 28.584 59.504 27.0253 57.1027C27.6667 56.9027 28.188 56.2827 27.8947 55.6867C27.256 54.2853 26.7547 52.936 26.1707 51.592C26.2267 51.612 26.3 51.6307 26.364 51.6493C27.256 51.7733 28.268 51.0667 27.9173 50.1347C26.64 46.8787 24.9013 43.916 22.848 41.096C23.196 40.6973 23.3213 40.136 23.0653 39.6427C22.424 38.5333 22.044 37.376 21.644 36.1733C22.5307 36.3133 23.5107 35.624 23.1827 34.7147C22.424 32.624 21.644 30.8387 20.3147 29.2547C20.3787 29.2547 20.4373 29.2547 20.4973 29.24C21.2627 29.1693 21.8053 28.5853 21.6067 27.84C21.464 27.296 21.3 26.7693 21.1333 26.2387C20.8547 25.7867 20.588 25.2773 20.4693 24.6453C20.4107 24.408 20.2787 24.0307 20.1147 23.5613C19.524 22.324 18.8547 21.1067 17.988 20.0013C17.9333 19.9227 17.8707 19.896 17.808 19.8453C17.7547 19.68 17.696 19.488 17.6147 19.2613C16.4973 17.8787 15.1853 16.952 13.9413 17.4907L13.9427 17.4853C13.9133 17.4987 13.8813 17.524 13.8507 17.5373C13.728 17.5987 13.6053 17.6533 13.484 17.7453C13.3 17.8733 13.1187 18.0333 12.9507 18.2533C12.42 18.8613 11.9693 19.5053 11.5333 20.16C11.5253 20.1813 11.516 20.2027 11.5067 20.224C10.3667 21.976 9.48133 23.808 8.40666 25.568C8.23999 26.4387 8.19599 27.2227 8.30132 27.8787C8.39066 28.5107 8.91466 28.952 9.47866 29.0067C9.208 30.004 8.932 30.988 8.64133 31.9707C8.51333 32.3707 8.64133 32.7147 8.884 32.988C7.51733 35.9173 6.52399 38.9533 5.98932 42.192C5.85732 43.0373 6.58933 43.6813 7.35199 43.576C7.36399 43.7507 7.36933 43.9253 7.39066 44.1C6.89066 45.7027 6.568 47.3413 6.568 49.116C6.568 49.336 6.65466 49.5187 6.792 49.6987C4.51333 52.952 3.23199 56.668 3.29733 60.704C3.31466 61.304 3.95066 61.812 4.55466 61.828C4.16933 63.9933 3.98532 66.2907 4.83866 67.976C5.00532 68.308 5.224 68.5747 5.42 68.7933C3.86666 70.744 2.84133 72.9773 2.45866 75.58C2.328 76.4133 2.98933 77.1827 3.97866 76.944H4.03066C3.07866 79.2507 2.30533 81.5987 2.11466 84.148C2.09333 84.7093 2.56799 85.1093 3.10933 85.22C2.30533 86.6747 1.70133 88.2013 1.29466 89.9107C1.11999 90.62 1.67733 91.3107 2.45866 91.3107C2.696 91.3107 2.89733 91.3107 3.13066 91.3107C2.30533 93.0533 2.06533 94.732 1.85466 96.8227C1.80399 97.4 2.20533 97.7467 2.696 97.8413C2.52933 98.4 2.38399 98.968 2.20533 99.5667C2.09333 99.9307 2.21066 100.277 2.43733 100.531C2.328 101.224 2.39332 101.928 2.78666 102.931C2.95599 103.348 3.404 103.659 3.88533 103.711C3.95066 104.619 4.076 105.553 4.21866 106.495C4.39333 107.552 5.98933 107.513 6.476 106.753C6.568 106.587 6.69466 106.463 6.808 106.296C6.82266 106.369 6.82266 106.423 6.82266 106.479C6.86932 107.42 8.22266 108.113 8.96799 107.279C10.1667 105.917 10.732 112.827 14.4867 105.08C14.3267 106.923 14.7373 108.501 15.4587 109.56C14.9987 112.607 15.692 116.025 15.7627 118.987C15.8773 123.355 14.9707 127.34 14.664 131.593C14.588 132.484 15.7387 132.539 16.156 131.972C16.536 131.481 16.8253 130.907 17.06 130.308C17.1347 130.192 17.2053 130.105 17.2453 129.957C17.2813 129.868 17.2813 129.757 17.292 129.649C17.3773 129.409 17.444 129.173 17.4973 128.939C17.536 129.157 17.5707 129.392 17.6067 129.628C17.696 130.105 18.364 130.192 18.6827 129.883C18.7627 130.321 18.8547 130.792 18.9987 131.189C19.2467 131.939 20.3147 131.957 20.5547 131.156C20.8987 129.907 20.388 128.573 20.0373 127.319C19.5947 125.684 19.1533 124.048 19.2627 122.357C19.2773 122.196 19.188 122.103 19.0827 122.028C18.8987 118.324 18.464 114.58 18.5467 110.84C19.768 110.445 21.0293 109.083 21.9693 106.349C24.9427 108.88 24.26 109.463 28.136 110.899C29.0987 111.263 29.8253 110.207 29.6627 109.463C29.4093 108.388 29.1907 107.369 28.9027 106.369C29.8467 106.876 30.7973 107.385 31.7187 107.988C32.6133 108.588 33.6853 107.572 33.4613 106.717C33.0467 105.152 32.6973 103.621 32.1627 102.149C32.2133 102.165 32.2547 102.185 32.304 102.185C33.2547 102.641 34.2893 101.897 34.0267 100.913C33.7307 99.6773 33.4373 98.496 33.0267 97.3507C33.792 97.4587 34.596 96.6933 34.32 95.9653C33.7547 94.4387 33.228 92.9493 32.6307 91.4587C32.9173 91.584 33.172 91.6907 33.4867 91.804C34.336 92.1107 35.136 91.18 34.9147 90.4347Z" fill="black"/>
</svg>
