<svg xmlns="http://www.w3.org/2000/svg" width="82" height="134" viewBox="0 0 82 134" fill="none">
  <path d="M1.09597 94.816C0.551969 95.7093 1.2693 96.032 2.68797 95.976C5.68797 95.908 12.112 94.0027 16.172 92.2507C15.4173 93.012 9.95864 98.3333 3.63064 99.5587C-1.5107 100.557 2.2733 104.357 2.2733 104.357C3.49063 106.293 5.66264 106.805 7.71198 106.776C9.97598 106.768 12.104 106.083 12.6867 105.879C9.976 109.84 9.08399 113.459 11.3573 113.256C12.5013 113.227 14.5373 112.129 17.6706 109.435C16.1786 113.225 17.2586 115.603 19.1706 115.731C20.584 115.901 22.4866 114.784 24.1306 112.039C24.212 114.649 25.4373 116.391 27.1133 116.428C28.0906 116.501 29.232 115.976 30.3906 114.688C31.7093 116.684 32.852 117.348 33.8107 117.272C33.952 117.271 34.0893 117.257 34.2226 117.227C33.6346 121.143 32.8787 124.151 31.788 126.572C31.3573 125.307 30.6867 123.964 29.6227 122.779C29.6227 122.779 30.4107 125.816 30.732 128.549C30.6947 128.611 30.6586 128.676 30.62 128.737C30.1866 126.997 29.024 124.611 25.972 122.747C25.972 122.747 29.5813 125.659 29.1787 130.657C29.12 130.724 29.0667 130.795 29.0067 130.86C28.5307 129.969 26.6946 127.095 22.724 126.961C22.724 126.961 27.7213 129.359 26.9826 133.495C26.9826 133.495 31.4413 134.184 35.7626 132.8C38.072 132.332 40.2293 131.769 41.1387 131.536C43.888 130.832 56.7213 134.503 51.7293 131.631C47.1586 129 46.224 121.58 45.7533 112.517C48.7933 115.341 51.9546 116.779 53.8333 116.676C55.9013 116.64 56.524 114.861 53.984 111.185C55.9427 112.52 58.6373 114.528 60.472 114.585C61.6053 114.675 62.432 114.063 62.6013 112.177C65.4426 114.333 67.4347 115.459 68.4387 115.36C70.252 115.359 69.316 111.955 64.96 104.2C69.1507 107.207 72.704 108.065 75.3933 107.888C80.032 107.641 82.164 104.344 80.6666 103.62C76.3453 102.535 70.068 99.4973 66.384 94.492C68.24 96.2813 70.332 97.4173 71.568 97.4293C73.4893 97.5653 73.5853 95.2507 68.2667 88.956C71.528 92.148 74.5707 93.1827 76.88 93.1213C77.0613 93.12 77.2293 93.1 77.4013 93.0853C77.4453 93.0827 77.4906 93.08 77.5333 93.0747C79.8226 92.8347 81.276 91.5173 81.2827 90.3333C81.2413 90.3613 81.1933 90.388 81.148 90.4173C81.1853 89.764 80.8 89.148 79.8786 88.776C74.612 86.0693 70.1227 81.2067 66.732 76.58L66.8853 76.6187C64.9466 73.9733 63.3653 71.4067 62.2027 69.3573C64.6333 71.2973 66.5493 72.112 67.612 72.1547C68.9307 72.28 69.1053 71.348 67.5813 69.9453C63.772 66.6427 60.6667 60.0507 58.7653 55.22C59.5387 55.7733 60.1826 56.068 60.608 56.0333C61.8186 56.1067 61.5946 53.9933 58.2813 48.4253C60.7773 50.8613 62.9346 52.0267 64.0733 51.9253C65.3493 51.912 65.5213 50.504 63.7613 47.7187C59.108 41.1293 55.5933 34.1987 53.5773 29.8413C53.5827 29.4333 53.556 28.9213 53.5027 28.324C54.7227 29.876 55.976 31.144 56.3893 31.052C56.936 31.196 56.7413 30.116 54.968 26.78C57.5133 28.9187 59.6027 29.8533 60.3467 29.74C61.0827 29.7253 60.8973 28.972 59.2293 27.564C58.0493 26.6267 56.864 25.2773 55.7 23.6973C55.7386 23.8 55.7586 23.8867 55.78 23.9747C51.1293 17.7773 46.836 7.56932 44.984 2.85999C45.024 2.85199 45.064 2.83199 45.104 2.83733C44.4973 1.28933 44.1466 0.333328 44.1466 0.333328C44.1346 0.402662 44.1133 0.477333 44.0987 0.546666C44.0493 0.412 44.0213 0.333328 44.0213 0.333328C43.8906 0.990662 43.7293 1.68 43.548 2.38533C43.14 0.495997 43.0613 1.52133 43.1533 3.81866C40.408 13.2973 33.9653 25.6813 30.5626 28.608C28.3853 30.4773 28.892 31.488 30.4093 31.384C31.5187 31.3573 33.24 30.6773 34.844 29.2387C34.0253 31.1987 33.6933 32.4893 33.7547 33.028C31.1893 39.9053 27.2453 48.2 24.592 50.144C22.9147 51.3747 22.8613 52.2453 23.864 52.2787C23.9027 52.2827 23.9547 52.2747 23.996 52.276C24.0573 52.2733 24.108 52.2813 24.1773 52.2733C25.036 52.2213 26.4973 51.6547 28.328 50.3613C27.2587 54.064 24.3133 62.4427 18.4426 67.376C14.5866 70.6067 15.7533 71.9173 18.2506 71.7973C18.548 71.7893 18.8626 71.7587 19.1946 71.7093C17.4426 76.04 13.084 83.6013 3.46133 85.9453C0.162659 86.8573 2.04398 89.9173 6.36798 89.648C7.26132 89.6067 8.26532 89.4107 9.35065 89.032C7.95998 89.6907 2.59864 92.3427 1.09597 94.816Z" fill="black"/>
</svg>