<svg width="126" height="135" viewBox="0 0 126 135" fill="none" xmlns="http://www.w3.org/2000/svg">
<path d="M101.829 72.4667C101.447 72.6293 101.057 72.7533 100.664 72.8587C100.628 72.868 100.591 72.88 100.555 72.8893C100.157 72.992 99.7574 73.0773 99.36 73.152C99.36 73.152 99.3587 73.1533 99.3574 73.1533C99.2307 73.1787 99.1027 73.2027 98.976 73.2267C99.1227 73.0213 99.256 72.808 99.3987 72.5973C100.193 72.7187 101.005 72.632 101.687 72.1693C102.157 71.8507 101.719 71.768 101.252 71.7533C101.336 71.708 101.421 71.6707 101.501 71.6173C102.312 71.0667 100.428 71.2133 100.353 71.204C100.337 71.2027 100.323 71.196 100.307 71.1933C100.339 71.1453 100.367 71.0947 100.397 71.0453C102.061 71.1267 103.72 70.808 105.307 70.2947C104.193 71.2093 102.993 71.9747 101.829 72.4667ZM58.584 90.912C58.616 90.4587 58.66 90.064 58.6653 90.0267C58.8187 88.9413 58.952 87.7107 58.7173 86.6187C58.2067 84.216 56.9373 81.836 56.0533 79.536C55.392 77.816 54.652 75.9773 54.3854 74.1413C54.208 72.9507 54.2453 71.6613 53.924 70.5027C53.5227 69.0413 52.9133 67.66 52.5507 66.1867C52.5107 66.0053 52.4787 65.8227 52.4547 65.6413C52.3894 65.4787 52.32 65.3227 52.2547 65.16C51.6067 63.58 51.5027 61.9533 51.556 60.268C51.6614 60.1707 51.768 60.0747 51.86 59.968C52.4 59.3267 52.4254 58.0787 53.3054 58.1613C54.64 58.2867 55.928 58.0693 57.18 57.7133C57.7173 60.64 58.6814 63.4373 59.5227 66.264C59.8414 66.924 60.144 67.5947 60.412 68.2813C60.7227 69.0893 61.212 70.3053 60.976 71.204C60.9853 71.208 60.9934 71.2107 61.0014 71.22C60.8347 73.3813 60.6547 75.5987 60.812 77.7467C60.9147 79.1133 61.128 80.4547 61.4027 81.8C61.5947 82.7493 61.1974 83.9 61.2654 84.884C61.344 85.9867 61.1667 87.0347 60.9387 88.072C60.236 89.3053 59.3867 90.4493 58.556 91.6373C58.556 91.4067 58.572 91.1493 58.5853 90.9067C58.5853 90.908 58.584 90.9093 58.584 90.912ZM83.2987 83.8893C82.996 83.9387 82.68 83.9853 82.368 84.0347C82.4387 83.9307 82.516 83.82 82.5894 83.712C82.5854 83.716 82.584 83.7187 82.5814 83.7227C83.1507 82.9107 83.6894 82.0773 84.1374 81.196C85.0294 79.432 85.612 77.48 86.1827 75.552C86.2067 75.5027 86.2347 75.4573 86.2587 75.4093C87.2507 73.4613 88.2814 71.5173 89.3787 69.62C89.3747 69.7453 89.384 69.872 89.4174 70.0027C89.444 70.1213 89.5 70.2067 89.5694 70.2787C89.5734 70.3693 89.58 70.4627 89.6027 70.556C89.756 71.244 90.7107 71.0587 91.432 70.8347C91.2974 71.4293 91.2174 72.164 91.5 72.4973C91.5187 72.76 91.5814 72.988 91.732 73.1173C91.7854 73.1627 92.5067 73.3227 92.5347 73.3267C93.1174 73.392 93.76 72.3027 94.0094 71.9573C94.328 72.44 94.728 72.8773 95.192 73.2507C93.5107 75.0467 91.7947 76.82 90.1734 78.66C89.212 79.7493 88.2693 80.9413 87.2373 82.0227C86.0147 82.88 84.7187 83.632 83.2987 83.8893ZM76.544 78.8653C76.752 76.4533 76.7187 73.8707 76.992 71.3653C77.028 71.1573 77.0654 70.952 77.0987 70.7387C77.22 69.9373 77.3254 69.196 77.48 68.4827C77.7667 67.3227 78.172 66.192 78.7667 65.1413C78.7894 65.1053 78.8 65.0587 78.804 65.0107C78.8414 64.948 78.8774 64.8787 78.92 64.8133C79.3934 64.08 79.9254 63.3267 80.4267 62.5533C81.3334 63.4453 82.648 64.1 83.9013 64.5453C83.8947 64.5733 83.8907 64.6 83.8854 64.628C83.7534 64.7107 83.7067 64.792 83.8427 64.852C83.7774 65.1987 83.6933 65.552 83.6427 65.8947C83.4 67.6053 83.5174 69.3347 83.2054 71.0373C82.904 72.656 82.4027 74.2507 81.7893 75.772C80.5067 78.9787 78.8307 81.9893 76.596 84.6293C76.2334 85.0587 75.8227 85.4933 75.3934 85.9307C75.48 85.612 75.556 85.2933 75.6307 84.9733C75.62 85.0013 75.6067 85.0293 75.596 85.0587C76.0707 83.0253 76.3587 80.9653 76.544 78.8653ZM43.144 88.3253C41.2574 87.0267 39.2387 86.0013 37.0774 85.396C36.9454 85.068 36.808 84.736 36.692 84.4C36.4374 83.6547 36.1987 82.8987 35.9907 82.1413C35.3107 79.7227 35.028 77.288 34.632 74.8133C34.34 72.9907 33.8947 71.0307 33.1787 69.2253C33.2894 69.0147 33.4133 68.808 33.5107 68.592C33.7907 67.9707 33.876 68.1653 34.544 68.012C33.6427 68.7467 34.6987 68.4547 35.252 68.2173C35.4907 68.5053 35.7427 68.784 35.9613 69.0867C37.9067 71.776 38.0947 74.9947 39.5587 77.8987C40.8294 80.416 42.0027 83.004 43.4587 85.42C45.008 87.9947 46.8294 90.3293 49.072 92.344C49.4027 92.6373 49.784 92.9413 50.1907 93.2493C49.136 92.768 48.0534 92.32 47.1067 91.652C45.7067 90.6533 44.5734 89.312 43.144 88.3253ZM32.4134 83.4307C31.0907 82.0867 30.1014 80.4867 28.9107 79.052C28.9107 79.036 28.9067 79.0173 28.9 79C28.3334 77.42 27.9227 75.8493 27.504 74.2413C29 73.8907 30.3147 72.9947 31.2974 71.952C31.6987 71.524 32.0454 71.0573 32.3707 70.58C33.6454 74.1093 33.3787 77.8787 34.204 81.5053C34.3147 81.9987 34.628 83.5293 35.12 84.9733C34.8293 84.9307 34.528 84.8933 34.22 84.8667C33.5747 84.4427 32.9547 83.9787 32.4134 83.4307ZM60.6067 58.544C60.3827 59.168 60.164 59.8667 60.3813 60.152C60.4133 60.192 60.4507 60.2187 60.488 60.2427C60.472 60.4347 60.4867 60.6 60.5667 60.704C60.8694 61.0987 61.4734 60.68 62.0574 60.08C62.2814 60.9733 62.3507 61.8653 62.1934 62.892C62.1534 63.144 62.1054 63.3933 62.0627 63.6453C62.064 63.6413 62.0653 63.636 62.068 63.6307C61.8693 64.8147 61.6547 65.9933 61.4667 67.172C60.9987 64.5933 59.86 62.1573 59.2014 59.548C59.7067 59.2347 60.2267 58.8507 60.6067 58.544ZM52.82 78.0373C53.356 79.452 54.1934 80.7453 54.6694 82.1693C55.28 83.9787 55.236 85.8653 55.4494 87.724C54.9654 88.656 54.7934 89.7747 54.632 90.8627C54.528 90.9213 54.4187 90.948 54.3054 90.948C54.24 90.9467 54.1667 90.9133 54.096 90.8893C54.0254 90.8667 53.9587 90.864 53.8813 90.8147C52.6413 90.0413 51.596 89.0547 50.52 88.072C47.84 85.5973 45.528 83.168 43.928 79.848C44.1827 77.14 44.036 74.3853 44.576 71.692C45.148 68.8507 45.628 65.8467 45.9013 62.956C46.3093 62.5413 46.596 62.044 46.772 61.52C47.42 61.7227 48.088 61.7467 48.7414 61.6413C48.9067 62.3227 49.056 63.0187 49.2454 63.6893C49.4574 64.2547 49.6773 64.82 49.904 65.38C50.092 65.8387 50.2534 66.264 50.3707 66.692C50.4267 66.7227 50.484 66.7467 50.5467 66.7587C51.3054 69.1307 51.8414 71.444 52.116 74.0147C52.2614 75.3547 52.3414 76.7667 52.82 78.0373ZM76.4587 64.9747C76.4547 64.9867 76.4507 65 76.448 65.012C76.2894 65.3253 76.156 65.6413 76.048 65.964C76.14 64.636 76.2907 63.3133 76.5133 62.004C76.6427 61.2347 76.6774 60.4133 76.696 59.5827C76.7867 59.5827 76.876 59.58 76.9694 59.576C76.8387 60.264 76.728 61.3253 77.028 61.6827C77.0654 62.1213 77.204 62.4347 77.5427 62.36C77.8627 62.2907 78.144 62.164 78.4147 62.016C77.716 62.96 77.0134 63.9067 76.4827 64.9267C76.4734 64.944 76.4667 64.9627 76.4587 64.9747ZM49.692 62.264C49.6467 61.98 49.6347 61.696 49.6294 61.4133C49.6627 61.4013 49.6974 61.396 49.7307 61.3827C49.768 61.368 49.8054 61.348 49.8427 61.3333C49.8134 61.4813 49.7787 61.6307 49.7547 61.7787C49.7573 61.796 49.7614 61.812 49.7627 61.8293C49.7414 61.9747 49.708 62.12 49.692 62.264ZM74.5774 61.2627C74.5747 61.2547 74.5747 61.2467 74.5654 61.2387C74.3334 60.5253 74.288 59.7413 74.308 58.9453C74.3214 58.9533 74.336 58.9613 74.3493 58.9693C74.3507 59.0093 74.3547 59.048 74.356 59.0867C74.3654 59.4067 74.3894 59.728 74.4334 60.052C74.4654 60.292 74.492 60.5347 74.5174 60.7813C74.5174 60.7787 74.5187 60.776 74.52 60.7747C74.5374 60.9373 74.56 61.0987 74.5774 61.2627ZM43.872 63.1827C43.8414 63.2787 43.8054 63.3747 43.776 63.472V63.476C43.7507 63.404 43.7134 63.332 43.6854 63.26C43.7494 63.236 43.8094 63.208 43.872 63.1827ZM63.4827 58.2587C63.5854 58.356 63.804 58.432 64.0667 58.484C63.9547 58.7173 63.84 58.9493 63.744 59.1933C63.7227 59.124 63.6934 59.0533 63.668 58.9813C63.668 58.984 63.668 58.9867 63.668 58.9893C63.5907 58.7787 63.5147 58.5653 63.4294 58.3467C63.452 58.312 63.472 58.28 63.4827 58.2587ZM64.932 56.9493C64.7934 56.7587 64.6747 56.556 64.5707 56.3453C64.7693 56.444 64.9667 56.5307 65.164 56.616C65.0854 56.7267 65.0054 56.8387 64.932 56.9493ZM65.288 81.052C65.3974 78.336 66.1454 75.3507 65.4534 72.664C65.0734 71.204 64.4974 69.776 64.6707 68.2387C64.7027 67.9493 64.7347 67.66 64.7667 67.3787C64.8334 67.1293 64.8907 66.8787 64.9467 66.628C65.3694 64.688 65.0107 62.02 65.4094 59.804C66.064 58.924 66.808 58.1013 67.4813 57.244C68.7813 57.4013 70.104 57.2467 71.516 56.7867C72.2787 56.5373 72.0694 56.8533 72.464 57.3747C72.6134 57.5733 72.7894 57.7533 72.968 57.9307C72.764 58.9173 72.5893 59.956 72.9387 60.912C73.2827 61.8533 73.8227 62.692 74.3387 63.5507C74.3214 67.0147 73.304 70.4627 73.232 73.9507C73.1667 77.288 73.2694 80.696 71.7427 83.7507C70.3587 86.504 68.616 89.2467 66.6427 91.6067C66.3347 91.9733 65.9934 92.3467 65.6494 92.72C65.7454 91.54 66.036 90.2347 66.0974 89.6307C66.432 86.7413 65.1787 83.9387 65.288 81.052ZM39.572 67.5493C39.572 67.5453 39.572 67.5427 39.572 67.54C39.5574 67.4787 39.5467 67.4173 39.5333 67.3547C39.9653 66.8493 40.2693 66.2507 40.4733 65.6507C40.6253 65.8413 42.476 67.152 42.0374 66.2827C41.9867 66.1827 41.9374 66.08 41.888 65.9787C41.92 65.9387 41.9254 65.8707 41.8547 65.7293C41.6027 65.2307 41.352 64.72 41.152 64.196C41.096 63.9973 41.0467 63.7987 41.0187 63.5933C41.6147 63.6747 42.2107 63.64 42.788 63.5213C42.8467 63.7067 42.9094 63.892 42.932 64.0867C43.0534 65.128 42.9627 66.0867 43.1307 67.1093C43.012 68.7333 43.0453 70.3827 42.9907 71.9973C42.964 72.8093 42.904 73.6293 42.8427 74.448C42.7507 75.64 42.6534 76.836 42.6267 78.0293C41.2774 74.6347 40.3547 71.1187 39.572 67.5493ZM86.0454 67.516C86.1067 66.8947 86.156 66.2853 86.2054 65.68C86.4734 65.696 86.7414 65.7253 87.0107 65.716C87.776 65.692 87.8174 66.268 88.192 66.7987C87.1974 68.1973 86.236 69.6 85.3987 71.1173C85.6987 69.9067 85.936 68.6933 86.0454 67.516ZM1.73336 69.4013C1.75202 70.6413 2.29735 69.4773 2.43068 68.956C2.62002 68.2253 3.10269 67.7213 3.81335 67.3907C3.74802 68.22 3.88003 69.0213 4.17336 69.7747C4.60403 71.3333 5.70002 72.7213 7.14935 73.7507C8.35869 74.6093 9.72135 75.3973 11.224 75.776C11.7507 75.9093 11.8213 75.66 12.1107 75.712C12.4347 75.772 12.112 75.46 11.76 75.1653C11.8107 75.1547 11.8614 75.148 11.9267 75.16C12.172 75.2053 12.04 75.0333 11.812 74.8213C13.0133 75.0467 14.2787 75.0067 15.4654 74.7413C15.28 75.2253 15.124 75.8027 15.3974 75.8853C15.416 75.8907 15.4467 75.8813 15.4667 75.8853C15.4094 76.1613 15.4173 76.388 15.5827 76.4373C15.684 76.468 15.8174 76.4613 15.9667 76.432C15.636 76.7867 15.404 77.1227 15.628 77.224C15.7107 77.2613 15.7974 77.2827 15.8827 77.308C15.7267 77.5267 15.6587 77.708 15.8107 77.7773C16.6107 78.1373 17.4867 77.96 18.296 77.664C18.2307 77.716 18.18 77.7827 18.1094 77.8293C18.0827 77.8467 16.872 78.3627 17.384 78.448C17.6453 78.4907 17.928 78.4693 18.2147 78.42C17.9533 78.54 17.1293 78.9267 17.568 79.0013C18.9373 79.228 20.78 78.0147 21.6827 77.1933C21.9347 77.6933 22.2427 78.176 22.6107 78.6133C22.956 79.0227 23.1627 78.7227 23.3214 78.8347C24.0027 79.7147 23.9947 77.8227 24.064 77.576C24.156 77.2493 24.2787 76.9267 24.4187 76.612C24.62 76.8253 24.8094 77.048 25.0254 77.2493C26.148 78.2973 27.5027 79.1493 28.3 80.5C28.8747 81.4733 29.492 82.4627 30.2134 83.3307C31.58 84.984 33.0053 85.8027 34.74 86.6813C34.9853 86.796 35.232 86.916 35.4747 87.02C36.5174 87.4747 37.6214 87.7507 38.5934 88.3307C39.8707 88.796 41.164 89.28 42.2214 89.9907C42.4707 90.172 42.704 90.3533 42.936 90.5427C43.0333 90.6293 43.1334 90.716 43.2294 90.812C45.1574 92.7827 46.9574 95.004 49.3574 96.436C50.176 96.9227 50.9574 97.388 51.6854 97.952C52.732 100.181 53.632 102.336 53.7974 104.935C54.0147 108.241 53.744 111.561 53.9174 114.873C54.0587 117.596 54.0174 120.293 53.644 122.976C52.136 126.72 50.0587 130.299 47.0747 132.667H49.6294H50.88H52.1453H52.216H52.292H53.0533H53.364H54.0494H54.6787H54.6854H55.4467H55.5H55.8H56.6627H56.9174H57.0387H60.5987H60.9107H61.0947H61.124H63.7893H64.328H64.3854H64.416H64.844H64.9867H65.1453H65.3614H66.7454C66.0134 131.816 65.4547 130.795 65.1787 129.52C64.8534 128.027 64.6387 126.5 64.432 124.965C64.4107 124.047 64.3307 123.121 64.1534 122.191C63.3774 118.176 62.9027 114.265 63.376 110.165C63.8774 105.761 65.24 101.908 68.1734 98.5387C70.668 95.68 73.4427 93.8373 76.736 92.0267C80.0254 90.204 83.172 88.4253 86.1934 86.164C89.3707 83.7747 92.32 80.7507 95.092 77.8987C96.028 76.94 96.9027 75.9387 97.732 74.8987C99.808 74.3413 101.995 74.1187 103.828 72.7467C105.221 71.7 106.555 70.6427 107.664 69.4C107.743 69.3667 107.821 69.336 107.899 69.3027C110.02 68.3693 111.765 67.2453 112.879 65.4787C112.773 65.7973 112.648 66.1093 112.48 66.408C112.411 66.6133 112.485 66.756 112.708 66.8373C112.713 66.8387 112.719 66.836 112.724 66.8373C112.703 66.8773 112.688 66.92 112.665 66.96C112.593 67.1667 112.671 67.3093 112.892 67.3907C113.268 67.4747 113.669 66.7213 113.803 66.5227C114.636 66.0613 115.155 65.372 115.521 64.6093C115.432 65.2213 115.409 65.764 115.619 65.8733C115.623 65.8747 115.636 65.8693 115.639 65.8707C115.639 66.1547 115.681 66.3627 115.804 66.4267C115.964 66.512 116.899 66.0267 117.044 65.9573C117.688 65.644 118.219 65.1733 118.648 64.6493C118.823 65.392 119.533 65.1267 120.109 64.6413C120.828 64.0387 121.181 63.1613 121.444 62.3387C121.623 61.7813 121.475 61.7173 122.119 61.4787C122.748 61.2453 123.348 60.9373 123.869 60.5467C124.647 59.9653 125.293 59.1133 125.068 58.1693C125.056 58.1213 125.029 58.1053 125 58.1C124.975 57.9973 124.941 57.8573 124.884 57.616C124.869 57.5573 124.948 57.888 124.999 58.1C124.975 58.096 124.948 58.1013 124.917 58.116C124.928 57.952 124.924 57.7867 124.884 57.616C124.815 57.3267 124.304 57.9507 124.3 57.9587C124.176 58.24 123.865 58.4013 123.533 58.5133C123.961 57.68 124.063 56.6973 123.703 55.8427C123.86 55.2413 123.737 55.2107 123.539 55.3707C123.528 55.344 123.531 55.3147 123.52 55.288C123.756 54.3693 123.361 54.7533 123.012 55.1773C123.127 54.1987 122.977 53.2027 122.604 52.256C121.727 49.32 118.76 46.752 115.347 46.6187C115.412 45.664 115.289 44.676 114.923 43.7747C114.683 42.9533 114.261 42.192 113.631 41.5653C114.432 41.8333 115.441 42.1373 115.511 41.724C115.532 41.588 115.423 41.424 115.259 41.2533C115.281 41.2267 115.319 41.2107 115.325 41.1707C115.397 40.744 114.333 40.0667 113.421 39.6107C114.087 39.5853 114.843 39.564 114.961 39.3227C115.071 39.0973 114.951 38.9347 114.727 38.8107C114.741 38.7973 114.767 38.788 114.775 38.7707C115.109 38.0907 113.451 37.9387 112.657 37.9333C112.88 36.9733 112.696 35.9773 112.397 35.0347C112.349 34.884 112.305 34.7787 112.261 34.6627C112.244 34.604 112.232 34.5413 112.212 34.4827C111.697 32.864 111.449 33.396 110.751 34.2373C110.823 33.1293 110.64 31.9973 110.243 30.9307C109.528 28.5213 107.717 26.364 105.133 25.4747C105.797 25.4627 106.464 25.5147 107.095 25.6587C107.401 25.7307 107.929 26.0493 108.256 25.9747C108.755 25.864 108.563 25.5213 108.332 25.28C108.505 25.0533 108.125 24.6773 107.929 24.532C106.164 23.2227 103.356 22.2987 101.016 22.1707C101.109 21.8573 101.192 21.5413 101.239 21.22C101.261 21.0573 101.129 20.992 100.985 20.9907C101.008 20.8827 101.037 20.776 101.053 20.668C101.095 20.3827 100.659 20.3693 100.521 20.54C100.343 20.78 98.992 21.072 98.232 21.308C98.5654 20.02 98.4827 18.3413 97.932 16.884C97.5094 15.4213 96.6507 14.1093 95.304 13.5053C96.3294 13.3427 97.568 13.1653 96.788 12.4693C96.92 12.316 96.8734 12.112 96.504 11.8267C95.3614 10.9427 93.6547 10.8987 92.2467 11.184C91.4774 11.3387 91.2507 10.3427 90.6787 9.84666C90.1427 9.38266 89.4107 9.27733 88.728 9.08933C88.6494 9.06933 87.1227 8.44933 87.5574 9.13066C87.6214 9.23066 87.7027 9.30533 87.784 9.37999C87.664 9.40666 87.6174 9.48666 87.7427 9.684C87.7867 9.752 87.8467 9.80133 87.9 9.85866C86.868 9.72666 85.8574 9.85733 84.7974 9.67866C84.4414 9.61866 84.1094 9.98799 84.3414 10.268C84.3867 10.3227 84.4507 10.372 84.5254 10.4187C84.4387 10.536 84.416 10.688 84.5254 10.82C84.5814 10.888 84.668 10.9467 84.7667 11.004C83.6187 11.0093 82.48 11.2853 81.4507 11.752C81.4014 10.9867 81.2453 10.2093 80.9787 9.44266C80.344 7.15066 78.7574 4.98533 76.32 4.06399C77.3587 3.81199 78.9453 3.49466 78.4933 2.99333C78.4387 2.93199 78.348 2.87999 78.2454 2.83066C78.392 2.71333 78.4387 2.58399 78.3067 2.43999C77.972 2.06533 76.5653 1.93599 76.0533 1.86533C75.3813 1.77066 74.696 1.80799 74.028 1.91866C74.6027 1.14266 75.436 0.0706602 74.7773 -0.0893398C74.9347 -0.516006 74.8014 -0.784006 73.972 -0.616006C72.36 -0.288006 70.9734 0.56666 70.0587 1.78799C69.216 1.09199 68.1267 0.642661 66.972 0.581327C66.7507 0.569327 65.8347 0.563993 66.1627 1.05199C66.2067 1.11999 66.3027 1.17866 66.4094 1.23466C66.2787 1.30533 66.2213 1.41733 66.3467 1.60533C66.3547 1.61733 66.3773 1.62533 66.3867 1.63599C63.3947 1.45733 60.0254 2.83066 58.7107 5.24933C56.3094 2.46933 50.832 2.26799 47.8414 4.44133C47.9987 4.05733 48.032 3.75733 47.6934 3.81066C47.8734 3.33066 47.828 3.01333 47.0054 3.45199C45.7494 4.12133 44.8293 5.00933 44.3267 6.22666C44.2773 5.85333 44.256 5.47599 44.312 5.10799C44.3227 5.03066 44.3827 4.41733 44.1387 4.43599C44.156 4.17733 44.148 3.62933 43.748 3.99066C42.7187 4.92266 42.2307 6.48933 41.9467 7.73733C41.156 7.30266 40.2387 7.10799 39.3134 7.09466C38.7507 7.08666 38.188 7.14133 37.636 7.23333C37.328 7.28399 37.4547 7.65333 37.7027 7.67066C37.8893 7.68399 38.092 7.70133 38.3 7.72533C38.14 7.74533 37.9787 7.75999 37.82 7.78666C37.5134 7.83733 37.6387 8.20533 37.8867 8.22266C38.9 8.29466 40.3267 8.47733 41.052 9.212C37.7707 7.78 32.8547 7.812 29.6534 9.61866C29.8334 9.39333 30.016 9.17066 30.2067 8.95733C30.624 8.492 30.4747 8.21733 29.9587 8.48C29.98 8.456 30 8.42799 30.0227 8.40399C30.4827 7.89199 30.28 7.572 29.62 7.99866C28.2067 8.91466 26.8347 9.92533 26.6174 11.5547C26.164 11.2747 23.976 10.072 23.4267 10.508C23.1747 10.7067 23.5574 10.8573 23.7227 11.0253C23.688 11.0387 23.6387 11.0387 23.612 11.0613C23.396 11.232 23.6453 11.3653 23.8267 11.5067C23.8587 11.7347 23.9187 11.9573 24.0227 12.1707C24.0987 12.5573 24.284 12.9267 24.5227 13.264C22.112 14.2333 20.28 15.912 19.672 18.2507C19.5267 18.0627 19.4147 17.8587 19.32 17.6507C19.2734 17.4387 19.2453 17.224 19.2547 17.004C19.268 16.7347 19.708 15.8587 19.26 15.7053C19.3147 15.4213 19.2947 15.164 19.0107 15.1253C17.7973 14.96 17.912 18.0253 18.0574 18.5347C16.7187 18.1613 15.228 18.1813 13.8854 18.5307C13.596 18.6067 12.5894 18.7653 12.816 19.22C12.8667 19.3227 12.9854 19.3747 13.1347 19.4C12.9974 19.4947 12.9214 19.616 13.0014 19.7747C13.0534 19.8787 13.1747 19.9307 13.328 19.956C12.632 20.4533 12.016 21.104 11.588 21.64C11.216 22.1093 11.2227 22.448 11.6894 22.3267C11.3694 22.8053 11.4467 23.128 12.1373 22.8C12.64 22.5587 13.2787 22.4333 13.88 22.4773C12.5187 23.6093 11.6747 25.308 11.292 26.8827C11.1773 27.348 11.104 27.8213 11.068 28.2973C11.004 29.084 10.452 28.936 9.69468 29.232C8.69468 29.6227 7.7827 30.184 7.0187 30.8773C4.6827 33.0013 3.73735 36.56 4.86401 39.4187C5.01868 39.9427 5.24003 40.4467 5.52669 40.9213C4.94403 40.524 4.43469 40.0507 4.04403 39.4933C3.79469 39.136 3.57736 38.7587 3.3747 38.3747C3.27336 38.1813 2.93735 38.328 3.00002 38.516C3.06002 38.6973 3.1227 38.88 3.18536 39.0627C3.18536 39.0653 3.18269 39.0667 3.18402 39.0693C3.67335 40.556 4.22402 42.072 5.47469 43.1613C4.50802 43.3307 3.55469 43.5853 2.65202 43.9347C2.37602 44.04 2.50668 44.4787 2.80668 44.444C2.87735 44.436 2.94935 44.4347 3.02002 44.428C2.96002 44.4507 2.89602 44.4653 2.83602 44.488C2.56002 44.5933 2.69069 45.032 2.99203 44.9973C2.99736 44.9973 3.00269 44.9973 3.00936 44.996C1.66803 45.924 0.945353 47.2867 0.465353 48.816C0.381353 49.0813 -0.347982 51.0027 0.0973515 50.9973C0.118685 50.9973 0.150682 50.972 0.177348 50.9573C0.114682 51.296 0.120028 51.5533 0.282695 51.5507C0.466695 51.548 0.926688 50.948 1.35069 50.3973C1.02402 51.8253 1.27735 53.336 1.76668 54.7347C1.77602 54.7587 1.7907 54.784 1.80003 54.808C1.84936 54.9693 1.89602 55.1307 1.95068 55.288C2.20802 56.0187 2.81068 56.816 2.96802 57.4787C3.13868 58.204 3.50401 56.832 3.48134 57.0053C3.55734 56.3987 3.53336 55.7933 3.73602 55.204C3.76802 55.3013 3.81202 55.392 3.85069 55.4853C4.22669 56.908 5.34135 58.1347 6.64935 59.0253C5.89069 59.144 5.12802 59.3493 4.50269 59.7347C4.28002 59.8707 2.46268 61.196 2.60268 61.34C2.67735 61.416 3.07336 61.308 3.50936 61.1613C3.08403 61.5013 2.72136 61.8253 2.78803 61.8933C2.90536 62.012 3.79868 61.6867 4.42401 61.4573C3.52534 61.9333 2.72802 62.5773 2.03469 63.3787C1.85736 63.584 0.514695 65.216 0.857361 65.46C0.873361 65.472 1.01603 65.4013 1.22536 65.288C1.02536 65.6267 0.912029 65.92 1.04136 66.012C1.0827 66.0413 1.87069 65.58 2.56403 65.196C1.89069 66.2987 1.54269 67.6067 1.54669 68.8027C1.54803 69.3013 1.62802 69.4453 1.73336 69.4013Z" fill="black"/>
</svg>
