<svg width="110" height="134" viewBox="0 0 110 134" fill="none" xmlns="http://www.w3.org/2000/svg">
<path d="M85.1854 71.3747C85.204 71.168 85.2121 70.9573 85.2267 70.7453C85.6094 70.7693 85.9641 70.6053 86.2827 70.352C86.3641 70.4747 86.4721 70.5787 86.6001 70.6653C86.3907 70.9947 86.1694 71.3067 85.9281 71.604C85.5694 71.5613 85.3174 71.4907 85.1854 71.3747ZM76.2587 70.46C76.156 70.42 76.0627 70.3587 75.9814 70.288C75.9934 70.2547 76.0067 70.224 76.0174 70.192C76.204 70.1853 76.38 70.1387 76.536 70.0827C76.5974 70.1987 76.6734 70.2947 76.756 70.3773C76.608 70.4773 76.4187 70.5307 76.2587 70.46ZM72.3867 74.5267C72.3867 74.5733 72.3814 74.6133 72.3694 74.6693C72.3614 74.8987 72.316 75.1227 72.2414 75.3547C72.144 75.6373 71.7454 76.0493 71.4107 75.868C71.1867 75.7467 71.0387 75.6147 70.9454 75.4093C71.0907 75.1747 71.22 74.924 71.3134 74.6547C71.5147 74.6547 71.7361 74.6013 71.9854 74.4947C72.1334 74.428 72.2561 74.3467 72.3761 74.26C72.3854 74.3013 72.404 74.3333 72.404 74.3813C72.404 74.4293 72.3867 74.476 72.3867 74.5267ZM46.172 80.992C46.264 81.0987 46.3561 81.2107 46.4681 81.276C46.4681 81.276 46.468 81.276 46.4694 81.2773C46.4747 81.34 46.4774 81.4053 46.4854 81.4693C46.3787 81.312 46.2774 81.1493 46.172 80.992ZM44.2534 77.8333C44.164 77.6547 44.088 77.46 44 77.276C44.0454 77.2733 44.0947 77.28 44.1387 77.2747C44.2614 77.8973 44.5494 78.4907 45.1067 78.736C45.2307 78.792 45.352 78.8053 45.4667 78.8053V78.916C45.48 79.4333 45.6294 80.048 45.8761 80.544C45.3041 79.6787 44.7427 78.7973 44.2534 77.8333ZM37.872 74.096C37.7867 74.056 37.7147 73.844 37.6987 73.3507C37.7507 73.2493 37.7867 73.1347 37.8187 73.008C37.8401 73.008 37.872 73.0107 37.888 73.008C37.9414 73.0987 38.0107 73.18 38.0734 73.2627C37.9934 73.536 37.9254 73.812 37.872 74.096ZM26.8427 74.564C26.12 74.564 26.5787 73.42 27.184 73.42C27.9174 73.42 27.4467 74.564 26.8427 74.564ZM24.992 70.492C24.8627 70.2653 24.7854 69.98 24.8787 69.716C24.8854 69.7013 24.8974 69.6827 24.9067 69.6667C25.0387 70.0107 25.244 70.312 25.5787 70.46C25.6414 70.4893 25.708 70.4893 25.7734 70.496C25.528 70.7107 25.172 70.816 24.992 70.492ZM16.2054 61.6133C16.196 61.6067 16.1947 61.5973 16.1867 61.5907C16.2001 61.6 16.2134 61.6107 16.228 61.62C16.2214 61.6147 16.212 61.6187 16.2054 61.6133ZM15.6974 60.3453C15.7454 60.4027 15.7814 60.472 15.848 60.5053C15.804 60.5893 15.7787 60.676 15.764 60.7627C15.7427 60.6267 15.7187 60.4867 15.6974 60.3453ZM13.8414 56.3587C13.8001 56.308 13.7547 56.2627 13.7027 56.2133C13.5187 56.0293 13.5547 55.7627 13.6867 55.5427C13.8174 55.9093 14.04 56.2147 14.3627 56.4053C14.188 56.4973 13.9934 56.512 13.8414 56.3587ZM8.44804 53.704C8.36804 53.984 8.3027 54.264 8.25736 54.5467C8.2507 54.5147 8.2427 54.48 8.22937 54.4613C8.05203 54.2147 8.2067 53.9 8.44804 53.704ZM25.9027 15.8587C25.8974 15.868 25.8894 15.88 25.8827 15.888C25.7627 15.692 25.6307 15.5187 25.4894 15.364C25.5227 15.384 25.556 15.3907 25.5867 15.4187C25.7174 15.536 25.8094 15.6973 25.9027 15.8587ZM106.599 40.716C106.419 40.9733 106.217 41.068 105.989 41.0867C106.051 40.8693 106.093 40.636 106.101 40.3747C106.272 40.4107 106.455 40.4333 106.675 40.4453C106.661 40.54 106.652 40.6373 106.599 40.716ZM94.9427 53.012C94.948 52.9547 94.952 52.8973 94.9574 52.8387C95.1067 52.704 95.2507 52.556 95.388 52.3907C95.4814 52.3667 95.5747 52.336 95.664 52.2947C95.7307 52.556 95.8347 52.7907 96.0134 52.972C95.9174 53.0987 95.8307 53.236 95.728 53.3587C95.4467 53.328 95.2454 53.264 95.0867 53.1853C95.036 53.1293 94.9947 53.0653 94.9427 53.012ZM35.0574 12.944C35.0467 12.9787 35.0134 13.0053 35.0134 13.0413C34.9294 13.2987 34.9174 13.5053 34.9347 13.692C34.616 13.7387 34.3027 13.7613 33.9867 13.772C33.96 13.76 33.9427 13.7427 33.9134 13.7307C33.584 13.6 33.256 13.5933 32.9374 13.656C32.8147 13.5453 32.8774 13.3867 33.028 13.232C33.6667 13.0213 34.3747 12.96 35.0574 12.944ZM42.492 4.58666C42.5174 4.61333 42.5347 4.64133 42.5614 4.66666C42.46 4.75333 42.3854 4.84933 42.3241 4.948C42.1974 4.904 42.0734 4.87866 41.9467 4.864C41.9894 4.76933 42.084 4.69733 42.2014 4.632C42.292 4.61466 42.3854 4.59733 42.492 4.58666ZM64.4547 1.004C64.656 1.188 64.532 1.67333 64.3627 2.128C64.2814 2.10266 64.1947 2.084 64.096 2.07866C63.9294 2.07066 63.7747 2.09466 63.6227 2.136C63.5414 2.092 63.4587 2.036 63.38 2.01066C63.5907 1.57466 63.9507 1.028 64.3241 0.921329C64.3667 0.943996 64.412 0.963996 64.4547 1.004ZM76.7054 9.21066C76.684 9.18533 76.664 9.156 76.6414 9.132C76.684 9.12133 76.7187 9.12666 76.7587 9.11866C76.7454 9.148 76.732 9.17866 76.7054 9.21066ZM81.6734 69.164C81.7267 69.2107 81.76 69.2707 81.78 69.336C81.7747 69.3587 81.7627 69.3827 81.7574 69.4067C81.572 69.692 81.3854 69.736 81.3294 69.08C81.4467 69.0627 81.5654 69.0747 81.6734 69.164ZM80.6814 13.1333C80.524 13.152 80.364 13.1573 80.2027 13.1467C80.188 13.136 80.1694 13.1253 80.1534 13.1133C80.3294 13.1187 80.5054 13.1253 80.6814 13.1333ZM63.0507 86.536C62.928 86.7253 62.8054 86.9093 62.6947 87.0907C62.24 87.3547 61.8307 87.7533 61.4281 88.152C61.1841 88.3907 60.9574 88.6227 60.724 88.8027C60.236 89.1867 59.948 89.4573 59.776 89.6613C60.336 87.664 60.9547 85.704 61.5187 83.704C61.5387 83.6333 61.552 83.5587 61.5734 83.4867C61.8627 83.696 62.3267 83.6013 62.5174 83.296C62.8254 82.7773 63.0507 82.2267 63.2334 81.6693C63.388 81.7133 63.5467 81.7547 63.7307 81.764C64.524 81.8093 65.2121 81.176 65.7787 80.3987C65.8481 80.7627 65.9867 81.084 66.2321 81.3253C66.0281 82.0253 65.8094 82.7093 65.5627 83.3733C64.5934 84.1027 63.8094 85.3387 63.0507 86.536ZM63.7254 79.076C64.028 79.0293 64.3147 78.9067 64.5827 78.7013C64.7134 78.6293 64.844 78.5453 64.9667 78.4453C65.072 78.58 65.1787 78.7067 65.2747 78.8307C65.0387 79.1933 64.7774 79.5413 64.5067 79.872C64.104 79.828 63.8321 79.7413 63.6867 79.6147C63.6987 79.436 63.712 79.256 63.7254 79.076ZM52.5627 85.5973C52.2734 84.8627 51.98 84.1307 51.6907 83.3973C51.6974 83.3973 51.704 83.4027 51.7134 83.4027C53.06 83.4787 53.792 82.3773 54.2654 80.9173C54.4707 80.9013 54.6814 80.8507 54.8641 80.7867C55.0841 81.2213 55.4174 81.4747 55.9507 81.388C56.0761 81.3667 56.18 81.3133 56.2947 81.276C56.2947 81.308 56.2947 81.3467 56.304 81.388C56.3254 81.5213 56.3854 81.6227 56.4627 81.704C55.072 84.2987 53.9454 85.488 52.9547 85.304C52.8507 85.2933 52.7534 85.3333 52.684 85.4307C52.6494 85.484 52.628 85.5493 52.616 85.616C52.5974 85.6093 52.5814 85.6067 52.5627 85.5973ZM96.9654 53.8587C97.0974 54.58 97.5067 55.1253 98.5 55.172C99.4947 55.2187 100.173 54.2267 100.545 53.1133C100.591 53.0867 100.639 53.0573 100.663 53.0187C100.757 52.8587 100.839 52.692 100.897 52.5293C100.976 52.524 101.056 52.524 101.14 52.5067C102.016 52.3227 102.533 51.5773 102.833 50.7253C103.04 50.7253 103.26 50.68 103.501 50.5707C104.244 50.2373 104.621 49.6293 104.804 48.92C104.828 48.8747 104.847 48.832 104.872 48.784C105.299 48.7627 105.725 48.596 106.128 48.2147C106.452 47.8973 106.616 47.5253 106.644 47.136C106.851 47.3307 107.296 47.136 107.199 46.824C107.071 46.3867 106.887 45.9827 106.695 45.5907C106.773 45.44 106.844 45.2787 106.903 45.104C107.008 45.048 107.108 44.96 107.139 44.8387C107.263 44.3187 107.263 43.7973 107.175 43.2893C107.592 42.9747 107.784 42.416 107.808 41.72C108.005 41.7653 108.2 41.792 108.447 41.8C108.919 41.812 109.215 41.416 109.153 40.9693C109.077 40.284 108.893 39.6533 108.639 39.0707C108.639 39.0293 108.655 38.9813 108.648 38.944C108.387 36.856 107.233 35.2427 105.604 34.2493C105.677 34.084 105.625 33.8773 105.421 33.836C105.299 33.8173 105.195 33.7987 105.081 33.7787C105.072 33.7267 105.091 33.684 105.072 33.6253C104.941 33.0227 104.449 32.7773 103.791 32.7493C103.787 32.748 103.787 32.744 103.783 32.7427C103.676 32.7187 103.569 32.7053 103.461 32.688C103.456 32.636 103.464 32.592 103.452 32.54C103.276 31.7653 102.495 31.5987 101.535 31.7187C101.585 31.6333 101.637 31.552 101.683 31.46C101.771 31.2173 101.56 30.9213 101.299 30.9133C100.94 30.9093 100.584 30.952 100.233 31.0133C100.251 30.7253 100.213 30.4427 100.053 30.2013C99.7427 29.7453 99.256 29.684 98.7707 29.768C98.7587 29.636 98.708 29.5147 98.6547 29.3933C98.9174 29.0427 99.0347 28.5613 98.9174 28.0453C99.3174 27.9973 99.6481 27.7947 99.7827 27.3067C99.8947 26.864 99.8414 26.4933 99.6774 26.176C99.5107 25.6787 99.336 25.176 99.1014 24.7107C98.6574 24.6013 98.168 24.432 98.0907 24.3933C98.0094 24.3467 97.9267 24.3267 97.848 24.32C97.788 24.1827 97.7334 24.04 97.6627 23.9093C97.2454 23.808 96.7707 23.6387 96.7054 23.604C96.4214 23.4467 96.136 23.5427 95.988 23.7613C95.556 23.7413 95.34 24.324 95.516 24.752C95.4507 24.6987 95.4027 24.6467 95.3254 24.5947C95.0987 24.4387 94.8494 24.3587 94.5854 24.324C94.448 24.1453 94.276 23.9693 94.0267 23.7973C93.152 23.2027 91.9587 23.6053 90.7747 24.368C90.6387 24.3587 90.4867 24.352 90.3121 24.352C90.8254 23.9773 91.2627 23.508 91.5587 22.8853C91.6387 22.7187 91.6387 22.448 91.4374 22.3493C91.0987 22.1907 90.7574 22.1013 90.412 22.036C90.4454 21.8827 90.4214 21.7 90.2601 21.6253C90.2574 21.624 90.2547 21.624 90.2534 21.6227C90.528 21.2933 90.7574 20.928 90.8547 20.476C90.9147 20.2107 90.8107 19.8373 90.4854 19.776C90.2254 19.7253 89.9614 19.7133 89.6987 19.6893C89.7 19.4493 89.6014 19.1867 89.3361 19.136C89.0281 19.0733 88.7174 19.056 88.408 19.0307C88.9347 18.636 89.4414 18.2187 89.8667 17.68C90.0934 17.396 89.8667 16.9827 89.5707 16.8813C89.3254 16.7907 89.0574 16.7293 88.7907 16.7027C88.788 16.6973 88.7894 16.6907 88.7867 16.684C88.796 16.668 88.8067 16.6533 88.8067 16.6413C88.9361 16.3253 88.6574 15.9747 88.3507 15.9627C88.168 15.956 87.956 15.9653 87.728 15.9813C87.7507 15.7173 87.5267 15.4587 87.2707 15.4453C86.7667 15.4267 86.0374 15.516 85.2534 15.692C85.2734 15.4573 85.2627 15.2507 85.212 15.0947C85.132 14.8253 84.8734 14.5947 84.5774 14.6773C84.4694 14.7053 84.3694 14.7387 84.2694 14.772C84.2654 14.7347 84.2614 14.6973 84.2534 14.664C84.328 14.388 84.3747 14.0933 84.3667 13.78C84.356 13.352 83.9214 12.9947 83.512 13.2253C83.472 13.244 83.4387 13.2667 83.4054 13.2907C83.38 12.9747 83.1134 12.7267 82.8094 12.744C82.4347 12.448 81.976 12.2333 81.492 12.0747C81.0547 11.824 80.5654 11.6347 80.0587 11.5187C80.1934 11.0093 79.492 10.6227 78.9867 10.536C78.9574 10.5133 78.9227 10.4907 78.8894 10.4693C78.8227 10.3733 78.7574 10.2787 78.656 10.1773C78.5587 10.064 78.448 9.992 78.3427 9.908C78.552 9.49733 78.5521 9.048 78.1867 8.57066C77.9574 8.28 77.6267 8.15866 77.2534 8.14C76.988 7.924 76.6494 7.836 76.2654 7.87066C76.0214 7.512 75.7094 7.348 75.3574 7.33733C75.0787 7.09333 74.74 7.04666 74.3787 7.11733C74.2614 7.012 74.112 6.91733 73.92 6.83333C73.7907 6.77733 73.6507 6.75066 73.5067 6.74C73.4347 6.69733 73.3854 6.648 73.2934 6.612C73.012 6.48933 72.6894 6.50133 72.3467 6.584C72.3574 6.256 72.2334 5.97866 71.884 5.80266C71.7067 5.712 71.5307 5.66 71.3574 5.628C71.352 5.62533 71.3494 5.62133 71.344 5.61866C70.796 5.34533 70.2574 5.36933 69.776 5.56933C69.728 5.55066 69.684 5.524 69.632 5.52C69.5907 5.52 69.5494 5.52533 69.5094 5.528C69.476 5.492 69.4507 5.45333 69.4094 5.42666C69.3587 5.26666 69.2614 5.12533 69.0907 5.06533C68.9787 5.02533 68.8654 5.004 68.7507 4.98533C68.7134 4.96 68.6854 4.92 68.6387 4.90533C68.448 4.83733 68.256 4.80666 68.0627 4.792C68.076 4.48666 67.916 4.208 67.4627 4.00933C67.3827 3.96933 67.3054 3.94666 67.224 3.92133C67.312 3.648 67.376 3.36 67.3667 3.06C67.356 2.76 67.1227 2.53333 66.8241 2.59466C66.8187 2.596 66.8107 2.59866 66.8054 2.6C66.712 2.52133 66.5854 2.48 66.4414 2.50533C66.2067 2.55466 65.9094 2.64133 65.5907 2.74666C66.024 1.50666 66.0854 0.279996 64.8654 0.0639962C64.6627 0.0266629 64.476 0.026663 64.2987 0.0453296C63.1707 -0.0226704 62.4894 0.855996 62.2134 1.94933C62.1894 1.956 62.1654 1.972 62.1401 1.97866C62.0387 1.85866 61.9054 1.784 61.748 1.76533C61.648 1.71333 61.5374 1.688 61.4187 1.692C61.292 1.52266 61.1227 1.37866 60.888 1.30533C60.8254 1.284 60.7707 1.28133 60.7107 1.268C60.7094 1.268 60.708 1.26533 60.7054 1.26533C60.6907 1.26 60.6787 1.26266 60.6627 1.25733C60.5987 1.24666 60.528 1.22266 60.4707 1.21866C60.3134 0.855995 60.12 0.517329 59.86 0.207996C59.7214 0.039996 59.5107 -0.0133382 59.3094 0.0173285C59.088 0.00266181 58.8547 0.0906619 58.7334 0.287995C58.656 0.421329 58.604 0.562662 58.528 0.694662C58.4387 0.674662 58.3414 0.658663 58.2187 0.663996C57.8827 0.678663 57.5801 0.842662 57.3067 1.072C57.2961 1.02266 57.2867 0.969329 57.2707 0.927996C57.2147 0.750663 57.0827 0.639996 56.9294 0.601329C56.7934 0.545329 56.6307 0.558662 56.4854 0.674662C56.1561 0.945329 55.9174 1.244 55.78 1.56533C55.7094 1.20933 55.3174 1.01333 54.976 1.28133C54.64 1.54933 54.3814 1.87466 54.1747 2.22933C54.1001 2.23066 54.036 2.216 53.948 2.24C53.7134 2.308 53.4974 2.43066 53.3014 2.584C53.2147 2.47466 53.14 2.35733 53.0334 2.26266C52.7814 2.03466 52.3614 1.94933 52.1094 2.22933C52.1054 2.23333 52.1027 2.24 52.0987 2.244C52.0707 2.264 52.0374 2.27333 52.0134 2.30133C51.7134 2.62266 51.444 2.97866 51.208 3.36666C51.14 3.444 51.096 3.53733 51.0467 3.628C50.8854 3.58533 50.724 3.58666 50.5694 3.65333C50.4867 3.332 50.3867 3.01333 50.2507 2.69733C50.08 2.32933 49.6734 2.332 49.4107 2.53733C49.2454 2.59866 49.0907 2.708 49.016 2.87733C48.9814 2.976 48.94 3.084 48.8974 3.18666C48.7814 3.21466 48.6734 3.25866 48.572 3.32266C48.548 3.332 48.5281 3.348 48.5081 3.35866C48.0401 2.54933 47.4534 2.03333 46.6227 2.34933C46.3761 2.392 46.1094 2.508 45.8147 2.71733C45.544 2.90666 45.3694 3.15066 45.2534 3.43333C45.1067 3.492 44.9694 3.56933 44.8134 3.67866C44.624 3.82266 44.4934 3.988 44.3854 4.16266C44.176 4.104 43.964 4.07866 43.7467 4.11733C43.2307 3.292 42.564 2.78533 41.6254 3.14666C41.4707 3.164 41.3107 3.19733 41.1414 3.268C40.3547 3.59866 40.148 4.19333 40.2507 4.9C40.156 4.92666 40.0587 4.98533 39.9614 5.03866C39.7387 5.06533 39.516 5.128 39.2934 5.292C39.1707 5.372 39.0854 5.47333 39.0174 5.58C38.9547 5.58 38.892 5.56 38.8334 5.568C38.532 5.60666 38.3147 5.69066 38.136 5.792C37.5254 5.90933 37.2054 6.18133 37.1027 6.53066C36.8667 6.536 36.6534 6.60266 36.4774 6.75066C36.0827 6.77066 35.7427 6.948 35.5454 7.408C35.2534 8.05466 35.3681 8.59466 35.6921 9.048C35.2894 9.192 35.0067 9.468 34.9547 9.88666C34.1907 10.08 33.5774 10.308 33.344 10.5027C32.98 10.6333 32.6961 10.764 32.5707 10.884C32.2587 11.1853 32.3427 11.612 32.6587 11.868C32.7547 11.9507 32.8654 12.0067 32.972 12.0733C32.956 12.0787 32.936 12.0787 32.92 12.084C32.6774 12.164 32.4454 12.3027 32.2454 12.4773C32.228 12.4827 32.2054 12.4827 32.1894 12.4893C31.76 12.6333 31.368 12.9387 31.1294 13.3147C30.9627 13.1707 30.78 13.056 30.564 13.016C30.012 12.908 29.644 13.1 29.3894 13.4547C28.8614 13.4773 28.5147 13.78 28.3147 14.292C27.9774 14.3573 27.6441 14.5453 27.3641 14.7813C27.1161 14.8387 26.872 14.9547 26.6494 15.1093C26.0707 14.32 25.2867 13.9533 24.216 14.6667C24.1654 14.7 24.1347 14.7453 24.0881 14.78C23.8121 14.82 23.5147 14.9347 23.1921 15.1507C22.8254 15.3907 22.5787 15.7027 22.4254 16.0533C22.052 16.148 21.8 16.336 21.636 16.5813C21.12 16.432 20.584 16.4587 20.0347 16.8173C19.9094 16.9 19.8094 16.9853 19.716 17.072C19.432 17.1093 19.1454 17.192 18.856 17.3787C18.296 17.748 18.068 18.1507 18.0507 18.564C17.656 18.4787 17.3467 18.78 17.3627 19.1213C17.3107 19.1613 17.2494 19.1867 17.2 19.236C17.1934 19.244 17.1934 19.256 17.1854 19.264C17.0574 19.236 16.9334 19.208 16.8347 19.184C16.424 19.0787 16.1107 19.3827 16.1107 19.7333C16.0494 19.776 15.9867 19.82 15.9347 19.8787C15.656 20.164 15.7774 20.78 16.2494 20.7533C16.4307 20.7493 16.616 20.7533 16.792 20.7533C16.8414 20.8187 16.896 20.8667 16.9534 20.928C16.8814 21.1853 16.9174 21.4413 17.0214 21.6893C16.412 21.7213 15.8334 21.8707 15.3254 22.236C14.3094 22.3373 13.3094 22.676 12.4294 23.1667C12.312 23.2293 12.2401 23.3187 12.1801 23.4133C11.7734 23.56 11.3761 23.732 11.0027 23.94C10.4361 24.252 10.54 25.0173 11.1067 25.256C11.2947 25.3307 11.4827 25.3853 11.6707 25.432C10.9534 25.6067 10.32 25.896 9.86271 26.3827C8.63871 26.7653 7.73205 27.556 7.56539 29.128C7.53739 29.32 7.63071 29.5187 7.75871 29.6733C7.04004 30.1507 6.47335 30.7707 6.66402 31.6853C6.84002 32.54 7.47337 32.8707 8.22937 33.0107C7.6147 33.4187 7.06936 33.9133 6.65869 34.6507C6.46536 35.004 6.52403 35.4733 6.88936 35.6973C6.98936 35.756 7.09603 35.808 7.20003 35.856C7.18003 36.0213 7.18002 36.188 7.21602 36.3747C7.34669 36.9827 7.70805 37.32 8.17472 37.5213C7.43339 37.8547 6.75069 38.3027 6.16402 38.9267C6.13735 38.956 6.12804 38.9893 6.10937 39.0213C5.53337 39.3333 5.00004 39.7253 4.52938 40.2307C4.31871 40.456 4.3667 40.7467 4.58004 40.9187C4.24003 41.064 4.02136 41.2787 3.81469 41.672C3.71203 41.8733 3.70938 42.0773 3.77071 42.2507C3.63338 42.1613 3.47338 42.1067 3.28271 42.156C2.69338 42.308 2.38805 42.5267 2.10538 43.0667C1.90805 43.4453 2.05202 43.8307 2.36002 44.016C2.31602 44.0173 2.2787 44.016 2.2347 44.0253C1.62136 44.192 1.3027 44.4147 1.00537 44.9867C0.773368 45.4533 0.993375 45.932 1.42004 46.0667C1.40937 46.3627 1.5427 46.6867 1.80403 46.824C1.63737 47.1613 1.6467 47.536 2.00004 47.9427C2.21337 48.1813 2.58271 48.312 2.94938 48.3587C2.68405 48.7627 3.05071 49.2907 3.48938 49.328C3.54938 49.328 3.62539 49.3253 3.69205 49.3253C3.89072 49.6133 4.25869 49.7773 4.61336 49.5773C4.62669 49.564 4.64939 49.5507 4.66939 49.5413L4.65869 49.564C4.58402 49.8627 4.66939 50.1307 4.84139 50.324C4.66939 50.5653 4.49603 50.8093 4.34936 51.0867C4.1267 51.504 4.33469 52.1347 4.87736 52.124C5.59869 52.116 6.24135 51.852 6.84802 51.504C6.85069 51.5893 6.87202 51.668 6.89469 51.7507C6.49069 52.4653 6.19604 53.2333 6.09204 54.0707C6.03604 54.5267 6.52402 54.9053 6.95202 54.808C7.00669 54.8 7.0587 54.7707 7.10803 54.7547C6.78136 55.5987 6.58802 56.4907 6.58402 57.352C6.58402 57.864 6.98139 58.1653 7.46806 58.1133C8.06272 58.0453 8.57472 57.776 9.02539 57.404C9.10272 57.5693 9.19737 57.7187 9.3267 57.864C9.5187 58.0773 9.89204 58.1667 10.1494 58.008C10.62 57.7187 11.0027 57.336 11.3134 56.8987C11.3854 56.9387 11.4547 56.9667 11.5494 56.9787C11.768 56.9947 11.9774 56.9933 12.1694 56.9667C12.2907 57.5707 12.5694 58.1413 13.1094 58.3787C13.224 58.4333 13.3374 58.444 13.4507 58.444C13.4507 58.4787 13.4507 58.5133 13.4507 58.548C13.4761 59.192 13.6854 60.024 14.0774 60.52C13.9801 60.6253 13.8974 60.7507 13.8254 60.9013C13.616 61.308 13.8081 61.744 14.1921 61.8627C14.1827 62.1267 14.296 62.4093 14.532 62.5293C14.3814 62.832 14.3907 63.168 14.6987 63.5253C14.888 63.744 15.2227 63.8587 15.5494 63.8933C15.3174 64.2573 15.64 64.7307 16.024 64.7627C16.0934 64.7627 16.1454 64.7587 16.216 64.7587C16.3867 65.0147 16.712 65.1587 17.0334 64.9787C17.0427 64.9747 17.0694 64.9613 17.0787 64.952C17.0694 64.9613 17.0694 64.968 17.0694 64.968C17.0014 65.236 17.0787 65.4773 17.236 65.6493C17.0787 65.8627 16.9307 66.08 16.792 66.332C16.5987 66.696 16.7814 67.2613 17.268 67.2507C17.908 67.2413 18.484 67.0053 19.0214 66.696C19.0214 66.78 19.04 66.848 19.056 66.9227C18.696 67.5573 18.4467 68.2413 18.34 68.976C18.2907 69.3827 18.7254 69.724 19.108 69.6387C19.16 69.6333 19.2054 69.6013 19.2507 69.5893C18.9614 70.348 18.7867 71.136 18.7867 71.9053C18.7774 72.3587 19.1467 72.624 19.5654 72.5827C20.1041 72.524 20.556 72.2787 20.96 71.9533C21.0267 72.0973 21.1134 72.2253 21.2187 72.3587C21.3934 72.5453 21.724 72.6267 21.9547 72.4893C22.3694 72.2253 22.708 71.888 22.988 71.5027C23.048 71.5333 23.12 71.5587 23.2067 71.5613C23.3987 71.5867 23.5747 71.5787 23.7654 71.5587C23.8614 72.0973 24.1147 72.608 24.5934 72.82C24.6894 72.8653 24.7934 72.876 24.8987 72.876V72.968C24.9161 73.6933 25.2134 74.688 25.7614 75C25.7867 75.024 25.8054 75.0427 25.82 75.0653C26.1347 75.2747 26.4227 75.3547 26.7107 75.3547C26.8667 75.584 27.0934 75.7453 27.3907 75.728C28.012 75.6893 28.404 75.328 28.6827 74.8573C28.752 74.9133 28.8227 74.9667 28.8894 75.016C28.9947 75.2507 29.12 75.4813 29.2574 75.704C29.3267 76.356 29.6054 76.796 30.268 76.8293C31.4187 76.892 32.056 75.9467 32.464 74.6907C32.6387 74.6773 32.8134 74.636 32.972 74.5867C33.1627 74.948 33.46 75.172 33.9134 75.096C34.0174 75.0773 34.1054 75.0267 34.208 75C34.208 75.0267 34.208 75.06 34.208 75.092C34.2787 75.5053 34.732 75.6267 35.0734 75.4987C35.7267 75.2507 36.18 74.792 36.564 74.2533C36.6694 74.8373 36.904 75.328 37.452 75.4307C37.68 75.4747 37.872 75.4627 38.0454 75.4133C38.0974 75.8147 38.236 76.2027 38.464 76.5693C38.3934 76.9347 38.36 77.3093 38.36 77.6813C38.352 78.204 38.7587 78.5107 39.268 78.4613C39.8854 78.396 40.4174 78.1107 40.8787 77.736C40.9587 77.8973 41.0614 78.056 41.1947 78.2C41.392 78.4253 41.7774 78.5253 42.0414 78.3573C42.452 78.1027 42.7854 77.7667 43.0814 77.3987C43.8534 79.616 44.6814 81.7973 45.632 83.8987C48.088 89.4013 50.5494 94.184 50.9681 100.795C51.1601 103.7 51.02 106.623 50.9134 109.527C50.8267 112.407 51.02 115.247 51.0894 118.121C51.2347 124.207 49.0827 128.623 46.6401 133.335H61.7854C61.4134 130.765 60.924 128.233 60.6267 125.643C60.244 122.264 60.5254 118.824 60.5774 115.423C60.6267 112.24 60.9947 109.117 60.6427 105.975C60.2774 102.816 59.3001 99.2147 60.5774 96.3293C61.6321 93.9467 63.2334 91.9573 64.4987 89.7733C65.752 87.5693 66.744 85.1 67.516 82.524C67.5934 82.256 67.664 81.9907 67.7387 81.724C68.568 81.544 69.1414 80.6333 69.5027 79.6227C69.5347 79.5933 69.5814 79.5627 69.6067 79.5213C69.7094 79.3547 69.7907 79.188 69.86 79.0213C69.9467 79.0133 70.016 79.0133 70.1014 78.9907C71 78.8027 71.5534 78.0293 71.8641 77.1507C72.0667 77.1467 72.296 77.1013 72.5534 76.9867C73.3187 76.6413 73.7147 76.02 73.8947 75.284C73.92 75.2373 73.948 75.1933 73.964 75.1413C74.3507 75.1227 74.7427 74.9747 75.1147 74.6773C75.9027 74.4093 76.38 73.58 76.7187 72.5387C76.9147 72.532 77.0854 72.4893 77.2694 72.4307C77.4627 72.8107 77.7574 73.0413 78.2387 72.968C78.3507 72.948 78.4481 72.8987 78.5427 72.868C78.5427 72.8893 78.5427 72.9253 78.552 72.9573C78.624 73.3933 79.092 73.5253 79.448 73.3867C80.1294 73.124 80.6107 72.644 81.0107 72.0867C81.116 72.6987 81.3667 73.216 81.9507 73.3173C82.1707 73.3587 82.3707 73.3413 82.5547 73.304C82.6307 73.812 82.8147 74.312 83.1734 74.7627C83.416 75.08 83.9307 74.9947 84.1307 74.6827C84.4187 74.2107 84.62 73.716 84.7867 73.216C84.916 73.2587 85.0534 73.292 85.2267 73.308C85.9467 73.3413 86.5547 72.7693 87.072 72.0707C87.184 72.7427 87.5654 73.2507 88.4987 73.292C89.4214 73.336 90.052 72.416 90.4067 71.384C90.4454 71.3547 90.4774 71.328 90.5054 71.2893C90.6027 71.136 90.6707 70.9893 90.724 70.8347C90.8107 70.8293 90.8694 70.8347 90.9561 70.8147C91.7601 70.64 92.2547 69.952 92.5294 69.164C92.7187 69.1573 92.928 69.1147 93.1534 69.0133C93.8347 68.704 94.1934 68.1427 94.3574 67.4773C94.3841 67.4373 94.404 67.3973 94.4187 67.3533C94.82 67.3333 95.2214 67.1787 95.5881 66.8227C95.8987 66.5267 96.0494 66.1853 96.0654 65.8213C96.2681 66.0027 96.6761 65.824 96.5827 65.524C96.4707 65.124 96.296 64.7533 96.1134 64.3853C96.1987 64.2427 96.2494 64.0907 96.3027 63.9307C96.408 63.8827 96.5027 63.796 96.5374 63.6787C96.6401 63.204 96.64 62.7147 96.5734 62.24C96.9467 61.9493 97.1387 61.4267 97.1454 60.7893C97.3307 60.8213 97.5241 60.856 97.7427 60.8587C98.1881 60.8667 98.4547 60.5013 98.4041 60.084C98.3334 59.444 98.168 58.8627 97.924 58.316C97.924 58.276 97.9414 58.2387 97.9414 58.1987C97.7587 56.7747 97.1321 55.592 96.2147 54.692C96.4827 54.468 96.732 54.18 96.9654 53.8587Z" fill="black"/>
</svg>
