<svg width="64" height="135" viewBox="0 0 64 135"  fill="none" xmlns="http://www.w3.org/2000/svg">
<path d="M21.1693 24.3987C20.7453 24.4507 20.1973 24.2387 19.76 24.3387C19.2587 24.3853 18.888 24.6293 18.8613 25.236C18.8333 25.336 18.8306 25.4427 18.8386 25.552C18.7093 25.2867 17.604 25.364 17.484 25.3933C17.5027 25.4093 17.516 25.4133 17.532 25.4267C17.4053 25.4547 17.28 25.4947 17.148 25.5613C16.76 25.7467 16.0466 26.032 16.0573 26.5747C16.0573 26.6467 16.1373 27.2987 16.1573 27.2973C15.8947 27.4013 15.568 27.38 15.3493 27.596C15.2053 27.7413 15.0693 27.9053 15.052 28.1093C14.988 28.7987 14.7506 28.908 14.176 29.032C13.7333 29.128 13.352 29.2867 13.0733 29.624C13.072 29.6147 13.0693 29.604 13.068 29.5947C13.0413 29.6293 13.0333 29.66 13.016 29.6933C12.9946 29.7213 12.9706 29.7413 12.952 29.7707C12.8666 29.9147 12.8773 30.1533 13.0187 30.264C13.2667 30.4667 13.464 30.5573 13.7733 30.6227C14.1173 30.6907 14.24 30.8187 14.2493 30.9693C14.2373 31.0933 14.168 31.236 14.076 31.38C13.9573 31.536 13.8066 31.6893 13.7053 31.804C13.5813 31.9427 13.4973 32.0973 13.432 32.2587C13.4293 32.264 13.4227 32.272 13.4213 32.2773C13.4173 32.2893 13.4187 32.304 13.4147 32.316C13.2787 32.696 13.268 33.1147 13.328 33.5173C13.3307 33.5307 13.3333 33.5453 13.336 33.56C13.3453 33.636 13.36 33.708 13.3733 33.7853C13.448 34.2027 13.5586 34.6667 13.816 34.9813C13.9466 35.136 14.2053 35.2667 14.412 35.256C14.4853 35.2547 14.5213 35.2507 14.568 35.2453C14.6506 35.2627 14.708 35.2667 14.7253 35.248C14.7267 35.2773 14.6573 35.3667 14.5827 35.6107C14.4387 36.072 14.1867 36.684 14.736 36.9987C14.7413 37.0013 14.7466 37 14.7506 37.004C14.816 37.0467 14.9013 37.068 14.996 37.0787C15.2547 37.1333 15.5027 37.0653 15.732 36.932C17.1933 36.4467 16.516 37.0307 16.416 37.836C16.3827 37.9507 16.3533 38.0653 16.3413 38.1973C16.3133 38.496 16.576 38.74 16.752 38.92C16.8306 38.9973 16.932 39.0373 17.0413 39.064C17.352 39.284 17.6746 39.3853 18.0093 39.4027C17.9906 39.5667 18.028 39.7267 18.104 39.8733C17.8093 39.832 17.536 39.7627 17.2453 39.792C16.8386 39.8427 16.4893 40.1213 16.2 40.3853C16.1586 40.4227 16.14 40.468 16.104 40.508C16.1067 40.488 16.1026 40.476 16.1066 40.456C16.0293 40.54 15.9733 40.632 15.9293 40.728C15.6986 41.0893 15.672 41.4747 15.8853 41.7773C15.952 42.068 16.0573 42.348 16.164 42.592C16.1773 42.6667 16.18 42.744 16.2106 42.812C16.2813 42.9667 16.304 43.0867 16.3053 43.1933C16.2413 43.5347 15.8426 43.6747 15.5173 43.8587C15.4986 43.8653 15.48 43.872 15.464 43.88C15.0586 44.0427 15.0227 44.4627 15.1853 44.8147C15.2253 44.8707 15.2747 44.928 15.3227 44.988C15.3267 44.9933 15.3266 44.9987 15.3306 45.004C15.4093 45.3253 14.9067 45.3587 14.248 45.2933C14.1493 45.2547 14.0533 45.22 13.9173 45.216C13.312 45.208 12.7213 44.944 12.1227 45.004C11.9773 44.9947 11.864 44.996 11.8026 45.0187C11.8306 45.0253 11.8693 45.044 11.9013 45.0547C11.8226 45.076 11.744 45.0733 11.664 45.1093C11.1266 45.356 10.7413 45.8987 10.7866 46.5253C10.8066 46.7813 10.8306 47.0093 10.94 47.2427C11.016 47.4133 11.6067 47.4907 11.2427 47.7587C10.848 48.048 10.3466 47.708 9.97463 47.9787C9.57863 48.2613 9.33599 48.62 8.97199 48.944C8.64799 49.2453 8.49733 49.544 8.53066 49.872C7.80933 49.676 6.99864 49.6307 6.42397 50.1533C5.49197 51.008 5.44664 51.9227 5.49331 53.1253C5.50398 53.2573 5.60532 53.3667 5.74799 53.3693C5.79999 53.5773 5.79998 53.8053 5.65464 54.1573C5.58531 54.3147 5.52399 54.452 5.51866 54.5093C5.51733 54.5213 5.52398 54.5333 5.52265 54.5453C5.43198 54.924 5.56266 55.1133 5.79999 55.196C5.89732 55.296 6.00931 55.3787 6.14264 55.4053C6.61864 55.5107 6.97464 55.3973 7.41197 55.2067C8.04664 54.9227 7.84131 55.8093 7.64797 56.1133C7.47864 56.3827 7.44797 56.6693 7.47597 56.9747C7.59597 58.2813 9.17732 57.256 9.48399 58.1933C9.48399 58.196 9.4853 58.1973 9.48664 58.2C9.1493 58.3813 8.42531 58.4387 8.17731 58.756C8.17198 58.7627 8.15864 58.7653 8.1533 58.772C8.1493 58.7773 8.1493 58.7827 8.14663 58.7867C8.14263 58.7933 8.13999 58.8 8.13865 58.8053C7.81599 59.2813 8.70265 59.8493 8.39065 60.192C8.31731 60.268 8.27331 60.3787 8.31598 60.4907C8.30398 60.464 7.37464 60.1307 7.12531 60.1373C6.61464 60.1547 6.07733 60.3947 5.876 60.9093C5.72133 61.28 5.92932 61.7533 5.74266 62.0973C5.59999 62.3493 5.53331 62.6147 5.53331 62.904C5.53064 63.2093 5.72399 63.372 5.96133 63.4613C6.08666 63.5947 6.23199 63.728 6.37999 63.8547C6.44799 64.0293 6.55731 64.184 6.75731 64.296C7.51197 64.7133 8.25333 63.888 8.732 64.5667C8.78933 64.684 8.83465 64.804 8.89065 64.8933C8.91331 64.9533 8.93865 64.9893 8.95998 65.0613C8.96665 65.08 9.00798 65.08 9.05198 65.076C9.02265 65.0907 8.99197 65.1067 8.96397 65.1253C8.89997 65.1467 8.81996 65.176 8.71596 65.212C8.4533 65.2987 8.35466 65.42 8.19733 65.6253C8.072 65.7907 8.09196 65.9667 8.16396 66.1333C8.00396 66.5053 7.9493 66.8907 8.05463 67.2027C8.05463 67.3787 8.12665 67.5453 8.33999 67.6787C8.43999 67.7387 8.55332 67.78 8.66665 67.8213C8.95332 68.0173 9.01465 68.14 9.21332 68.5253C9.22265 68.5707 9.22533 68.624 9.244 68.6627C8.45467 68.9027 9.0013 68.5987 8.0213 68.548C8.03997 68.5667 8.05733 68.596 8.07733 68.6147C7.41467 68.532 6.58132 69.02 6.38532 69.68C6.29732 69.9947 6.30531 70.264 6.42397 70.58C6.48131 70.7253 6.58532 70.8413 6.67865 70.972C6.63865 70.916 5.85066 70.9267 5.74266 70.916C5.03066 70.844 4.36799 71.316 4.25466 71.9893C3.51333 72.1293 2.684 72.932 3.22667 73.6533C3.304 73.7533 3.41197 73.8213 3.52663 73.872C3.93997 74.0453 4.032 74.32 3.956 74.6147C3.75866 74.7787 3.45596 75.196 3.2733 75.584C3.09863 75.7987 2.97597 76.0413 3.13597 76.304C3.21863 76.444 3.35066 76.5293 3.49066 76.604C3.70933 76.7867 3.99198 76.9747 4.26931 77.1453C4.50531 77.54 5.29866 77.624 5.284 77.9533C5.26266 78.5013 5.8693 78.704 6.2973 78.736C6.59864 78.7507 7.96664 78.0493 8.09064 78.2227C8.09331 78.2267 8.09863 78.228 8.1013 78.232C8.02397 78.284 7.94797 78.344 7.8773 78.4133C7.56263 78.648 7.33598 78.932 7.40798 79.4707C7.45731 79.8893 7.74265 80.068 8.07998 80.1307C7.85731 80.188 7.65331 80.2933 7.50531 80.452C7.50398 80.4533 7.50397 80.4533 7.50397 80.4547C7.44264 80.5213 7.38531 80.5893 7.34931 80.6747C7.29597 80.776 7.26399 80.8907 7.25999 81.024C6.99466 81.0053 6.78533 81.0933 6.60533 81.2253C6.55066 81.26 6.50132 81.2987 6.45465 81.3427C6.42265 81.376 6.39066 81.4067 6.364 81.4427C5.968 81.9387 5.96932 82.8147 6.47732 83.436C6.42665 83.488 6.39332 83.5507 6.34532 83.604C6.18532 83.7773 6.02664 83.9613 5.90664 84.1573C5.89464 84.1787 5.87464 84.1933 5.86131 84.2147C5.85464 84.232 5.85463 84.2507 5.84796 84.2693C5.77596 84.42 5.72799 84.5747 5.75466 84.7467C5.79066 84.948 5.85063 85.2267 6.0493 85.324C6.09863 85.3533 6.14264 85.3707 6.17731 85.388C6.17331 85.3907 6.172 85.3947 6.16933 85.3973C5.58667 85.816 4.77598 85.1413 4.11998 85.7067C3.27864 86.4347 2.13865 85.6493 1.55198 86.9133C1.34932 87.3453 1.30796 87.84 1.30796 88.308C1.30263 88.7893 1.8933 89.656 1.63597 90.108C1.28663 90.1413 0.942654 90.336 0.655987 90.6253C0.54932 90.6853 0.449309 90.7587 0.361309 90.876C0.199976 91.0973 0.133327 91.3347 0.087994 91.5867C0.0706606 91.6573 0.0612947 91.7267 0.0546281 91.7973C0.0426281 91.888 0.0319696 91.9787 0.0213029 92.0747C-0.00936378 92.3587 0.137298 92.6133 0.382631 92.7533C0.559964 92.86 0.690629 92.8853 0.755963 92.928C0.763963 92.9867 0.750644 93.0787 0.729311 93.1813C0.713311 93.2107 0.711979 93.224 0.689312 93.2627C0.319979 93.8653 0.229312 94.612 0.689312 95.1813C1.17731 95.792 2.81597 95.8507 3.49197 95.2413C3.63863 95.1747 3.8053 95.1347 3.99197 95.1173C4.1613 95.144 4.33333 95.1507 4.50267 95.1413C4.62933 95.1707 4.70799 95.2147 4.76532 95.264C4.79999 95.4267 4.80932 95.584 4.77598 95.7467C4.56532 96.1693 4.06264 96.7053 4.29197 97.1107C4.34531 97.3693 4.63065 97.4667 4.90798 97.4613C4.93731 97.944 4.71332 98.464 5.15599 98.8267C5.36665 99.0027 5.64132 98.9733 5.90932 98.8827C6.06532 98.8867 6.2973 98.912 6.5493 98.9533C6.82263 99.236 7.12797 99.3533 7.48664 99.2027C7.64264 99.276 7.724 99.3587 7.65733 99.4413C7.66533 99.4387 7.67065 99.4373 7.67865 99.4333C7.41465 99.768 7.1493 100.101 6.75063 100.26C6.4173 100.392 6.06932 100.464 5.74266 100.617C5.09999 100.924 5.20264 101.829 5.38397 102.363C5.44531 102.544 5.56531 102.676 5.69464 102.797C5.92398 103.14 6.23466 103.499 6.57066 103.771C6.67466 103.913 6.78531 104.048 6.92397 104.169C7.33331 104.545 7.7213 104.289 7.97996 103.936C8.10796 103.991 8.25464 104.055 8.40131 104.124C8.66397 104.319 8.84397 104.553 9.00397 104.769C8.9733 105.063 9.05331 105.183 9.26931 105.392C9.68798 105.803 10.576 105.273 11.0413 105.06C11.2987 104.975 11.5653 104.909 11.84 104.853C12.2947 104.789 12.712 104.753 13.108 104.32C13.2866 104.127 13.5546 103.787 13.5546 103.517C13.5546 103.485 13.5786 103.475 13.584 103.449C13.6386 103.349 13.7027 103.26 13.7893 103.193C14.0307 103.087 14.4133 103.113 14.7226 103.147C14.8546 103.497 15.1453 103.571 15.536 103.764C15.6987 104.209 15.6773 104.775 15.9053 105.235C15.956 105.472 16.0893 105.677 16.456 105.784C16.4627 105.785 16.4746 105.779 16.4813 105.78C16.8373 105.892 17.18 105.751 17.44 105.928C17.4813 106.232 17.5013 106.583 17.6426 106.795C17.8786 107.133 17.8586 107.069 17.7346 107.527C17.644 107.833 17.604 108.179 17.708 108.487C17.7107 108.491 17.712 108.496 17.7133 108.5C17.732 108.551 17.744 108.603 17.7707 108.651C17.9253 108.901 18.112 108.923 18.3773 108.951C18.408 108.953 18.4453 108.943 18.4773 108.94C18.8147 108.975 19.0773 108.891 19.4346 109.069C19.5213 109.148 19.6027 109.231 19.6733 109.287C19.7973 109.384 19.9466 109.424 20.1013 109.445C20.428 109.576 20.848 109.668 21.2827 109.711C21.324 109.764 21.3826 109.816 21.48 109.857C22.3413 110.217 23.688 109.3 23.7893 108.365C23.864 108.216 23.964 108.08 24.1107 107.963C24.472 107.78 24.8133 107.589 25.0386 107.207C25.2146 106.907 25.128 106.668 24.972 106.445C24.9173 106.324 24.8413 106.2 24.7346 106.072C25.1066 106.069 25.4733 106.041 25.8413 105.92C25.9867 105.871 26.0933 105.844 26.176 105.835C26.2946 105.875 26.368 105.972 26.3853 106.136C26.3813 106.199 26.38 106.256 26.368 106.344C26.32 106.776 26.6573 106.912 27.0106 107.027C27.272 107.215 27.5613 107.38 27.7893 107.483C27.98 107.667 28.1333 107.659 28.3093 107.605C28.576 107.607 28.9 107.548 29.244 107.444C29.2813 107.436 29.3147 107.421 29.352 107.412C29.816 107.26 30.3093 107.029 30.7386 106.744C31.1866 106.565 31.5706 106.173 31.7573 105.717C31.9573 105.349 31.9907 104.955 31.7787 104.561C32.0187 104.541 32.3133 105.027 32.504 105.239C32.6773 105.427 32.984 105.5 33.2973 105.531C33.5226 105.641 33.624 105.801 33.7 105.969C33.708 105.996 33.708 106.029 33.7173 106.056C33.7493 107.901 33.7053 109.755 33.6426 111.561C33.6293 111.936 33.62 112.312 33.604 112.683C33.5707 113.871 33.5707 115.077 33.5707 116.239V116.597C33.5707 116.811 33.5733 117.019 33.5733 117.227C33.592 118.325 33.604 119.364 33.2866 120.431C32.9426 121.585 32.9733 122.673 33.04 123.787C33.0773 124.505 33.0773 125.239 33.0707 125.947C33.068 126.541 33.068 127.155 33.0893 127.76C32.924 128.161 32.7067 128.536 32.468 128.936C32.3853 129.076 32.3066 129.213 32.2213 129.357C31.6826 130.308 31.3053 130.908 30.3 131.431C29.648 131.772 28.832 132.096 27.8093 132.424C27.7693 132.416 27.7293 132.416 27.684 132.429C27.5333 132.459 27.4613 132.488 27.328 132.549C27.148 132.633 27.0467 132.805 27.064 133.004C27.0773 133.221 27.2266 133.417 27.424 133.481C27.7733 133.597 28.1933 133.651 28.6747 133.651C29.372 133.651 30.0906 133.528 30.6426 133.411C30.6506 133.444 30.6693 133.484 30.68 133.525C30.7467 133.671 30.8746 133.791 31.0333 133.841C31.352 133.943 31.724 133.987 32.204 133.987C32.4573 133.987 32.7213 133.973 32.9733 133.957C33.2267 133.947 33.456 133.936 33.6666 133.936H33.8413C34.4507 133.936 35.1213 133.817 35.8507 133.572C35.8507 133.587 35.8506 133.604 35.8546 133.617C35.8613 133.835 36.036 134 36.2506 134C36.3333 134 36.4093 133.977 36.4693 133.936C36.896 133.947 37.344 133.721 37.6907 133.541L37.7787 133.501C37.9373 133.421 38.084 133.348 38.248 133.275L38.3973 133.2C39.4187 133.639 40.648 133.707 41.3 133.707C41.4267 133.707 41.552 133.707 41.66 133.707C41.8653 133.695 42.0707 133.579 42.1867 133.404C42.2693 133.267 42.292 133.111 42.252 132.965C42.7253 133.081 43.248 133.188 43.8666 133.288C43.9146 133.297 43.9533 133.297 43.9893 133.297C44.2227 133.297 44.4213 133.188 44.528 132.988C44.64 132.801 44.6307 132.561 44.52 132.376C44.5133 132.361 44.5066 132.359 44.4973 132.339L44.4813 132.319C44.464 132.296 44.44 132.279 44.4213 132.259C44.3613 132.193 44.284 132.137 44.1973 132.105C43.3987 131.772 42.6173 131.267 41.8627 130.788C41.676 130.667 41.4893 130.548 41.3133 130.428C40.3706 129.845 39.6013 129.069 38.9133 128.376V128.305C38.9066 127.88 38.9013 127.441 38.86 127.005C38.8146 126.584 38.748 126.167 38.6946 125.763C38.5853 125.005 38.4733 124.225 38.4733 123.449C38.4733 122.741 38.544 122.008 38.62 121.232C38.748 119.987 38.8747 118.703 38.6747 117.504C38.8987 116.063 38.86 114.557 38.8227 113.095C38.8053 112.289 38.784 111.452 38.8053 110.655C38.8453 109.424 38.884 108.107 38.9107 106.76C38.9947 106.824 39.0973 106.864 39.1986 106.831C39.368 106.772 39.62 106.615 39.856 106.527C40.1266 106.547 40.3386 106.603 40.436 106.731C40.4533 106.784 40.472 106.832 40.48 106.907C40.492 107.016 40.46 107.124 40.4093 107.231C40.292 107.443 40.1093 107.639 40.0587 107.86C40.0187 107.973 40.0067 108.087 40.052 108.201C40.192 108.557 40.4053 108.66 40.748 108.801C41.2533 109.013 42.032 108.352 42.3613 108.828C42.4626 108.968 42.6053 109.025 42.7813 109C43.0506 108.941 43.2813 108.871 43.524 108.788C43.768 109.725 44.544 109.631 45.3453 109.24C45.496 109.2 45.6613 109.175 45.8413 109.161C46.3733 109.52 46.988 109.341 47.4027 108.899C47.752 108.7 47.9627 108.319 47.8747 107.573C48.24 107.373 48.5773 107.287 48.9813 107.519C49.196 107.648 49.5773 107.539 49.7427 107.356C49.8173 107.265 49.8747 107.168 49.9373 107.072C50.188 106.876 50.3093 106.493 50.1973 105.7C50.172 105.52 50.3853 105.427 50.6853 105.371C50.9533 105.379 51.248 105.449 51.3613 105.465C51.536 105.484 51.6467 105.408 51.7027 105.289C51.984 105.421 52.284 105.385 52.5653 105.205C52.676 105.508 52.612 105.681 52.66 106.064C52.672 106.168 52.676 106.257 52.7733 106.324C53.1653 106.604 53.652 106.553 54.0187 106.291C54.4573 105.984 54.612 105.332 54.7027 104.849C54.86 104.087 55.6933 105.421 56.012 105.561C56.352 105.707 55.972 106.117 56.2547 106.371C56.644 106.716 57.0906 106.693 57.5786 106.577C58.1866 106.44 58.7853 106.068 59.224 105.629C59.336 105.501 59.4733 105.312 59.4733 105.139C59.4773 104.655 59.648 104.32 59.9667 104.04C60.3547 104.344 60.8746 104.416 61.268 103.973C61.5413 103.664 61.716 103.369 61.676 102.945C61.668 102.867 61.636 102.796 61.596 102.727C61.5653 102.631 61.5333 102.533 61.472 102.445C61.4627 102.465 61.4506 102.475 61.44 102.493C61.3053 102.3 61.2106 102.111 61.5 101.863C61.608 101.767 61.7093 101.689 61.812 101.603C62.0427 101.448 62.3293 101.267 62.5587 101.088C62.6147 101.057 62.6587 101.02 62.7187 100.991C62.9947 100.857 62.9706 100.484 62.9466 100.237C62.848 99.4293 62.424 98.904 61.716 98.6987C61.748 98.2027 61.7387 97.6973 61.8453 97.208C61.9613 96.6453 62.472 96.4067 62.8693 96.084C63.4693 95.6027 63.1067 94.9133 62.7187 94.4587C62.5653 94.272 62.4773 93.9933 62.3826 93.7173C62.3986 93.7187 62.4133 93.7187 62.4267 93.7187C62.3373 93.464 62.2307 93.2733 62.1 93.1173C62.0987 93.1147 62.0973 93.112 62.0947 93.1107C61.8987 92.876 61.64 92.7333 61.224 92.6867C61.236 92.6987 61.2546 92.7373 61.268 92.7573C61.196 92.7493 61.128 92.7253 61.056 92.7213C61.2213 92.5867 61.3347 92.3773 61.3853 92.0613C61.388 92.0573 61.3893 92.052 61.3906 92.0493C61.648 91.9293 61.832 91.7693 61.984 91.5907C61.9867 91.5907 61.9867 91.5893 61.9893 91.588C61.9893 91.588 61.988 91.588 61.9866 91.588C62.3173 91.2 62.4413 90.6893 62.404 90.0467C62.38 89.728 62.1253 89.4333 61.7986 89.3707C61.136 89.2347 62.688 88.6187 62.8613 88.436C63.44 87.84 63.9493 86.716 63.2533 86.0493C63.0707 85.8787 62.7813 85.7973 62.5546 85.6973C62.5546 85.6973 62.5533 85.3827 62.528 85.2493C62.536 85.1467 62.4933 85.0373 62.3546 84.92C62.3453 84.9413 62.3346 84.9653 62.3253 84.9853C62.0453 84.7493 61.7147 84.7933 61.3573 84.7573C61.5627 84.484 61.8227 84.236 61.8227 83.852C61.8227 83.3813 61.452 82.8187 61.0106 82.6507C60.992 82.644 60.976 82.6373 60.96 82.6307C60.9773 82.62 60.9973 82.6173 61.016 82.6027C60.5386 82.42 60.028 81.7453 59.5707 81.6787C59.54 81.6747 59.4507 81.6933 59.3413 81.724C59.1373 81.7187 58.9507 81.7467 58.7253 81.824C58.564 81.8947 58.4093 81.96 58.2493 82.024C57.9547 82.0907 57.7106 82.124 57.6533 82.0533C57.6333 82.0267 57.6253 82.004 57.6093 81.9787C57.6133 81.9067 57.6347 81.8147 57.6907 81.6893C57.8693 81.7013 58.0027 81.564 58.052 81.404C58.26 81.324 58.5133 81.2587 58.768 81.2027C58.9706 81.2373 59.1613 81.28 59.2573 81.2827C59.5 81.2893 59.9173 81.1653 60.0493 80.9387C60.0586 80.9213 60.0547 80.9067 60.064 80.8893C60.0653 80.888 60.072 80.8853 60.0733 80.8827C60.08 80.8693 60.0733 80.8533 60.0786 80.84C60.1773 80.6053 60.176 80.3947 60.0493 80.1453C60.0213 80.096 59.9706 80.0573 59.9173 80.024C59.844 79.8693 59.7893 79.7507 59.8013 79.7C59.8693 79.6333 59.9666 79.5627 60.0146 79.4627C60.048 79.3947 60.088 79.316 60.1293 79.2347C60.2706 79.0013 60.3707 78.744 60.364 78.4667C60.36 78.4707 60.352 78.4773 60.3467 78.4813C60.344 78.0027 60.4186 77.6107 61.016 77.6973C61.692 77.7933 62.5013 77.6907 62.636 76.8693C62.636 76.868 62.636 76.8667 62.636 76.864C62.6386 76.8467 62.6533 76.8387 62.656 76.82C62.6387 76.932 62.6107 77.112 62.6573 76.8173C62.668 76.748 62.6747 76.7067 62.6573 76.8173C62.6493 76.7827 62.6413 76.7467 62.6347 76.7133C62.632 76.532 62.5853 76.3547 62.5173 76.1813C62.5013 76.1053 62.4813 76.0293 62.468 75.9533C62.4533 75.9587 62.444 75.9627 62.4293 75.968C62.3933 75.8853 62.3573 75.8053 62.324 75.728C62.2413 75.5387 62.2053 75.328 62.1826 75.1293C62.1826 75.012 62.1826 74.892 62.2053 74.772C62.2053 74.7613 62.2053 74.756 62.2106 74.7387C62.9813 74.396 63.6426 73.828 63.4533 72.8707C63.38 72.5107 63.2653 72.0413 63.0427 71.708C63.0667 71.712 63.0906 71.712 63.1133 71.7173C62.8986 71.3293 62.5653 71.1813 62.1306 71.2707C61.8453 71.3467 61.9893 71.3067 62.1253 71.2707C61.9186 71.324 61.7893 71.2187 61.6546 71.0893C61.6013 70.9747 61.544 70.8547 61.3747 70.8267C61.3547 70.8227 61.3373 70.828 61.3173 70.8253C61.2187 70.7787 61.104 70.7507 60.9586 70.7693C60.8986 70.396 60.74 70.076 60.488 69.8027C60.5746 69.6973 60.656 69.592 60.732 69.48C60.748 69.4587 60.76 69.4347 60.776 69.412C60.8 69.3733 60.828 69.34 60.8493 69.2973C60.8533 69.2907 60.8493 69.2827 60.852 69.276C60.9453 69.08 60.9693 68.88 60.748 68.7733C59.292 68.06 59.732 68.048 60.504 67.9853C60.9986 68.288 61.372 68.1013 61.6973 67.7613C62.0853 67.6027 62.3546 67.3253 62.252 66.8067C62.1306 66.188 62.1773 65.5493 62.1306 64.9307C62.1866 64.8093 62.252 64.6787 62.2187 64.552C62.188 64.4387 62.112 64.3693 62.028 64.3053C61.94 63.9387 61.7906 63.584 61.5 63.2533C61.2053 63.0907 61.056 62.8507 61.056 62.5253C61.352 61.8947 59.8973 62.176 59.7653 61.7467C59.7533 61.708 59.76 61.6547 59.7653 61.604C59.828 61.4507 59.976 61.2853 60.0773 61.1467C60.4067 60.696 60.588 60.1187 60.6453 59.5507C60.6613 59.4867 60.6813 59.4213 60.684 59.368C60.6786 59.3747 60.664 59.38 60.6573 59.388C60.6613 59.32 60.672 59.2533 60.672 59.188C60.668 58.7 60.4453 58.3173 60.1093 58.016C60.1586 58.0347 60.2027 58.0667 60.2533 58.084C59.9893 57.8053 59.6746 57.6027 59.2986 57.4947C59.2733 57.484 59.2613 57.4653 59.2533 57.444C59.416 57.2107 59.5947 56.9387 59.6347 56.648C59.6387 56.6147 59.6307 56.5867 59.6333 56.5533C59.652 56.4933 59.6653 56.436 59.6666 56.3827C59.6573 56.408 59.6413 56.4307 59.632 56.456C59.6586 55.0867 58.316 54.2467 57.0573 54.272C56.9613 54.272 56.8773 54.2947 56.7973 54.324C56.8573 54.292 56.9213 54.26 57 54.228C56.66 54.264 56.028 54.556 55.4466 54.6547C55.372 54.62 55.296 54.5867 55.2066 54.5627C55.1373 54.544 54.9453 54.5787 54.7173 54.6173C54.652 54.592 54.5973 54.5507 54.5413 54.5107C54.4667 54.4173 54.388 54.3293 54.316 54.2413C54.2773 54.1653 54.2426 54.0827 54.2186 53.9813C54.612 54.196 54.8986 54.1013 55.2853 53.812C55.6066 53.6133 55.912 53.3133 56.1867 53.0373C56.336 52.8973 56.488 52.7573 56.6546 52.6267C57.0866 52.2907 57.324 52.0013 57.1773 51.4547C57.1706 51.428 57.1507 51.4107 57.1387 51.388C57.1547 51.0827 57.0573 50.864 56.7626 50.9133C56.8253 50.8813 56.8933 50.852 57.0133 50.772C57.0267 50.7627 57.04 50.7547 57.0533 50.7467C57.2427 50.652 57.408 50.544 57.5493 50.4213C57.808 50.2413 58.0466 50.032 58.1533 49.7413C58.3506 49.2 58.204 48.72 57.904 48.3147C57.7627 48.0853 57.5813 47.8627 57.316 47.66C57.68 47.2627 58.2466 46.756 58.0666 46.208C57.9253 45.78 57.488 45.284 57.1973 44.804C57.1293 44.6573 57.0653 44.4933 57.0093 44.3147C57.4626 44.292 57.9667 44.192 58.1867 43.7907C58.2867 43.6093 58.288 43.4653 58.256 43.3293C58.628 42.54 58.5973 41.4573 58.192 40.8333C58.1627 40.7307 58.136 40.64 58.116 40.5653C58.076 40.4107 57.9213 40.2947 57.7653 40.2947C57.5947 40.2947 57.4453 40.3133 57.3053 40.3453C57.1827 40.3533 57.0533 40.3773 56.9147 40.4307C56.8493 40.1467 56.956 39.1053 56.7547 38.924C56.472 38.6627 55.6973 38.8947 55.2533 38.6827C55.448 38.364 55.872 38.1813 56.232 37.98C56.36 37.9507 56.488 37.9253 56.62 37.904C57.1386 37.9573 57.796 37.656 57.9746 37.164C58.0053 37.092 58.0146 37.02 58.0213 36.9467C58.024 36.9187 58.028 36.8947 58.0266 36.868C58.024 36.5813 57.8826 36.2947 57.648 36.0653C57.7293 35.9173 57.8693 35.2987 57.9346 34.9413C57.972 34.8027 57.996 34.692 57.9973 34.6453C58 34.5787 57.9746 34.488 57.94 34.3893C57.9213 34.304 57.888 34.2267 57.8426 34.156C57.596 33.6413 57.12 32.964 56.9213 32.6773C56.38 31.9027 55.7653 33.1093 55.2707 33.5347C55.1707 33.6013 55.0707 33.6493 54.9787 33.6693C54.9187 33.6653 54.8613 33.644 54.8093 33.584C54.7786 33.5467 54.7626 33.5133 54.74 33.4773C54.736 33.4067 54.7466 33.3147 54.7733 33.1973C54.84 32.9 54.7866 32.4653 54.4573 32.348C54.4093 32.3307 54.3613 32.304 54.312 32.2813C54.24 32.2093 54.1493 32.136 54.028 32.0587C53.7293 31.868 53.5307 31.7973 53.3747 31.7947C53.1333 31.7387 52.8933 31.7973 52.66 32.1293C52.6173 32.1907 52.5707 32.364 52.5253 32.4627C52.5213 32.4667 52.5186 32.4693 52.516 32.4707C52.5906 32.4013 52.472 32.2893 52.2893 32.164C52.252 32.1147 52.2133 32.068 52.1733 32.0253C52.0813 31.9307 51.9733 31.908 51.864 31.904C51.5653 31.732 51.2773 31.5667 51.268 31.4733C51.188 30.532 51.76 28.964 50.6066 28.364C50.66 28.264 50.7053 28.16 50.736 28.0507C50.768 27.9347 50.784 27.8187 50.784 27.7053C50.784 27.684 50.776 27.664 50.7746 27.6427C50.7386 27.028 50.2453 26.516 49.52 26.6053C49.1107 26.6547 49.1506 26.4533 49.308 26.1667C49.4253 26.052 49.548 25.9387 49.6333 25.8093C49.7547 25.6267 49.8186 25.424 49.8266 25.208C49.8573 25.108 49.8706 25.0133 49.8506 24.932C49.4786 23.5307 49.8826 23.132 49.9973 21.7507C50.0906 20.6653 49.892 20.412 49.5773 20.4627C49.288 20.1227 48.9173 20.4533 48.732 20.7493C48.672 20.8493 48.6026 20.9187 48.528 20.9787C48.436 21.02 48.3467 21.0533 48.26 21.068C48.1173 21.0907 48.0093 21.0973 47.9147 21.0973C47.8227 21.0747 47.7307 21.0413 47.6387 20.9933C47.612 20.98 47.6013 20.9653 47.5827 20.9507C47.5507 20.816 47.6813 20.608 47.8627 20.3893C47.9027 20.364 47.936 20.3427 47.956 20.3293C48.2147 20.1467 48.4786 19.9187 48.5626 19.596C48.5626 19.5947 48.5626 19.592 48.5626 19.5893C48.572 19.576 48.5826 19.56 48.584 19.5493C48.7773 18.7827 48.832 18.032 48.5906 17.4893C48.5826 17.4453 48.5853 17.3907 48.576 17.3467C48.488 16.9813 48.1693 16.8507 47.8026 16.792C47.6346 16.7373 47.444 16.7 47.2213 16.692C47.528 16.436 47.824 16.204 47.9426 15.708C48.0693 15.14 47.7893 14.6307 47.2787 14.404C47.26 14.396 47.252 14.388 47.236 14.38C46.9693 14.032 46.776 13.648 47.0067 13.1227C47.0133 13.1067 47.012 13.0933 47.0187 13.08C47.076 12.9347 47.128 12.7827 47.1426 12.6147C47.1426 12.6107 47.1413 12.608 47.1413 12.604C47.1666 12.3907 47.148 12.1907 47.0867 11.9987C47.0853 11.9973 47.084 11.996 47.084 11.9933C46.9786 11.6773 46.776 11.38 46.5187 11.0747C46.3973 10.928 46.3053 10.8227 46.2213 10.7373C46.1973 10.7 46.1706 10.6733 46.148 10.6347C46.0546 10.4587 45.8386 10.4267 45.6653 10.5147C45.6426 10.524 45.5906 10.552 45.5573 10.5693C45.424 10.6213 45.2573 10.6973 45.024 10.7893C44.756 9.69866 44.8786 7.904 44.2293 6.98933C44.18 6.91866 44.0133 6.77467 43.804 6.624C43.684 6.528 43.556 6.448 43.4226 6.37867C42.9213 6.08933 42.376 5.92133 42.368 6.46933V6.472C42.364 6.49067 42.3467 6.50266 42.3467 6.524C42.3453 6.62266 42.3187 6.68667 42.3 6.75867C42.0667 7.24133 41.2813 7.228 41.0893 6.66266C41.1013 6.58666 41.136 6.52133 41.1613 6.45067C41.3333 6.284 41.4213 6.152 41.4373 6.00933C41.4493 5.99733 41.4547 5.98266 41.4667 5.97333C41.516 5.59333 41.2813 4.33333 41.1373 3.97867C41.1386 4.024 41.1293 4.05333 41.128 4.09333C41.0627 3.89466 40.9333 3.74 40.648 3.68C40.62 2.93067 40.4733 2.232 39.7613 1.81467C39.484 1.65067 39.0987 1.68133 38.7933 1.70133C38.8053 1.70133 38.8293 1.736 38.6747 1.712C38.5533 1.69067 38.4227 1.67467 38.2947 1.65733C38.164 1.64 38.0653 1.61867 37.76 1.58C37.4093 1.53733 37.2387 1.132 36.9893 0.889331C36.536 0.459998 36.06 0.710665 35.752 1.14533C35.6133 1.33467 35.7347 1.61866 35.828 1.792C36.076 2.284 35.5173 2.064 35.2866 2.296C35.064 2.51733 34.9653 2.864 34.8587 3.148C34.7813 3.34933 34.608 3.95333 34.3693 3.56933C34.2787 3.416 34.104 3.29333 33.9693 3.18267C33.604 2.85733 33.3027 2.87733 32.8053 2.94933C32.1907 3.05333 31.5413 3.19067 30.9693 3.46667C30.7893 3.54267 30.752 3.78933 30.8386 3.94133C30.992 4.20133 31.1626 4.448 31.2973 4.71467C30.6133 4.98667 29.4507 5.31733 29.9147 6.248C30.036 6.492 30.1746 6.74266 30.2346 6.96533C30.2266 7.03866 30.2507 7.11733 30.26 7.19333C30.2533 7.26933 30.2333 7.34 30.1867 7.40267C30.116 7.472 29.9947 7.536 29.7373 7.58666C29.2373 7.68933 28.7787 7.73866 28.536 7.99866C28.4933 8.02133 28.448 8.02533 28.4066 8.05333C28.236 8.16 28.1933 8.35866 28.2787 8.54C28.4507 8.89066 28.276 9.228 28.2373 9.56933C27.9493 10.82 27.8093 10.1533 26.5333 10.7107C25.9813 10.9533 25.94 11.2427 26.0906 11.524C26.0973 11.584 26.0813 11.628 26.0987 11.6947C26.128 11.8 26.212 11.864 26.3107 11.8773C26.2627 11.9747 26.2253 12.084 26.192 12.2093C25.972 12.1013 25.6866 12.0227 25.3893 11.9827C25.432 11.9733 25.4733 11.9613 25.5187 11.952C24.8107 11.8573 24.6 11.864 24.84 11.9667C24.1427 12.0013 23.5493 12.3013 23.7506 13.0467C23.88 13.5213 24.428 13.956 24.028 14.4747C23.5506 14.6667 23.0933 15.292 22.9013 15.8653C22.9 15.868 22.9 15.8693 22.8987 15.872C22.8787 15.932 22.864 15.9893 22.852 16.0467C22.7427 16.412 22.7493 16.7747 23.0693 17.1027C23.1893 17.228 23.3507 17.312 23.5133 17.388C23.8413 17.6533 23.9866 17.8467 24.092 18.1067C24.0866 18.176 24.0827 18.248 24.088 18.3413C24.112 18.6067 24.32 18.9627 24.396 19.2547C24.3866 19.344 24.3733 19.4867 24.3613 19.6587C24.2506 19.9 24.0933 20.216 24.132 20.4653C24.1586 20.6293 24.2453 20.8227 24.3467 21.0013C24.3787 21.34 24.4547 21.5747 24.6227 21.488C24.5573 21.5213 24.484 21.5493 24.4133 21.5787C24.208 21.5973 23.9213 21.5987 23.7506 21.712C23.592 21.8173 23.4853 21.936 23.4053 22.0587C23.3013 22.172 23.2507 22.3213 23.2667 22.52C23.2653 22.6693 23.292 22.8213 23.3573 22.9747C23.068 22.968 22.852 22.9747 22.6693 22.992C22.2547 22.9827 21.868 23.0333 21.7293 23.3827C21.656 23.5653 21.6747 23.7613 21.684 23.9533C21.688 24.124 21.7213 24.2947 21.744 24.4653C21.744 24.5187 21.7506 24.5733 21.7506 24.6267C21.7213 24.62 21.68 24.6093 21.648 24.6013C21.5266 24.468 21.38 24.368 21.1693 24.3987Z" fill="black"/>
</svg>
