<svg width="96" height="135" viewBox="0 0 96 135"  fill="none" xmlns="http://www.w3.org/2000/svg">
<path d="M57.516 124.961C57.6786 125.316 57.8773 125.791 58.072 126.341C57.616 126.549 57.1266 126.872 56.7506 127.335C56.6533 127.312 56.572 127.3 56.492 127.289C56.6946 126.549 57.0373 125.521 57.516 124.961ZM30.8093 129.792C30.7559 129.804 30.6999 129.815 30.6359 129.835C30.3573 129.535 30.0066 129.336 29.6853 129.213C29.7919 128.828 29.9093 128.492 30.0039 128.243C30.3573 128.604 30.6386 129.293 30.8093 129.792ZM27.3959 58.4827C27.3973 58.5013 27.4 58.524 27.4013 58.5413C27.4067 58.604 27.4119 58.6667 27.4173 58.732L27.1933 58.7467C27.1933 58.7467 27.1973 58.7387 27.3959 58.4827ZM54.6386 23.7867C54.64 23.6667 54.6453 23.544 54.6466 23.428C54.9546 23.776 54.964 23.7867 54.964 23.7867H54.6386ZM58.5 127.872C58.3733 127.92 58.2346 127.981 58.0786 128.065C57.912 127.897 57.7359 127.751 57.5533 127.645C57.7786 127.363 58.0146 127.1 58.2426 126.867C58.3426 127.195 58.4293 127.529 58.5 127.872ZM29.756 130.397C29.6453 130.347 29.548 130.311 29.4613 130.284C29.492 130.045 29.5373 129.811 29.5906 129.583C29.7573 129.732 29.9306 129.901 30.0973 130.084C29.9773 130.164 29.864 130.273 29.756 130.397ZM50.7733 130.092C50.76 130.18 50.7519 130.251 50.7506 130.3C50.7506 130.243 50.7519 130.165 50.7546 130.063L50.7733 130.092ZM40.2493 131.355C40.2506 131.305 40.2506 131.251 40.2506 131.197C40.4213 131.055 40.6693 130.86 40.9559 130.661C41.6186 130.772 42.3506 131.068 42.9613 131.364C42.5893 131.399 42.2186 131.433 41.864 131.48C41.724 131.476 41.5626 131.472 41.4053 131.467C41.644 131.391 41.8787 131.339 42.0853 131.345C41.3267 131.159 40.6133 131.271 40.2493 131.355ZM34.8866 131.613C34.8866 131.612 34.8853 131.608 34.8853 131.605C34.8813 131.573 34.872 131.523 34.8573 131.455L34.8706 131.432C34.8773 131.504 34.8826 131.576 34.8866 131.613ZM29.3439 70.084C29.3253 70.08 29.3133 70.0773 29.2893 70.0707C29.2839 70.0693 29.2799 70.068 29.2759 70.0667C29.4452 70.0707 29.608 70.0787 29.76 70.0867C29.7546 70.1693 29.7693 70.2587 29.7719 70.344C29.6519 70.2667 29.5573 70.1813 29.4213 70.1093C29.4213 70.1093 29.3919 70.0987 29.3439 70.084ZM51.596 39.3267C51.66 39.1267 51.7666 38.7973 51.9293 38.3253C51.956 38.5693 51.9933 38.8173 52.0266 39.0653C51.936 39.196 51.8613 39.316 51.788 39.4347C51.7666 39.468 51.7426 39.504 51.7226 39.536C51.7013 39.572 51.6879 39.6013 51.6679 39.636C51.6173 39.6227 51.5693 39.612 51.5186 39.5987C51.5199 39.5813 51.5213 39.5627 51.5227 39.544C51.524 39.5467 51.5253 39.548 51.5266 39.5507C51.5506 39.4747 51.572 39.4027 51.596 39.3267ZM42.5546 96.6787L42.5573 96.6747V96.6773C42.5573 96.6773 42.556 96.6787 42.5546 96.6787ZM42.472 129.919C42.6426 130.035 42.7933 130.141 42.9173 130.233C42.9239 130.307 42.9306 130.389 42.9373 130.46C42.584 130.401 42.0133 130.343 41.3466 130.407C41.7053 130.191 42.0946 130.011 42.472 129.919ZM40.2626 128.767C40.4106 128.817 40.5546 128.868 40.7 128.932C40.5573 128.975 40.4132 129.023 40.2652 129.083C40.2652 128.977 40.264 128.872 40.2626 128.767ZM38.9866 108.175L38.9853 108.173V108.171L38.9866 108.175ZM41.2132 127.673C41.8639 128.091 42.324 128.532 42.472 128.688C42.4173 128.685 42.3493 128.687 42.2786 128.687C41.9533 128.612 41.3159 128.501 40.4279 128.484C40.7039 128.185 40.9826 127.901 41.2132 127.673ZM40.236 127.305C40.2533 127.264 40.272 127.224 40.2906 127.185C40.4653 127.257 40.6293 127.339 40.788 127.424C40.612 127.511 40.428 127.636 40.2493 127.793C40.2453 127.629 40.2413 127.465 40.236 127.305ZM42.3813 129.861C41.1533 129.895 40.4479 130.167 40.4479 130.167C40.4479 130.167 40.8227 129.695 41.4187 129.281C41.772 129.473 42.1 129.673 42.3813 129.861ZM30.2652 69.3933C30.2666 69.4067 30.268 69.42 30.2693 69.4333C30.236 69.444 30.2013 69.4547 30.1679 69.4653C30.1519 69.4427 30.1399 69.4213 30.1253 69.3987C30.1133 69.3813 30.0973 69.3627 30.0853 69.3467C30.028 69.2627 29.9666 69.1787 29.8946 69.088C29.9066 68.916 29.9173 68.7413 29.9239 68.5707C30.0666 68.9053 30.1599 69.1427 30.2119 69.276C30.2293 69.3187 30.244 69.3587 30.26 69.4027C30.2613 69.3987 30.2626 69.396 30.2652 69.3933ZM42.0893 63.0827L42.2652 63.2C42.2466 63.304 42.2293 63.404 42.2093 63.5053C42.0919 63.0907 42.0893 63.0827 42.0893 63.0827ZM41.4413 70.632C41.3159 71.12 41.2106 71.6293 41.1146 72.1413C40.2359 71.2453 39.104 70.0947 38.7106 69.72L37.7466 70.1667L37.7053 69.5413C37.7053 69.5413 37.2506 69.276 36.3999 69.06C36.3666 69.052 36.3333 69.044 36.2999 69.036C36.2786 69.0307 36.2573 69.0253 36.236 69.0213C36.2626 68.9787 36.2946 68.9373 36.3253 68.8947C36.4066 68.7813 36.4973 68.664 36.5946 68.544C37.0986 67.92 37.8 67.2373 38.6973 66.8573C38.4346 65.4867 38.4346 65.4867 38.4346 65.4867L39.3613 66.3787C39.3613 66.3787 40.92 64.9733 42.0413 64.432C41.512 67.4427 41.228 69.8533 41.228 69.8533L41.672 69.8173C41.5907 70.0773 41.5159 70.3453 41.4453 70.6187C41.4439 70.6227 41.4426 70.6267 41.4413 70.632ZM35.3026 77.7467C35.2973 77.736 35.292 77.7253 35.2867 77.7133C35.2213 77.58 35.1599 77.452 35.0986 77.328C35.0839 77.2973 35.0706 77.2693 35.0546 77.24C35.0026 77.1333 34.952 77.0293 34.9026 76.9347C34.8773 76.888 34.856 76.848 34.832 76.8053C34.8066 76.756 34.7813 76.704 34.756 76.6613L35.0839 76.4907L34.4239 75.4293C35.0226 74.2067 35.024 74.204 35.024 74.204L35.0386 75.76L36.2347 76.808L37.1159 75.712L36.7733 77.0147C36.7733 77.0147 39.116 79.3653 40.3387 81.0467C40.4507 81.2 40.528 81.332 40.62 81.4733C40.3613 84.4987 40.252 89.0013 40.252 89.0013L41.0119 89.304L41.1306 89.3507C41.1173 89.4013 41.1039 89.4453 41.0919 89.4987C41.0892 89.5107 41.0853 89.5213 41.0839 89.532C41.0719 89.5867 41.06 89.652 41.048 89.7093C41.0253 89.824 41.0013 89.9387 40.9786 90.0653C40.9733 90.0933 40.9693 90.12 40.964 90.148C40.9626 90.1587 40.9599 90.1667 40.9586 90.176C40.9519 90.216 40.9466 90.2613 40.94 90.304C40.9173 90.44 40.896 90.5787 40.8746 90.724C40.8626 90.812 40.852 90.9027 40.84 90.9933C40.82 91.1467 40.8013 91.3027 40.7813 91.464C40.7719 91.5493 40.7613 91.636 40.752 91.724C40.732 91.908 40.7133 92.0947 40.6946 92.2853C40.6893 92.3533 40.6826 92.42 40.676 92.4867C40.6533 92.7187 40.6333 92.952 40.6146 93.1867C40.6119 93.2133 40.6093 93.24 40.6066 93.2667C40.4213 95.5573 40.3479 97.8187 40.3479 97.8187L41.5747 97.9533C41.5707 97.976 41.5626 97.9973 41.5586 98.0213C41.56 98.0213 41.5613 98.0213 41.5626 98.0213C41.5293 98.1813 41.4986 98.34 41.472 98.5013C41.4693 98.516 41.4653 98.5293 41.4626 98.5427C41.4626 98.5453 41.4626 98.5507 41.464 98.5533C40.944 101.62 41.2173 104.765 41.2173 104.765L42.2466 104.559C42.1759 104.777 42.108 104.999 42.0507 105.225C42.0493 105.227 42.0493 105.227 42.0493 105.228C41.0959 108.964 41.808 113.603 41.808 113.603L41.9599 113.615C41.9599 113.635 41.9613 113.656 41.9626 113.676C41.9626 113.681 41.9626 113.685 41.9626 113.689C42.0546 116.22 42.3999 119.739 42.5839 121.493C42.5826 121.528 42.5813 121.567 42.5799 121.6C42.5719 121.716 42.5653 121.835 42.5599 121.961C42.5546 122.071 42.5506 122.184 42.548 122.301C42.5453 122.393 42.5439 122.489 42.5426 122.585C42.5413 122.721 42.5386 122.856 42.5386 122.997C42.5386 123.003 42.5386 123.008 42.5386 123.013C41.7333 122.419 41.0986 122.173 41.0986 122.173C41.0986 122.173 41.844 123.228 42.568 124.575C42.576 124.808 42.5853 125.048 42.5946 125.288C41.5159 124.461 40.3799 124.529 40.3799 124.529C40.3799 124.529 41.596 125.513 42.6586 126.553C42.6693 126.757 42.6826 126.96 42.6946 127.161C41.8799 126.889 41.1119 126.792 40.4906 126.769C40.8359 126.081 41.1373 125.589 41.1373 125.589C41.1373 125.589 40.712 125.787 40.1866 126.232C40.1853 126.209 40.1826 126.193 40.1813 126.172C40.1639 125.935 40.1453 125.716 40.124 125.512C40.1173 125.453 40.1093 125.399 40.1027 125.343C40.096 125.292 40.0906 125.236 40.0839 125.189C40.1333 123.975 40.2106 121.549 40.1599 119.811C40.1599 119.804 40.1586 119.799 40.1586 119.791C40.1586 119.781 40.1586 119.769 40.1586 119.76L40.2613 119.745C40.2613 119.745 40.576 116.131 39.5546 113.563L40.2706 113.659C40.2706 113.659 40.312 111.5 39.8213 109.425C39.8213 109.42 39.8213 109.409 39.8213 109.403C39.816 109.38 39.808 109.36 39.804 109.339C39.7787 109.241 39.7506 109.145 39.7226 109.049C39.7266 109.049 39.7293 109.049 39.732 109.048C39.728 109.032 39.7213 109.019 39.7173 109.003L40.552 108.855C40.552 108.855 40.4653 107.967 40.3226 106.859C40.3226 106.857 40.3226 106.857 40.3226 106.856C40.3093 106.76 40.2973 106.661 40.284 106.564C40.272 106.477 40.2613 106.395 40.2506 106.308C40.2493 106.3 40.2479 106.292 40.2466 106.283C40.1706 105.728 40.0839 105.152 39.9866 104.62C39.9853 104.609 39.984 104.597 39.9813 104.587C39.9533 104.425 39.9226 104.271 39.8933 104.12C39.8879 104.099 39.8839 104.077 39.8799 104.056C39.8519 103.92 39.8226 103.791 39.7946 103.667C39.792 103.657 39.7906 103.648 39.7893 103.641C39.7879 103.637 39.7867 103.633 39.7867 103.629C39.7827 103.615 39.7786 103.6 39.7759 103.587C39.7506 103.476 39.7226 103.377 39.6946 103.281C39.6893 103.257 39.6826 103.231 39.676 103.208C39.6733 103.201 39.672 103.196 39.6693 103.189C39.6586 103.151 39.6466 103.119 39.6359 103.084L40.2213 102.807C40.2213 102.807 39.9293 99.5733 39.6066 97.5133C39.6066 97.512 39.6079 97.512 39.6079 97.512C39.6053 97.492 39.6012 97.476 39.5986 97.4587C39.5652 97.244 39.5306 97.0467 39.4973 96.864C39.4919 96.8387 39.4866 96.8093 39.4813 96.784L39.6786 96.704C39.6786 96.704 39.4786 93.0213 38.576 90.26C38.572 90.2493 38.5679 90.24 38.5639 90.228C38.5066 90.052 38.4453 89.88 38.3813 89.7133L38.6906 89.7173C38.6906 89.7173 38.076 86.3947 37.152 83.3147C37.1506 83.3107 37.1506 83.308 37.1493 83.304C37.1453 83.288 37.1399 83.2733 37.1359 83.2587C37.0866 83.0987 37.0373 82.9413 36.988 82.784C36.9893 82.7827 36.9893 82.7827 36.9906 82.7813C36.9706 82.7173 36.9493 82.6573 36.9279 82.5947C36.9146 82.5493 36.9 82.5027 36.8853 82.456L36.9613 82.3907L37.2306 82.1587C37.2306 82.1587 36.7413 80.9707 36.1586 79.6413C35.88 79.0013 35.5813 78.336 35.3026 77.7467ZM45.1946 51.6773C45.1773 51.7147 45.1613 51.7547 45.1453 51.7947C45.0626 52 44.9773 52.2133 44.892 52.4333C44.88 52.4667 44.8666 52.4987 44.8546 52.5307C44.7613 52.7693 44.6693 53.012 44.5747 53.26C44.568 53.2773 44.5626 53.2947 44.5546 53.3107C44.12 54.464 43.6853 55.6813 43.336 56.676C43.124 56.6613 42.924 56.64 42.704 56.6293C41.704 57.2147 41.5546 57.5707 41.5546 57.5707L41.704 57.2147C41.704 57.2147 39.4066 57.5973 37.6959 58.4973C37.6999 58.4947 37.7026 58.4907 37.7053 58.488C37.6839 58.5 37.664 58.5147 37.6413 58.5253C37.4666 58.62 37.2986 58.7187 37.1386 58.824C37.12 58.8387 37.0973 58.8493 37.0786 58.8627C36.9066 58.98 36.7506 59.1053 36.6092 59.2373C36.5692 59.2733 36.5346 59.312 36.4973 59.3507C36.3973 59.4533 36.3066 59.56 36.2293 59.6707C36.1973 59.7133 36.1666 59.7573 36.1386 59.8027C36.0466 59.956 35.9706 60.1133 35.9279 60.2813C35.8893 60.2147 35.868 60.1787 35.8387 60.128C36.2187 59.4467 36.4973 58.972 36.4973 58.972L36.1013 57.8507C36.1013 57.8507 36.4266 57.9947 37.368 58.54C37.4426 58.3813 37.5346 58.2093 37.6359 58.032C37.6813 57.9507 37.736 57.8627 37.7867 57.776C37.8547 57.664 37.9186 57.552 37.9933 57.4347C39.6053 54.876 42.7973 51.2293 42.7973 51.2293L42.1746 49.3653L43.5586 50.8733L45.1933 49.2387L45.068 46.9747C45.068 46.9747 45.0706 46.9787 46.0559 48.7013L45.2 50.3027L45.6919 50.52C45.6746 50.5547 45.656 50.5973 45.6386 50.6347C45.5866 50.7507 45.5332 50.8667 45.4772 50.996C45.4639 51.0293 45.452 51.0547 45.4373 51.0867L45.4386 51.088C45.4346 51.0987 45.4293 51.1107 45.4239 51.1213C45.3506 51.2973 45.2733 51.4813 45.1946 51.6773ZM29.4066 131.011C29.4039 130.833 29.4146 130.652 29.4333 130.472C29.4786 130.519 29.528 130.575 29.5786 130.635C29.512 130.747 29.4519 130.868 29.4066 131.011ZM30.472 130.927C30.4986 130.841 30.5253 130.756 30.5546 130.679C30.7133 130.937 30.824 131.201 30.8213 131.449C30.7253 131.239 30.6026 131.073 30.472 130.927ZM30.3426 132.049C30.3346 132.063 30.3239 132.073 30.3159 132.085C30.3133 132.083 30.3106 132.079 30.308 132.073C30.3066 132.031 30.312 131.995 30.312 131.955C30.3226 131.985 30.3333 132.017 30.3426 132.049ZM58.6493 128.924C58.5693 128.721 58.4693 128.548 58.3613 128.392C58.4293 128.3 58.4947 128.212 58.5573 128.139C58.6013 128.403 58.636 128.667 58.6493 128.924ZM57.0906 128.904C56.9159 129.128 56.7519 129.38 56.6333 129.696C56.6066 129.337 56.7413 128.944 56.9479 128.552C56.9986 128.661 57.0439 128.781 57.0906 128.904ZM57.4213 130.383C57.4253 130.44 57.4359 130.495 57.4386 130.555C57.4346 130.561 57.432 130.568 57.4293 130.575C57.4173 130.555 57.3999 130.541 57.3866 130.524C57.3986 130.475 57.4093 130.428 57.4213 130.383ZM52.34 40.8213C52.336 40.712 52.332 40.6027 52.3186 40.4987C52.5386 40.4693 52.7733 40.4453 53.0173 40.4213C53.0133 40.424 53.0093 40.4253 53.0053 40.4267C52.9653 40.4413 52.9453 40.4467 52.9173 40.4573C52.8519 40.4813 52.8093 40.4987 52.8093 40.4987C52.6399 40.6027 52.4906 40.712 52.34 40.8213ZM30.9893 130.368C30.9493 130.267 30.8906 130.183 30.8346 130.095C30.8533 130.065 30.868 130.041 30.884 130.016C30.952 130.225 30.9893 130.368 30.9893 130.368ZM56.4066 127.62C56.4319 127.656 56.4573 127.691 56.4853 127.732C56.4133 127.863 56.336 127.992 56.2867 128.144C56.2867 128.144 56.3279 127.932 56.4066 127.62ZM93.7946 51.9653C93.7946 51.9653 93.764 51.9627 93.732 51.96C93.724 51.9587 93.7107 51.9547 93.7 51.9533C93.6653 51.9467 93.62 51.9347 93.5747 51.92C93.5573 51.9133 93.54 51.9067 93.5227 51.8987C93.4693 51.8747 93.4159 51.8413 93.3653 51.7973C93.3559 51.788 93.344 51.7827 93.3333 51.772C93.2746 51.712 93.224 51.6347 93.1933 51.5307C93.1186 51.2853 93.1532 50.9 93.4599 50.288C92.8879 48.98 92.2053 47.8347 91.5013 46.8453C91.4999 46.8427 91.4973 46.84 91.496 46.8387C89.312 43.7707 86.9173 42.2347 86.9173 42.2347L85.7426 42.9067C85.7426 42.9067 85.7426 42.9067 86.0786 41.2307C84.236 40.056 78.8653 37.0373 78.8653 37.0373L76.8546 38.3787C76.8546 38.3787 76.8546 38.3787 77.86 36.7013C71.9906 33.3467 68.9693 33.1787 68.9693 33.1787L67.964 34.1867C67.964 34.1867 67.964 34.1867 67.964 32.844C64.8573 32.9053 62.3413 33.3027 60.2613 33.8747C60.2853 33.864 60.3052 33.8533 60.3279 33.8427C60.0906 33.9067 59.8773 33.98 59.6506 34.0493C59.4346 34.116 59.2066 34.1787 59 34.2493C58.5253 34.4107 58.0759 34.5813 57.6533 34.76C57.4839 34.832 57.3346 34.9093 57.1733 34.9827C56.904 35.108 56.6386 35.2333 56.3933 35.3627C56.2253 35.4507 56.068 35.54 55.912 35.632C55.6933 35.756 55.4839 35.8813 55.2853 36.0107C55.1466 36.0987 55.0079 36.188 54.8786 36.2773C54.6653 36.424 54.4693 36.5733 54.2786 36.7213C54.1919 36.7907 54.0946 36.8587 54.0119 36.9267C53.8639 37.048 53.7359 37.168 53.6013 37.2893C54.9386 35.1933 56.9013 32.396 58.3186 31.584C57.7333 30.7467 57.7333 30.7467 57.7333 30.7467L59.0733 30.9147C59.0733 30.9147 59.0933 30.8747 59.1173 30.8347C59.1226 30.824 59.132 30.808 59.1386 30.796C59.2533 30.588 59.5173 30.1267 59.8773 29.5387C60.7693 28.0827 62.2413 25.888 63.436 25.128C62.0907 23.8693 62.0906 23.8693 62.0906 23.8693L63.6879 24.4573C63.6879 24.4573 63.6946 24.4427 63.7053 24.4253C63.7093 24.4187 63.7173 24.4093 63.7226 24.4013C63.7346 24.3827 63.7493 24.3613 63.7679 24.3373C63.7786 24.3227 63.7946 24.3053 63.8066 24.2893C63.8279 24.2627 63.8532 24.236 63.8799 24.2053C63.8999 24.1867 63.9226 24.164 63.9453 24.1413C63.9773 24.1107 64.0146 24.0787 64.0546 24.0453C64.0826 24.0227 64.1132 23.9973 64.1439 23.9747C64.1906 23.94 64.2413 23.9053 64.2946 23.8693C64.3333 23.8467 64.3719 23.8213 64.4146 23.7973C64.4732 23.7627 64.5413 23.7293 64.6106 23.6973C64.66 23.6733 64.7079 23.6493 64.7613 23.6267C64.8359 23.596 64.9213 23.568 65.0053 23.54C65.0693 23.5187 65.128 23.496 65.1973 23.476C65.352 23.4333 65.5173 23.396 65.7 23.3653C64.0213 21.8573 64.1066 21.356 64.1066 21.356L67.2919 22.7787C67.2919 22.7787 71.068 19.0907 72.156 18.42C71.068 17.4133 70.7293 16.9933 70.7293 16.9933L73.5839 18.168L78.28 15.4L77.5266 14.3947L79.5373 15.148C79.5373 15.148 83.896 13.2187 87.8387 14.14C87.5467 13.6907 87.184 13.232 86.76 12.7747C86.7866 12.784 86.8346 12.8013 86.8346 12.8013C86.8346 12.8013 86.7866 12.784 86.7573 12.772C84.0159 9.82133 78.528 7.00266 70.3946 8.02C70.8133 9.27733 70.8986 9.69733 70.8986 9.69733L69.4733 8.35466C69.4733 8.35466 66.7039 8.77466 62.7653 11.7093C63.6013 13.052 63.6013 13.052 63.6013 13.052L62.3452 12.716C62.3452 12.716 61.1693 13.556 60.1639 15.3147C60.7519 16.072 60.752 16.072 60.752 16.072L58.6547 15.9027C58.6547 15.9027 56.32 19.26 54.6453 22.364C54.6426 22.2107 54.6373 22.068 54.6306 21.9213C54.628 21.8173 54.6253 21.7133 54.62 21.6133C54.6027 21.2747 54.5826 20.9493 54.5546 20.64C54.5493 20.5813 54.5426 20.528 54.5373 20.4733C54.5133 20.2133 54.4853 19.9653 54.4546 19.7267C54.4426 19.6387 54.4306 19.5507 54.4173 19.464C54.3866 19.244 54.3533 19.0307 54.316 18.828C54.3053 18.772 54.2973 18.712 54.2867 18.6573C54.24 18.408 54.1907 18.172 54.1373 17.948C54.124 17.8933 54.1106 17.8427 54.0973 17.788C54.0546 17.6147 54.0119 17.4493 53.9666 17.292C53.9506 17.2373 53.9347 17.1813 53.9187 17.128C53.864 16.9453 53.8093 16.7707 53.7546 16.6107C53.7519 16.604 53.7506 16.5973 53.7493 16.5907C53.2706 15.2173 52.784 14.6453 52.784 14.6453L51.7786 15.8173C51.7786 15.8173 51.6946 15.4 52.1973 14.0587C50.432 10.032 47.9187 7.93733 47.9187 7.93733L47.3333 9.27733C47.3333 9.27733 47.3226 9.23333 47.3053 9.16266C47.2986 9.14133 47.2933 9.12399 47.2853 9.09466C47.2653 9.01999 47.236 8.92133 47.1973 8.79733C47.184 8.75066 47.1693 8.708 47.152 8.65466C47.1093 8.52 47.0546 8.36133 46.992 8.18266C46.968 8.11333 46.948 8.05466 46.92 7.97866C46.9066 7.94133 46.8986 7.91466 46.8826 7.87333C46.8839 7.87999 46.8853 7.88533 46.8866 7.89199C46.7986 7.65199 46.7013 7.39733 46.5786 7.09599C44.9 4.99866 39.596 2.50666 39.596 2.50666L38.968 2.948C38.968 2.948 38.968 2.948 39.0306 1.94133C31.5466 0.429328 27.8346 0.682661 27.8346 0.682661C30.4333 1.22666 33.0747 6.88666 33.0747 6.88666L34.0826 5.96533C34.0826 5.96533 34.0826 5.96533 33.4546 7.30799C35.0066 8.19066 37.992 12.3893 37.992 12.3893L39.1933 11.7093C39.1933 11.7093 39.1933 11.7093 38.2733 12.6307C40.1266 14.4227 41.7573 17.2 42.4626 18.4867C42.4613 18.4867 42.4599 18.4867 42.4586 18.4867C42.5706 18.6893 42.656 18.8493 42.7186 18.968C42.792 19.1053 42.832 19.1867 42.832 19.1867L44.8159 18.9213L43.4333 19.552L45.5733 26.468L46.9559 26.9733L45.5733 27.0987L45.6146 27.2587L45.8519 28.1573L42.8053 26.092C42.8053 26.092 42.8053 26.092 42.4266 26.8467C42.3506 26.6053 42.2226 26.3827 42.0733 26.1693C42.0306 26.1093 41.9839 26.0547 41.9386 25.9973C41.8079 25.8373 41.6626 25.684 41.4986 25.5387C41.448 25.4933 41.4026 25.448 41.3493 25.4053C41.124 25.2227 40.8799 25.0493 40.6119 24.892C40.6053 24.8893 40.6 24.8853 40.5933 24.8827C40.3293 24.728 40.0439 24.5867 39.7506 24.4547C39.7239 24.4427 39.7013 24.4267 39.6746 24.416C39.6786 24.4187 39.6813 24.4213 39.6853 24.4253C37.1186 23.2853 33.7479 22.9493 33.7479 22.9493L34 23.4493C34 23.4493 33.7479 22.9493 32.2373 22.1933C29.6453 22.4813 27.5279 23.012 25.7746 23.6493C25.7759 23.6467 25.7733 23.644 25.7746 23.6413C25.7053 23.6667 25.6453 23.6933 25.5786 23.7187C25.3613 23.8013 25.1519 23.8827 24.9479 23.968C24.7506 24.048 24.5599 24.132 24.3719 24.2147C24.1853 24.3 23.9946 24.3827 23.8173 24.4693C23.5986 24.576 23.3959 24.684 23.1946 24.7933C22.9479 24.924 22.7133 25.0573 22.4893 25.192C22.3266 25.2893 22.164 25.3853 22.0133 25.484C21.8733 25.5747 21.7426 25.664 21.6119 25.7547C21.4773 25.848 21.3493 25.94 21.224 26.032C21.1053 26.1213 20.9893 26.208 20.8786 26.296C20.7506 26.3973 20.6333 26.496 20.516 26.596C20.3933 26.7 20.2746 26.8027 20.1639 26.904C20.0266 27.0307 19.8933 27.156 19.7733 27.2773C19.696 27.3547 19.6306 27.4253 19.5599 27.5C19.4773 27.5867 19.4 27.672 19.3253 27.7547C19.2653 27.824 19.2079 27.8893 19.1533 27.956C19.0813 28.0413 19.0173 28.1227 18.9546 28.2013C18.916 28.252 18.8719 28.3053 18.8373 28.352C18.7506 28.4693 18.6746 28.5773 18.6092 28.6733C18.5826 28.712 18.564 28.7427 18.5413 28.7787C18.5 28.8413 18.4639 28.9 18.4319 28.9507C18.4146 28.9827 18.4 29.0067 18.384 29.0333C18.3587 29.08 18.3386 29.1147 18.3226 29.1453C18.312 29.164 18.3066 29.1747 18.2999 29.188C18.2853 29.2173 18.2759 29.236 18.2759 29.236C18.6239 29.14 18.9719 29.0707 19.3199 29.012C19.4226 28.9947 19.528 28.9813 19.6306 28.968C19.8906 28.932 20.148 28.9067 20.4053 28.8893C20.4973 28.8827 20.5906 28.8747 20.684 28.8707C21.016 28.8573 21.3453 28.8547 21.6666 28.8653C21.7346 28.868 21.8013 28.8747 21.868 28.8787C22.1293 28.8933 22.3853 28.9133 22.6373 28.94C22.7387 28.9507 22.8399 28.9627 22.9413 28.9747C23.1733 29.0053 23.4013 29.04 23.6226 29.08C23.6946 29.0907 23.768 29.1027 23.8387 29.116C24.1173 29.168 24.3853 29.2267 24.6399 29.2893C24.7159 29.308 24.7879 29.3253 24.8613 29.3453C25.0506 29.3933 25.2346 29.4427 25.4066 29.4933C25.4759 29.5147 25.5453 29.5333 25.6119 29.5547C25.8279 29.62 26.0346 29.6867 26.2173 29.7507C26.992 30.0187 27.4559 30.244 27.4559 30.244L27.8346 29.236C27.8346 29.236 27.8346 29.236 28.2132 30.9987C29.8466 31.2507 32.6146 32.3813 32.6146 32.3813L33.7479 31.5013C33.7479 31.5013 33.748 31.5013 33.3706 33.264C34.624 33.552 36.6759 35.0147 37.5733 35.6867C37.6653 35.7547 37.724 35.8013 37.7906 35.8507C37.9253 35.9547 38.024 36.0307 38.024 36.0307L39.284 34.6467C39.284 34.6467 39.284 34.6467 39.0306 36.6587C40.4293 37.1453 41.5559 38.132 42.3546 39.0213C42.4039 39.076 42.4546 39.1307 42.5013 39.184C42.6159 39.3173 42.716 39.4427 42.8146 39.568C42.804 39.572 42.7919 39.576 42.7786 39.58C42.6906 39.6067 42.6053 39.6333 42.524 39.66C42.3413 39.72 42.1746 39.7787 42.0213 39.8387C41.9933 39.8493 41.9586 39.8587 41.9319 39.8693C41.9319 39.8693 41.932 39.8707 41.9333 39.8707C41.1386 40.1867 40.7293 40.4667 40.7293 40.4667V41.3747L39.2867 40.8173C38.9467 41.188 38.1973 42.048 37.392 42.9813C37.3013 43.0053 37.2239 43.0227 37.1333 43.0467C37.1439 43.136 37.1506 43.184 37.1586 43.2507C37.076 43.348 36.9906 43.4453 36.9066 43.5427L36.7706 43.4613C36.7706 43.4613 33.2479 45.4107 32.1919 46.924C32.1199 47.136 32.0653 47.316 32.0146 47.4853C32.0159 47.48 32.016 47.4747 32.0173 47.4693C32.0066 47.5053 32 47.5307 31.9893 47.564C31.98 47.5947 31.9733 47.62 31.9666 47.6493C31.9239 47.7947 31.8906 47.9173 31.8653 48.024C31.8573 48.0573 31.8506 48.084 31.8439 48.1133C31.8213 48.2053 31.8053 48.2787 31.7946 48.3307C31.792 48.348 31.7893 48.3573 31.7867 48.3693C31.776 48.42 31.7706 48.4533 31.7706 48.4533L31.308 47.5613C31.308 47.5613 29.6786 49.1107 28.6506 51.952C29.0573 52.848 29.0173 53.1387 29.0173 53.1387L28.2773 52.38C28.2773 52.38 27.9693 52.796 27.7026 53.7613C27.7013 53.76 27.7013 53.7587 27.7013 53.7573C27.6546 53.928 27.6107 54.1227 27.568 54.328C27.56 54.368 27.552 54.4093 27.544 54.4507C27.5053 54.6533 27.4706 54.8707 27.44 55.1067C27.436 55.1307 27.432 55.152 27.4293 55.176C27.3986 55.432 27.3733 55.7093 27.3573 56.0053C27.3533 56.068 27.3506 56.1333 27.3479 56.1973C27.3359 56.4587 27.3293 56.7333 27.3306 57.0253C27.3319 57.0867 27.3306 57.1413 27.3306 57.2027C27.3333 57.3853 27.3426 57.5787 27.3519 57.7707C26.0626 55.7133 24.3053 53.5067 24.3053 53.5067L22.8759 53.7173C22.8759 53.7173 22.876 53.7173 23.2453 53.1733C22.4733 52.0107 21.6333 51.488 21.6333 51.488L20.7853 51.7747C20.7853 51.7747 20.7853 51.7747 21.2999 50.8173C18.4653 48.9813 16.5453 48.8187 16.5453 48.8187L15.6319 49.8027C15.6319 49.8027 15.6693 49.512 15.9013 48.632C10.2773 48.3 6.63993 50.48 4.89326 52.628C4.87459 52.636 4.84394 52.6493 4.84394 52.6493C4.84394 52.6493 4.87463 52.6373 4.89196 52.6307C4.62263 52.9627 4.39463 53.2933 4.21463 53.6133C6.87463 52.8027 9.95063 53.9307 9.95063 53.9307L11.2986 53.3227L10.8253 54.0453L14.1706 55.732L16.0747 54.7987C16.0747 54.7987 15.8612 55.1 15.1612 55.8413C15.9372 56.2533 18.6946 58.6133 18.6946 58.6133L20.8133 57.4907C20.8133 57.4907 20.8946 57.832 19.8106 58.9427C20.0266 58.9627 20.188 59.0093 20.3466 59.056C20.4293 59.08 20.5173 59.1027 20.5853 59.132C20.6813 59.1707 20.7599 59.212 20.8306 59.2533C20.8799 59.284 20.9386 59.312 20.9759 59.3413C21.0373 59.3867 21.084 59.428 21.12 59.4667C21.1387 59.484 21.1693 59.5093 21.1826 59.5253C21.216 59.5653 21.2413 59.6 21.2413 59.6L22.3093 59.1267C22.3093 59.1267 22.3092 59.1267 21.4426 60.048C22.4292 60.588 23.7546 62.4227 24.364 63.3187C24.3773 63.3387 24.3879 63.3547 24.3999 63.372C24.4813 63.492 24.5506 63.5973 24.5986 63.672C24.6066 63.684 24.6173 63.6973 24.624 63.7067C24.6626 63.768 24.6946 63.8187 24.6946 63.8187L25.6079 63.644C25.6079 63.644 25.608 63.644 25.2453 64.2467C25.5626 64.4013 25.9279 64.692 26.3106 65.0587C26.2839 65.2813 26.2547 65.5067 26.2347 65.7227C26.2213 65.8533 26.212 65.9747 26.2 66.1027C26.188 66.2413 26.1746 66.38 26.1626 66.516C26.1493 66.5107 26.1373 66.5053 26.1226 66.5C26.0333 66.4667 25.952 66.4307 25.86 66.3987C25.5506 66.2893 25.2226 66.1893 24.8746 66.096C24.7626 66.0667 24.6399 66.0413 24.5253 66.0147C24.3413 65.9707 24.1639 65.9213 23.9693 65.8827C23.9879 65.8907 24.0053 65.8987 24.0253 65.9067C22.5706 65.6067 20.8253 65.4453 18.6866 65.544C18.748 66.4653 18.7479 66.4653 18.7479 66.4653L18.0119 65.8173C18.0119 65.8173 15.9453 66.072 12.0747 68.636C12.8387 69.74 12.8387 69.74 12.8387 69.74L11.4013 68.9107C11.4013 68.9107 7.85461 71.2227 6.64261 72.112C6.94794 73.2467 6.94795 73.2467 6.94795 73.2467L6.11331 72.8387C6.11331 72.8387 5.3906 73.376 4.50394 74.4013C4.5026 74.4013 4.50128 74.4 4.49995 74.4C4.39195 74.5253 4.27731 74.6787 4.16531 74.8173C4.06665 74.9413 3.97192 75.052 3.86925 75.188C3.76525 75.3267 3.66263 75.4893 3.55863 75.6413C3.43463 75.82 3.31193 75.988 3.19193 76.184C3.09593 76.3373 3.00797 76.5147 2.91597 76.6787C2.79197 76.8973 2.66527 77.104 2.54927 77.3413C2.3466 77.7533 2.15599 78.1907 1.98799 78.6547C2.22532 79.06 2.26664 79.3213 2.22798 79.4947C2.21064 79.568 2.17992 79.624 2.13992 79.668C2.13592 79.6747 2.13061 79.6773 2.12528 79.6827C2.09061 79.7173 2.05462 79.744 2.01728 79.7627C2.00662 79.768 1.99458 79.7733 1.98392 79.7787C1.95325 79.792 1.92263 79.8027 1.89863 79.808C1.89197 79.8093 1.88259 79.812 1.87593 79.8133C1.85459 79.8173 1.83459 79.82 1.83459 79.82C1.83459 79.82 -0.922738 85.316 2.92793 91.184C4.07593 87.5267 6.20259 85.588 6.20259 85.588L5.5653 84.4253L6.31595 84.86L8.2786 81.7587L7.73595 80.832L8.55195 81.02L12.0839 77.3347L11.492 75.6893L12.5253 76.7453C12.5253 76.7453 13.3466 75.808 14.0453 75.4413C13.9933 74.6413 13.9933 74.6413 13.9933 74.6413L14.5839 75.084C14.5839 75.084 17.4733 72.6453 19.0453 72.1413C19.1306 71.0107 19.1306 71.0107 19.1306 71.0107L19.5693 71.544C19.5693 71.544 20.8866 70.8427 22.5893 70.6267C22.9146 70.584 23.2506 70.556 23.596 70.5587C23.9373 69.6533 23.9373 69.6533 23.9373 69.6533L24.2199 70.2773C24.2199 70.2773 24.7893 70.228 25.5906 70.176C25.5693 70.184 25.5453 70.196 25.524 70.2027C25.3106 70.276 25.0973 70.3627 24.8813 70.464C24.8386 70.4827 24.7973 70.4933 24.752 70.516L24.7666 70.5213C23.4946 71.1507 22.1853 72.3213 21.148 74.4747C21.7866 74.504 21.7867 74.504 21.7867 74.504L20.7733 75.2067L21.0173 75.6867C21.0173 75.6867 19.5386 79.0373 19.3199 81.104C20.2506 81.256 20.2506 81.256 20.2506 81.256L19.44 81.8747L19.868 81.916C19.868 81.916 19.7133 82.024 19.548 82.308C19.5466 82.308 19.5453 82.3093 19.544 82.3093C19.54 82.316 19.536 82.3253 19.5333 82.332C19.516 82.364 19.4986 82.4027 19.4786 82.4413C19.44 82.524 19.4013 82.62 19.364 82.728C19.3533 82.7627 19.34 82.7907 19.3293 82.828C19.284 82.9773 19.248 83.1533 19.2173 83.352C19.2107 83.3987 19.2053 83.448 19.1986 83.4973C19.1746 83.7027 19.1586 83.928 19.1586 84.188C19.1586 84.208 19.1573 84.2253 19.1573 84.2467C19.1599 84.524 19.1853 84.84 19.224 85.1827C19.2333 85.2587 19.2439 85.3373 19.2546 85.4173C19.3026 85.7587 19.364 86.1227 19.4546 86.5293C19.4533 86.5293 19.4533 86.5293 19.4519 86.5293C19.4586 86.5587 19.464 86.5867 19.472 86.6133C19.9666 86.6533 19.9666 86.6533 19.9666 86.6533L19.4093 87.8213L19.9839 87.9947C19.9839 87.9947 20.6573 92.832 22.7506 96.6573C23.6746 91.36 24.7413 90.3707 24.7413 90.3707L24.2759 89.7653L24.9239 89.9347L25.2626 88.6467C25.2626 88.6467 25.2626 88.6467 25.2613 88.6467L25.8866 86.264L25.304 86.0187L26.4599 85.3053L27.124 83.5627L26.3786 82.976L27.6733 83.3133L29.7813 77.728L28.9999 76.5787L30.1826 77.3493L31.312 74.7933C31.676 75.696 32.2333 77.1093 32.4853 77.9173C32.5666 77.872 32.6306 77.836 32.6973 77.7987C33.148 78.9787 34.06 81.5547 34.1386 83.2133C34.2906 83.1547 34.4119 83.1093 34.5186 83.068C34.5253 83.104 34.5306 83.1347 34.5373 83.1733C34.548 83.2267 34.5599 83.292 34.5706 83.3507C34.8333 84.776 35.3066 87.6053 35.3199 89.6C35.4279 89.608 35.52 89.6133 35.6066 89.62C35.6066 89.6347 35.6079 89.648 35.6079 89.664C35.6533 91.2093 35.728 95.048 35.4266 96.7467C35.5546 96.7693 35.664 96.788 35.7626 96.8053L35.5839 103.339L35.9039 103.324C35.9039 103.337 35.9053 103.347 35.9066 103.36C35.9066 103.381 35.9093 103.4 35.9093 103.421C35.9146 103.523 35.9186 103.637 35.9239 103.755C35.9693 105.025 35.9293 107.26 35.2253 108.577C35.4986 108.587 35.712 108.592 35.9026 108.597C35.904 109.319 35.8506 111.517 35.1986 112.933C35.4146 112.968 35.5933 112.995 35.752 113.021C35.7293 113.203 35.7013 113.417 35.6679 113.669C35.4533 115.229 35.02 117.917 34.4373 119.157C34.6226 119.197 34.7826 119.233 34.9226 119.264L34.8199 119.811L33.6919 125.821L33.756 125.827L33.6773 126.213C33.6773 126.213 33.6786 126.215 33.68 126.215L32.9613 129.739C32.672 129.923 32.3893 130.213 32.2373 130.684C32.2199 129.223 33.0146 127.468 33.0146 127.468C32.3053 128.147 31.724 129.531 31.724 129.531C31.724 129.531 31.6599 128.547 30.5839 127.232C31.2519 128.375 31.1359 129.608 31.1359 129.608C31.1359 129.608 30.8666 128.468 30.0466 128.131C30.1279 127.923 30.1853 127.796 30.1853 127.796C30.0919 127.884 30.0026 127.985 29.916 128.092C29.8546 128.076 29.7973 128.048 29.7293 128.04C29.7799 128.061 29.8279 128.108 29.8759 128.145C29.6439 128.441 29.4359 128.783 29.2719 129.084C29.0453 129.028 28.8826 129.007 28.8826 129.007C28.8826 129.007 29.0066 129.093 29.1906 129.24C29.008 129.591 28.8933 129.857 28.8933 129.857C28.8933 129.857 28.8306 128.872 27.7533 127.559C28.4213 128.7 28.3053 129.936 28.3053 129.936C28.3053 129.936 27.9733 128.493 26.8986 128.367C27.5266 128.632 28.0026 130.151 28.1253 130.579C28.1146 130.579 28.104 130.583 28.0933 130.581C27.5586 129.499 26.052 129.332 26.052 129.332C26.052 129.332 26.9226 129.955 27.4973 130.687C27.4426 130.704 27.3893 130.705 27.3333 130.731C27.4106 130.725 27.4719 130.747 27.5453 130.749C27.8013 131.088 27.9933 131.445 27.9906 131.776C27.4839 130.661 26.3279 130.54 26.3279 130.54C26.3279 130.54 27.2453 131.232 27.5693 132.553C27.5346 132.483 27.4839 132.399 27.4213 132.305C27.4106 132.287 27.3932 132.267 27.3799 132.249C27.3252 132.171 27.2653 132.091 27.1946 132.005C27.1666 131.972 27.1333 131.94 27.104 131.908C27.0386 131.835 26.9719 131.764 26.8972 131.693C26.8532 131.649 26.8053 131.612 26.7573 131.571C26.6866 131.509 26.6159 131.451 26.5386 131.393C26.4813 131.352 26.4186 131.313 26.3586 131.276C26.2839 131.228 26.208 131.183 26.128 131.141C26.0586 131.107 25.9879 131.08 25.9173 131.052C25.8359 131.02 25.7547 130.993 25.672 130.972C25.5947 130.952 25.5186 130.939 25.4373 130.928C25.3533 130.917 25.2679 130.916 25.1813 130.917C25.0986 130.917 25.0172 130.925 24.9319 130.94C24.8932 130.947 24.856 130.941 24.8146 130.951C24.8333 130.951 24.8546 130.955 24.8719 130.956C24.7506 130.981 24.628 131 24.5026 131.056C26.0546 130.955 26.8146 132.387 27.0733 133.007C26.2666 133.097 25.084 133.285 23.5893 133.68C20.6426 134.453 26.1146 133.575 30.5039 133.643C34.8933 133.715 40.9399 133.719 39.4386 133.325C37.9373 132.933 38.6853 132.912 42.3053 132.852C42.5213 132.849 42.708 132.843 42.8746 132.832C43.0413 132.835 43.2106 132.837 43.3826 132.84C43.3773 132.787 43.3746 132.735 43.3693 132.681C45.6959 132.601 45.8826 132.716 44.2999 133.244C42.1559 133.957 50.9386 133.376 57.3053 132.853C63.6706 132.333 71.6986 133.087 67.3466 132.244C65.136 131.815 63.4013 131.655 62.2213 131.6C62.5413 130.669 63.52 128.523 65.7706 128.523C65.584 128.453 65.4039 128.436 65.2226 128.412C65.2506 128.409 65.28 128.401 65.3053 128.399C65.2466 128.388 65.1906 128.4 65.1319 128.393C65.0106 128.381 64.8932 128.379 64.7759 128.384C64.6466 128.391 64.5226 128.404 64.3986 128.427C64.2853 128.449 64.1746 128.475 64.0666 128.511C63.9453 128.551 63.8306 128.597 63.7159 128.651C63.6146 128.699 63.516 128.745 63.4187 128.803C63.3067 128.868 63.2013 128.941 63.096 129.019C63.012 129.081 62.9266 129.139 62.8466 129.207C62.74 129.297 62.6426 129.389 62.5466 129.484C62.4812 129.548 62.416 129.609 62.356 129.675C62.2533 129.785 62.1666 129.893 62.0799 130.004C62.0386 130.056 61.992 130.108 61.9546 130.16C61.8613 130.288 61.7839 130.408 61.7119 130.524C61.6946 130.553 61.6693 130.585 61.6533 130.615C61.5706 130.756 61.5053 130.885 61.464 130.991C61.808 129.039 63.0706 127.948 63.0706 127.948C63.0706 127.948 61.4053 128.236 60.7733 129.901C60.7373 129.413 60.992 128.865 61.34 128.341C61.436 128.333 61.528 128.319 61.6306 128.319C61.5466 128.288 61.4693 128.292 61.3866 128.269C62.1506 127.152 63.356 126.165 63.356 126.165C63.356 126.165 61.1813 126.552 60.5106 128.177C60.4946 128.18 60.4786 128.175 60.4653 128.177C60.6013 127.549 61.1479 125.291 62.0359 124.848C60.4866 125.135 60.1399 127.257 60.1399 127.257C60.1399 127.257 59.8546 125.476 60.7159 123.755C59.2799 125.765 59.28 127.201 59.28 127.201C59.28 127.201 59.088 126.825 58.7906 126.333C59.044 126.101 59.2159 125.963 59.2159 125.963C59.2159 125.963 58.9813 126.008 58.656 126.112C58.3906 125.691 58.0546 125.216 57.6933 124.809C57.7586 124.751 57.8239 124.68 57.8959 124.643C57.7986 124.661 57.7186 124.705 57.6306 124.737C57.4933 124.588 57.3546 124.449 57.2106 124.329C57.2106 124.329 57.3053 124.509 57.444 124.803C56.2813 125.368 56 127.055 56 127.055C56 127.055 55.7133 125.275 56.576 123.549C55.1386 125.563 55.1386 126.996 55.1386 126.996C55.1386 126.996 54.1626 125.043 53.0706 124.125C53.0706 124.125 54.3906 126.595 54.5079 128.721C54.2413 128.053 53.8026 127.657 53.364 127.417L51.9853 122.367L51.9866 122.365L51.836 121.812L51.9306 121.8L49.7159 113.18C49.7159 113.179 49.7173 113.179 49.7173 113.179L49.516 112.395C49.716 112.337 49.9453 112.271 50.2093 112.193C49.2479 110.449 48.3613 106.588 47.8999 104.341C47.8253 103.977 47.7639 103.669 47.7132 103.408C47.9439 103.356 48.2013 103.297 48.5106 103.228C47.4679 101.304 47.1599 98.2467 47.0799 97.092C47.0786 97.0627 47.0759 97.0293 47.0733 97.0013C47.3493 96.9747 47.66 96.944 48.0573 96.9053C46.9253 95.088 46.6467 91.9173 46.5853 90.0573C46.576 89.784 46.5733 89.552 46.5706 89.344L47.0333 89.3347L46.9039 87.932C47.8466 88.9133 48.8106 90.216 49.1079 91.6693C49.1079 91.6693 49.1093 91.6507 49.1119 91.62C49.1133 91.6053 49.1146 91.588 49.1159 91.5667C49.1186 91.5333 49.1213 91.4973 49.124 91.4493C49.1253 91.4213 49.1266 91.3947 49.1293 91.3627C49.1319 91.308 49.1347 91.2467 49.1373 91.176C49.1387 91.1347 49.14 91.092 49.1413 91.0453C49.144 90.9707 49.1453 90.8867 49.1466 90.7987C49.1479 90.7453 49.1493 90.696 49.1493 90.6373C49.1506 90.524 49.1506 90.3987 49.1493 90.2693C49.1493 90.2253 49.1493 90.188 49.148 90.1427C49.1466 89.9667 49.1413 89.776 49.1346 89.5747C49.132 89.5133 49.1279 89.4467 49.1253 89.3827C49.1186 89.236 49.1106 89.0867 49.1 88.928C49.0933 88.8373 49.0866 88.744 49.0799 88.6493C49.0693 88.504 49.0573 88.3587 49.0426 88.204C49.0333 88.1 49.0239 87.996 49.0119 87.888C48.9946 87.7307 48.9759 87.568 48.9559 87.4013C48.9426 87.292 48.9292 87.184 48.9146 87.0707C48.8879 86.884 48.8599 86.6933 48.8279 86.4987C48.8119 86.4 48.7999 86.304 48.7826 86.2027C48.7333 85.9093 48.6773 85.6067 48.6146 85.2973C48.6013 85.2373 48.5853 85.1733 48.5733 85.112C48.5213 84.8587 48.4639 84.6013 48.3999 84.34C48.3719 84.2267 48.3412 84.1107 48.3106 83.9947C48.2546 83.7773 48.1959 83.5573 48.1333 83.3333C48.0973 83.208 48.0599 83.0827 48.0213 82.9547C47.9879 82.844 47.9599 82.736 47.9239 82.6253C47.9213 82.6227 47.9172 82.6187 47.9146 82.616C47.6212 81.6867 47.268 80.7267 46.8226 79.7507C46.7386 79.736 46.6932 79.728 46.6266 79.7147C46.1186 77.6173 45.8573 73.264 45.7413 70.6413C45.72 70.1693 45.7039 69.7533 45.6919 69.416C45.8173 69.3987 45.9506 69.3813 46.1092 69.36C45.9746 67.1147 46.1959 64.1107 46.4173 61.896C46.5266 61.8373 46.8613 61.6653 47.388 61.4547C47.4386 61.4333 47.4879 61.4133 47.5426 61.3933C47.7546 61.3107 47.9906 61.228 48.2479 61.148C48.2906 61.136 48.3386 61.124 48.3826 61.1107C48.6039 61.044 48.8413 60.9827 49.0866 60.9267C49.164 60.9107 49.2427 60.892 49.3213 60.876C49.6227 60.8147 49.9346 60.7627 50.26 60.7293C50.2973 60.7253 50.336 60.7253 50.3733 60.7227C50.664 60.696 50.964 60.6893 51.2666 60.6933C51.3586 60.696 51.4506 60.6973 51.5413 60.7027C51.8906 60.7227 52.2426 60.756 52.5973 60.8307C52.5973 60.8307 52.58 60.8 52.552 60.7547C52.5426 60.7413 52.5399 60.7373 52.5279 60.716C52.4853 60.652 52.4279 60.5693 52.3413 60.4573C52.3386 60.4533 52.336 60.4493 52.332 60.4453C52.2506 60.3413 52.1439 60.2173 52.0213 60.0827C52.0013 60.0613 51.984 60.0413 51.964 60.02C51.824 59.872 51.6627 59.7147 51.4707 59.544C51.4587 59.5347 51.4453 59.5253 51.4333 59.5147C51.248 59.3533 51.0306 59.184 50.7906 59.012C50.7613 58.9907 50.736 58.9733 50.7067 58.952C50.448 58.7707 50.1586 58.5893 49.8346 58.4107C49.8026 58.392 49.7653 58.3747 49.732 58.356C49.4173 58.1867 49.0732 58.0213 48.6959 57.8627C48.6626 57.848 48.6333 57.8333 48.5986 57.8187C48.2453 57.6733 47.864 57.5347 47.4533 57.408C47.7493 55.6307 48.2613 53.7387 48.6359 52.48C48.6693 52.3627 48.7027 52.2547 48.7347 52.148C48.752 52.092 48.7707 52.0293 48.7867 51.976C48.8893 52.0253 48.9853 52.0707 49.1066 52.128C49.3986 50.932 50.072 48.8227 50.5133 47.4773L52.3986 51.0827L54.0413 49.848L53.0146 51.5933L56.6119 59.5067L58.4586 58.8893L57.4346 59.812L58.5639 62.2787L60.308 63.2027L59.4853 63.616L60.6213 67.0187L61.2347 68.856L62.1612 68.548L61.5413 69.4707C61.5413 69.4707 63.1853 70.8053 65.0346 78.408C67.7053 72.6547 68.2199 65.568 68.2199 65.568L69.0386 65.2587L68.12 63.616C68.12 63.616 68.12 63.616 68.836 63.512C68.844 63.4733 68.8493 63.432 68.8546 63.388C68.9133 63.0147 68.9559 62.6627 68.9906 62.328C69.0039 62.2027 69.012 62.0867 69.0227 61.9667C69.0427 61.7227 69.0573 61.4867 69.068 61.264C69.072 61.1493 69.0773 61.0347 69.0786 60.9253C69.0826 60.6893 69.08 60.4667 69.072 60.2533C69.0693 60.1907 69.0693 60.12 69.0666 60.0573C69.0519 59.7947 69.0279 59.552 68.9973 59.328C68.9866 59.26 68.9759 59.2 68.9666 59.136C68.9399 58.9773 68.9132 58.8267 68.8799 58.688C68.8652 58.624 68.852 58.564 68.836 58.504C68.8013 58.368 68.7627 58.244 68.724 58.128C68.7107 58.088 68.6973 58.0467 68.6853 58.0093C68.6306 57.8627 68.5746 57.7307 68.5173 57.6147C68.5053 57.592 68.4946 57.576 68.4839 57.5547C68.4373 57.464 68.3893 57.38 68.3426 57.308C68.336 57.296 68.328 57.28 68.3213 57.2693C68.32 57.2693 68.3173 57.268 68.316 57.268C68.0466 56.8627 67.8093 56.7307 67.8093 56.7307L68.4266 56.6293L67.1933 55.808C67.1933 55.808 67.1932 55.808 68.5292 55.4987C68.0146 52.52 65.548 47.7933 65.548 47.7933L65.856 47.0747L64.3173 46.148C64.3173 46.148 64.3173 46.148 65.2426 46.0453C63.5306 43.0187 61.5159 41.4427 59.6092 40.6507L59.6306 40.6413C59.56 40.6107 59.4919 40.5987 59.4213 40.572C59.1186 40.4533 58.8199 40.356 58.5253 40.2747C58.4799 40.2627 58.432 40.2413 58.388 40.2293C59.5546 40.2293 60.3813 40.2467 60.3813 40.2467L60.7293 39.3133C60.7293 39.3133 60.7293 39.3133 61.312 40.592C61.812 40.5573 62.3013 40.5667 62.7733 40.5947C65.2706 40.7467 67.256 41.6413 67.256 41.6413L67.8413 40.824C67.8413 40.824 67.8413 40.824 68.0733 42.4587C70.4026 43.04 74.8333 46.304 74.8333 46.304L75.6453 45.6067C75.6453 45.6067 75.6453 45.6067 75.6453 46.772C76.696 47.2387 77.9799 48.5213 77.9799 48.5213L79.3786 46.888L78.6786 49.3333L78.8759 49.5147C78.8746 49.5147 78.8746 49.516 78.8746 49.516L84.1573 54.348L85.3226 53.9973L84.6253 55.3973L87.7706 59.7067L88.8173 59.0107L88.0039 60.7573C88.0039 60.7573 91.2759 63.3707 93.2919 68.5693C98.3239 59.6813 93.7946 51.9653 93.7946 51.9653Z" fill="black"/>
</svg>
