<svg width="128" height="135" viewBox="0 0 128 135" fill="none" xmlns="http://www.w3.org/2000/svg">
<path d="M117.563 42.2933C117.491 42.316 117.42 42.3373 117.349 42.3653C117.009 42.508 116.695 42.716 116.388 42.9213C116.493 42.6986 116.587 42.472 116.635 42.2533C116.956 42.256 117.26 42.2733 117.563 42.2933ZM85.464 78.9626C86.0093 78.7293 86.5653 78.5213 87.1187 78.3066C87.4653 79.2106 88.3827 79.704 89.3893 79.928C89.38 79.9426 89.3733 79.9573 89.3653 79.972C87.564 79.8813 85.7693 79.6853 83.972 79.6253C84.4613 79.388 84.964 79.1773 85.464 78.9626ZM49.1587 76.916C48.6453 76.2666 48.3467 75.3346 48.044 74.5746C47.4173 72.988 46.656 71.4906 45.888 69.9706C45.5307 69.2626 45.1813 68.5026 44.74 67.816C44.728 67.6693 44.728 67.5253 44.7133 67.3786C44.7493 67.3586 44.7827 67.3413 44.8173 67.3186C45.896 66.6573 46.2653 65.4773 46.192 64.3053C46.312 64.444 46.4373 64.58 46.5653 64.7026C46.852 64.9813 47.1907 64.864 47.4613 64.6213C47.476 64.6306 47.492 64.6386 47.508 64.6466C47.5453 65.152 47.6107 65.656 47.6307 66.1186C47.648 66.5866 47.7 67.1906 48.0813 67.5173C48.6253 67.9826 49.3827 67.4173 49.8013 67.0626C49.988 66.9026 50.1507 66.7146 50.3027 66.5173C51.0693 67.0746 51.724 67.5733 52 67.7866C54.176 69.4746 55.8547 71.356 57.1427 73.856C58.0987 75.7146 58.4173 76.6373 58.3987 78.6613C58.3853 80.4026 58.5787 82.7973 58.1907 84.4173C57.9213 84.3373 57.696 84.1973 57.488 84.028C57.3227 83.8906 57.172 83.7333 57.0307 83.564C57.02 83.5506 57.008 83.5373 56.9973 83.5253C56.836 83.3293 56.6827 83.1226 56.5307 82.9173C56.4373 82.7893 56.344 82.6653 56.248 82.544C56.2107 82.4987 56.1733 82.4546 56.136 82.4106C56.004 82.252 55.8667 82.1013 55.716 81.9733C54.6533 81.0813 53.5133 80.2826 52.312 79.5853C51.9 79.348 51.48 79.1293 51.0573 78.9133L51.0587 78.9146C51.0253 78.8973 50.992 78.8773 50.9587 78.8613C50.8653 78.7586 50.7733 78.6613 50.68 78.5653C50.1613 78.0293 49.6173 77.5013 49.1587 76.916ZM84.2507 76.6346C84.4147 76.2506 84.5787 75.8626 84.7267 75.4706C85.0053 74.7186 85.1373 73.9026 85.2667 73.1C85.972 73.616 86.8667 73.932 87.648 74.22C86.9947 74.5493 86.4453 74.8853 86.2653 75.012C86.012 75.1906 85.464 75.8853 85.78 76.2346C85.208 76.5146 84.6453 76.8186 84.0653 77.0773C84.1333 76.9306 84.1773 76.776 84.2507 76.6346ZM84.3573 69.3747C84.2973 69.6093 84.232 69.844 84.176 70.08C84.136 70.216 84.1013 70.356 84.0707 70.496C84.0307 70.548 83.932 70.5227 83.932 70.4467C83.9293 70.0547 83.8747 69.6733 83.804 69.2946C83.9867 69.3253 84.172 69.3453 84.3573 69.3747ZM62.2533 63.6213C62.208 62.7106 62.0187 61.8613 61.74 61.0106C62.2013 60.744 62.5827 60.3506 62.92 59.9213C62.9453 60.6066 63.1 61.356 63.6093 61.732C63.4293 62.9266 63.1133 64.1626 62.704 66.112C62.7027 66.108 62.7027 66.1053 62.7027 66.1013C62.6907 66.16 62.68 66.216 62.6693 66.2746C62.2347 65.504 62.2947 64.4906 62.2533 63.6213ZM56.388 66.9093C55.4573 66.02 54.4987 65.1573 53.5307 64.3053C53.2453 64.0546 52.9573 63.804 52.6693 63.5533C52.4067 63.3253 52.148 63.0933 51.884 62.868C51.8933 62.8813 51.904 62.8933 51.9147 62.9053C51.8747 62.872 51.8373 62.84 51.8 62.8066C51.8613 62.6053 51.9253 62.3947 51.992 62.168C52.3893 62.9093 52.948 63.4626 53.6853 63.3186C54.7453 63.1186 55.1 61.8386 55.28 60.9426C55.376 60.4706 55.4693 59.968 55.5413 59.4586C56.148 59.4053 56.696 59.0506 57.0547 58.5626C56.9667 59.0813 56.9213 59.6146 56.8253 60.084C56.6427 60.9786 56.148 63.356 57.68 63.2506C58.3387 63.2026 58.9147 62.424 59.292 61.9667C59.5107 61.6973 59.708 61.4146 59.8973 61.1226C60.0133 61.5946 60.1347 62.068 60.2373 62.5426C60.24 62.5626 60.2373 62.5813 60.2267 62.596C60.5667 64.3173 60.6973 66.0693 60.896 67.8093C60.9 67.848 60.9107 67.8826 60.916 67.92C60.912 67.9093 60.9093 67.8986 60.9067 67.8866C60.92 67.9893 60.9427 68.0893 60.9627 68.192C60.9813 68.2946 60.9947 68.4 61.0187 68.5026C61.1147 68.9253 61.2373 69.344 61.3293 69.7666C61.376 69.9773 61.416 70.1893 61.4387 70.404C61.4947 70.9306 61.396 71.5666 61.3493 72.06C61.336 72.044 61.3227 72.028 61.3107 72.0146C61.312 72.0173 61.3133 72.02 61.3147 72.0226C60.6987 71.2853 59.9893 70.64 59.3467 69.932C58.4013 68.8867 57.4093 67.884 56.388 66.9093ZM71.4373 65.9106C71.6453 65.3373 71.872 64.776 72.1173 64.2306C72.1907 64.068 72.2827 63.9253 72.3693 63.78C72.8067 63.988 73.4333 63.8373 74.0027 63.5026C74.4613 63.2346 74.8667 62.892 75.256 62.528C74.8933 63.3013 74.732 64.192 75.7893 64.404C75.9013 64.4253 76.0133 64.4333 76.1253 64.444C75.432 65.0253 74.7093 65.5613 73.9373 66.0493C72.9533 66.6693 71.8373 67.0427 70.86 67.6707C71.024 67.1133 71.2053 66.564 71.4 66.024C71.4133 65.9867 71.424 65.948 71.4373 65.9106ZM66.1187 75.2693C66.2187 75.0853 65.5733 73.3947 65.516 73.168C65.2733 72.196 65.524 71.0706 65.3573 70.0826C65.224 69.2986 65.1827 68.5173 65.168 67.7373C65.1613 67.296 65.1613 66.856 65.1733 66.4133C65.18 66.2146 65.1827 66.0173 65.1907 65.8173C65.2107 65.2773 65.2373 64.7373 65.26 64.192C65.2867 63.608 65.328 63.0533 65.3787 62.5053C65.42 62.0706 65.4667 61.6426 65.524 61.224C65.764 60.98 65.9853 60.712 66.172 60.4667C66.048 60.7667 65.9427 61.08 65.8573 61.412C65.7507 61.8307 66.1093 62.2146 66.536 62.092C67.1453 61.92 67.492 61.5547 67.9667 61.168C68.0733 61.08 68.1813 60.992 68.2867 60.9053C68.3827 61.7226 68.896 62.3386 69.6 62.7893C70.0893 63.1 70.6827 63.0213 71.2093 62.7973C70.5907 63.4747 69.948 64.1346 69.476 64.9333C68.5013 66.584 67.896 68.4146 67.4013 70.2573C66.9893 71.8026 66.8987 73.868 66.1187 75.2693ZM46.36 76.6946C46.172 76.6 45.972 76.5026 45.7667 76.4C45.46 76.2466 45.1333 76.0813 44.7987 75.9093C44.7507 75.8827 44.7 75.8586 44.6507 75.832C44.3 75.6493 43.9373 75.4573 43.5707 75.2533C43.5333 75.2333 43.4973 75.212 43.4613 75.192C43.1507 75.0186 42.84 74.836 42.5293 74.648C42.4333 74.592 42.34 74.5333 42.2453 74.476C41.9267 74.2786 41.612 74.076 41.304 73.864C41.252 73.828 41.1987 73.792 41.1467 73.7546C41.0973 73.7213 41.0533 73.684 41.0053 73.648C41.1533 73.4386 41.232 73.1893 41.1547 72.9346C41.0733 72.668 40.9453 72.4133 40.8 72.1626C40.8053 72.144 40.808 72.1266 40.812 72.1053C40.8173 72.0746 40.82 72.0413 40.8227 72.008C40.8387 72.0026 40.852 71.9946 40.864 71.988C41.7213 72.1413 42.5787 72.1386 43.4173 71.8706C44.1627 71.636 44.532 71.0093 44.6987 70.312C45.228 71.4333 45.5213 72.6613 45.932 73.824C45.944 73.8533 45.952 73.8786 45.964 73.908C46.224 74.9533 46.536 75.9693 46.9293 76.9706C46.7387 76.88 46.5493 76.788 46.36 76.6946ZM80.7187 76.8226C79.9867 77.768 78.9427 78.388 77.9613 79.0413C75.6333 80.5893 73.4747 82.1853 71.508 84.1786C70.6613 85.0346 69.7707 85.8213 69.0493 86.7933C68.912 86.9746 68.7867 87.1653 68.6667 87.36V87.356C68.664 87.3613 68.6613 87.364 68.6613 87.3666C68.6773 86.516 68.7253 85.6626 68.8133 84.8133C68.8467 84.4733 68.8933 84.1306 68.9453 83.7933C68.8467 82.416 68.808 81.0387 68.9067 79.6533C69.0293 77.952 69.2533 76.212 69.6507 74.5226C69.7107 73.56 69.8173 72.5853 69.9747 71.612C70.0307 71.4426 70.0907 71.2733 70.1533 71.1026C70.524 70.108 71.1147 69.4266 71.9747 68.8146C73.572 67.6773 75.4787 67.0653 77.0813 65.9226C77.8907 65.344 78.6 64.62 79.256 63.8493C79.4373 63.792 79.6187 63.7373 79.7973 63.688C79.3227 64.2147 78.9347 64.824 78.964 65.4546C78.992 66.0546 79.636 66.2093 80.0813 66.4053C80.7707 66.7106 81.5987 66.8627 82.412 66.9467C82.4147 66.968 82.4173 66.9893 82.42 67.0106C82.1773 67.1666 81.9413 67.336 81.7307 67.5466C81.4947 67.78 81.1987 68.3253 81.5187 68.6186C81.888 68.9573 82.3667 69.076 82.8547 69.152C82.916 69.4906 82.9653 69.832 82.9787 70.1813C83.0267 71.2533 82.3333 72.596 82.052 73.6373C81.7453 74.784 81.4613 75.868 80.7187 76.8226ZM123.76 71.772C125.927 70.54 123.972 67.876 122.565 66.904C122.344 66.7506 121.716 66.4373 121.037 66.2066C122.151 65.4226 123.109 64.356 123.789 63.18C123.924 62.9413 124.052 62.5626 123.727 62.4106C123.232 62.1813 122.648 62.04 122.031 61.9867C123.26 61.1733 124.352 60.0453 125.047 58.7613C125.185 58.5093 125.12 58.228 124.88 58.084C124.476 57.832 124.041 57.632 123.591 57.4786C124.096 57.3026 124.569 57.0493 124.989 56.696C125.745 56.06 125.769 55.0853 124.989 54.4933C124.705 54.2773 124.392 54.1173 124.063 53.992C125.268 53.3386 126.296 52.256 126.792 50.9706C126.88 50.744 126.907 50.4186 126.631 50.3093C125.472 49.8386 124.175 49.6413 122.935 49.8253C123.531 49.192 123.869 48.4186 123.604 47.416C123.153 45.7213 121.115 45.8933 119.587 46.308C119.776 45.868 119.959 45.4266 120.117 44.9733C120.38 44.2106 120.857 42.964 120.336 42.212C120.283 42.1346 120.223 42.0733 120.159 42.0226C120.14 42.0066 120.119 41.9986 120.099 41.9866C120.051 41.956 120.003 41.9266 119.952 41.9093C119.928 41.9013 119.903 41.8973 119.877 41.892C119.828 41.8786 119.777 41.868 119.725 41.8653C119.697 41.864 119.667 41.8653 119.639 41.8666C119.587 41.868 119.537 41.8706 119.487 41.88C119.475 41.8813 119.465 41.88 119.453 41.8826L119.456 41.8866C119.432 41.8906 119.409 41.896 119.385 41.9013L119.383 41.8973C119.372 41.9 119.361 41.9066 119.351 41.9093C119.237 41.9386 119.123 41.9813 119.008 42.0333C118.984 42.0453 118.963 42.0573 118.939 42.0693C118.82 42.128 118.704 42.192 118.593 42.264C118.543 42.2426 118.487 42.236 118.432 42.2226C118.615 42.1133 118.715 41.9133 118.677 41.616C118.511 40.292 117.267 39.0946 116.125 38.2666C116.133 38.26 116.139 38.2546 116.143 38.2506C116.544 37.8973 116.919 37.508 117.26 37.112C118.003 36.2613 118.76 35.42 117.803 34.4133C117.171 33.7506 115.768 33.3466 114.899 33.2053C114.841 33.196 114.779 33.1866 114.715 33.1786C114.997 32.8466 115.273 32.508 115.516 32.1453C115.852 31.6493 116.091 31.1066 116.224 30.5413C116.476 30.132 116.711 29.7146 116.915 29.2826C117.448 28.1506 117.8 26.652 116.581 25.808C115.808 25.2746 114.641 25.1826 113.729 25.204C113.256 25.216 112.775 25.2546 112.309 25.36C112.309 25.284 112.309 25.2066 112.309 25.132C112.325 23.8573 112.536 22.5293 112.184 21.2813C112.079 20.908 111.643 20.3293 111.175 20.436C110.265 20.6413 108.775 21.6173 108.18 22.72C108.133 22.0013 108.045 21.2813 107.927 20.572C107.847 20.096 107.355 19.6946 106.877 19.6946C106.352 19.6946 105.841 19.832 105.336 19.9906C105.641 19.4133 105.921 18.8213 106.141 18.208C106.38 17.532 105.617 16.8906 105.008 16.8626C104.539 16.84 103.776 16.8826 103.084 17.0666C103.495 15.74 103.375 13.9453 103.011 13.144C102.841 12.7746 102.399 12.408 101.967 12.552C101.459 12.7226 100.976 12.9626 100.531 13.2586C100.367 12.8373 100.183 12.4413 100.017 12.1093C99.6227 11.3053 99.0307 9.41197 97.8333 9.50397C97.248 9.5493 96.8307 10.0453 96.4693 10.46C96.0093 10.9813 95.5813 11.5266 95.224 12.124C94.8907 12.6773 94.6093 13.252 94.3853 13.8453C94.14 13.1866 93.8493 12.5733 93.6187 12.096C93.0133 10.8333 92.5653 9.45598 91.656 8.36131C91.2547 7.87864 90.552 7.19464 89.8533 7.43998C89.4853 7.57064 89.2227 7.95997 89.0173 8.33197C88.7973 7.90397 88.5067 7.51864 88.1333 7.20797C86.8587 6.1493 85.1053 6.85331 83.8907 7.62664C83.4467 7.91064 83.0333 8.23998 82.632 8.58398C82.5493 8.63331 82.4827 8.69863 82.42 8.76797C82.192 8.9653 81.964 9.1613 81.7373 9.35997C81.8253 8.92397 81.9173 8.49198 81.9293 8.04664C81.9573 6.97731 81.2533 6.16797 80.24 5.93064C78.8733 5.61197 77.428 6.3853 76.3733 7.44797C75.4747 6.01997 73.1253 6.10531 71.248 6.56798C71.6973 4.92798 71.0387 3.1293 68.924 3.22397C68.1547 3.25864 67.504 3.5933 66.98 4.09864C66.864 3.4853 66.6973 2.89198 66.492 2.34664C65.8627 0.670642 64.1827 -0.288024 62.552 0.78931C61.112 1.73998 60.8053 3.90131 60.588 5.45731C60.5293 5.89998 60.48 6.34664 60.4453 6.79198C60.4013 6.74664 60.3573 6.70264 60.312 6.65998C60.0147 6.25731 59.6573 5.91198 59.208 5.75331C57.76 5.25198 56.932 6.07064 56.3627 7.14531C55.7533 5.87997 54.9613 4.62798 53.588 4.71331C53.724 2.90664 53.2213 1.09597 51.1747 1.42531C49.9053 1.62931 49.0867 2.97997 48.5747 4.02663C48.5333 4.1053 48.5 4.18663 48.4613 4.26797C47.9693 2.85063 47.068 1.66664 45.6307 2.01331C44.0187 2.40131 43.82 4.02264 43.8213 5.59864C42.94 4.83997 41.8253 4.52263 40.7933 5.49063C39.8987 6.32797 39.844 7.56797 40.1227 8.81864C39.4507 8.5493 38.7267 8.58264 38.0293 9.15597C37.2187 9.8213 37.1133 10.872 37.3493 11.944C35.9587 11.4426 34.4293 11.4773 33.224 12.436C32.7027 12.8506 32.396 13.3773 32.2227 13.956C31.8067 14.7293 31.484 15.5586 31.1067 16.348C30.888 16.7986 30.6147 17.376 30.38 17.996C30.172 17.436 29.9067 16.896 29.592 16.372C29.256 15.808 28.852 15.2946 28.42 14.8053C28.076 14.4133 27.6853 13.9453 27.1333 13.9013C26.004 13.8133 25.4453 15.6026 25.0733 16.36C24.9187 16.672 24.7427 17.0453 24.588 17.444C24.1693 17.164 23.7133 16.9373 23.232 16.776C22.828 16.64 22.412 16.984 22.2533 17.3346C21.9067 18.0893 21.7947 19.7826 22.18 21.032C21.5267 20.8586 20.808 20.82 20.3667 20.84C19.792 20.8666 19.072 21.472 19.2973 22.1106C19.5053 22.6893 19.768 23.2466 20.0573 23.7906C19.58 23.6426 19.0987 23.512 18.6027 23.512C18.1533 23.5106 17.6933 23.8893 17.6147 24.34C17.5013 25.008 17.4213 25.684 17.3773 26.364C16.8147 25.324 15.4093 24.404 14.552 24.2093C14.1093 24.1093 13.7 24.652 13.6013 25.008C13.268 26.184 13.4693 27.4346 13.4813 28.6386C13.484 28.708 13.4813 28.7813 13.484 28.852C13.044 28.7506 12.588 28.7173 12.1427 28.708C11.2813 28.6866 10.1853 28.772 9.45466 29.2773C8.30533 30.072 8.63866 31.484 9.14 32.5506C9.33333 32.9586 9.552 33.352 9.78933 33.7386C9.91466 34.2706 10.1413 34.7826 10.4573 35.2506C10.688 35.592 10.948 35.912 11.2133 36.2253C11.1533 36.2346 11.096 36.2426 11.0413 36.2506C10.2187 36.3826 8.90133 36.7626 8.30266 37.3893C7.39866 38.3386 8.11466 39.1333 8.812 39.9333C9.13866 40.3066 9.48933 40.672 9.86666 41.008C9.872 41.012 9.87733 41.0173 9.88266 41.0213C8.808 41.804 7.63333 42.9306 7.476 44.1813C7.42 44.64 7.68 44.8853 8.13333 44.8386C9.02666 44.748 10.0493 44.78 11.0933 44.792C10.9547 45.0746 10.828 45.36 10.724 45.6346C10.5707 46.0413 10.384 46.5786 10.348 47.0946C9.792 46.4293 9.096 46.084 8.36666 46.6C7.59866 47.144 7.612 47.9413 7.71333 48.7693C7.39466 48.5053 7.08666 48.2253 6.788 47.9386C6.456 47.6173 5.95866 48.1853 5.95866 48.5133C5.95866 49.3346 5.81733 50.288 6.19333 51.0533C6.25466 51.184 6.33866 51.4133 6.45066 51.6093C5.04666 51.872 3.672 52.4133 2.63066 53.3333C2.48133 53.464 2.31466 53.8106 2.50266 53.9786C3.164 54.5653 3.92666 55.1866 4.756 55.5973C4.44533 55.8426 4.14133 56.1013 3.83733 56.368C2.65866 57.4106 1.40666 58.6386 1.01333 60.2093C0.970664 60.376 1.03066 60.5893 1.20533 60.6546C2.23333 61.032 3.404 60.9786 4.49466 60.864C4.13333 61.3413 3.852 61.868 3.756 62.508C3.73466 62.664 3.76 62.9106 3.95333 62.9613C4.33333 63.0586 4.70533 63.0546 5.07066 63.0026C5.068 63.004 5.06533 63.0066 5.06533 63.0066C5.088 63.0026 5.10933 63 5.132 62.9973C4.54666 64.0493 4.15866 65.196 4.09333 66.4613C4.084 66.6506 4.25066 66.7453 4.40933 66.776C5.38 66.9693 6.51333 66.252 7.44933 65.8213C7.396 66.0973 7.35733 66.3773 7.32533 66.6626C7.17733 68.0213 7.19733 69.604 7.54933 70.9333C7.92133 72.3386 9.28933 71.9173 10.2373 71.3347C10.3627 71.2573 10.484 71.1733 10.5987 71.0866C10.5787 71.38 10.5733 71.6733 10.6093 71.9667C10.6253 72.1227 10.74 72.2786 10.9147 72.2746C11.672 72.2466 12.1507 71.812 12.7267 71.4413C12.32 72.3266 11.9573 73.2213 11.9667 74.236C11.9693 74.4373 12.18 74.5533 12.36 74.504C13.2707 74.26 14.1613 73.7733 15.0267 73.3947C15.0933 73.364 15.1533 73.3226 15.22 73.292C15.2733 73.72 15.6613 74.028 16.136 74.2786C15.94 74.3973 15.7467 74.5226 15.552 74.6386C14.7627 75.116 13.8493 75.6973 13.484 76.588C13.4267 76.7226 13.372 76.9826 13.524 77.0853C15.0333 78.1546 16.984 78.3826 18.792 78.3146C19.1427 78.3 19.5053 78.264 19.8707 78.2106C19.8173 78.612 19.808 79.028 19.8387 79.4453C19.92 80.6706 20.5907 82.8706 21.7693 83.4653C22.416 83.7906 23.1787 83.1213 23.6013 82.7266C24.268 82.1026 24.8773 81.4013 25.3947 80.648C25.396 80.6453 25.396 80.6413 25.3987 80.64C25.42 80.74 25.44 80.8346 25.4707 80.9226C25.4533 81.204 25.616 81.448 25.8787 81.504C26.1387 81.6773 26.504 81.724 27.012 81.5853C27.836 81.3613 28.556 80.888 29.18 80.2906C29.224 81.944 29.6907 83.3173 31.0907 83.104C33.088 82.8 34.492 80.34 35.184 78.6707C35.2867 78.4173 35.4027 78.0853 35.5107 77.7106C35.628 77.7626 35.74 77.808 35.8387 77.848C36.7547 78.2133 37.888 78.4307 38.6827 77.6853C39.6853 76.7453 38.9947 75.5733 38.388 74.632C38.3693 74.604 38.3493 74.576 38.3307 74.548C38.344 74.556 38.356 74.5653 38.3667 74.5733C38.468 74.64 38.564 74.708 38.668 74.7773C38.9373 74.96 39.2187 75.144 39.508 75.3347C39.6787 75.4467 39.8547 75.5613 40.0293 75.6746C40.148 75.752 40.268 75.8293 40.388 75.908C41.2147 76.444 42.052 76.9853 42.8053 77.4946C42.8293 77.512 42.8533 77.528 42.876 77.544C43.2027 77.7653 43.5147 77.9813 43.7973 78.188C44.9947 78.8173 46.216 79.3933 47.484 79.884C48.4213 80.2506 49.388 80.5586 50.3027 80.9933C51.068 81.3613 51.768 81.8306 52.4133 82.3826C53.4173 82.9533 54.364 83.6493 55.2267 84.444C56.104 85.112 56.8987 85.8893 57.5187 86.7613C57.632 86.92 57.7573 87.0893 57.884 87.264C57.9293 87.328 57.9747 87.396 58.02 87.4626C58.112 87.5933 58.2027 87.7293 58.2893 87.868C58.336 87.9453 58.376 88.0266 58.42 88.1053C58.4907 88.2346 58.5547 88.3653 58.608 88.4986C58.6427 88.584 58.6693 88.672 58.696 88.7586C58.7507 88.944 58.8 89.1293 58.8027 89.3173C58.8027 89.452 58.792 89.5853 58.776 89.7173C58.876 91.6906 59 93.664 59.0693 95.6386C59.0787 95.9173 59.0867 96.196 59.0907 96.4733C59.492 98.532 59.2453 100.816 59.0547 102.799C58.6227 107.271 59.2573 111.787 58.3413 116.213C57.924 118.233 57.6747 120.256 57.484 122.309C57.3147 124.155 56.844 125.839 55.452 127.139C51.9 130.459 46.4747 129.668 42.18 131.288C42.0227 131.297 41.8653 131.305 41.708 131.316C41.6067 131.327 41.4813 131.516 41.5813 131.571C41.492 131.692 41.4587 131.885 41.6427 131.832C41.8387 131.775 42.036 131.723 42.236 131.676C42.38 131.696 42.5213 131.715 42.664 131.735L42.66 131.736C42.664 131.737 42.6693 131.737 42.6733 131.737L42.6707 131.74C42.7773 131.753 42.8813 131.765 42.9867 131.779C43.0827 131.792 43.1787 131.804 43.2733 131.815C43.4773 131.839 43.684 131.857 43.888 131.872C43.9933 131.881 44.0987 131.891 44.204 131.896C44.4173 131.908 44.632 131.908 44.8467 131.905C44.9373 131.904 45.0293 131.908 45.1213 131.904C45.428 131.891 45.7413 131.864 46.0627 131.812C46.74 131.704 47.4227 131.636 48.1093 131.595C48.3747 131.58 48.6413 131.588 48.9093 131.584C49.3987 131.573 49.888 131.556 50.3747 131.581C50.0027 131.771 49.596 131.92 49.2227 132.067C48.5693 132.323 47.828 132.611 47.1147 132.611C46.9813 132.611 46.788 132.759 46.6947 132.917C46.6907 132.915 46.6867 132.915 46.6827 132.912C46.6627 132.944 46.664 132.975 46.6547 133.008C46.6493 133.029 46.6373 133.049 46.6373 133.071C46.64 133.127 46.6693 133.175 46.7333 133.213C46.7293 133.212 46.7253 133.212 46.7213 133.211C46.7293 133.217 46.7347 133.221 46.7453 133.228C46.7133 133.292 46.7133 133.363 46.804 133.376C46.932 133.392 47.0627 133.397 47.1933 133.4C47.4747 133.492 47.7547 133.545 48.036 133.584C48.1187 133.595 48.1987 133.603 48.2813 133.609C48.4973 133.629 48.7133 133.637 48.9293 133.632C49 133.631 49.072 133.633 49.1413 133.629C49.4173 133.616 49.6907 133.588 49.9667 133.549C50.044 133.537 50.1227 133.524 50.2 133.511C50.412 133.476 50.6227 133.439 50.8333 133.397C50.9747 133.369 51.1147 133.343 51.2547 133.312C51.4453 133.273 51.6333 133.235 51.8227 133.195C52.792 132.992 53.7667 132.815 54.7467 132.891C56.2027 133.004 57.6067 133.325 59.0787 133.223C59.8333 133.172 60.584 133.073 61.3293 132.945C61.3253 132.947 61.3213 132.949 61.3173 132.951C61.9747 132.839 62.6293 132.697 63.2787 132.537C63.148 132.672 63.004 132.795 62.8627 132.92L62.864 132.919C62.8027 132.973 62.7427 133.028 62.6827 133.085C62.6613 133.104 62.6413 133.131 62.6213 133.155C62.6307 133.149 62.6373 133.141 62.6453 133.137C62.5147 133.303 62.4213 133.636 62.7213 133.656C62.9867 133.676 63.2467 133.66 63.5027 133.632C63.4987 133.633 63.496 133.636 63.492 133.637C63.5187 133.635 63.5413 133.625 63.568 133.623C63.8027 133.592 64.0333 133.548 64.264 133.491C64.3253 133.475 64.388 133.46 64.4507 133.443C64.7 133.373 64.9493 133.297 65.1973 133.211C65.5133 133.103 65.8107 133.039 66.0973 132.964C66.0933 132.967 66.0893 132.969 66.0867 132.972C66.128 132.961 66.1667 132.947 66.208 132.935C66.2427 132.925 66.2773 132.916 66.3093 132.905C66.46 132.859 66.6027 132.801 66.7427 132.727C66.768 132.712 66.7933 132.695 66.8173 132.68C66.9613 132.593 67.1 132.493 67.2307 132.353C67.6173 131.935 68.8147 132.864 69.2133 133.049C69.3907 133.132 69.58 133.181 69.7707 133.216C69.8227 133.225 69.876 133.231 69.928 133.237C70.0747 133.256 70.2187 133.269 70.3667 133.273C70.3907 133.273 70.4147 133.279 70.4373 133.279C70.432 133.277 70.4267 133.275 70.4213 133.273C70.684 133.276 70.944 133.265 71.196 133.247C71.3573 133.236 71.5707 133.016 71.54 132.844C71.5 132.632 71.4373 132.427 71.3627 132.227C71.5 132.293 71.6427 132.356 71.7853 132.419C71.7867 132.421 71.788 132.424 71.788 132.424C71.856 132.456 71.9267 132.487 71.9973 132.517C72.4853 132.716 73.008 132.779 73.5307 132.833C74.7453 132.956 75.9787 132.7 77.1667 132.491C78.5467 132.247 79.924 132.179 81.32 132.163C81.7907 132.156 82.2587 132.143 82.728 132.139C82.816 132.139 82.9053 132.137 82.9933 132.137C83.4947 132.137 83.9933 132.155 84.4893 132.208C84.7573 132.237 85.0253 132.268 85.292 132.324C85.3627 132.339 85.4427 132.309 85.5213 132.261C85.524 132.26 85.528 132.261 85.5307 132.259C85.5307 132.259 85.5293 132.257 85.5267 132.256C85.64 132.185 85.732 132.071 85.7693 131.952C85.772 131.956 85.776 131.959 85.7787 131.961C85.7827 131.948 85.78 131.936 85.7827 131.924C85.7867 131.909 85.7867 131.896 85.788 131.881C85.792 131.816 85.7813 131.753 85.732 131.703C84.5253 130.499 83.0707 130.004 81.448 129.601C79.4253 129.097 77.4613 128.055 75.568 127.207C74.128 126.561 72.604 125.611 71.8027 124.207C71.6227 123.892 71.5053 123.561 71.424 123.22C71.112 122.603 70.8987 121.923 70.7507 121.269C70.292 119.255 70.2547 117.168 70.2347 115.116C70.1933 111.228 69.7267 107.373 69.4147 103.503C69.1387 100.049 68.8907 96.5413 68.9587 93.0573C69.7653 91.3613 70.9573 89.888 72.2053 88.4986C74.3853 86.08 76.3093 84.5573 78.232 83.268C78.6933 82.7773 79.2813 82.4 79.8333 82.024C80.336 81.684 80.844 81.3573 81.3627 81.0426C81.9613 80.9413 82.5747 80.9066 83.216 80.996C84.3693 81.164 85.5213 81.348 86.68 81.488C87.3253 81.5653 87.976 81.5933 88.6307 81.604C88.5 82.0413 88.4147 82.48 88.4013 82.896C88.3933 83.1506 88.6387 83.4026 88.8933 83.3906C90.136 83.3426 91.312 82.8546 92.4293 82.2746C92.208 82.8133 92.0267 83.3653 91.964 83.9053C91.9213 84.2466 92.044 84.5506 92.4267 84.5893C93.748 84.7146 94.7107 83.6133 95.6067 82.8053C95.74 83.856 96.0627 85.2893 97.036 85.7466C98.4813 86.4266 99.276 84.4506 99.4867 83.4053C99.4867 83.4053 99.4867 83.4053 99.4867 83.4026C99.8227 84.0626 100.297 84.6427 100.889 85.0067C101.38 85.3053 102.029 84.6293 102.208 84.2533C102.271 84.128 102.296 83.988 102.343 83.856C102.351 83.8653 102.357 83.876 102.364 83.8866C102.412 83.7546 102.435 83.616 102.469 83.4786C102.488 83.4 102.513 83.3226 102.529 83.244C102.587 82.952 102.625 82.6547 102.641 82.3547C103.197 83.088 104.112 83.556 104.968 83.028C105.867 82.472 105.972 81.4226 105.872 80.452C106.495 79.9373 106.953 79.252 107.195 78.5013C107.255 78.504 107.317 78.4986 107.38 78.4986C107.844 78.8293 108.353 79.064 108.88 79.1106C109.789 79.1933 110.237 78.648 110.472 77.96C110.628 77.8946 110.776 77.8227 110.921 77.7427C111.391 78.2787 111.985 78.6426 112.724 78.4653C113.453 78.2893 114.003 77.6586 114.292 76.996C114.371 76.812 114.427 76.612 114.476 76.4133C114.737 76.7493 115.047 77.048 115.393 77.2933C116.631 78.1653 118.325 78.456 119.549 77.4226C120.643 76.496 119.989 74.7693 119.7 73.6426C119.601 73.2586 119.519 72.8706 119.433 72.4826C120.888 72.5786 122.503 72.4866 123.76 71.772Z" fill="black"/>
</svg>
