<svg xmlns="http://www.w3.org/2000/svg" width="77" height="134" viewBox="0 0 77 134" fill="none">
  <path d="M69.7707 30.1C70.0507 30.124 70.2467 30.5387 69.9293 30.6827C69.536 30.8547 68.252 31.272 68.3653 30.368C68.44 29.668 69.2613 29.2227 69.8467 29.02C70.224 28.8853 70.3827 29.4613 70.032 29.612C70.132 29.7907 70.0507 30.0827 69.7707 30.1ZM68.056 33.024C67.804 33.1827 67.4787 33.2533 67.3507 32.9067C67.2613 32.6707 67.528 32.3253 67.6307 32.1253C67.8107 31.768 68.356 32.084 68.1667 32.4387C68.1493 32.4747 68.132 32.5093 68.12 32.5413C68.2293 32.6773 68.252 32.9 68.056 33.024ZM69.5813 45.928C69.5293 45.976 69.4733 46.008 69.4173 46.0387C69.4107 46.1533 69.4147 46.2693 69.3453 46.3627C69.192 46.584 68.9893 46.6387 68.7333 46.6493C68.524 46.6573 68.384 46.4413 68.436 46.2507C68.396 46.2973 68.356 46.3253 68.3067 46.3533C68.0853 46.46 67.8307 46.4413 67.5893 46.4413C67.3587 46.4413 67.192 46.1747 67.32 45.9667C67.4013 45.8387 67.5 45.724 67.604 45.628C67.5893 45.4333 67.7453 45.2227 67.9867 45.3053C68.02 45.3227 68.0547 45.3227 68.0933 45.3253C68.4 45.2227 68.752 45.2507 69.0947 45.4347C69.1213 45.4507 69.1307 45.464 69.1533 45.4813C69.4427 45.2333 69.8787 45.668 69.5813 45.928ZM66.444 44.9827C66.2907 44.9827 66.2133 44.888 66.176 44.7773C66.2173 44.7587 66.2587 44.748 66.2987 44.7187C66.3587 44.6787 66.412 44.632 66.472 44.596C66.5333 44.552 66.5747 44.4907 66.624 44.436C66.8213 44.5947 66.7707 44.9827 66.444 44.9827ZM64.3987 45.948C63.9693 45.8293 64.12 45.3693 64.0613 45.0693C63.9853 44.6747 64.584 44.5067 64.6667 44.9027C64.676 44.9493 64.6787 45.0027 64.6787 45.0573C64.888 44.876 65.2307 45.0747 65.188 45.34C65.188 45.3627 65.1973 45.384 65.2053 45.4227C65.216 45.464 65.216 45.508 65.228 45.556C65.2387 45.672 65.1387 45.8227 65.0387 45.8693C64.8707 45.976 64.5867 45.9987 64.3987 45.948ZM56.2 46.5693C56.1747 46.6573 56.128 46.728 56.0667 46.7907C55.896 46.9587 55.632 46.9173 55.4293 46.8453C55.2667 46.7827 55.176 46.6387 55.212 46.46C55.2413 46.3533 55.2973 46.2587 55.3147 46.148C55.3413 46.028 55.4907 45.9053 55.616 45.9173C55.6653 45.924 55.8453 45.9813 55.8773 45.9587C56.048 45.8493 56.208 45.928 56.2893 46.0693C56.3707 46.2067 56.3653 46.3933 56.1947 46.504C56.272 46.4427 56.22 46.504 56.2 46.5693ZM54.744 44.7227C54.6147 44.936 54.4947 45.1947 54.288 45.34C54.0667 45.4947 53.792 45.504 53.536 45.504C53.376 45.504 53.2187 45.356 53.2253 45.1947C53.244 44.8387 53.4173 44.628 53.652 44.4587C53.668 44.2493 53.884 44.0493 54.108 44.1933C54.2493 44.124 54.384 44.1613 54.4693 44.2493C54.4973 44.2547 54.5307 44.2547 54.556 44.2667C54.744 44.328 54.8573 44.5387 54.744 44.7227ZM53.4573 47.888C53.2027 47.8053 53.1307 47.628 53.1227 47.372C53.1147 46.9813 53.6947 46.9747 53.7373 47.3467C53.96 47.5373 53.792 47.9853 53.4573 47.888ZM48.2093 50.2533C48.232 50.2347 48.2547 50.2133 48.2773 50.1933C48.6173 50.008 48.9693 49.836 49.3267 49.672C49.3533 49.6947 49.3827 49.7107 49.4093 49.7333C49.0067 49.9027 48.6027 50.0693 48.2093 50.2533ZM34.7947 81.9907C35.048 82.1147 35.3173 82.1947 35.584 82.164C36.0973 82.1053 36.5213 82.016 36.956 81.7307C37.1373 81.6133 37.3093 81.4787 37.468 81.3293C37.4667 82.4813 37.5173 83.6413 37.676 84.8133C36.836 83.52 35.8667 82.6373 34.7947 81.9907ZM21.296 76.2987C21.2067 76.2693 21.1187 76.2427 21.0293 76.2253C20.98 76.388 20.808 76.4867 20.6613 76.4573C20.6947 76.2173 20.6267 75.9667 20.48 75.7747C20.516 75.7253 20.5653 75.6813 20.6333 75.644C20.8707 75.5 21.2147 75.6147 21.464 75.696C21.8467 75.812 21.6773 76.4213 21.296 76.2987ZM19.956 64.516C19.948 64.5187 19.9387 64.52 19.8973 64.5333C19.8853 64.536 19.876 64.5467 19.864 64.5507C19.876 64.5387 19.8893 64.536 19.9 64.5253C19.948 64.464 20 64.404 20.0493 64.34C20.068 64.38 20.0787 64.42 20.0987 64.46C20.0547 64.4773 20.004 64.4973 19.956 64.516ZM25.0067 54.9627C25.184 54.7827 25.3707 54.6187 25.592 54.4933C25.94 54.304 26.248 54.8267 25.92 55.024C25.992 55.2013 25.9053 55.4787 25.6427 55.4973C25.4373 55.508 25.2653 55.584 25.0733 55.4507C24.904 55.3387 24.86 55.1053 25.0067 54.9627ZM26.9867 52.984C27.0827 52.8907 27.1947 52.8867 27.2907 52.9147C27.32 52.868 27.3653 52.82 27.432 52.7947C27.6387 52.728 27.8213 52.6267 28.0427 52.6707C28.3187 52.7133 28.4813 52.936 28.624 53.1507C28.684 53.2467 28.672 53.376 28.624 53.4653C28.2293 54.1893 27.4573 54.3614 26.7067 54.1307C26.5827 54.0894 26.4707 53.9667 26.4787 53.828C26.504 53.4387 26.712 53.236 26.9867 52.984ZM30.2227 54.5587H30.4347C30.8347 54.5587 30.836 55.1627 30.444 55.176C30.3427 54.976 30.164 54.8467 29.9573 54.776C29.9907 54.66 30.068 54.5587 30.2227 54.5587ZM36.9213 54.5853C36.9187 54.6947 36.9107 54.808 36.9093 54.916C36.904 55.412 36.928 55.9053 36.932 56.4013C36.9173 56.6427 36.9067 56.888 36.8933 57.132C36.8413 57.1067 36.7933 57.076 36.74 57.056C36.6333 57.0133 36.5093 56.9893 36.388 56.9973C36.3507 56.9893 36.3187 56.9853 36.2667 56.9787C36.2493 56.9787 36.1973 56.9893 36.1347 56.9987C36.064 57.0053 35.9933 57.0133 35.9173 57.0333H35.9933C35.9293 57.0507 35.8627 57.0653 35.8107 57.0787C35.6107 57.1493 35.4613 57.284 35.3547 57.4413C35.2573 57.3733 35.1587 57.312 35.06 57.2533C35.076 57.248 35.0907 57.2467 35.1067 57.2387C36.1173 56.7613 36.6747 55.6373 36.9213 54.5853ZM29.3267 25.6973C29.3387 25.78 29.3227 25.8747 29.2493 25.9453C28.9933 26.2253 28.804 26.3067 28.4547 26.1693C28.472 26.1293 28.4907 26.08 28.5187 26.0133C28.5187 26.004 28.5253 26.004 28.5253 25.9947C28.6133 25.796 28.6187 25.5853 28.576 25.388C28.6733 25.3613 28.7733 25.3427 28.8693 25.3013C29.156 25.1787 29.4133 25.48 29.3267 25.6973ZM27.9147 37.968C28.156 37.74 28.364 37.484 28.528 37.2093C28.7347 37.3453 28.948 37.4667 29.1693 37.5827C28.7173 37.644 28.296 37.7667 27.9147 37.968ZM27.5347 33.9093C27.32 34.1347 27.3027 34.4533 27.116 34.6907C26.8787 35.0013 26.4787 34.9747 26.1387 34.9213C25.9813 34.9013 25.8573 34.6867 25.92 34.5387C25.992 34.3493 26.088 34.1587 26.2707 34.0413C26.368 33.9787 26.5093 33.9493 26.5733 33.8453C26.6547 33.7013 26.7987 33.6787 26.9133 33.7093C26.9693 33.6267 27.02 33.5493 27.0893 33.4707C27.3653 33.1747 27.8053 33.6213 27.5347 33.9093ZM26.7453 39.0547C26.608 39.264 26.5093 39.4907 26.4467 39.7267C26.4133 39.456 26.2987 39.1947 26.14 38.98C26.504 38.8667 26.852 38.72 27.1747 38.524C27.02 38.6813 26.876 38.8573 26.7453 39.0547ZM25.8467 30.664C25.94 30.6827 26.3133 30.82 26.3827 30.8293V30.8333C26.3827 30.8387 26.3827 30.8413 26.3827 30.8467C26.3227 30.9533 26.2573 31.044 26.204 31.1387C26.284 31.0013 26.088 31.18 26.1 31.2C26.0827 31.2093 26.064 31.2173 26.06 31.2227C26.016 31.2373 25.9733 31.2507 25.9333 31.26C25.8947 31.0373 25.7987 30.82 25.6587 30.6387C25.7213 30.6453 25.808 30.6573 25.8467 30.664ZM25.352 21.4227C25.1947 21.5853 25.0773 21.7933 24.8667 21.8947C24.5813 22.0267 24.2933 21.9053 24.0307 21.7813C23.9387 21.7347 23.872 21.6133 23.8733 21.512C23.8853 21.308 23.9253 21.1253 24.0933 21C24.1467 20.9547 24.36 20.9333 24.3893 20.8893C24.5387 20.6347 24.8667 20.7347 24.9533 20.9427C25.232 20.7427 25.6067 21.1453 25.352 21.4227ZM68.9227 43.5493C68.9507 43.5333 68.972 43.548 68.9987 43.5413C68.8413 43.716 68.7707 43.9547 68.7813 44.192C68.672 44.152 68.5787 44.068 68.5347 43.9213C68.452 43.648 68.7147 43.4947 68.9227 43.5493ZM66.64 47.252C66.6107 47.3467 66.5307 47.4547 66.4253 47.472C66.2053 47.4907 66.056 47.5493 65.8453 47.472C65.6573 47.4013 65.5347 47.1947 65.6547 47.012C65.736 46.876 65.832 46.8213 65.9293 46.7613C65.9387 46.4413 66.4013 46.32 66.52 46.6293C66.6173 46.6947 66.6787 46.8067 66.66 46.9173C66.6813 47.0333 66.6813 47.136 66.64 47.252ZM41.7627 53.4587C41.6707 52.86 41.5867 52.268 41.4987 51.6733C42.0373 48.084 42.3587 44.4627 42.728 40.848C42.8787 40.872 43.032 40.8947 43.1787 40.8893C43.7307 40.8733 44.2293 40.7333 44.6947 40.4307C45.3493 40.0067 45.8493 39.4907 46.2067 38.8467C46.4773 38.9853 46.756 39.0973 47.032 39.1813C47.404 39.584 47.94 39.7973 48.4947 39.84C48.3387 39.924 48.1853 40.016 48.0453 40.1227C47.2333 40.7347 46.692 41.5987 46.628 42.5653C45.6267 42.3373 44.7453 42.7773 44.3493 43.7507C44.2347 44.032 44.296 44.3373 44.4467 44.5933C44.4187 44.6387 44.3787 44.6773 44.3533 44.7227C44.352 44.7267 44.3507 44.7307 44.3493 44.7347C44.252 44.5813 44.0973 44.468 43.8627 44.468C43.0653 44.468 43.0653 45.7 43.8627 45.7C43.9613 45.7 44.0453 45.6813 44.1187 45.648C44.1053 46.688 44.8787 47.6947 46.0413 47.6653C46.816 47.6453 47.5867 47.4733 48.188 47.0947C48.1853 47.4747 48.268 47.8533 48.384 48.2187C45.544 49.1387 43.3493 51.0227 41.7627 53.4587ZM27.876 57.0987C27.88 57.0827 27.8827 57.064 27.8853 57.0453C27.8933 57.052 27.8987 57.0573 27.908 57.0653C27.9893 57.1267 28.0907 57.1627 28.1947 57.1947C28.116 57.2307 28.036 57.26 27.9587 57.3053C27.9387 57.2333 27.908 57.1653 27.876 57.0987ZM36.8387 60.6933C36.8667 61.4907 36.9173 62.3027 37.0333 63.152C37.04 63.2027 37.104 63.3067 37.188 63.4253C37.1947 63.5587 37.1987 63.6907 37.2067 63.8227C36.72 63.2107 36.18 62.6387 35.6187 62.084C36.1747 61.7773 36.5907 61.3173 36.8387 60.6933ZM36.8187 59.2867C36.8027 59.2373 36.7893 59.1867 36.7693 59.1387C36.788 59.1333 36.804 59.12 36.8213 59.1133C36.8213 59.1707 36.8187 59.228 36.8187 59.2867ZM28.4493 26.168C28.4507 26.164 28.4533 26.1627 28.4547 26.1587C28.4533 26.1627 28.452 26.164 28.4493 26.168ZM50.764 45.4013H50.316C49.9107 45.4013 49.9107 44.7733 50.316 44.7733H51.3533C51.5773 44.7733 51.684 44.968 51.6587 45.172C51.636 45.3133 51.5573 45.408 51.4413 45.484C51.3627 45.5307 51.2627 45.5173 51.1973 45.5587C51.0053 45.696 50.8213 45.5693 50.764 45.4013ZM44.9507 36.972H45.2613C45.664 36.972 45.664 37.5893 45.2613 37.5893H44.9507C44.5493 37.5893 44.5493 36.972 44.9507 36.972ZM40.4373 39.944C40.444 39.784 40.456 39.6253 40.46 39.4653C40.4613 39.408 40.4293 39.3747 40.392 39.356C40.3613 38.148 40.3293 36.9413 40.2973 35.736C40.372 34.7293 40.4813 33.7227 40.5987 32.716C40.6013 32.7053 40.6067 32.696 40.6093 32.6867C40.6947 32.7173 40.7773 32.752 40.864 32.7707C41.0853 32.8307 41.3067 32.864 41.528 32.884C41.56 33.2053 41.708 33.5 41.9893 33.6587C41.4693 35.7427 40.9413 37.8347 40.4373 39.944ZM38.4093 41.6173C38.2867 41.4027 38.1547 41.1907 38.0107 40.9787C37.7507 40.5973 37.4387 40.244 37.1093 39.9027C36.8053 39.464 36.4587 39.0467 36.0307 38.6667C36.3787 38.468 36.6933 38.204 36.948 37.876C37.52 37.1387 37.8053 36.36 37.7747 35.4827C38.1973 35.396 38.5947 35.2347 38.9547 34.9747C39.06 34.8987 39.1613 34.8053 39.2653 34.7187C38.9973 37.0187 38.6453 39.312 38.4093 41.6173ZM35.956 38.7013C36.164 38.892 36.3333 39.1013 36.5067 39.3093C36.292 39.12 36.0653 38.9373 35.8373 38.756C35.876 38.7373 35.9173 38.7227 35.956 38.7013ZM31.852 32.004C32.0653 31.8987 32.3107 31.896 32.5347 31.828C32.7427 31.7587 32.884 31.9133 32.9107 32.076C33.0013 32.0893 33.0827 32.1027 33.1733 32.1387C33.3973 32.2267 33.512 32.5787 33.244 32.7133C33.0107 32.8267 32.764 32.9747 32.4987 33.0213C32.2293 33.0667 31.9507 33.0667 31.6827 33.0667C31.4787 33.0667 31.3293 32.8653 31.38 32.676C31.464 32.392 31.5813 32.1373 31.852 32.004ZM66.0147 30.028C65.9667 30.1587 65.8627 30.2533 65.7173 30.2533H64.936C64.7747 30.2533 64.616 30.1107 64.62 29.944C64.628 29.7213 64.668 29.444 64.856 29.2947C64.936 29.232 65.0107 29.188 65.1067 29.1467C65.116 29.14 65.128 29.1347 65.1427 29.1293C65.212 29.02 65.3427 28.988 65.468 29.0267C65.5667 28.9853 65.6813 28.9947 65.784 29.0973C66.0147 29.3507 66.14 29.692 66.0147 30.028ZM49.9107 22.192C49.992 22.3373 50.1093 22.464 50.2227 22.5933C50.152 22.6467 50.076 22.6973 49.992 22.7493C49.9733 22.5613 49.9667 22.3707 49.9107 22.192ZM61.8427 24.416C62.1707 24.2733 62.472 24.0947 62.7587 23.8813C62.828 23.9133 62.8987 23.948 62.964 23.9733C62.844 24.1773 62.7387 24.3973 62.6627 24.632C62.4053 24.5387 62.1267 24.472 61.8427 24.416ZM51.0573 33.316C51.064 33.28 51.0813 33.244 51.1027 33.204C51.1213 33.1573 51.136 33.104 51.1613 33.0667C51.5653 32.4387 52.3467 32.4267 52.9933 32.6093C53.332 32.6973 53.2547 33.1573 52.972 33.22C52.9933 33.328 52.9933 33.4373 52.96 33.5493C52.7973 34.1 51.9973 34.8347 51.3867 34.4027C51.044 34.1587 50.9347 33.7053 51.0573 33.316ZM55.2867 26.9333C55.0987 26.4427 55.328 26.0653 55.8773 26.0387C56.2827 26.0213 56.2827 26.644 55.8773 26.6653C55.856 26.6653 55.8453 26.656 55.8307 26.6533C55.8307 26.6533 55.8307 26.6547 55.8333 26.6653C55.912 26.8413 55.824 27.004 55.696 27.084C55.568 27.016 55.432 26.9653 55.2867 26.9333ZM48.984 9.14134C48.9867 9.15067 48.9947 9.156 48.9973 9.16533C48.9787 9.17067 48.9587 9.172 48.94 9.18C48.9227 9.16 48.9013 9.14933 48.884 9.132C48.912 9.13466 48.9307 9.14667 48.9613 9.14667C48.9707 9.14667 48.9747 9.14267 48.984 9.14134ZM20.5413 26.94C20.7293 26.78 21.1293 26.64 21.228 26.6293C21.3547 26.6107 21.4507 26.5507 21.5227 26.4773C21.7613 26.78 22.0573 27.036 22.3547 27.24C21.7133 27.1133 21.1187 27 20.5413 26.94ZM48.1573 35.0827C47.6827 35.168 46.996 35.0853 46.98 34.468C46.9773 34.236 47.188 34.1387 47.3667 34.184C47.488 34.1427 47.6333 34.1733 47.7133 34.3C47.7133 34.3 47.7293 34.3067 47.78 34.324C47.8533 34.348 47.9267 34.36 47.992 34.388C48.1107 34.432 48.1973 34.484 48.296 34.56C48.472 34.7013 48.376 35.048 48.1573 35.0827ZM57.812 42.8707C57.7667 42.752 57.704 42.6347 57.6413 42.528C57.6013 42.4627 57.5533 42.3987 57.504 42.336C57.516 42.2627 57.552 42.2093 57.5987 42.168C57.608 42.1587 57.6173 42.148 57.628 42.1387C57.8107 42.0173 58.124 42.0907 58.1187 42.3827C58.1133 42.6133 58.0333 42.7907 57.812 42.8707ZM33.7827 80.9573C33.8107 81.0387 33.8533 81.1214 33.896 81.1934C34.032 81.4254 34.2493 81.64 34.4933 81.816C34.248 81.6813 33.9933 81.5573 33.7373 81.4427C33.772 81.288 33.7907 81.1267 33.7827 80.9573ZM36.7693 91.696C36.7347 91.9467 36.7147 92.196 36.6827 92.448C36.704 92.1627 36.724 91.88 36.7413 91.592C36.7507 91.628 36.76 91.6613 36.7693 91.696ZM33.3267 79.68C33.3507 79.68 33.3773 79.68 33.3973 79.6867C33.524 79.6987 33.6333 79.6627 33.7347 79.6173L33.7413 79.6267C33.672 79.8467 33.6387 80.072 33.6413 80.3054C33.5693 80.072 33.4613 79.86 33.3267 79.68ZM29.816 78.1947C29.972 78.0507 30.056 77.868 30.108 77.6747C30.1387 77.6587 30.1627 77.6373 30.1907 77.6187C30.268 77.632 30.3453 77.6613 30.4227 77.664C30.5387 77.668 30.644 77.6413 30.7507 77.6173C30.7427 77.6507 30.7333 77.6853 30.7067 77.72C30.6213 77.8227 30.64 77.9853 30.5853 78.1027C30.528 78.264 30.4227 78.3627 30.276 78.4573C30.188 78.5 30.0467 78.516 29.968 78.4573C29.8733 78.388 29.752 78.3733 29.636 78.344C29.6947 78.2933 29.7587 78.248 29.816 78.1947ZM30.3293 74.276C30.36 74.344 30.3973 74.4054 30.44 74.464C30.3747 74.4454 30.3093 74.432 30.244 74.4213C30.2613 74.38 30.2853 74.3387 30.3053 74.2973C30.3133 74.2907 30.3213 74.284 30.3293 74.276ZM31.1827 75.0107C31.1667 74.96 31.1547 74.908 31.132 74.8627C31.132 74.8627 31.128 74.86 31.1253 74.8573C31.172 74.8613 31.2133 74.8747 31.2627 74.8747C31.3267 74.8747 31.3827 74.8614 31.4427 74.852C31.3627 74.916 31.276 74.968 31.1827 75.0107ZM13.9827 44.2747C13.8253 44.7 13.4467 45.088 12.9667 45.0747C12.584 45.0693 12.1853 44.832 12.116 44.4253C12.06 44.0933 12.216 43.8133 12.4427 43.5907C12.4067 43.436 12.46 43.264 12.6587 43.228C13.02 43.14 13.4107 43.156 13.7213 43.3853C13.872 43.4947 14.092 43.6267 14.092 43.84C14.092 43.9827 14.0347 44.1413 13.9827 44.2747ZM11.5907 46.8533C11.4067 46.8707 11.2907 46.9213 11.1 46.8453C10.916 46.768 10.792 46.5773 10.9107 46.384C11.088 46.0973 11.2907 46.108 11.5907 46.128C11.8067 46.14 11.908 46.32 11.8893 46.4893C11.9027 46.6573 11.8067 46.8387 11.5907 46.8533ZM10.4613 43.744C10.3067 43.912 10.224 44.1413 10.0533 44.2947C9.83467 44.492 9.59201 44.552 9.30801 44.5693C9.06534 44.5747 8.92 44.2947 9.03467 44.096C9.156 43.884 9.32934 43.6987 9.49867 43.524C9.49867 43.516 9.49867 43.516 9.49867 43.516C9.50667 43.508 9.512 43.504 9.51734 43.4947C9.64134 43.3853 9.78933 43.3907 9.89733 43.468C9.93333 43.4107 9.96933 43.3547 10.0213 43.304C10.2973 43.0093 10.7387 43.452 10.4613 43.744ZM6.89733 45.508C6.89066 45.504 6.864 45.4867 6.85467 45.4773C6.72 45.4867 6.56667 45.4347 6.504 45.2747C6.42133 45.0533 6.55067 44.792 6.81067 44.792C7.01467 44.792 7.19733 44.9467 7.33733 45.072C7.63867 45.34 7.19466 45.7867 6.89733 45.508ZM70.9267 34.7227C71.1653 34.968 71.4293 35.1093 71.7053 35.1947C71.9307 35.3707 72.1893 35.52 72.472 35.6373C73.4947 36.06 74.8227 35.5627 75.312 34.5733C75.372 34.4573 75.416 34.3427 75.456 34.224C75.6947 33.992 75.9227 33.736 76.1427 33.4227C76.6413 32.7173 76.4133 31.636 75.836 31.056C75.4853 30.7053 75.0507 30.5387 74.6013 30.5107C74.4187 30.2507 74.1453 30.0453 73.8453 29.92C74.0533 29.568 74.084 29.1427 73.976 28.7533C73.9667 28.668 73.952 28.5867 73.92 28.5067C73.84 28.1853 73.6747 27.9053 73.444 27.6653C73.4067 27.6387 73.376 27.6227 73.3507 27.592C73.3 27.2693 73.2107 26.9507 73.0867 26.6387C73.5573 26.4893 73.976 26.2693 74.3747 25.9453C74.8587 25.5613 75.0787 24.8707 75.1013 24.2733C75.1253 23.5867 74.7973 23.0973 74.4013 22.584C74.3653 22.5427 74.3213 22.5013 74.2787 22.46C74.0267 22.1387 73.7267 21.8387 73.3667 21.6773C72.9093 21.468 72.46 21.4147 72.0227 21.456C71.592 21.2013 71.0933 21.2213 70.6627 21.46C70.6573 21.452 70.6573 21.452 70.6573 21.452C70.6973 21.4227 70.74 21.4 70.7773 21.3813C70.6973 21.4 70.632 21.4227 70.56 21.436C70.3787 21.492 70.188 21.5387 69.9987 21.5853C69.8467 21.6267 69.684 21.6653 69.5267 21.708C69.508 21.712 69.492 21.7253 69.4733 21.7293C69.3933 21.6827 69.3133 21.6293 69.2333 21.5853C69.0467 21.504 68.86 21.4227 68.6613 21.3467C68.62 21.3293 68.5827 21.3107 68.5413 21.2987C68.944 21.468 68.86 21.436 68.3 21.196C68.104 21.116 67.9013 21.0507 67.6853 21C67.6093 20.9787 67.536 20.984 67.4627 20.9733C67.9613 20.8173 68.356 20.3347 68.356 19.7933C68.356 19.3107 68.048 18.8813 67.6413 18.6813C67.6707 18.528 67.6973 18.3707 67.6973 18.2093C67.6973 18.0213 67.664 17.84 67.6227 17.6533C67.664 17.5787 67.6973 17.4987 67.7333 17.4147C67.524 17.9253 67.7813 17.3013 67.856 17.12C68.076 16.5533 67.62 15.9413 67.096 15.784C66.9573 15.7427 66.816 15.6947 66.6813 15.652C66.5773 15.6173 66.4693 15.6027 66.36 15.596C66.212 15.552 66.0507 15.5307 65.8707 15.5453C65.6693 15.5627 65.4693 15.5893 65.272 15.6253C65.996 14.78 65.9573 13.4093 65.028 12.7387C64.92 12.6467 64.808 12.5533 64.676 12.4587C64.808 12.5587 64.936 12.6587 65.0667 12.7587C64.9853 12.6947 64.9173 12.6253 64.8413 12.5533C64.2107 11.9227 63.16 11.9173 62.5333 12.5533C62.4053 12.6747 62.2933 12.8147 62.188 12.9533C62.1547 12.96 62.1333 12.96 62.108 12.96C62.096 12.96 62.096 12.96 62.096 12.96C62.06 12.3747 61.8933 11.7893 61.5813 11.304C60.7573 10.0227 59.4467 9.46 57.988 9.27867C56.8853 9.13867 55.676 9.51733 54.972 10.3933C54.9347 10.368 54.9027 10.3627 54.86 10.3427C54.8947 10.2947 54.9347 10.2493 54.9693 10.2C55.2453 9.844 55.2973 9.32 55.212 8.84534C55.2933 8.53467 55.2933 8.20666 55.2027 7.89466C54.9973 7.14133 54.212 6.432 53.38 6.50666C53.0293 6.54133 52.7053 6.548 52.3467 6.59733C52.3467 6.60133 52.3467 6.60133 52.3467 6.60133C52.252 6.47733 52.1547 6.364 52.056 6.25067C52.1013 6.20667 52.1627 6.16134 52.232 6.104C52.516 5.892 52.796 5.35333 52.8427 5.004C52.8613 4.87466 52.9333 4.55733 52.9187 4.35466C52.8787 3.86133 52.8333 3.77733 52.636 3.33466C52.456 2.92 51.9667 2.608 51.5507 2.49733C51.2507 2.40933 50.948 2.42534 50.6627 2.492C50.5693 2.472 50.46 2.47199 50.3693 2.46933C50.3333 1.60933 49.7987 0.759993 48.888 0.563993C48.28 0.42666 47.7133 0.486664 47.1573 0.722664C46.8053 0.406664 46.3067 0.261333 45.8413 0.366667C45.2507 0.502667 44.792 0.946664 44.6373 1.51866C44.4907 2.05866 44.6707 2.63466 45.0453 3.024C44.9507 3.052 44.852 3.08399 44.7533 3.11866C44.64 2.68799 44.34 2.30133 43.8787 2.17867C42.4493 1.80267 40.7507 2.27066 40.3173 3.856C40.2587 4.068 40.2453 4.27199 40.2507 4.46933C39.368 3.67999 38.2973 3.072 37.0693 3.14667C36.9173 3.152 36.7693 3.17067 36.6267 3.19734C36.5733 2.80267 36.364 2.42133 35.9747 2.20267C35.8107 2.10667 35.6427 2.01467 35.472 1.93734C35.3133 1.868 35.1547 1.80266 34.9933 1.74133C34.9773 1.73466 34.9707 1.73467 34.964 1.73334C34.5747 1.58534 34.1493 1.55466 33.7413 1.68666C33.0987 1.88133 32.6307 2.37067 32.4373 2.95733C32.42 2.93867 32.3933 2.92 32.38 2.92C32.044 2.76267 31.7427 2.71334 31.4213 2.71467C31.4187 2.712 31.4173 2.70933 31.4147 2.70666C31.072 2.488 30.6547 2.50666 30.3053 2.69199C30.0067 2.85599 29.8347 3.18933 29.8347 3.52266V3.56133C29.8347 3.568 29.8373 3.57466 29.8373 3.58133C29.492 4.23199 29.5373 5.112 29.928 5.76533C30.0307 5.92533 30.144 6.07599 30.2707 6.21066C30.2613 6.21466 30.2507 6.21867 30.2413 6.22267C30.1773 6.21467 30.1147 6.20666 30.044 6.20666C29.3747 6.20666 28.7013 6.43733 28.1227 6.75867C27.8693 6.89867 27.64 7.08133 27.4293 7.276C27.376 7.23333 27.3333 7.19467 27.2773 7.164C26.832 6.89867 26.3893 6.896 25.8947 6.98C25.3133 7.08133 24.7653 7.288 24.2267 7.53067C23.58 7.83067 23.1933 8.656 23.1933 9.33733C23.1933 9.75066 23.316 10.1267 23.528 10.4507C23.508 10.564 23.484 10.6773 23.4867 10.8C23.4867 10.8147 23.4947 10.8267 23.496 10.8413C23.468 10.8387 23.4373 10.8333 23.4107 10.8333C22.388 10.8467 21.4347 11.108 20.488 11.4627C19.768 11.736 19.1947 12.1933 18.976 12.9733C18.7227 13.9067 19.1307 14.9333 19.9707 15.4213C20.0147 15.4467 20.0573 15.4573 20.0987 15.48C20.0187 15.856 20.1133 16.2653 20.4053 16.5533C20.5267 16.6733 20.6733 16.744 20.8173 16.8173C20.8027 16.824 20.788 16.8347 20.7733 16.8427C20.6893 16.7973 20.5907 16.768 20.476 16.7627C20.3307 16.6827 20.192 16.5947 20.0213 16.5533C19.1413 16.3307 18.368 16.8507 17.804 17.464C17.4827 17.8133 17.3387 18.272 17.468 18.7413C17.6027 19.2427 18.16 19.7653 18.7227 19.692C18.9667 19.664 19.2173 19.6067 19.4653 19.532C19.472 19.588 19.464 19.6427 19.472 19.6987C19.2973 19.724 19.1227 19.7653 18.9493 19.8293C17.656 20.332 17.0533 21.4267 16.9093 22.7507C16.7987 23.7573 17.368 24.8027 18.1893 25.4C17.748 25.7627 17.3987 26.2587 17.1947 26.8267C16.3933 26.6267 15.5467 26.5253 14.7227 26.4773C12.9133 26.3667 11.5293 27.0467 10.484 28.504C9.75467 29.5053 10.012 30.808 10.664 31.768C9.728 31.724 8.76667 32.3213 8.50134 33.3173C8.304 34.0947 8.62267 34.9707 9.33867 35.3707C9.50267 35.464 9.68 35.532 9.86 35.588C10.3613 35.756 11.1133 35.5907 11.46 35.168C11.4827 35.136 11.5067 35.112 11.54 35.0853C11.84 34.8347 11.9813 34.476 12.0293 34.1C12.14 33.9413 12.2307 33.7627 12.284 33.5533C12.3267 33.42 12.332 33.2853 12.32 33.1453C12.4387 33.204 12.5493 33.2707 12.6653 33.3253C12.3613 34.052 12.4067 35.0773 13.072 35.5973C13.428 35.8813 13.704 36.06 14.1387 36.22C14.4947 36.3493 15.0107 36.3093 15.3573 36.2147C15.5813 36.1493 15.824 36.028 16.036 35.884C16.552 35.7587 16.9893 35.4307 17.2587 34.984C17.3867 35.096 17.524 35.1987 17.6667 35.2893C17.456 35.5147 17.3067 35.7693 17.188 36.032C16.964 36.1587 16.7507 36.3013 16.5547 36.468C16.364 36.5853 16.1827 36.716 16.004 36.876C15.5987 37.2507 15.3467 37.7227 15.2147 38.216C15.0493 38.2267 14.8733 38.2533 14.6947 38.288C14.34 38.36 14.024 38.5093 13.7307 38.708C12.32 38.3653 10.7147 38.62 9.55334 39.38C9.32934 39.22 9.06 39.0787 8.76667 38.9667C7.93067 38.656 6.95334 38.9533 6.17601 39.388C4.99734 39.7827 3.972 40.6547 3.51867 41.804C3.07067 42.9253 3.43867 43.9347 4.172 44.6493C4.14933 44.684 4.13067 44.7227 4.10401 44.7613C3.89334 44.7373 3.67867 44.752 3.47334 44.8253C3.44667 44.84 3.42 44.8573 3.38934 44.8653C3.11867 44.8213 2.84667 44.8053 2.58401 44.8387C2.08801 44.9 1.96934 44.924 1.51067 45.132C1.16134 45.292 0.942671 45.6053 0.718671 45.8987C0.480004 46.224 0.306668 46.8147 0.354668 47.2107C0.428001 47.7427 0.420007 47.8453 0.676007 48.3373C0.837341 48.6667 1.164 48.972 1.48 49.168C2.088 49.5453 2.75734 49.5613 3.43867 49.4373C3.88134 49.3707 4.432 49.08 4.75734 48.7333C4.87334 48.8133 4.99733 48.888 5.12 48.9573C4.99733 49.1227 4.89067 49.3 4.796 49.5067C4.38 50.392 4.46933 51.728 5.50667 52.192C6.41733 52.608 7.16133 52.684 8.13467 52.5333C8.31067 52.7507 8.528 52.936 8.78133 53.0787C9.69467 53.5947 10.8613 53.4653 11.712 52.8707C12.7653 52.1307 13.5013 50.8813 13.5053 49.6587C14.1787 49.4627 14.82 49.088 15.3467 48.6013C15.5693 48.3933 15.7613 48.1547 15.9253 47.9013C16.3933 48.2173 17.0013 48.356 17.6933 48.2173C18.9173 47.9853 20.4973 47.224 21.0427 46.0173C21.26 45.524 21.3467 45.028 21.324 44.5453C21.7013 44.788 22.1227 44.9653 22.572 45.0387C23.54 45.1947 24.4493 45.032 25.268 44.6453C25.3413 44.6307 25.408 44.62 25.4813 44.6013C25.9333 44.5067 26.2987 44.2067 26.5493 43.8173C26.5533 43.832 26.564 43.848 26.5733 43.8613C27.2707 44.7893 28.268 45.3773 29.4587 45.3907C30.4413 45.4013 31.512 44.9587 32.1427 44.1933C32.8787 43.3173 33.3147 42.164 33.2387 41.0093C33.192 40.36 33.056 39.9253 32.7973 39.336C32.716 39.1453 32.5933 38.9853 32.4587 38.8387C32.4733 38.8133 32.48 38.7893 32.492 38.7627C36.3573 41.0853 36.7987 45.4827 37.072 49.9973C37.1013 50.4747 37.1093 50.936 37.1173 51.396C37.0627 52.0787 37.008 52.7547 36.968 53.4147C36.8173 52.7107 36.3267 52.1787 35.5587 51.8573C34.728 51.5187 33.836 51.4213 32.96 51.5667C32.8187 51.0733 32.5653 50.6027 32.1853 50.1907C31.1133 49.028 29.4253 48.8587 27.9707 49.0547C26.7987 49.216 25.9627 50.2293 25.8467 51.348C25.832 51.4987 25.8387 51.636 25.8573 51.764C25.8227 51.8573 25.784 51.944 25.76 52.0293C25.692 52.2613 25.6507 52.4973 25.6387 52.728C25.4667 52.748 25.2933 52.7733 25.1213 52.832C24.624 52.9933 24.2933 53.2013 23.9 53.54C23.5493 53.828 23.3693 54.2067 23.2093 54.6147C23.1453 54.5533 23.084 54.4933 23.0173 54.4413C22.248 53.916 21.512 53.5947 20.56 53.7333C19.4627 53.896 18.5853 54.98 18.3133 56.004C18.1387 56.672 18.3053 57.4667 18.8253 57.944C19.3413 58.4213 19.928 58.7747 20.5627 58.924C20.5653 58.9267 20.5693 58.9293 20.5707 58.932C20.4267 59.2227 20.32 59.552 20.2547 59.8933C20.1347 59.8933 20.0213 59.8933 19.9027 59.9253C19.5467 60.0213 19.1693 60.036 18.8107 60.14C18.0907 60.356 17.6147 60.836 17.1613 61.42C16.8533 61.8267 16.828 62.3774 16.9867 62.8747C16.956 62.8974 16.92 62.9133 16.8907 62.9347C16.3933 62.7507 15.8147 62.7587 15.38 63.0613C15.3733 63.068 15.3707 63.072 15.36 63.08C14.972 63.3453 14.6747 63.6653 14.5427 64.1347C14.3853 64.7347 14.5467 65.428 14.9987 65.8573C15.0067 65.86 15.0107 65.8707 15.0107 65.8707C15.5693 66.408 16.3467 66.4893 16.98 66.2333C17.1467 66.2907 17.3107 66.336 17.4747 66.3573C18.152 66.44 18.892 66.2413 19.3213 65.696C19.5373 66.196 19.844 66.516 20.3827 66.7093C20.4053 66.7093 20.4147 66.7093 20.4333 66.72C20.276 66.8787 20.1587 67.1267 20.172 67.34C20.2427 68.1227 20.9453 68.4 21.636 68.232C22.0333 68.1347 22.3427 67.792 22.5493 67.432C22.6107 67.384 22.66 67.328 22.704 67.268C22.7653 67.348 22.84 67.432 22.9173 67.5067C23.608 68.1534 24.624 68.3507 25.5267 68.0347C25.972 67.872 26.3427 67.632 26.648 67.328C27.632 67.7867 28.812 67.8173 29.7987 67.2387C30.3707 66.8933 30.7587 66.4187 30.9907 65.904C31.5573 66.0173 32.152 65.9387 32.636 65.6307C33.0653 65.352 33.4333 64.896 33.54 64.3894C33.628 64 33.552 63.6653 33.504 63.2907C33.4453 62.8867 33.0213 62.5453 32.6533 62.4427C32.3733 62.3707 32.0867 62.3467 31.8093 62.3613C31.796 62.3467 31.7773 62.3413 31.7627 62.3347C31.4693 62.1227 31.0413 62.0333 30.728 62.152C30.6653 62.1707 30.6147 62.1947 30.5613 62.2133C30.5 62.1347 30.424 62.0613 30.3547 61.984C30.4653 61.7307 30.5467 61.472 30.5987 61.2093C30.7547 61.156 30.8973 61.0787 31.0347 60.992C31.148 61.0627 31.2627 61.128 31.376 61.2C31.7907 61.7427 32.3587 62.1293 32.9973 62.328C33.672 62.8347 34.32 63.3707 34.8907 63.972C36.6053 65.7867 37.0253 68.416 37.3987 70.792C37.492 71.38 37.5573 71.9667 37.6 72.5493C37.3093 71.8533 36.42 71.7027 35.9533 72.204C35.7907 72.188 35.6267 72.184 35.4613 72.1987C35.472 72.1827 35.472 72.172 35.4827 72.148C35.748 71.8173 35.8733 71.3827 35.748 70.9653C35.6413 70.5707 35.2693 70.1107 34.8427 70.052C34.7467 70.0453 34.6613 70.0294 34.5747 70.0187C34.1253 69.8374 33.6773 69.8307 33.2227 70.0053C33.0773 69.7827 32.8667 69.612 32.6107 69.4893H32.6013V69.4853C32.6307 69.5 32.628 69.496 32.5907 69.4707C32.424 69.3227 32.2467 69.1973 32.0653 69.068C31.604 68.7627 31.06 68.7747 30.6013 68.9813C30.4373 68.8507 30.248 68.7427 30.0373 68.6627C30.2613 68.7467 29.92 68.572 29.9067 68.5573C29.7387 68.468 29.556 68.4 29.3747 68.328C29.252 68.2787 28.9987 68.1747 28.9 68.1347C28.7453 68.0693 28.5853 68.02 28.4267 67.9613C27.8107 67.7507 27.068 67.9907 26.6187 68.4413C26.4747 68.5853 26.3493 68.7627 26.2707 68.9387C26.088 69.12 25.9453 69.34 25.868 69.624C25.836 69.7413 25.8253 69.8627 25.8187 69.9867C25.7813 69.9987 25.744 70 25.7053 70.0187C25.4267 69.78 25.012 69.7293 24.672 69.9187C24.448 70.0493 24.2413 70.212 24.0493 70.388C23.9733 70.416 23.9133 70.4547 23.852 70.4973C23.5693 70.4067 23.2693 70.3667 22.9853 70.3427C22.3147 70.2747 21.7507 70.6027 21.2587 71.004C21.0533 71.1653 20.9147 71.3853 20.8227 71.6267C20.5907 71.788 20.4093 72.008 20.316 72.2933C20.288 72.3747 20.2773 72.4587 20.2747 72.5414C20.024 72.5227 19.768 72.5293 19.512 72.604C18.7707 72.8293 18.2453 73.492 18.2453 74.276C18.2453 74.2973 18.2533 74.3147 18.2547 74.336C18.2053 74.5667 18.2507 74.8067 18.412 74.984C18.0147 75.272 17.8093 75.708 17.8173 76.1827C17.8133 76.1893 17.8067 76.1947 17.804 76.2013C17.648 76.2093 17.4973 76.2093 17.3467 76.216C17.284 76.2013 17.2147 76.1933 17.1467 76.1907C17.2147 76.1933 17.28 76.2013 17.3387 76.2187H17.3347C17.2733 76.208 17.212 76.2013 17.1467 76.1907C16.9213 76.1787 16.68 76.208 16.472 76.2867C16.448 76.2373 16.4 76.196 16.3693 76.1507C16.372 76.1347 16.3787 76.1187 16.3813 76.1013C16.4173 75.8173 16.12 75.5787 15.864 75.5787C15.8293 75.5787 15.8093 75.6013 15.7773 75.6067C15.5493 75.472 15.3 75.3827 15.024 75.4174C14.4947 75.4787 14.0307 75.716 13.872 76.2693C13.64 77.0747 14.2227 77.7693 14.9667 77.976C15.1333 78.0267 15.2827 78.0294 15.4387 78.0067C15.456 78.296 15.528 78.576 15.688 78.888C15.7987 79.112 15.984 79.292 16.1947 79.4493C16.2733 79.744 16.5053 79.9893 16.9027 79.9893C17.0387 79.9893 17.152 79.9573 17.2507 79.9067C17.3587 79.9253 17.4667 79.9533 17.568 79.9573C18.1347 79.9693 18.656 79.8293 19.1573 79.5733C19.344 79.4787 19.504 79.3347 19.6427 79.1747C19.6427 80.124 20.0987 81.076 20.8573 81.7093C20.9453 82.0053 21.0427 82.3147 21.108 82.636C21.4227 84.012 23.428 84.6094 24.4493 83.7107C24.6333 84.2867 25.116 84.7467 25.724 84.964C27.0493 85.4254 28.6293 84.856 29.3933 83.772C30.0813 83.9893 30.8253 84.04 31.5093 83.7907C31.9387 83.6347 32.2947 83.4134 32.6093 83.1534C35.0427 85.6654 35.524 90.3347 35.9147 93.4813C35.9413 93.7107 35.9413 101.405 35.9293 101.785C35.8907 102.655 35.8573 103.525 35.8253 104.395C35.7893 104.019 35.7507 103.659 35.704 103.335C35.6747 103.156 35.664 108.039 35.672 108.213C35.68 108.515 35.6747 108.823 35.6733 109.128C35.656 109.797 35.6387 110.467 35.6173 111.135C35.4267 114.533 34.8053 118.093 33.972 121.247C33.4107 123.379 32.5653 125.464 31.168 127.184C31.0013 127.388 30.8267 127.575 30.648 127.752C29.8013 128.423 28.836 128.888 27.7267 129.005C27.4987 129.027 27.4987 129.337 27.7267 129.355C27.9173 129.372 28.1 129.361 28.2867 129.36C27.4413 129.749 26.5333 130.036 25.5773 130.285C25.5293 130.292 25.544 130.365 25.592 130.371C27.3227 130.471 28.8307 129.951 30.1093 129.059C30.5173 128.921 30.9173 128.757 31.296 128.54C29.9427 130.269 28.164 131.908 26.064 131.893C25.832 131.893 25.772 132.251 26.0053 132.295C26.368 132.356 26.732 132.373 27.0853 132.373C27.0973 132.469 27.132 132.56 27.1987 132.616C29.1693 134.388 33.4453 133.248 35.544 132.232C35.5787 132.216 35.6107 132.203 35.6427 132.183C35.6427 132.183 35.6413 132.183 35.6413 132.191C35.5067 132.421 35.8107 132.639 36.0093 132.469C36.4493 132.093 36.848 131.676 37.2133 131.212C37.864 130.743 38.5267 130.179 39.0947 129.559C39.2133 130.285 39.3467 131.005 39.512 131.719C39.7573 132.801 41.3173 132.501 41.3693 131.469C41.3987 130.881 41.4107 130.292 41.4133 129.713C41.4933 129.803 41.5867 129.876 41.6627 129.961C41.9947 130.653 42.3707 131.297 42.7867 131.875C43.052 132.251 43.6187 132.028 43.5187 131.573C43.4853 131.433 43.4453 131.297 43.4093 131.167C43.4147 131.169 43.42 131.171 43.4253 131.172C43.468 131.213 43.5147 131.228 43.5653 131.219C43.8693 131.343 44.1813 131.453 44.5293 131.539C44.8387 131.924 45.1507 132.301 45.4933 132.647C46.1333 133.307 47.0987 133.32 47.828 132.933C48.2253 133.02 48.6253 133.077 49.028 133.107C49.3053 133.269 49.592 133.417 49.892 133.533C50.7547 133.876 50.52 133.488 50.1987 133.111C51.0213 133.057 51.852 132.885 52.6893 132.577C52.8067 132.532 52.8973 132.46 52.9733 132.377C53.3907 132.42 53.82 132.439 54.2693 132.417C54.5893 132.4 54.6507 132.059 54.484 131.875C54.868 131.805 55.2587 131.697 55.6547 131.524C55.708 131.489 55.6733 131.413 55.616 131.411C53.5027 131.263 51.8573 131.136 50.052 129.868C48.8107 128.991 47.828 127.805 46.992 126.528C46.168 124.721 45.3427 122.911 44.7733 120.961C43.6 116.989 43.04 112.856 42.72 108.737C42.684 108.264 42.6667 107.791 42.6387 107.317C42.7107 107.371 42.848 107.333 42.8373 107.228C42.3413 101.933 42.8893 96.652 43.024 91.3573C43.1587 85.9213 43.04 80.4574 43.024 75.0214C43.016 73.2627 42.952 71.5027 42.88 69.7427C42.884 66.9147 42.824 64.088 42.6413 61.2893C42.64 60.6893 42.6253 60.0867 42.6387 59.4867C42.6907 57.1493 43.276 55.1693 44.824 53.392C45.376 52.7613 45.992 52.184 46.6253 51.6333C47.6053 51.004 48.6707 50.476 49.7147 49.96C50.2733 50.3027 50.9253 50.5027 51.58 50.5493C51.8573 50.572 52.1307 50.5493 52.4013 50.496C52.2213 50.8267 52.12 51.2053 52.12 51.536C52.12 52.5333 52.764 53.1507 53.6173 53.508C54.2293 53.7587 55.0973 53.8027 55.7187 53.576C56.04 53.4587 56.352 53.3053 56.6613 53.1627C56.8507 53.044 57.0227 52.9147 57.192 52.7667C56.7213 53.1373 57.1027 52.844 57.208 52.7733C57.8947 52.332 58.2707 51.572 58.1187 50.764C58.34 50.692 58.5453 50.596 58.74 50.472C57.876 51.536 57.8867 53.216 58.8 54.2293C60.2333 55.812 62.7867 54.5027 63.9773 53.2747C64.7787 52.4493 65.0667 51.4107 64.9333 50.4267C65.032 50.472 65.1333 50.4987 65.2333 50.5347C65.376 50.6987 65.588 50.808 65.8707 50.808C65.964 50.808 66.0347 50.7814 66.112 50.76C66.6493 50.832 67.196 50.8107 67.7507 50.6867C68.252 50.572 68.8 50.2947 69.164 49.9213C69.6467 49.412 69.8693 48.8067 69.8693 48.1507C70.1693 48.472 70.56 48.7187 71.0267 48.8133C71.808 48.972 72.4787 48.8133 73.176 48.472C74.0867 48.0293 74.8747 46.796 74.4773 45.7867C74.3093 45.356 74.0773 45.0467 73.768 44.84C73.856 44.4227 73.8013 43.9853 73.6067 43.588C73.6533 43.5093 73.6973 43.428 73.7213 43.344C73.848 42.892 73.6587 42.308 73.2107 42.0947C73.0693 42.0173 72.92 41.9707 72.7627 41.9347C72.452 41.6507 71.964 41.6547 71.7013 42.008C71.4893 41.944 71.2613 41.904 71.0093 41.8947C70.888 41.8907 70.7427 41.9013 70.608 41.928C70.6053 41.832 70.588 41.74 70.5813 41.6453C70.5973 41.608 70.6213 41.5747 70.632 41.5307L70.6653 41.3893C70.7507 41.024 70.5813 40.6613 70.272 40.504C70.032 39.9853 69.668 39.5333 69.1947 39.18C69.2067 38.928 69.1173 38.6747 68.8707 38.5573C68.52 38.3893 68.18 38.3027 67.8387 38.2853C67.8707 38.1987 67.9 38.1107 67.9147 38.0227C67.9413 37.8653 67.9533 37.712 67.9707 37.548C68.5413 37.48 69.08 37.2653 69.5707 36.92C70.224 36.4653 70.5987 35.7467 70.3747 34.9347C70.368 34.9173 70.356 34.9 70.3533 34.872C70.528 34.816 70.7053 34.7427 70.8787 34.6707C70.8933 34.6867 70.9067 34.7093 70.9267 34.7227Z" fill="black"/>
</svg>