<svg xmlns="http://www.w3.org/2000/svg" width="78" height="134" viewBox="0 0 78 134" fill="none">
  <path d="M1.97063 54.812C2.07197 54.5667 2.53596 54.3747 2.79196 54.2574C3.6093 53.8574 4.52129 53.6454 5.41196 53.4547C4.83862 53.8334 4.23065 54.2227 3.63465 54.6214C3.43999 54.6934 3.25062 54.764 3.06129 54.8227C2.96396 54.8614 1.8053 55.2014 1.97063 54.812ZM10.0906 30.8734C10.3453 30.756 10.564 30.8494 10.724 31.076C10.684 31.1 10.6453 31.1134 10.6093 31.1454C10.5413 31.0267 10.3586 30.968 10.1986 31.0627C10.0853 31.1454 9.9973 31.228 9.91863 31.3107C9.9373 31.2387 9.95065 31.156 9.96665 31.0867C9.94265 31.0867 9.91864 31.0867 9.89064 31.076C9.9373 30.9907 10.0026 30.9107 10.0906 30.8734ZM14.7186 31.7214C14.7053 31.7374 14.692 31.7507 14.6773 31.7667C14.5746 31.872 14.456 31.9774 14.3253 32.0867L14.3226 32.0894C14.3173 32.068 14.316 32.0374 14.3053 32.0134C14.328 31.9854 14.3493 31.9587 14.372 31.9307C14.428 31.8627 14.4867 31.7974 14.548 31.7347C14.6707 31.6094 14.7973 31.4907 14.9413 31.4054C14.8986 31.5107 14.816 31.6147 14.7186 31.7214ZM16.5093 31.884C16.4746 31.8694 16.4386 31.8587 16.4 31.8534C16.2626 31.832 16.1226 31.84 15.9799 31.84C16.2359 31.7454 16.4973 31.6667 16.7506 31.6294C16.68 31.7187 16.5973 31.804 16.5093 31.884ZM16.7787 7.53737C17.292 7.3027 17.7106 7.48936 18.036 7.9267C17.96 7.97203 17.88 8.00936 17.8173 8.05736C17.6746 7.82003 17.3186 7.73736 16.9973 7.91469C16.772 8.05736 16.5933 8.2227 16.448 8.40004C16.472 8.24537 16.508 8.1027 16.548 7.96137C16.4947 7.9507 16.4413 7.94003 16.3933 7.9267C16.484 7.76136 16.6067 7.61737 16.7787 7.53737ZM26.148 8.9627C26.088 9.0427 26.0173 9.12536 25.9413 9.20803C25.916 9.23736 25.8906 9.26537 25.8613 9.2947C25.6546 9.50803 25.4093 9.72403 25.1426 9.94536C25.1333 9.88536 25.128 9.82536 25.1133 9.7667C25.2866 9.55336 25.468 9.35337 25.6573 9.16537C25.6827 9.14137 25.7053 9.1187 25.7306 9.09603C25.928 8.9107 26.1373 8.74003 26.364 8.5987C26.316 8.7187 26.2373 8.84003 26.148 8.9627ZM29.4733 9.53337C29.4027 9.50937 29.3227 9.4827 29.244 9.47337C28.9707 9.4507 28.6933 9.43737 28.4013 9.46403C28.6506 9.36937 28.9066 9.28537 29.1586 9.2147C29.42 9.14404 29.6826 9.0867 29.9373 9.04804C29.8053 9.2267 29.6453 9.3787 29.4733 9.53337ZM52.532 1.1627C53.0453 1.10537 53.36 1.39737 53.5066 1.88004C53.4293 1.88004 53.3546 1.90937 53.276 1.91737C53.2293 1.68537 52.9466 1.49337 52.6093 1.56537C52.3733 1.62404 52.172 1.70403 51.996 1.8107C52.06 1.69337 52.1306 1.58803 52.208 1.47203C52.1666 1.44803 52.1253 1.42269 52.084 1.39736C52.2133 1.28003 52.3546 1.1867 52.532 1.1627ZM60.2413 5.15603C60.196 5.18669 60.1467 5.2147 60.1 5.2427C60.016 5.29336 59.928 5.3427 59.8333 5.3907C59.7653 5.4227 59.6973 5.45603 59.6266 5.4867C59.544 5.52536 59.46 5.56003 59.372 5.59603C59.28 5.63336 59.1907 5.6707 59.0947 5.7067C59.1053 5.64936 59.1173 5.60537 59.124 5.5467C59.1586 5.52404 59.1947 5.50403 59.232 5.48137C59.388 5.38403 59.5453 5.29604 59.7066 5.2147C59.7693 5.18404 59.8333 5.15337 59.8973 5.12404C60.1106 5.02804 60.328 4.94536 60.552 4.89336C60.4693 4.98803 60.3613 5.07469 60.2413 5.15603ZM62.9786 6.61736C62.924 6.58003 62.8666 6.53603 62.7973 6.4987C62.5653 6.39203 62.312 6.3067 62.0466 6.2387C62.0906 6.23737 62.136 6.24137 62.18 6.24003C62.3773 6.2347 62.5733 6.2347 62.7667 6.2467C63.028 6.26136 63.2826 6.29203 63.528 6.33603C63.3613 6.4507 63.1746 6.53603 62.9786 6.61736ZM67.652 10.48C67.5333 10.5214 67.4146 10.56 67.2866 10.592C67.2893 10.5854 67.2866 10.5787 67.2906 10.572C67.3333 10.4667 67.3453 10.3494 67.348 10.2294C67.348 10.1947 67.3666 10.1694 67.3626 10.1347C67.6373 10.1467 67.9013 10.1934 68.1386 10.2614C67.9893 10.3494 67.8227 10.4174 67.652 10.48ZM59.0186 42.032C59.4693 41.9814 59.74 42.2307 59.8613 42.6547C59.796 42.6654 59.732 42.6787 59.6627 42.6907C59.62 42.476 59.372 42.3107 59.084 42.3694C58.8693 42.4174 58.6946 42.5027 58.5386 42.596C58.5986 42.4894 58.6586 42.38 58.7293 42.2894C58.6946 42.2654 58.6533 42.244 58.6173 42.2174C58.7293 42.1107 58.86 42.0414 59.0186 42.032ZM65.7226 45.608C65.716 45.612 65.7093 45.616 65.7027 45.62C65.588 45.6934 65.46 45.76 65.3187 45.8254C65.3147 45.828 65.3107 45.8294 65.3067 45.8307C65.1333 45.912 64.94 45.9854 64.7413 46.0574C64.7466 46.0134 64.7547 45.9574 64.7613 45.9147C64.7707 45.908 64.7813 45.9027 64.792 45.8974C64.9653 45.7907 65.1413 45.6947 65.3213 45.612C65.3506 45.5987 65.3787 45.584 65.4093 45.5734C65.6053 45.4854 65.8066 45.4147 66.0186 45.368C65.94 45.4534 65.84 45.532 65.7226 45.608ZM68.1306 46.892C68.084 46.856 68.036 46.8227 67.9773 46.788C67.7866 46.6947 67.5706 46.6254 67.3546 46.5614C67.7853 46.552 68.2186 46.5734 68.6213 46.644C68.468 46.7387 68.3026 46.8227 68.1306 46.892ZM71.8826 50.42C71.8866 50.412 71.884 50.4014 71.888 50.392C71.9253 50.304 71.9347 50.2054 71.9387 50.1054C71.94 50.0734 71.9573 50.0454 71.956 50.0094C72.1933 50.032 72.424 50.0654 72.628 50.1374C72.4053 50.2547 72.1506 50.3507 71.8826 50.42ZM18.556 65.7774C18.724 65.584 18.7213 65.308 18.6253 64.9867C18.6933 64.996 18.748 65.0227 18.8067 65.0347C18.984 65.152 19.1626 65.2707 19.3506 65.3747C19.6386 65.696 19.9266 65.88 20.196 65.8787C20.3186 66.5934 20.4466 67.3067 20.5906 68.0107C19.908 67.2734 19.2253 66.5347 18.556 65.7774ZM16.2306 41.2854C16.4 41.4987 16.6533 41.556 17.12 41.4627C17.6146 41.3654 18.4093 40.14 18.6626 40.2347C18.704 40.2494 18.744 40.2494 18.7853 40.2587C18.7586 41.2147 18.736 42.172 18.7066 43.1254C18.684 44.0307 18.6666 44.9494 18.6626 45.8707C18.6586 45.872 18.656 45.8734 18.6506 45.8747C18.5613 45.9014 18.472 45.9267 18.38 45.964C18.3413 45.9787 18.3 45.9987 18.2586 46.016C18.1346 46.0707 18.0106 46.1294 17.8866 46.196C17.828 46.2294 17.768 46.26 17.7093 46.296C17 44.8974 16.2493 43.532 15.4973 42.1707C15.752 41.9 15.984 41.584 16.2306 41.2854ZM67.5546 12.2574C67.5386 12.2547 67.5253 12.2507 67.5106 12.248C67.5106 12.24 67.5106 12.2267 67.5106 12.2134C67.552 12.2294 67.5987 12.2294 67.64 12.248C67.612 12.248 67.584 12.248 67.5546 12.2574ZM69.8373 13.9374C69.8373 13.9534 69.836 13.9694 69.8346 13.9827C69.624 14.064 69.3946 14.108 69.1546 14.132C69.0946 14.1387 69.0333 14.144 68.972 14.148C68.9266 14.1507 68.8786 14.144 68.8333 14.144C68.8053 14.128 68.7733 14.1107 68.748 14.0947C68.6986 14.0654 68.6426 14.0307 68.6093 14.0054C68.528 13.9454 68.4293 13.9174 68.3293 13.9014C68.3066 13.8987 68.288 13.8934 68.2653 13.8934C68.16 13.8867 68.0546 13.9014 67.9546 13.932L67.9533 13.9307C67.9506 13.928 67.948 13.9227 67.948 13.9227C67.9533 13.9214 67.9586 13.92 67.964 13.9187C68.3826 13.8467 68.784 13.7414 69.1173 13.58C69.136 13.5707 69.152 13.5574 69.1693 13.5467C69.3747 13.6374 69.5653 13.7547 69.7493 13.8814C69.7773 13.9027 69.8093 13.9174 69.8373 13.9374ZM72.088 51.8787C72.0786 51.8774 72.0706 51.8734 72.0613 51.872C72.0653 51.8614 72.0586 51.8454 72.0573 51.8307C72.0946 51.844 72.136 51.8454 72.1733 51.8614C72.1466 51.8667 72.1146 51.8707 72.088 51.8787ZM54.1546 37.5774C53.9746 37.6854 53.7653 37.7507 53.54 37.7867C53.5346 37.788 53.528 37.788 53.524 37.7894C53.456 37.764 53.3986 37.7454 53.3546 37.7214C53.28 37.68 53.1946 37.6747 53.108 37.684C53.084 37.6867 53.0626 37.6947 53.036 37.7014C52.996 37.7107 52.9546 37.7147 52.9173 37.732H52.912C52.972 37.7107 53.0253 37.688 53.084 37.6654C53.1533 37.6387 53.228 37.612 53.2946 37.5827C53.42 37.5267 53.5386 37.4654 53.6413 37.392C53.6533 37.3787 53.6586 37.3654 53.672 37.3654C53.8373 37.412 54 37.472 54.152 37.5534C54.1533 37.5614 54.1533 37.5694 54.1546 37.5774ZM54.1373 38.0147C54.144 38.0094 54.1533 38.008 54.1613 38.0054C54.1733 38.0014 54.1853 37.9987 54.1946 37.9947C54.1986 38.016 54.2026 38.0374 54.2026 38.0374C54.2026 38.0374 54.1746 38.028 54.1373 38.0147ZM72.44 53.3507L72.4373 53.3494C72.4453 53.3467 72.4533 53.3454 72.4613 53.3427C72.4547 53.3454 72.448 53.348 72.4413 53.3507H72.44ZM36.1826 13.7747C36.1613 13.7787 36.1386 13.7774 36.1186 13.7814C36.1146 13.7627 36.1066 13.7534 36.0986 13.7454C36.1493 13.748 36.1986 13.7307 36.2506 13.736C36.2293 13.744 36.204 13.7574 36.1826 13.7747ZM42.7293 73.6627C42.5706 73.8974 42.404 74.1254 42.2373 74.3494C41.6426 74.6187 41.084 75.104 40.5493 75.5747C40.2213 75.86 39.9093 76.1414 39.612 76.3534C38.9933 76.796 38.6173 77.1254 38.388 77.38C39.156 74.772 40.0266 72.2294 40.8746 69.6627C41.7973 66.888 42.5053 64.0667 43.296 61.22C43.536 60.3507 43.8053 59.476 44.076 58.612C44.364 56.952 44.6427 55.2907 44.876 53.612C44.8867 53.7094 44.9026 53.8094 44.9373 53.916C44.9693 54.0107 45.0106 54.088 45.0626 54.152C45.096 54.1947 45.1387 54.2214 45.18 54.252C45.2 54.268 45.2187 54.2907 45.244 54.304C45.2973 54.3334 45.3573 54.352 45.4186 54.3667C45.436 54.372 45.452 54.3787 45.4693 54.3827C45.5373 54.396 45.612 54.4014 45.688 54.4014C45.7026 54.4014 45.7173 54.4027 45.732 54.4014C45.8093 54.4 45.8907 54.3907 45.9733 54.3774C45.992 54.3747 46.0106 54.3734 46.0293 54.3694C46.1066 54.3574 46.1853 54.34 46.2626 54.32C46.3 54.3107 46.3346 54.3027 46.3693 54.292C46.4253 54.276 46.4813 54.26 46.5373 54.2427C46.6747 54.2 46.812 54.1547 46.948 54.1054V54.1067C46.9373 54.2134 46.9426 54.3134 46.9613 54.4094C46.9053 54.5574 46.8733 54.6987 46.8613 54.8374C46.8573 54.8667 46.856 54.8974 46.856 54.9254C46.8546 55.064 46.8693 55.1947 46.9373 55.308C46.992 55.4027 47.0573 55.472 47.128 55.5294C47.1773 55.5734 47.2346 55.6014 47.292 55.6307C47.3053 55.636 47.3133 55.6454 47.3266 55.6507C47.34 55.7 47.384 55.7187 47.4186 55.7494C47.4413 55.7667 47.448 55.8027 47.4773 55.8107C47.5506 55.836 47.6386 55.828 47.716 55.7787C47.74 55.756 47.764 55.7467 47.7866 55.7334C47.8013 55.732 47.8173 55.7254 47.832 55.724C48.1853 55.7014 48.5826 55.5707 48.9786 55.4214C48.988 55.4187 48.9987 55.4174 49.008 55.4134C49.1307 55.476 49.2627 55.504 49.404 55.5C49.3973 55.5214 49.3973 55.5547 49.3906 55.5787C49.3813 55.608 49.3773 55.6374 49.3693 55.6667C49.3626 55.688 49.36 55.708 49.3546 55.7294C49.3266 55.84 49.3053 55.948 49.2906 56.0534C49.284 56.1014 49.28 56.148 49.2773 56.1947C49.2706 56.2867 49.2773 56.3707 49.2893 56.4534C49.2947 56.4894 49.296 56.528 49.3053 56.564C49.336 56.6774 49.3826 56.78 49.464 56.864C49.5386 56.94 49.6226 56.996 49.7133 57.036C49.74 57.048 49.768 57.052 49.796 57.0614C49.864 57.084 49.9333 57.1067 50.0093 57.116C50.0386 57.12 50.0706 57.1174 50.1013 57.12C50.18 57.124 50.2586 57.1254 50.344 57.1187C50.3706 57.116 50.4 57.1107 50.428 57.1067C50.5213 57.096 50.6133 57.0827 50.708 57.06C50.7306 57.056 50.752 57.0507 50.7733 57.0454C50.88 57.0214 50.988 56.992 51.0973 56.9614C51.1093 56.9587 51.12 56.9547 51.1306 56.952C51.1706 56.94 51.2106 56.928 51.2506 56.9174C50.3133 58.9214 49.56 61.1107 48.8493 63.2747C48.5893 64.0534 48.3307 64.8547 48.06 65.6494C47.5307 67.184 46.9546 68.636 46.2813 70.0187C44.924 70.7254 43.78 72.1974 42.7293 73.6627ZM47.1747 27.6267C47.3547 25.024 47.5266 22.3534 47.7866 19.6907C47.8426 19.672 47.9 19.6494 47.956 19.6307C48.0333 19.6027 48.112 19.5774 48.192 19.5467C48.376 19.4747 48.5653 19.4 48.7547 19.3174C48.7053 19.568 48.6613 19.812 48.6373 20.0494C48.6293 20.1374 48.6533 20.1974 48.696 20.2414C48.708 20.2507 48.7266 20.2507 48.74 20.2587C48.7773 20.2827 48.816 20.304 48.8693 20.3054C48.908 20.308 48.948 20.2987 48.9893 20.2907C49.0226 20.2854 49.052 20.284 49.084 20.2734C49.14 20.2547 49.1907 20.2254 49.244 20.1934C49.2587 20.1827 49.276 20.1787 49.292 20.168C49.3226 20.2454 49.364 20.312 49.4026 20.3827C49.4186 20.4147 49.4333 20.4494 49.452 20.48C49.54 20.6254 49.6493 20.7507 49.7746 20.86C49.812 20.892 49.8546 20.92 49.8946 20.9507C50.0373 21.052 50.1946 21.14 50.3853 21.1947C50.2706 21.4427 50.2586 21.6894 50.4066 21.916C50.5893 22.1974 50.8386 22.392 51.1386 22.52C51.0026 22.7747 50.864 23.028 50.7333 23.284C50.46 23.8027 50.188 24.324 49.9173 24.816C48.696 27.0147 47.764 28.9147 46.9666 30.66C47.0306 29.648 47.104 28.632 47.1747 27.6267ZM44.9813 52.984C44.972 53.0054 44.968 53.028 44.9586 53.0507C44.964 53.012 44.9693 52.9734 44.9733 52.9347C44.9773 52.952 44.9773 52.968 44.9813 52.984ZM24.8826 62.896C25.248 62.828 25.3827 62.3547 25.456 61.8014C25.7 62.2507 26.0266 62.5427 26.5 62.4614C26.6013 62.4414 26.6826 62.384 26.752 62.312C26.7693 62.2947 26.7893 62.2787 26.8053 62.2574C26.8626 62.1814 26.9093 62.084 26.944 61.972C26.9533 61.9427 26.9613 61.9134 26.9693 61.8814C27.0386 61.6067 27.056 61.264 27.036 60.908C27.048 60.8854 27.06 60.864 27.0653 60.8347C27.084 60.7267 27.0893 60.608 27.0893 60.5014C27.1306 60.488 27.1666 60.4774 27.2066 60.4534C27.6013 60.2534 27.7453 59.7227 27.76 59.1334C27.8666 59.12 27.9733 59.0747 28.0853 58.9774C28.2413 58.8534 28.344 58.6934 28.4173 58.516C28.4253 58.4987 28.436 58.484 28.4426 58.468C28.5066 58.2947 28.5346 58.1 28.544 57.896C28.5453 57.8707 28.5493 57.8467 28.5493 57.82C28.5493 57.8027 28.5533 57.784 28.5533 57.764C28.5533 57.74 28.5626 57.7187 28.5706 57.692C28.8066 57.644 29.0186 57.5054 29.2013 57.2334C29.356 56.996 29.4026 56.7507 29.3773 56.488C29.456 56.5467 29.5587 56.524 29.6227 56.4614C29.712 57.0214 29.8053 57.584 29.9107 58.1507C30.3107 60.3227 30.8826 62.436 31.6733 64.3974C32.1786 65.6414 32.788 66.8547 33.3293 68.1067C31.8333 70.608 30.624 71.8147 29.5027 71.728C29.372 71.7147 29.2386 71.7867 29.1613 71.916C29.1186 71.9947 29.0933 72.088 29.0813 72.1854C29.0573 72.176 29.032 72.1747 29.008 72.1654C27.9733 69.8054 26.86 67.5014 25.812 65.152C25.4746 64.4014 25.1386 63.6507 24.8053 62.9C24.8306 62.8987 24.8546 62.904 24.8826 62.896ZM24.1013 61.1614C24.2053 61.1387 24.292 61.0827 24.3666 61.0094C24.3826 60.9947 24.3933 60.9734 24.408 60.9574C24.4693 60.884 24.524 60.8 24.568 60.6974C24.656 60.772 24.7333 60.8347 24.816 60.8987C24.796 61.1507 24.7653 61.4014 24.7226 61.644C24.528 61.6707 24.3787 61.66 24.2667 61.596C24.2147 61.4574 24.1613 61.316 24.1013 61.1614ZM24.868 60.36C24.816 60.3227 24.7693 60.288 24.7173 60.2414C24.7346 60.216 24.748 60.1734 24.7506 60.1347C24.792 60.1947 24.828 60.2414 24.8693 60.3C24.8693 60.316 24.8693 60.332 24.8693 60.3454C24.8693 60.3507 24.868 60.356 24.868 60.36ZM34.584 26.196C34.5626 28.4414 34.436 30.668 34.276 32.8614C34.26 32.8654 34.244 32.8747 34.2267 32.8814C34.1947 32.8947 34.1653 32.908 34.1333 32.9214C34.0173 32.972 33.904 33.0267 33.7933 33.088C33.748 33.1134 33.704 33.1387 33.6613 33.1654C33.6066 33.1987 33.5573 33.2334 33.508 33.2694C33.4213 32.8614 33.332 32.436 33.2333 31.9827C33.156 31.6414 33.084 31.276 33.0146 30.9107C32.784 29.728 32.5413 28.488 32.0853 27.4614C32.0786 27.444 32.0666 27.436 32.0586 27.4187C32.7466 26.7147 33.404 25.9414 33.7 26.0454C34.0066 26.1534 34.3 26.192 34.584 26.196ZM41.2173 31.1454C41.296 31.0387 41.3773 30.968 41.488 30.9454C41.8266 30.8494 42.0573 31.0147 42.2026 31.324C42.1506 31.3347 42.1093 31.348 42.0573 31.3574C41.996 31.2147 41.7973 31.124 41.584 31.2014C41.4293 31.2507 41.312 31.3347 41.2053 31.4254C41.2346 31.348 41.2706 31.2627 41.312 31.1827C41.2826 31.1694 41.248 31.156 41.2173 31.1454ZM37.924 58.8614C36.9493 56.1907 36.288 53.7787 35.9213 51.5547C35.4267 48.52 35.376 45.4 35.456 42.3067C35.5307 42.2667 35.6066 42.224 35.684 42.1814C35.7093 42.1894 35.7373 42.18 35.764 42.184C35.836 42.1947 35.9066 42.2107 35.9813 42.1934C35.9813 42.2174 35.988 42.2307 35.988 42.244C35.9866 42.2587 35.9866 42.2747 35.984 42.292C35.9786 42.344 35.976 42.3934 35.9733 42.444C35.972 42.4907 35.9693 42.536 35.9693 42.5827C35.9693 42.6427 35.972 42.6987 35.9786 42.7547C35.9853 42.8054 35.9973 42.852 36.0106 42.8974C36.0213 42.936 36.028 42.976 36.0453 43.0107C36.0826 43.0894 36.1293 43.1587 36.2 43.2094C36.696 43.576 37.428 43.0587 38.0773 42.76C38.1053 42.7627 38.1266 42.7747 38.16 42.772C38.2626 42.768 38.3613 42.736 38.4613 42.6947C38.4893 42.7067 38.5147 42.728 38.5373 42.7507C38.556 42.768 38.5746 42.7827 38.5893 42.8054C38.62 42.848 38.648 42.8974 38.6733 42.9547C38.6866 42.9854 38.6973 43.0214 38.7106 43.0547C38.7293 43.104 38.7493 43.152 38.7653 43.204C38.7853 43.26 38.8053 43.3147 38.8253 43.3707C38.8386 43.4067 38.852 43.44 38.8666 43.4734C38.884 43.516 38.9053 43.5547 38.924 43.592C38.94 43.6214 38.956 43.648 38.9733 43.6747C39 43.7107 39.0293 43.74 39.0613 43.7667C39.08 43.784 39.096 43.8027 39.116 43.8147C39.172 43.8494 39.2346 43.8707 39.3093 43.8707C39.448 43.8667 39.5853 43.8427 39.7226 43.8054C39.78 43.7907 39.836 43.7654 39.8933 43.7467C39.9747 43.716 40.0587 43.688 40.14 43.6494C40.1987 43.6227 40.2573 43.5907 40.316 43.5614C40.4106 43.5134 40.5053 43.464 40.6 43.408C40.624 43.3947 40.6466 43.38 40.6706 43.3654C40.7386 43.3254 40.8053 43.288 40.8746 43.2454C40.8653 43.4107 40.86 43.576 40.8746 43.7307C40.8786 43.7894 40.9013 43.8267 40.932 43.852C40.936 43.8547 40.9413 43.8534 40.9453 43.856C40.976 43.8734 41.0146 43.8814 41.0573 43.876C41.0653 43.8747 41.0733 43.8707 41.0813 43.8694C41.12 43.8614 41.1573 43.8494 41.196 43.8267C41.2293 43.8094 41.2547 43.7867 41.284 43.7614C41.2933 43.7534 41.3053 43.7507 41.312 43.7414C41.328 43.7667 41.3547 43.7814 41.3707 43.8054C41.4293 43.8934 41.4986 43.9654 41.5746 44.0307C41.6133 44.0667 41.6493 44.1054 41.6946 44.1347C41.7413 44.164 41.7946 44.184 41.848 44.2054C41.3186 47.8454 40.5893 51.4254 39.4666 54.836C39.0346 56.1454 38.5026 57.4907 37.924 58.8614ZM43.8253 18.2254C44.1266 18.132 44.4266 18.0334 44.7106 17.9587C44.7533 17.972 44.7786 17.9947 44.8253 17.9947C44.904 18.0027 44.9826 17.9894 45.0626 17.9814C44.936 18.5774 44.7986 19.1547 44.684 19.7667C44.5173 19.9187 44.3986 20.1334 44.38 20.3574C44.3466 20.8987 44.3333 21.4294 44.316 21.9027C43.9266 24.2747 43.596 26.8614 43.3306 29.7654C43.2986 30.1227 43.268 30.4854 43.236 30.8454C43.1413 30.9107 43.0533 30.9814 42.976 31.0627C42.6986 30.424 42.1746 30.0347 41.2413 30.3427C41.12 30.3787 41.0186 30.432 40.9266 30.492C40.9013 30.5107 40.8813 30.5307 40.8573 30.5507C40.8066 30.5894 40.756 30.6307 40.716 30.6774C40.672 30.7254 40.6346 30.7787 40.5986 30.832C40.588 30.8494 40.5773 30.8654 40.5666 30.8827C40.528 30.9494 40.4946 31.0174 40.4666 31.088C40.4653 31.092 40.4626 31.096 40.4613 31.1C40.3626 31.076 40.2546 31.0387 40.1426 31.0147C40.0546 31.004 39.9666 30.9907 39.8786 30.9774C39.7826 30.8387 39.672 30.708 39.5186 30.6014C39.328 30.472 39.0706 30.492 38.9226 30.6734C38.812 30.8 38.752 30.9454 38.7106 31.0974C38.6946 31.152 38.6853 31.2027 38.676 31.2574C38.6733 31.28 38.664 31.3014 38.6613 31.3227C38.5733 31.3827 38.4946 31.448 38.4186 31.5214C38.4053 31.5334 38.388 31.5414 38.3746 31.5574C38.132 31.46 37.9013 31.3774 37.6973 31.308C37.5533 31.256 37.4133 31.208 37.3093 31.1694C36.9826 31.0467 36.6546 31.348 36.8253 31.616C36.8453 31.6454 36.8653 31.6707 36.8853 31.7C36.8786 31.7014 36.8746 31.7027 36.8693 31.704C36.5413 31.7574 36.2373 31.86 36.004 32C35.976 32.016 35.9546 32.0334 35.9293 32.0494C35.8826 32.084 35.8333 32.116 35.7946 32.152C35.796 31.8774 35.7973 31.6027 35.796 31.3347C35.8173 31.0467 35.8493 30.7347 35.864 30.4147C35.876 30.284 35.844 30.132 35.7826 30.012C35.7546 28.6214 35.6893 27.2974 35.5906 26.0094C36.7466 25.5587 37.636 24.3747 38.0786 23.2147C38.6933 23.484 39.476 23.52 40.2787 22.9907C40.424 22.8934 40.5426 22.796 40.644 22.6974C40.68 22.664 40.7026 22.6307 40.7333 22.5947C40.7906 22.5307 40.8467 22.468 40.8867 22.4027C40.9133 22.3614 40.9293 22.32 40.9507 22.2787C40.976 22.2214 41.004 22.1654 41.02 22.108C41.0333 22.0614 41.04 22.0147 41.0466 21.968C41.0546 21.9174 41.06 21.868 41.06 21.8187C41.06 21.7654 41.0547 21.712 41.048 21.6587C41.0413 21.6187 41.0333 21.58 41.0253 21.5387C41.0093 21.476 40.992 21.416 40.9693 21.3547C40.9586 21.3267 40.9467 21.3 40.9333 21.272C40.904 21.2 40.8706 21.1307 40.8306 21.06C40.8226 21.0467 40.8133 21.032 40.8053 21.0187C40.7586 20.94 40.712 20.8614 40.6586 20.7854L40.656 20.7814C40.7453 20.7854 40.836 20.776 40.9266 20.7694C40.9453 20.768 40.9613 20.768 40.9786 20.7667C41.1693 20.7467 41.368 20.6947 41.5733 20.6187C41.6 20.6094 41.628 20.596 41.6546 20.584C41.8626 20.4987 42.076 20.392 42.2946 20.24C42.4933 20.096 42.648 19.9534 42.7787 19.812C42.8227 19.764 42.8546 19.716 42.892 19.6694C42.968 19.572 43.032 19.4734 43.0813 19.3774C43.1053 19.328 43.128 19.28 43.1453 19.2307C43.1827 19.1307 43.2053 19.0294 43.2173 18.9307C43.2213 18.892 43.232 18.8534 43.2333 18.8134C43.2373 18.676 43.2253 18.54 43.192 18.4054C43.2227 18.3987 43.2546 18.3854 43.288 18.3774C43.464 18.3347 43.644 18.2814 43.8253 18.2254ZM29.2506 55.424C29.276 55.332 29.2946 55.2374 29.3053 55.1387C29.3053 55.132 29.3066 55.124 29.308 55.1174C29.308 55.1174 29.3093 55.1134 29.312 55.112C29.356 55.0787 29.3787 55.0294 29.3933 54.9747C29.448 55.3347 29.5027 55.696 29.56 56.06C29.4613 55.8614 29.3586 55.664 29.2386 55.484C29.2453 55.4654 29.2453 55.444 29.2506 55.424ZM21.9893 38.6787C22.1146 38.5947 22.1973 38.5107 22.26 38.4254C22.2706 38.412 22.2853 38.3974 22.2946 38.3827C22.3466 38.3014 22.372 38.2174 22.38 38.136C22.38 38.124 22.3826 38.1107 22.3826 38.0974C22.388 37.9147 22.3026 37.7334 22.1813 37.5587C22.3026 37.564 22.428 37.5467 22.5613 37.5054C22.568 37.5027 22.5733 37.5014 22.5786 37.5C22.7173 37.4547 22.86 37.3907 23.0053 37.2827C23.7186 36.776 23.5066 36.28 23.1946 35.8427C23.352 35.856 23.5186 35.868 23.6946 35.856C23.944 35.8294 24.18 35.6414 24.1613 35.4307C24.1386 34.9934 23.896 34.6894 23.5586 34.4387C23.5933 34.3094 23.5666 34.1774 23.4533 34.108C22.972 33.8174 22.4973 33.5214 21.9853 33.2627C22.184 32.1934 22.3653 31.1174 22.5173 30.044C22.9946 30.148 23.532 30.08 24.132 29.8107C24.096 30.6987 24.4693 31.3934 25.4613 31.156C26.9586 30.804 27.8613 29.3894 28.896 28.1094C29.2386 28.56 29.728 28.6667 30.6546 28.4787C30.7706 28.456 30.896 28.396 31.0253 28.3174C30.9787 29.592 31.2133 30.9414 31.4373 32.1507L31.5173 32.5974C31.6413 33.2574 31.776 33.9294 31.9146 34.5934C31.8973 34.6134 31.884 34.6387 31.8666 34.6587C31.8466 34.6854 31.828 34.7134 31.808 34.7414C31.7426 34.8347 31.6853 34.94 31.6347 35.0547C31.6173 35.0934 31.5986 35.1294 31.584 35.1694C31.528 35.3254 31.4787 35.4947 31.4507 35.6907C31.432 35.8094 31.4693 35.924 31.5226 36.0214C31.1493 36.3134 30.8666 36.704 30.932 37.2494C30.948 37.392 30.984 37.5067 31.0293 37.6054C31.04 37.628 31.0547 37.6414 31.0653 37.6614C31.104 37.7294 31.1453 37.792 31.1973 37.84C31.2027 37.8454 31.2053 37.8547 31.212 37.86C31.156 37.9374 31.1146 38.024 31.0853 38.1147C31.0813 38.1307 31.0733 38.1427 31.0693 38.1587C31.0413 38.2627 31.0306 38.3747 31.0493 38.5C31.0546 38.5454 31.0733 38.5907 31.084 38.644C31.0026 38.756 30.9186 38.9027 30.8493 39.0547C30.7533 39.2787 30.7653 39.56 30.9133 39.7C30.968 39.7507 31.0267 39.784 31.0773 39.8227C31.0373 39.8787 31.0027 39.936 30.968 40.0107C30.8707 40.1987 30.888 40.4347 31.0307 40.5547C31.1387 40.6387 31.2506 40.6947 31.3613 40.736C31.388 40.7454 31.416 40.7467 31.4426 40.7534C31.5306 40.7774 31.6213 40.7947 31.712 40.796C31.7386 40.796 31.7653 40.792 31.7933 40.7907C31.876 40.7867 31.9613 40.7787 32.0453 40.7574C32.1346 40.74 32.224 40.7134 32.312 40.6854C32.328 40.744 32.3413 40.7974 32.3707 40.856C32.3427 40.9534 32.336 41.056 32.3426 41.1614C32.344 41.1867 32.3466 41.2107 32.3506 41.2374C32.3653 41.344 32.3946 41.4534 32.4533 41.5667C32.4893 41.636 32.532 41.6907 32.5813 41.7334C32.592 41.744 32.6066 41.748 32.62 41.756C32.6586 41.7854 32.6973 41.8094 32.7426 41.8254C32.7573 41.8307 32.776 41.8307 32.792 41.8347C32.836 41.8454 32.8813 41.8534 32.9306 41.8534C32.952 41.8534 32.9733 41.8494 32.996 41.848C33.0413 41.844 33.0866 41.8387 33.136 41.828C33.164 41.8227 33.1933 41.8134 33.2213 41.8054C33.2413 42.088 33.2706 42.3734 33.2853 42.6547C33.1386 44.036 33.1093 45.4414 33.3333 46.8094C33.3333 46.844 33.3453 46.8787 33.352 46.9147C33.352 47.812 33.3333 48.7227 33.32 49.6427C33.304 50.7507 33.32 51.8614 33.352 52.956C33.416 53.5267 33.4946 54.092 33.5573 54.6467C33.7506 56.4774 33.928 58.2734 34.2426 60.0774C34.516 61.6694 34.828 63.244 35.1013 64.832C35.084 64.864 35.068 64.8974 35.0506 64.9294C34.9306 64.7547 34.7613 64.536 34.5053 64.244C34.3493 64.0667 34.1946 63.8427 34.024 63.6187C33.7573 63.2294 33.4786 62.8507 33.1613 62.5654C33.0906 62.4027 33.0146 62.2387 32.9426 62.0734C32.4586 60.996 31.964 59.888 31.2973 59.156C31.0546 58.1867 30.8706 57.22 30.7373 56.1814C30.6653 55.6614 30.6 55.1427 30.5413 54.6214C30.464 53.972 30.3826 53.3174 30.2946 52.668C30.372 52.5587 30.4013 52.4147 30.364 52.264C30.3066 52.032 30.2307 51.8147 30.14 51.6054C29.7773 49.2747 29.2373 47.0294 28.104 45.2027C28.028 45.0854 27.896 45.064 27.8067 45.1574C27.7973 45.1667 27.7973 45.188 27.788 45.1987C27.536 44.8214 27.2653 44.456 26.9533 44.1174C26.5853 43.7147 26.392 44.5414 26.612 44.9334C27.272 46.1107 27.7426 47.3387 28.116 48.5987C27.8013 48.3907 27.4586 48.2107 27.084 48.0747C27.1066 47.9547 27.0466 47.824 26.8786 47.812C26.7893 47.808 26.7013 47.8094 26.6133 47.808C26.6 47.7734 26.6013 47.7414 26.584 47.7054C26.328 47.2094 25.6613 47.176 24.8987 47.3774C24.924 47.316 24.9586 47.2454 24.9693 47.1867C25.0106 47.0107 24.7746 46.8334 24.5626 46.856C24.2653 46.9027 23.98 46.9827 23.7013 47.076C23.6746 47.0854 23.648 47.0947 23.6213 47.104C23.348 47.2 23.084 47.3107 22.8306 47.44C22.6586 47.4067 22.472 47.4 22.2773 47.412C22.268 47.4134 22.2586 47.4107 22.2506 47.4107C22.2546 47.3854 22.2573 47.3574 22.2613 47.332C22.2733 47.272 22.2813 47.216 22.2893 47.1547C22.2973 47.0854 22.2973 47.0214 22.3 46.952C22.3 46.8947 22.3026 46.8414 22.2973 46.7854C22.2893 46.7054 22.2653 46.632 22.2426 46.5574C22.2293 46.516 22.2226 46.472 22.2026 46.4334C22.1613 46.348 22.092 46.2747 22.0146 46.2054C21.8626 43.7307 21.812 41.2507 21.816 38.7654C21.8733 38.7387 21.9306 38.7174 21.9893 38.6787ZM74.044 54.0094C74.044 54.0094 74.0106 53.9907 73.9973 53.984C74.008 53.9734 74.028 53.972 74.044 53.972C74.044 53.9854 74.044 54.0094 74.044 54.0094ZM74.0853 53.396C74.0466 53.4134 74.0026 53.4174 73.9626 53.432C73.8119 53.476 73.6586 53.5147 73.4946 53.5294C73.432 53.536 73.3693 53.5427 73.3053 53.544C73.272 53.5454 73.2373 53.54 73.2027 53.5414C73.1333 53.4974 73.0587 53.4534 73.0133 53.4187C72.9373 53.3614 72.8466 53.336 72.752 53.324C72.7426 53.3227 72.7333 53.32 72.7213 53.3187C72.6533 53.3134 72.584 53.316 72.516 53.3307C72.6 53.312 72.6826 53.292 72.764 53.272C72.8333 53.2547 72.9026 53.2427 72.9693 53.224C73.1426 53.176 73.3093 53.12 73.4613 53.0534C73.4773 53.0427 73.4893 53.0294 73.508 53.02C73.716 53.124 73.9106 53.2414 74.0853 53.3734C74.0853 53.3827 74.0853 53.396 74.0853 53.396ZM52.472 36.6827C52.4693 36.6827 52.4653 36.6827 52.456 36.6827C52.456 36.6707 52.4506 36.6587 52.444 36.648C52.4733 36.6534 52.5066 36.6494 52.536 36.656C52.5186 36.6654 52.4933 36.6734 52.472 36.6827ZM69.7893 14.6654C69.7893 14.6654 69.7653 14.656 69.7306 14.6307C69.7533 14.6307 69.7733 14.6174 69.7893 14.6174C69.7893 14.656 69.7893 14.6654 69.7893 14.6654ZM52.16 35.3014C52.3306 35.2894 52.5026 35.2894 52.664 35.3134C52.516 35.4307 52.324 35.5134 52.1373 35.5974C52.1506 35.5374 52.1453 35.472 52.14 35.4067C52.1387 35.3707 52.152 35.3427 52.1426 35.3054C52.148 35.304 52.1546 35.3027 52.16 35.3014ZM1.11463 63.288C1.29197 63.6054 1.74662 63.6987 2.07862 63.5467C2.27062 63.6667 2.55996 63.7494 2.79196 63.6774C2.93063 63.9014 3.19328 64.0534 3.64662 64.0667C3.92395 64.0667 4.20531 63.9494 4.43198 63.7974C4.55464 64.088 5.10931 64.16 5.35198 63.984C5.38931 63.9627 5.42263 63.9254 5.45863 63.8907C5.74796 63.9387 6.05464 63.8427 6.1093 63.5947C6.1093 63.5947 6.1093 63.5734 6.11463 63.56C6.11463 63.56 6.12131 63.5734 6.12131 63.584C6.25998 63.7494 6.49198 63.8294 6.70265 63.8427C6.76265 64.0294 6.83331 64.2214 6.93198 64.3974C7.08798 64.684 7.59462 64.8814 7.85996 64.656C8.20796 64.3614 8.37465 63.984 8.47332 63.584C8.53332 63.6187 8.58531 63.6534 8.65065 63.688C8.87465 64.1854 9.21197 64.656 9.67197 65.084C9.92397 65.3187 10.392 65.3067 10.5333 65.1187C10.552 65.0934 10.564 65.0574 10.576 65.0347C10.936 65.5534 11.388 66.0494 11.9213 66.4507C12.2266 66.7 12.584 66.7107 12.7573 66.5227C12.9826 66.296 13.0533 65.988 13.04 65.6734C13.1666 65.7187 13.3026 65.764 13.4426 65.8027C13.6493 65.836 13.868 65.7774 13.8987 65.612C13.9187 65.464 13.9186 65.3094 13.9013 65.1534C13.8906 65.04 13.8613 64.9214 13.832 64.804C13.8226 64.7667 13.82 64.7307 13.8093 64.6947C13.8626 64.684 13.9093 64.684 13.9573 64.656C14.0706 64.5974 14.1506 64.528 14.2413 64.4547C14.308 64.504 14.38 64.5481 14.452 64.5934C14.4693 64.6027 14.4826 64.6147 14.5 64.624C14.6386 64.708 14.78 64.776 14.9213 64.8307C14.9533 64.8414 14.9813 64.8507 15.012 64.86C15.156 64.9067 15.2986 64.9374 15.4306 64.928C15.5106 64.916 15.5693 64.8947 15.62 64.8667C15.6386 64.8814 15.6587 64.9054 15.6747 64.916C15.772 65.0094 15.8853 65.1067 16.0053 65.2027C16.0333 65.2267 16.0613 65.2494 16.0906 65.272C16.1253 65.2987 16.1586 65.3254 16.1946 65.3521C17.3386 67.4334 18.5026 69.4947 19.724 71.4934C23.6453 77.912 26.972 83.8974 27.8786 92.5934C28.2813 96.4441 28.292 100.351 28.38 104.239C28.476 108.057 28.856 111.825 29.1013 115.625C29.5386 122.415 28.4013 127.817 27.172 133.333H38.544C38.3786 130.699 38.1733 128.067 38.0493 125.435C37.836 120.901 38.2213 116.335 38.396 111.812C38.5626 107.575 39.104 103.444 38.8333 99.2281C38.5546 94.992 37.4947 90.0947 39.1347 86.3734C40.4933 83.296 42.5866 80.876 44.352 78.2427C46.1346 75.584 47.6693 72.6 48.9786 69.436C50.5546 65.6347 51.8 61.7507 53.5786 58.3947C53.6866 58.4014 53.7933 58.4134 53.904 58.4027C54.424 58.3627 54.9746 58.1627 55.5493 57.92C55.508 58.132 55.4586 58.3534 55.4413 58.5534C55.436 58.6307 55.456 58.6854 55.492 58.7227C55.5 58.7294 55.5133 58.7294 55.5226 58.736C55.5573 58.76 55.596 58.78 55.648 58.7827C55.672 58.784 55.6959 58.776 55.7213 58.7734C55.7599 58.768 55.7986 58.7654 55.84 58.7507C55.8853 58.7374 55.9266 58.7107 55.9706 58.6867C55.9866 58.676 56.0053 58.672 56.0213 58.66C56.048 58.7334 56.084 58.7974 56.1186 58.8627C56.1293 58.8827 56.1373 58.9067 56.148 58.9254C56.2306 59.0707 56.336 59.192 56.4586 59.296C56.4733 59.3094 56.492 59.3214 56.5093 59.3347C56.64 59.4347 56.788 59.52 56.9693 59.568C56.864 59.784 56.8533 60.0054 56.976 60.208C57.3253 60.7374 57.92 60.9614 58.7293 60.8894C58.464 61.5534 58.564 62.18 59.3853 62.26C60.612 62.3907 61.6746 61.5534 62.7973 60.8547C62.9306 61.2814 63.284 61.492 64.036 61.596C64.8186 61.6947 66.6507 60.2774 66.9907 60.552C68.3667 61.66 70.1066 60.692 71.0706 59.544C71.4533 59.9227 72.052 60.16 72.7946 59.9574C72.9266 59.9227 73.0413 59.8827 73.1413 59.8374C73.1946 59.8134 73.2347 59.7867 73.2787 59.7587C73.3227 59.7347 73.368 59.7094 73.4053 59.6814C73.4426 59.652 73.472 59.62 73.504 59.5867C73.5333 59.556 73.5653 59.5254 73.588 59.4907C73.612 59.4587 73.6306 59.4254 73.648 59.3907C73.668 59.3534 73.6866 59.312 73.7 59.272C73.7106 59.24 73.72 59.2054 73.728 59.172C73.7386 59.124 73.7453 59.076 73.748 59.0267C73.7506 58.996 73.752 58.9667 73.752 58.9347C73.752 58.872 73.748 58.808 73.74 58.7454C73.7373 58.7267 73.7373 58.708 73.7333 58.6907C73.7186 58.5907 73.6973 58.4907 73.6693 58.388C73.6933 58.3974 73.724 58.3947 73.748 58.404C73.8746 58.4454 74.0133 58.4707 74.1613 58.484C74.224 58.4894 74.2813 58.5 74.348 58.5C74.564 58.5 74.7947 58.4747 75.048 58.4014C76.3813 58.0227 76.3293 57.164 76.0933 56.336C76.3173 56.4427 76.56 56.524 76.8306 56.608C77.2146 56.712 77.6666 56.5467 77.7573 56.2294C77.9533 55.544 77.7506 54.9654 77.3666 54.42C77.4853 54.244 77.516 54.0307 77.3853 53.8654C76.6906 53.0294 76.052 52.1574 75.2186 51.4134C74.672 50.9187 73.62 51.6467 74.1627 52.1227C74.3533 52.2854 74.5213 52.4654 74.6933 52.6307C74.6066 52.6307 74.5306 52.6467 74.464 52.6747C74.4186 52.6907 74.3853 52.716 74.3493 52.74C74.3333 52.7507 74.3133 52.756 74.3 52.768C74.28 52.7534 74.2547 52.748 74.2373 52.7334C73.984 52.5547 73.7107 52.408 73.4213 52.2827C73.4173 52.2814 73.4146 52.2787 73.412 52.2774C73.4546 52.2467 73.4987 52.2134 73.5427 52.1787C73.684 52.0507 73.6253 51.8027 73.4666 51.6747C73.2133 51.4614 72.9227 51.3054 72.6173 51.176C73.1613 50.9774 73.632 50.7054 73.9107 50.34C74.0573 50.1374 73.94 49.9134 73.696 49.76C73.5453 49.6667 73.3787 49.588 73.2027 49.5254C73.112 49.492 73.0133 49.472 72.9173 49.4467C72.8346 49.424 72.756 49.396 72.672 49.38C72.3026 49.3054 71.912 49.2854 71.528 49.3094C71.5226 49.3054 71.5173 49.3027 71.512 49.2987C71.484 49.2774 71.4586 49.2574 71.424 49.228V49.224C71.4333 49.1734 71.4346 49.124 71.4226 49.0734C71.4186 49.0534 71.412 49.036 71.4053 49.0187C71.392 48.9814 71.3786 48.9467 71.356 48.9147C71.3306 48.8787 71.2933 48.8494 71.2547 48.82C71.2373 48.8054 71.224 48.788 71.2013 48.7747C71.132 48.7334 71.0466 48.7 70.9413 48.684C70.8466 48.6747 70.752 48.6747 70.656 48.664C70.776 48.568 70.8933 48.4854 70.988 48.392C71.2813 48.1094 71.04 47.6 70.4986 47.6107C70.1613 47.6107 69.6827 47.6467 69.152 47.7054C69.112 47.6974 69.0626 47.6854 69.0213 47.6694C69.0506 47.6534 69.0746 47.6334 69.1026 47.6174C69.3173 47.504 69.5186 47.3787 69.6946 47.2374C69.7 47.232 69.7053 47.2267 69.7106 47.2214C69.9093 47.0614 70.0813 46.8827 70.2 46.6787C70.3266 46.468 70.208 46.124 69.8906 46.02C69.0053 45.7454 68.0893 45.712 67.2173 45.8054C67.44 45.5107 67.5706 45.168 67.528 44.752C67.5053 44.5227 67.1987 44.3307 66.9213 44.2854C66.548 44.2374 66.2186 44.248 65.912 44.308C65.9293 44.248 65.952 44.2014 65.9586 44.1427C66 43.8587 65.6746 43.5854 65.3213 43.54C64.528 43.4454 63.928 43.5987 63.4093 43.8454C63.6226 43.3134 63.5467 42.7587 62.836 42.3107C62.2053 41.9107 61.456 42.1 60.9306 42.5027C60.7053 41.6147 60.0986 40.9894 58.8173 41.1774C58.6613 41.2027 58.5253 41.248 58.4 41.3027C58.336 41.3294 58.2827 41.3654 58.2267 41.4C58.1707 41.4334 58.1147 41.4667 58.0653 41.5054C58.0053 41.5534 57.952 41.6067 57.9 41.6614C57.8693 41.6947 57.8386 41.7267 57.8093 41.7627C57.752 41.8347 57.7 41.9094 57.652 41.988C57.6493 41.9934 57.6453 41.9987 57.6413 42.004C57.5133 41.948 57.3893 41.8747 57.248 41.8254C57.136 41.78 57.0186 41.7574 56.9066 41.7187C56.9053 41.716 56.9026 41.7147 56.9013 41.712C56.812 41.5067 56.6946 41.3094 56.528 41.1414C56.2986 40.9307 55.9613 40.908 55.724 41.1094C55.604 41.2107 55.5133 41.328 55.4346 41.4534C55.4213 41.472 55.412 41.4947 55.4013 41.516C55.3346 41.6334 55.2826 41.7534 55.2466 41.88C55.2453 41.8867 55.2413 41.892 55.24 41.8974C55.2093 41.912 55.1826 41.9334 55.1506 41.9494C55.0906 41.9814 55.0333 42.016 54.9773 42.052C54.924 42.084 54.8666 42.1094 54.8173 42.1454C54.776 42.12 54.7333 42.092 54.6906 42.068C54.6586 42.0467 54.628 42.028 54.5947 42.0067C54.6293 41.7947 54.564 41.5667 54.456 41.34C54.5907 41.3667 54.736 41.3734 54.892 41.3574C54.916 41.3547 54.936 41.3547 54.96 41.352C55.1293 41.3254 55.3053 41.28 55.496 41.1907C56.4373 40.7307 56.2986 40.1014 56.0213 39.5147C56.2013 39.56 56.3906 39.608 56.604 39.6214C56.8986 39.6574 57.2186 39.4787 57.248 39.2334C57.3066 38.7 57.088 38.2867 56.7346 37.9227C56.7986 37.7774 56.7933 37.6134 56.6693 37.5214C56.052 36.9787 55.472 36.3974 54.7573 35.9494C54.2866 35.6414 53.588 36.3134 54.0546 36.6107C54.2133 36.704 54.368 36.8107 54.5146 36.9174C54.396 36.94 54.3093 36.9987 54.2453 37.0774C54.1466 37.0267 54.0427 36.988 53.9387 36.9494C53.9173 36.94 53.8933 36.928 53.8693 36.92C53.768 36.884 53.6653 36.852 53.5586 36.8254C53.544 36.8214 53.5293 36.816 53.516 36.812C53.5426 36.784 53.5733 36.7614 53.6013 36.728C53.688 36.6107 53.6173 36.4347 53.476 36.352C53.2573 36.232 53.028 36.1507 52.7853 36.1014C53.1626 35.8814 53.48 35.6187 53.648 35.3014C53.7293 35.1454 53.612 34.9934 53.4186 34.9C53.1853 34.8027 52.9133 34.756 52.6333 34.7467C52.6213 34.7454 52.6106 34.7427 52.5986 34.7427C52.3106 34.7347 52.016 34.7707 51.7346 34.8387C51.7093 34.8147 51.6853 34.8027 51.652 34.7934L51.6506 34.7907C51.6533 34.7014 51.624 34.6174 51.5533 34.5534C51.5506 34.5494 51.5467 34.5494 51.5427 34.5454C51.4707 34.4827 51.368 34.4387 51.22 34.4387C51.1506 34.4387 51.0813 34.4494 51.0106 34.4494C51.0813 34.3654 51.156 34.2974 51.22 34.2147C51.404 33.9667 51.156 33.6134 50.7626 33.6947C50.6253 33.72 50.4533 33.7574 50.2667 33.804C50.2187 33.8147 50.1693 33.8294 50.1186 33.8427C50.004 33.8707 49.8933 33.8987 49.7706 33.9334C49.7346 33.9334 49.6986 33.92 49.664 33.92C49.768 33.8427 49.856 33.7507 49.948 33.664C49.992 33.6227 50.044 33.5854 50.084 33.5414C50.2306 33.3827 50.352 33.212 50.4253 33.0227C50.4626 32.9267 50.4266 32.8107 50.3466 32.7214C50.7253 32.1814 51.1053 31.6387 51.5346 31.0627C51.6106 30.932 51.6453 30.8734 51.7186 30.7347C52.3306 29.5867 52.9466 28.4307 53.54 27.2707C53.672 27.028 53.7373 26.8947 53.8653 26.6467C54.3493 25.708 54.872 24.7187 55.3053 23.684C55.8893 23.3667 56.4613 22.964 57.0466 22.5867C57.2066 23.084 57.608 23.3054 58.464 23.4134C59.3653 23.532 61.4386 21.8907 61.828 22.2C63.4093 23.4387 65.3799 22.328 66.4626 21.0187C66.9093 21.4427 67.5893 21.6894 68.432 21.4654C68.588 21.424 68.72 21.3747 68.8373 21.32C68.8773 21.3027 68.908 21.2787 68.9426 21.2587C69.012 21.22 69.0813 21.1814 69.1347 21.1387C69.1693 21.1094 69.196 21.0774 69.2267 21.0467C69.2653 21.0067 69.3053 20.9667 69.336 20.9214C69.3613 20.884 69.3826 20.8454 69.4026 20.8054C69.4213 20.7654 69.4413 20.7254 69.4546 20.684C69.472 20.636 69.4826 20.5867 69.492 20.5374C69.4973 20.5027 69.5026 20.4667 69.5066 20.4294C69.512 20.3707 69.5146 20.3107 69.512 20.2507C69.5106 20.224 69.508 20.196 69.5053 20.1707C69.5 20.0987 69.4906 20.0267 69.476 19.952C69.4746 19.9427 69.472 19.932 69.472 19.9214C69.4533 19.836 69.432 19.7494 69.4066 19.66C69.4626 19.6827 69.524 19.6947 69.5813 19.7094C69.628 19.7227 69.6693 19.74 69.7173 19.7494C69.872 19.7814 70.04 19.792 70.2173 19.7867C70.2666 19.7854 70.3173 19.78 70.3693 19.776C70.5653 19.7574 70.768 19.7267 70.988 19.66C72.5 19.212 72.4333 18.2467 72.1507 17.2987C72.4173 17.4054 72.688 17.512 73 17.5947C73.432 17.712 73.9493 17.512 74.0506 17.1467C74.2626 16.38 74.028 15.716 73.5893 15.1027C73.7266 14.9054 73.7506 14.656 73.596 14.4654C72.7946 13.5254 72.0666 12.54 71.1053 11.6934C70.4733 11.1294 69.284 11.972 69.9133 12.5174C70.1266 12.6947 70.3266 12.896 70.5213 13.084C70.424 13.084 70.3413 13.104 70.2653 13.136C70.1986 13.16 70.144 13.1974 70.092 13.2387C70.0853 13.2427 70.0786 13.2454 70.0733 13.2507C70.0413 13.228 70.0026 13.2147 69.972 13.1934C69.724 13.024 69.4626 12.8747 69.184 12.7507C69.1426 12.732 69.112 12.704 69.072 12.688C69.1133 12.6534 69.16 12.6294 69.1986 12.5907C69.3626 12.436 69.2947 12.1507 69.112 11.9987C68.8213 11.7747 68.484 11.596 68.1386 11.4707C68.7453 11.22 69.2893 10.916 69.6013 10.4907C69.7653 10.2494 69.6253 10.0054 69.3587 9.8267C69.0147 9.61737 68.6013 9.47737 68.164 9.40137C67.7453 9.3227 67.304 9.30536 66.8733 9.33736C66.8333 9.30936 66.8 9.2787 66.756 9.25204C66.768 9.18537 66.7666 9.12003 66.7506 9.05337L66.7493 9.04937C66.7333 8.98804 66.708 8.93069 66.6666 8.87736C66.6453 8.85069 66.612 8.82936 66.584 8.80536C66.552 8.77869 66.528 8.75069 66.4893 8.72936C66.408 8.68669 66.3093 8.65203 66.1893 8.63736C66.084 8.61069 65.984 8.6107 65.8746 8.5987C66 8.50403 66.1426 8.4107 66.2506 8.29337C66.5786 7.97203 66.3026 7.3827 65.6826 7.41737C65.5306 7.42004 65.3506 7.4307 65.156 7.44403C65.076 7.4507 65 7.45337 64.9133 7.4627C64.6773 7.48137 64.42 7.50936 64.152 7.5427C64.1227 7.53203 64.0906 7.5227 64.0613 7.51337C64.0413 7.50537 64.0227 7.49336 64.0027 7.48936C64.016 7.48269 64.028 7.47336 64.04 7.46803C64.1626 7.4027 64.2813 7.33337 64.396 7.26003C64.4066 7.25337 64.416 7.24803 64.424 7.24003C64.544 7.1627 64.6586 7.08137 64.7653 6.99337C64.7786 6.98137 64.7906 6.96937 64.8053 6.95737C64.9026 6.87337 64.9973 6.78804 65.0813 6.6947C65.1773 6.58537 65.2626 6.4707 65.3333 6.34803C65.4746 6.10937 65.3333 5.71736 64.9693 5.61336C63.964 5.29603 62.9186 5.26936 61.9226 5.38936C62.1706 5.04803 62.3173 4.65737 62.2626 4.18403C62.2346 3.9267 61.888 3.7027 61.5706 3.66537C61.1426 3.6067 60.7706 3.63069 60.4173 3.69203C60.4346 3.63069 60.4586 3.57203 60.4706 3.5027C60.5133 3.1827 60.14 2.8747 59.74 2.82937C58.8346 2.72003 58.1506 2.9107 57.5626 3.20536C57.8026 2.58003 57.708 1.96536 56.8867 1.44803C56.1667 0.998696 55.3133 1.22403 54.72 1.68536C54.4626 0.680031 53.7586 -0.0279703 52.3026 0.206696C52.116 0.237363 51.956 0.290694 51.808 0.358694C51.7573 0.380028 51.716 0.413368 51.6693 0.438701C51.588 0.486701 51.508 0.533365 51.4373 0.592032C51.3666 0.648032 51.3053 0.712031 51.2466 0.778698C51.22 0.808031 51.1933 0.837366 51.168 0.868033C51.0933 0.961366 51.0267 1.05737 50.968 1.16137C50.824 1.09337 50.6706 1.02136 50.5146 0.962698C50.3853 0.914698 50.2533 0.881368 50.1253 0.845368L50.1227 0.840028C50.104 0.800028 50.0813 0.762697 50.06 0.72403C49.9653 0.53203 49.8467 0.350703 49.68 0.194703C49.4213 -0.0546304 49.0386 -0.0626309 48.7733 0.158702C48.6413 0.270702 48.5413 0.401364 48.456 0.538697C48.4307 0.578697 48.412 0.620035 48.3906 0.660035C48.3253 0.784035 48.2746 0.910696 48.2386 1.04003C48.2373 1.04536 48.2333 1.0507 48.232 1.05603C48.216 1.06536 48.2026 1.07604 48.188 1.08404C48.0306 1.16137 47.884 1.24937 47.7506 1.3507C47.7053 1.32537 47.6653 1.3027 47.6227 1.2787C47.588 1.2587 47.5586 1.2427 47.5266 1.22403C47.4386 1.1747 47.3533 1.12536 47.268 1.0787C46.8706 0.858696 46.5066 0.669365 46.2573 0.537365C45.7973 0.278698 45.2426 0.654697 45.4373 1.0947C45.456 1.12803 45.4786 1.17336 45.4973 1.2227C45.392 1.22403 45.2906 1.22937 45.188 1.23737C45.1173 1.24137 45.0466 1.24937 44.9773 1.25603C44.8693 1.26803 44.764 1.28269 44.6613 1.30403C44.5493 1.32536 44.44 1.35203 44.336 1.3827C44.2693 1.4027 44.208 1.42669 44.1453 1.45069C44.0627 1.48403 43.984 1.52136 43.912 1.56136C43.8613 1.58803 43.8107 1.6147 43.7667 1.64537C43.676 1.70937 43.6013 1.7827 43.5373 1.86137C43.5147 1.8907 43.4946 1.92003 43.476 1.95203C43.4173 2.04936 43.3693 2.15337 43.36 2.27203C42.8706 2.21603 42.3853 2.21603 41.9666 2.24936C41.8026 2.26003 41.6226 2.28936 41.4413 2.32269C41.4266 2.32536 41.4146 2.32803 41.4013 2.3307C41.0453 2.40003 40.6773 2.50936 40.3426 2.65336C40.3066 2.66936 40.2746 2.68537 40.2413 2.70003C40.068 2.78137 39.9053 2.86803 39.764 2.96803C39.688 3.00136 39.6173 3.04003 39.5653 3.08803C39.536 3.1147 39.5226 3.14537 39.5013 3.17604C39.4773 3.20804 39.4466 3.23737 39.432 3.27337C39.396 3.32403 39.3533 3.3707 39.3226 3.41737C39.0573 3.51604 38.764 3.67069 38.484 3.85869C38.0573 3.96269 37.6706 4.15603 37.3373 4.46536C37.3053 4.4947 37.2747 4.52803 37.244 4.56003C37.1213 4.6867 37.0093 4.8307 36.9066 4.99337C36.872 5.0467 36.8373 5.0947 36.8053 5.15203C36.684 5.3707 36.5733 5.61203 36.4853 5.89603C36.4373 6.07469 36.4506 6.26137 36.5213 6.41737C35.8946 6.75737 35.3933 7.25337 35.352 8.1027C35.344 8.31604 35.3693 8.49336 35.416 8.6507C35.42 8.66803 35.4293 8.68004 35.436 8.69604C35.4813 8.83737 35.5466 8.9587 35.628 9.06003C35.5186 9.17203 35.4266 9.30003 35.3613 9.44403C35.3573 9.45203 35.352 9.4587 35.348 9.4667C35.2813 9.6187 35.2373 9.78537 35.232 9.9787C35.232 10.064 35.2506 10.1227 35.256 10.1934C35.1013 10.3614 34.9506 10.5454 34.808 10.7707C34.7866 10.8054 34.7733 10.8414 34.7533 10.8774C34.652 10.9147 34.5493 10.9507 34.4507 10.992C34.44 10.9894 34.4293 10.9854 34.4173 10.9827C34.376 10.972 34.3386 10.956 34.2946 10.9374C34.2946 10.9334 34.2907 10.9294 34.2893 10.9254C34.2773 10.8627 34.2573 10.8054 34.224 10.7507C34.2146 10.7347 34.2 10.7214 34.1906 10.7067C34.1573 10.664 34.1253 10.6254 34.0786 10.5934C34.0413 10.568 33.9933 10.5534 33.948 10.5347C33.912 10.5227 33.88 10.5027 33.8386 10.4947C33.74 10.4774 33.6293 10.476 33.4986 10.5014C33.38 10.524 33.2733 10.5587 33.156 10.584C33.2546 10.44 33.3626 10.2894 33.44 10.1347C33.6626 9.68803 33.1746 9.17869 32.5413 9.41603C32.188 9.54936 31.696 9.75203 31.16 10.0054C31.1066 10.0294 31.0613 10.048 31.008 10.0734C30.9733 10.0734 30.9373 10.0787 30.9026 10.0814C30.88 10.0814 30.8573 10.08 30.8346 10.0814C30.8653 10.048 30.8933 10.0147 30.9226 9.98003C30.9973 9.90003 31.0706 9.8187 31.1386 9.7347C31.1706 9.6947 31.1986 9.6547 31.2293 9.6147C31.3053 9.51736 31.3773 9.41736 31.4426 9.31603C31.4693 9.27336 31.4893 9.22937 31.5146 9.18537C31.5706 9.08537 31.628 8.9867 31.6706 8.88537C31.732 8.7387 31.78 8.58937 31.8093 8.43604C31.8746 8.1387 31.596 7.7987 31.1786 7.8067C30.0333 7.82004 28.94 8.16403 27.9507 8.62403C28.0987 8.19603 28.104 7.73737 27.8853 7.27603C27.76 7.0067 27.3253 6.91336 26.9826 6.97203C26.528 7.05203 26.1507 7.21736 25.8067 7.39603C25.8027 7.32403 25.8066 7.26804 25.7959 7.1947C25.7319 6.84137 25.2346 6.65069 24.8 6.74803C23.8293 6.95869 23.1946 7.3827 22.68 7.89203C22.7093 7.17203 22.4026 6.5587 21.38 6.3067C20.4786 6.09604 19.6693 6.62803 19.2147 7.3147C18.6013 6.3587 17.6293 5.87203 16.2053 6.62803C16.028 6.72003 15.8826 6.82803 15.756 6.9467C15.6986 6.9987 15.656 7.05736 15.608 7.1147C15.5493 7.1827 15.4906 7.25069 15.444 7.32403C15.3986 7.39603 15.3613 7.47204 15.3266 7.54937C15.296 7.61737 15.2653 7.68537 15.2426 7.75603C15.216 7.83203 15.1933 7.90803 15.176 7.9867C15.1693 8.01736 15.156 8.04536 15.1493 8.07736C14.9786 8.0507 14.8066 8.02803 14.624 8.02403C14.4693 8.02403 14.3226 8.03336 14.1813 8.04403L14.18 8.0427C13.988 7.83336 13.7667 7.64537 13.4907 7.51337C13.1413 7.36137 12.736 7.48004 12.5413 7.8067C12.4413 7.97204 12.3826 8.14536 12.3426 8.32403C12.336 8.35469 12.332 8.38536 12.3266 8.41603C12.2973 8.58403 12.2866 8.75204 12.2986 8.92004C12.2973 8.9227 12.2946 8.92403 12.2933 8.9267C12.1466 9.0707 12.0133 9.22403 11.9013 9.38937C11.872 9.3827 11.8466 9.3787 11.8173 9.37203C11.128 9.22536 10.4813 9.13737 10.0813 9.07203C9.50798 8.96537 9.06529 9.53337 9.41729 9.9227C9.45462 9.96403 9.49332 9.9987 9.53065 10.0374C9.49065 10.0507 9.45465 10.068 9.41599 10.0827C9.40265 10.0867 9.38932 10.092 9.37599 10.096C8.98399 10.2427 8.62396 10.428 8.33196 10.6454C8.30529 10.6654 8.28397 10.6854 8.25864 10.704C8.13864 10.8014 8.03065 10.9 7.94398 11.0054C7.93198 11.02 7.91729 11.0307 7.90663 11.0454C7.81863 11.1574 7.75997 11.2747 7.71864 11.3947C7.70664 11.4254 7.69862 11.456 7.69329 11.488C7.66262 11.6134 7.65063 11.74 7.68263 11.868C7.15863 11.9854 6.65597 12.1507 6.2293 12.3294C6.0733 12.3974 5.90797 12.4827 5.7413 12.576C5.71064 12.592 5.68265 12.6094 5.65065 12.628C5.31198 12.824 4.97329 13.0654 4.68263 13.3294C4.66129 13.3494 4.63997 13.368 4.61997 13.388C4.48397 13.5174 4.36132 13.648 4.25465 13.784C4.25065 13.7907 4.24265 13.7974 4.23732 13.804C4.14532 13.8707 4.08397 13.9547 4.03997 14.04C4.0213 14.0774 4.01995 14.1134 4.00929 14.1507C3.99729 14.1947 3.97464 14.2374 3.97198 14.28C3.94798 14.3374 3.92396 14.3934 3.91196 14.4547C3.67196 14.648 3.42131 14.9134 3.19597 15.204C2.79464 15.4587 2.46396 15.792 2.22796 16.22C2.19996 16.2694 2.17732 16.324 2.15199 16.376C2.07599 16.54 2.0133 16.7187 1.9653 16.912C1.9453 16.9854 1.92399 17.0574 1.91066 17.136C1.86132 17.4027 1.83199 17.6867 1.84132 18.008C1.84665 18.1947 1.92797 18.3867 2.05197 18.5267C1.52797 19.1054 1.17864 19.8 1.43198 20.6747C1.49731 20.9014 1.58529 21.0774 1.68796 21.2254C1.69996 21.244 1.71732 21.2547 1.73198 21.2734C1.81998 21.3907 1.91729 21.4894 2.02662 21.5627C2.03329 21.568 2.03864 21.5774 2.04664 21.5827C2.04397 21.5867 2.04398 21.5934 2.04131 21.5987C1.98398 21.7267 1.95197 21.8614 1.93063 21.9974C1.92397 22.0347 1.90929 22.0707 1.90663 22.1094C1.89329 22.288 1.90797 22.4734 1.97063 22.6707C1.99197 22.7507 2.02264 22.8187 2.0573 22.888C1.95864 23.1134 1.86664 23.3534 1.79998 23.6267C1.70398 24.004 1.81065 24.4667 2.08265 24.644C2.18265 24.7 2.28262 24.7587 2.38262 24.8054C2.33595 24.9147 2.28796 25.0214 2.25196 25.1374C2.1533 25.456 2.2413 25.8467 2.49997 25.9867C2.7013 26.0974 2.89863 26.1614 3.09063 26.1947C3.15063 26.2067 3.20799 26.1987 3.26665 26.2027C3.39999 26.2134 3.53328 26.22 3.66395 26.2C3.72662 26.192 3.78931 26.172 3.85198 26.156C3.97998 26.1254 4.10932 26.088 4.23732 26.036C4.28532 26.016 4.33462 25.992 4.38262 25.9694C4.46395 25.9307 4.54531 25.9014 4.62664 25.8574C4.63331 25.8707 4.64129 25.8854 4.64796 25.9C4.68129 25.972 4.71731 26.048 4.75998 26.116C4.75731 26.1347 4.7653 26.152 4.76397 26.1707C4.7533 26.312 4.76664 26.4574 4.79998 26.6C4.80931 26.6494 4.82263 26.6974 4.83863 26.7467C4.8933 26.9107 4.96796 27.076 5.09063 27.2387C5.16663 27.3387 5.25063 27.4134 5.33863 27.468C5.37997 27.4947 5.42664 27.5027 5.47198 27.5214C5.51998 27.5387 5.56796 27.564 5.61862 27.5734C5.66929 27.5814 5.72398 27.576 5.77731 27.576C5.82665 27.5747 5.87465 27.5774 5.92665 27.5694C5.98265 27.56 6.03997 27.5414 6.0973 27.5254C6.15063 27.5094 6.20132 27.496 6.25465 27.4747C6.31332 27.452 6.37197 27.4227 6.43063 27.3947C6.48663 27.3667 6.54264 27.34 6.59864 27.308C6.65731 27.2747 6.71597 27.2387 6.77597 27.2014C6.8333 27.164 6.89064 27.128 6.94797 27.088C7.0093 27.0467 7.06928 27.004 7.12928 26.96C7.18395 26.9187 7.2373 26.8787 7.29196 26.8374C7.36396 26.7814 7.43464 26.7267 7.50664 26.6694C7.51598 26.6627 7.52395 26.656 7.53195 26.6494C7.56395 26.7787 7.61063 26.896 7.67197 27.0014C7.67197 27.004 7.67331 27.0067 7.67331 27.0094C7.66664 27.2014 7.68799 27.3774 7.72666 27.5414C7.73466 27.5787 7.74532 27.612 7.75465 27.6454C7.80932 27.8094 7.88265 27.9587 8.00799 28.0667C8.11332 28.152 8.21862 28.2094 8.32529 28.2507C8.37195 28.2694 8.4173 28.2747 8.4653 28.2854C8.5173 28.2987 8.56798 28.3174 8.62265 28.324C8.64532 28.356 8.68797 28.352 8.71864 28.368C8.76531 28.3947 8.80264 28.4347 8.85731 28.4307C8.94931 28.4267 9.04532 28.384 9.11732 28.3014C9.13865 28.2734 9.15462 28.2427 9.17595 28.2134C9.38262 28.1347 9.59064 28.016 9.79998 27.872C9.81464 27.8614 9.82931 27.8547 9.84531 27.844C10.0586 27.6934 10.2706 27.5214 10.4813 27.3467C10.6506 27.372 10.816 27.3494 10.9773 27.2867H10.9813C10.988 27.3214 11 27.3454 11.0066 27.38C11.008 27.3934 11.0093 27.4067 11.0106 27.4187C11.0146 27.508 11.0253 27.588 11.0333 27.6734C11.0426 27.768 11.056 27.86 11.0733 27.9494C11.0866 28.0267 11.104 28.0987 11.1253 28.1707C11.152 28.2627 11.1893 28.3467 11.2293 28.4267C11.2546 28.4787 11.276 28.5334 11.308 28.5787C11.388 28.6947 11.484 28.7934 11.612 28.856C11.728 28.9134 11.8453 28.944 11.9653 28.9574C12.028 28.964 12.0906 28.9534 12.1533 28.9507C12.212 28.9467 12.2706 28.948 12.3306 28.936C12.4026 28.9214 12.476 28.896 12.5493 28.8694C12.6013 28.8534 12.6533 28.8387 12.7053 28.8147C12.7826 28.7827 12.86 28.7427 12.9373 28.7C12.988 28.6747 13.0386 28.648 13.088 28.6187C13.1653 28.5734 13.2427 28.5254 13.3187 28.4734C13.38 28.4334 13.4426 28.3934 13.5053 28.3507C13.5586 28.312 13.6106 28.276 13.664 28.2374C13.9466 28.0347 14.2293 27.8227 14.5066 27.6387C14.5533 27.6387 14.6133 27.6267 14.6706 27.6147C14.8333 27.5787 14.9826 27.4974 15.1306 27.4C15.1826 27.4134 15.2306 27.44 15.276 27.472C15.3013 27.4894 15.3266 27.4947 15.3493 27.516C15.4186 27.5814 15.484 27.664 15.5466 27.7587C15.576 27.8027 15.6013 27.8507 15.6293 27.896C15.6853 27.9907 15.7426 28.0854 15.7986 28.1894C15.832 28.2507 15.8666 28.312 15.9026 28.3734C15.9386 28.436 15.976 28.4947 16.016 28.5547C16.0506 28.608 16.088 28.656 16.1266 28.704C16.164 28.752 16.2013 28.8 16.244 28.84C16.2893 28.884 16.34 28.9174 16.3906 28.9494C16.4293 28.9747 16.468 29.0054 16.512 29.0227C16.6093 29.06 16.7147 29.0774 16.836 29.056C17.068 29.0174 17.2906 28.9374 17.5093 28.836C17.5346 28.824 17.56 28.8054 17.584 28.7947C17.7786 28.6974 17.972 28.584 18.1613 28.452C18.192 28.4294 18.2226 28.4054 18.252 28.3827C18.432 28.252 18.612 28.1147 18.7906 27.9614C18.864 27.8987 18.94 27.8334 19.0146 27.768C19.0733 27.716 19.1306 27.6694 19.1893 27.6174C19.1146 29.2787 19.052 30.9427 19 32.6067C18.9853 32.6014 18.972 32.5947 18.9586 32.5894C18.9453 32.5174 18.9106 32.4547 18.8466 32.4134C18.8346 32.404 18.82 32.4027 18.8067 32.396C18.7413 32.3654 18.66 32.3494 18.5546 32.372C18.4906 32.372 18.436 32.3974 18.376 32.4107C18.4293 32.3254 18.4786 32.2547 18.5186 32.184C18.6333 31.9467 18.3826 31.7 18.064 31.82C17.8693 31.8894 17.5866 32.0054 17.292 32.1574C17.2626 32.1574 17.232 32.1574 17.1973 32.1574C17.2107 32.1427 17.2187 32.1294 17.232 32.1147C17.336 32.0027 17.432 31.888 17.508 31.7654C17.5973 31.6254 17.6653 31.4787 17.6986 31.324C17.7306 31.1694 17.5866 31.004 17.3733 31.004C16.7973 31.0147 16.248 31.192 15.7466 31.416C15.816 31.2014 15.8226 30.968 15.708 30.7347C15.652 30.6014 15.424 30.5454 15.2493 30.5894C15.0187 30.6254 14.8306 30.708 14.6586 30.804C14.652 30.7694 14.6587 30.7347 14.652 30.6987C14.6187 30.5214 14.364 30.424 14.1453 30.472C13.656 30.58 13.332 30.7907 13.076 31.0467C13.088 30.6867 12.936 30.3774 12.4173 30.2587C11.964 30.1414 11.5493 30.4147 11.3253 30.756C11.0133 30.284 10.516 30.0347 9.79729 30.4147C9.63996 30.4947 9.53197 30.6014 9.44797 30.7187C9.43997 30.7294 9.43063 30.7387 9.42396 30.7494C9.34396 30.8694 9.29462 31.004 9.26796 31.1454C9.17329 31.1454 9.09196 31.136 8.99863 31.124C8.92263 31.124 8.85062 31.1347 8.77329 31.136C8.67595 31.028 8.56531 30.9347 8.42665 30.8734C8.25065 30.7774 8.04397 30.8494 7.94264 31.0147C7.8733 31.132 7.84529 31.26 7.83196 31.3894C7.82663 31.4307 7.82264 31.4707 7.82264 31.5134C7.82264 31.536 7.81732 31.56 7.81866 31.584C7.81066 31.5894 7.80531 31.5987 7.79998 31.6067C7.74931 31.6574 7.70532 31.7107 7.66265 31.7654C7.64798 31.7854 7.63065 31.8014 7.61732 31.82C7.53065 31.8014 7.45597 31.788 7.3733 31.772C7.3013 31.7587 7.23195 31.7427 7.16395 31.7307C6.98128 31.6987 6.81732 31.6734 6.69732 31.6547C6.40932 31.5934 6.18531 31.8894 6.36264 32.0894C6.37997 32.108 6.4013 32.128 6.41863 32.1454C6.14396 32.24 5.89728 32.372 5.72128 32.5307C5.71462 32.536 5.70931 32.5427 5.70265 32.5494C5.63331 32.616 5.57998 32.6867 5.54131 32.76C5.53198 32.7774 5.52129 32.7934 5.51462 32.8107C5.48129 32.8947 5.46663 32.98 5.48797 33.0694C5.22263 33.128 4.96929 33.2107 4.75062 33.3054C4.63862 33.352 4.52131 33.4174 4.40264 33.4894C4.38397 33.5 4.36797 33.512 4.35064 33.524C4.25064 33.5854 4.15729 33.6547 4.06662 33.7307C4.04262 33.7494 4.02129 33.7667 3.99863 33.7867C3.91196 33.864 3.83597 33.9427 3.77064 34.0254C3.76797 34.028 3.76798 34.0294 3.76531 34.0307C3.75331 34.044 3.73998 34.0574 3.73064 34.0707C3.66664 34.1307 3.63198 34.1947 3.62265 34.264C3.60265 34.3067 3.58531 34.3494 3.58131 34.3774C3.45464 34.4787 3.32797 34.62 3.21331 34.772C3.13997 34.816 3.07862 34.8734 3.01462 34.9294C2.98929 34.952 2.95732 34.9694 2.93332 34.9934C2.81999 35.1094 2.73598 35.256 2.66798 35.42C2.64931 35.464 2.63463 35.5107 2.61997 35.5574C2.56397 35.7414 2.52665 35.9427 2.53065 36.1867C2.53598 36.28 2.57865 36.3734 2.63998 36.4454C2.36932 36.744 2.19862 37.0814 2.33062 37.5334C2.36128 37.6454 2.40531 37.7347 2.45464 37.808C2.46664 37.8267 2.48131 37.8374 2.49464 37.8534C2.53731 37.9067 2.58396 37.952 2.63596 37.9854C2.63862 37.9867 2.63998 37.9907 2.63998 37.9907C2.63865 37.996 2.63863 38.0014 2.6373 38.0054C2.6093 38.0667 2.59329 38.132 2.58395 38.1987C2.57995 38.2187 2.57064 38.2387 2.56931 38.2587C2.56264 38.3494 2.57062 38.444 2.60129 38.5454C2.61329 38.58 2.63329 38.604 2.64796 38.644C2.59596 38.756 2.54929 38.8894 2.51462 39.0307C2.47195 39.22 2.52663 39.444 2.65996 39.5374C2.7133 39.5734 2.76796 39.608 2.81996 39.6214C2.79862 39.68 2.76799 39.7254 2.74399 39.7974C2.69466 39.952 2.74396 40.152 2.87196 40.2214C2.97329 40.2787 3.07329 40.3094 3.17062 40.328C3.19862 40.3334 3.22796 40.3294 3.25729 40.3307C3.32529 40.336 3.39465 40.3387 3.46131 40.328C3.49065 40.324 3.51998 40.3134 3.54798 40.3067C3.61465 40.2907 3.68264 40.2707 3.74798 40.244C3.77731 40.232 3.80666 40.216 3.83599 40.2014C3.87199 40.1854 3.90797 40.172 3.94264 40.152C3.96664 40.1987 3.98797 40.2454 4.0173 40.2934C4.0133 40.3294 4.02529 40.3654 4.02662 40.4027C4.02796 40.4374 4.02798 40.4734 4.03598 40.5107C4.05865 40.6267 4.09864 40.7427 4.19064 40.86C4.26264 40.9587 4.3493 41.0067 4.44264 41.0254L4.44663 41.0267C4.53729 41.0414 4.63865 41.0254 4.74265 40.9867C4.74931 40.984 4.75466 40.9827 4.76132 40.98C4.86132 40.9414 4.96665 40.8827 5.07065 40.8147C5.08398 40.8054 5.09462 40.8 5.10662 40.7907C5.21329 40.7174 5.31995 40.6387 5.42262 40.556C5.43462 40.6147 5.45863 40.6694 5.48797 40.7307C5.48663 40.7747 5.4973 40.8107 5.49997 40.8534C5.50264 40.892 5.50531 40.9267 5.51197 40.964C5.53331 41.0867 5.57463 41.1987 5.65996 41.2747C5.76396 41.3614 5.87331 41.3947 5.98398 41.3987C5.99331 41.4094 6.00798 41.4094 6.01865 41.416C6.04265 41.4294 6.06263 41.4534 6.09063 41.452C6.13863 41.4507 6.18931 41.428 6.22531 41.3787C6.22531 41.3787 6.23466 41.3627 6.24399 41.3534C6.43999 41.2787 6.63998 41.1307 6.83998 40.9667C6.86531 40.9454 6.89062 40.9267 6.91729 40.908C6.95862 40.9147 6.99864 40.8947 7.03997 40.888C7.08264 40.8827 7.12529 40.888 7.16529 40.872L7.16664 40.8747C7.1693 40.8907 7.17732 40.9014 7.17998 40.916C7.18665 41.0707 7.20663 41.2147 7.24663 41.3427C7.25063 41.3614 7.25999 41.3774 7.26665 41.396C7.31199 41.5187 7.37462 41.6227 7.47995 41.676C7.58662 41.7267 7.6973 41.7307 7.8093 41.712C7.8253 41.7094 7.84131 41.712 7.85731 41.708C7.95864 41.6854 8.06265 41.6387 8.16798 41.5814C8.19731 41.564 8.22796 41.5494 8.25729 41.5307C8.35596 41.472 8.45329 41.4054 8.54929 41.3347C8.66929 41.248 8.78798 41.1614 8.90398 41.0814C8.92532 41.0654 8.94662 41.0534 8.96929 41.0387C8.99196 41.0374 9.01065 41.044 9.03598 41.0374C9.10931 41.0134 9.18399 40.9774 9.26132 40.9334C9.28932 40.94 9.31465 40.9534 9.34132 40.972C9.35199 40.9787 9.36129 40.98 9.37196 40.9894C9.40929 41.0227 9.44263 41.0654 9.47596 41.1147C9.4973 41.1467 9.51863 41.184 9.53863 41.22C9.54529 41.2334 9.55329 41.2454 9.56129 41.2587C9.63329 41.3894 9.70663 41.528 9.79729 41.6294C9.80263 41.636 9.80665 41.6414 9.81198 41.6467C9.84932 41.6854 9.88796 41.7134 9.92929 41.7347C9.93863 41.74 9.94665 41.7467 9.95598 41.7507C10.008 41.7707 10.0626 41.78 10.1266 41.768C10.5493 41.6947 10.9293 41.388 11.3187 41.0374C11.336 41.1654 11.3546 41.3094 11.3879 41.4374C11.3986 41.4827 11.4213 41.5107 11.4533 41.5254C11.5386 41.572 11.6786 41.4974 11.7626 41.3747C11.848 41.472 11.9426 41.5507 12.0493 41.6094C12.068 41.62 12.084 41.632 12.1026 41.64C12.224 41.6947 12.3546 41.7307 12.504 41.7187C12.4866 41.8747 12.528 42.004 12.64 42.1C12.8387 42.2534 13.0706 42.3054 13.3266 42.28C13.8773 43.8294 14.44 45.368 15.004 46.9094C14.8053 47.0667 14.6066 47.224 14.4466 47.4C14.4 47.116 14.3 46.8334 14.0986 46.5507C14.0226 46.444 13.816 46.4307 13.6786 46.5027C12.724 46.9854 11.9813 47.8707 11.708 48.7787C11.4786 48.6027 11.2133 48.4507 10.8826 48.3787C9.34929 48.0614 9.29464 49.5587 9.47198 50.5854C9.24798 50.444 9.0053 50.2894 8.7413 50.188C8.5853 50.116 8.37999 50.1614 8.27866 50.2787C7.90799 50.7187 7.90795 51.1307 8.07195 51.52C7.09862 51.0334 5.95065 50.6574 4.98398 50.9654C4.24398 51.1987 4.33598 51.9307 4.63864 52.3067C4.75064 52.4534 4.91464 52.5547 5.1093 52.6307C4.68664 52.7347 4.25332 52.852 3.84665 52.972C2.84932 53.2534 1.45598 53.7134 0.973318 54.5427C0.577318 55.212 1.38132 55.792 2.18666 55.7467C0.966656 56.796 0.0573231 58.0334 0.11199 59.3787C0.122656 59.6414 0.417305 59.7467 0.718639 59.6534C1.00264 59.544 1.26663 59.44 1.51596 59.3107C1.51463 59.3134 1.51595 59.316 1.51462 59.3187C1.45062 59.5227 1.41195 59.732 1.40528 59.936C1.40528 59.9387 1.40398 59.9414 1.40398 59.944C1.40265 59.9467 1.40263 59.948 1.4013 59.9507C1.32263 60.1494 1.26131 60.3454 1.21998 60.532C1.21331 60.564 1.19464 60.6 1.19064 60.6307C1.16798 60.6427 1.14797 60.6427 1.12664 60.6534C0.914638 60.6427 0.694617 60.7147 0.571951 60.8894C0.305284 61.268 0.262629 61.528 0.458629 61.908C0.494629 61.9814 0.550635 62.0387 0.614635 62.0854C0.641301 62.108 0.675968 62.1187 0.706635 62.136C0.739968 62.1507 0.767975 62.1694 0.805309 62.18C0.939975 62.2267 1.08796 62.228 1.23463 62.192C1.2133 62.2134 1.19064 62.2267 1.17331 62.2507C0.926643 62.6387 0.890635 62.9094 1.11463 63.288Z" fill="black"/>
</svg>