<svg xmlns="http://www.w3.org/2000/svg" width="116" height="134" viewBox="0 0 116 134" fill="none">
  <path d="M37.58 84.996C39.056 85.556 40.5907 85.236 41.6427 84.024C42.6733 84.9307 43.44 86.0454 44.5853 86.8747C45.6253 87.628 47.344 88.0867 47.8573 89.248C46.4453 89.0373 44.888 88.1773 43.516 87.7707C42.4427 87.448 41.3493 87.1587 40.2987 86.7987C39.084 86.3827 38.2547 85.744 37.58 84.996ZM79.4387 82.52C79.9187 82.6027 80.4253 82.472 80.8587 82.0973C80.8893 82.424 80.9507 82.7334 81.0307 83.024C80.3213 83.1614 79.5973 83.2627 78.8467 83.32C79.0613 83.06 79.256 82.7933 79.4387 82.52ZM27.576 79.5507C28.3267 80.0773 28.3627 81.6827 28.816 82.9467C27.8507 82.604 26.9227 82.1507 26.0547 81.688C26.052 81.6867 26.0493 81.6853 26.0467 81.684C26.7213 81.1933 27.2867 80.484 27.576 79.5507ZM69.3547 79.7907C69.724 79.4987 70.1387 79.2627 70.5627 79.0333C71.528 79.912 72.4213 82.372 73.396 83.0467C73.7533 83.296 74.1347 83.448 74.5173 83.5373C72.1933 84.4733 69.5267 84.6774 67.084 85.2827C67.864 83.744 67.8627 80.9653 69.3547 79.7907ZM44.288 82.2707C45.164 82.7307 46.14 82.9347 47.0187 82.648C47.656 82.44 48.1773 81.92 48.484 81.1854C48.668 80.7494 48.784 80.2813 48.8307 79.7907C48.8413 79.792 48.852 79.7907 48.8627 79.792C49.748 80.928 50.5813 82.08 51.5333 83.1773C52.4987 84.284 53.8227 85.8 52.9867 87.224C50.6613 85.312 46.7627 85.2307 44.7187 82.8987C44.544 82.6987 44.4093 82.488 44.288 82.2707ZM57.296 85.1453C57.136 84.9933 56.992 84.8267 56.844 84.6653C57.0467 84.656 57.248 84.628 57.4453 84.5787C57.3933 84.7693 57.356 84.9467 57.296 85.1453ZM62.344 86.512C62.3387 84.5947 62.2467 82.676 62.032 80.7693C62.64 81.6133 63.4907 82.1227 64.4173 81.8507C64.7573 81.7507 65.0893 81.552 65.388 81.2947C65.1053 82.2827 64.9893 83.276 64.4347 84.2093C63.9093 85.088 63.0707 85.796 62.344 86.512ZM115.016 67.2054C115.747 65.6107 115.408 64.252 114.603 63.3174C114.72 63.1067 114.831 62.8894 114.899 62.6534C115.477 60.6414 114.028 59.0893 113.019 57.9013C116.475 55.4147 114.979 50.7573 112.035 49.252C112.285 47.5733 111.699 45.744 109.919 46.4573C110.801 45.6587 111.297 44.0013 110.943 42.8693C110.931 41.5 110.444 40.1027 109.608 39.2493C109.393 39.0293 109.156 38.8733 108.912 38.7467C109.205 38.2933 109.453 37.7893 109.585 37.1947C110.284 34.084 108.427 31.4613 105.897 32.6627C105.2 32.9973 104.524 34.0467 103.867 33.648C104.192 32.952 104.396 32.0653 104.295 31.2507C104.115 29.812 103.036 28.7613 101.937 28.5453C101.451 28.448 100.947 28.5293 100.495 28.7853C100.257 28.072 99.86 27.452 99.3747 26.9853C98.332 25.9653 96.988 25.884 95.8014 26.4813C95.7574 26.3787 95.7173 26.2747 95.6667 26.1827C96.4933 23.8493 96.58 20.3773 94.5173 19.0747C92.256 17.648 90.3253 19.7787 89.2453 22.144C89.0893 22.0573 88.94 21.9653 88.784 21.8787C89.8453 20.312 89.4067 17.472 87.8027 16.6627C89.3573 14.112 87.1173 10.9853 84.8907 12.0867C85.3227 9.75734 83.24 8.12001 81.62 8.40668C80.5467 8.59201 79.6387 9.46801 78.972 10.5027C78.3613 10.028 77.424 9.98801 76.9294 9.45601C76.3174 8.81201 76.2427 9.23201 76.208 8.16801C76.1947 7.67334 76.08 7.22401 75.8653 6.81601C75.4267 5.99467 74.7453 5.42667 73.9787 5.26134C72.9893 5.04801 71.9373 5.51734 71.2707 6.46667C70.984 6.88001 70.7867 7.35467 70.688 7.88934C70.2507 7.91601 69.828 8.05601 69.436 8.30668C69.3413 5.56668 67.688 3.69467 65.524 3.61467C64.6534 3.58401 64.3413 4.17468 63.7 3.36135C63.432 3.02001 63.14 2.70401 62.8307 2.41735C62.2027 1.81601 61.5053 1.33068 60.7787 0.956012C60.3027 0.710678 59.8213 0.51867 59.3413 0.37867C59.1893 0.288003 59.0347 0.201337 58.88 0.137337C58.4427 -0.0439963 58.068 -0.0293259 57.7467 0.112007C54.9667 -0.0266592 52.3733 1.62534 50.8573 5.02001C49.1587 2.87201 46.1533 2.67735 44.0547 3.91868C43.0133 4.53335 42.1587 5.56667 41.6534 6.87334C40.5334 5.95334 39.136 5.69601 37.828 5.92001C37.1307 6.03334 36.448 6.28534 35.812 6.65201C35.084 7.08001 35.2667 7.38801 34.6813 6.59734C33.8573 5.49734 32.5733 4.99067 31.3987 5.26667C29.2187 5.77867 28.1947 8.34667 28.4213 10.948C28.0373 11.1213 26.9133 10.388 26.332 10.4773C25.3907 10.632 24.8733 11.72 24.02 11.3533C22.7533 10.8093 21.284 10.4907 19.9747 10.9853C17.0813 12.084 15.9213 16.4587 16.5027 19.824C14.8773 19.5773 13.452 20.9453 13.104 22.928C11.9587 22.0413 10.228 21.8387 9.15068 23.016C7.72402 24.576 8.33068 27.2813 9.12134 29.064C8.41734 29.0787 7.71068 29.312 7.08135 29.8493C6.36668 30.4587 6.08534 31.304 5.72667 32.236C5.41067 33.072 5.41868 33.8533 5.51868 34.744C5.02802 34.8347 4.55335 34.9853 4.09335 35.1973C2.09602 36.112 -0.193325 38.924 0.830675 41.8347C1.29467 43.14 2.284 43.9307 3.36933 44.204C4.21866 44.4173 4.21867 46.392 4.812 47.408C4.25867 47.7413 3.73735 48.1493 3.24535 48.616C3.30535 48.5573 3.31867 48.544 3.23467 48.6253C1.46 50.3213 2.87467 48.9707 3.22401 48.6373C0.621339 51.1267 0.049335 55.4693 2.824 58.1387C3.12267 58.4267 3.44 58.68 3.77733 58.8933C3.536 59.472 3.52535 60.056 3.74801 60.6534C4.02135 61.428 4.57067 61.9974 5.172 62.352C4.91867 64.1774 5.15333 66.152 5.96133 67.7187C6.73466 69.2067 8.048 70.16 9.424 70.4493C10.168 70.608 10.8307 70.1067 11.424 70.5333C12.032 70.972 11.7627 71.4187 11.8573 72.2707C12.2827 76.2467 16.3333 78.0534 18.9707 76.004C18.6787 79.6294 21.0707 82.612 23.8667 82.472C24.7373 83.028 25.648 83.504 26.3573 83.9067C27.8493 84.756 29.4733 85.2894 31.1493 85.8347C32.856 86.3907 34.06 87.312 35.5813 88.112C36.2587 88.468 37.1907 88.8573 38.0267 88.6893C38.7573 89.0493 39.5627 89.3173 40.356 89.5653C41.7347 89.9973 44.0813 90.2293 44.912 91.276C45.9147 92.544 47.1507 93.636 47.7373 95.1107C48.2267 96.3467 48.4573 97.6494 48.5573 98.952C49.036 105.025 47.4267 111.084 47.1587 117.147C47.056 119.611 47.172 123.188 45.3253 125.295C44.2267 126.549 42.8147 127.587 41.8107 128.904C40.7547 130.283 43.6 130.423 44.4013 130.503C43.1587 131.961 45.364 132.204 46.5747 132.307C48.1227 132.439 49.664 132.707 51.236 132.615C51.2947 132.611 51.3334 132.599 51.3894 132.595C51.372 132.627 51.3333 132.644 51.3253 132.681C51.3147 132.727 51.312 132.768 51.3093 132.807C51.6147 132.772 51.9213 132.744 52.2267 132.712C52.8573 132.649 53.9427 132.657 54.3987 132.213C54.5293 132.009 54.6347 131.785 54.724 131.556C54.7773 131.556 54.8307 131.56 54.884 131.563C54.8667 131.723 54.8613 131.883 54.8387 132.044C54.8667 132.044 54.8933 132.044 54.9147 132.048C54.9893 131.999 55.0627 131.949 55.1453 131.901C55.456 131.711 55.7187 131.648 55.924 131.677C55.9227 131.657 55.9187 131.639 55.9173 131.619C56.0747 131.632 56.232 131.645 56.3867 131.664C56.3987 131.74 56.3973 131.817 56.412 131.892C56.6013 131.864 56.8 131.861 57.0107 131.891C57.0853 131.901 57.1533 131.916 57.232 131.929C57.2213 131.883 57.216 131.837 57.2053 131.792C57.216 131.793 57.228 131.795 57.2387 131.797C57.248 131.841 57.248 131.888 57.256 131.932C57.56 131.983 57.852 132.071 58.1453 132.148C58.7507 132.595 59.06 133.305 60.1453 133.331C61.1093 133.355 62.1667 133.188 63.1053 133.031C64.448 132.811 65.74 132.417 66.8827 131.759C67.1413 131.619 67.3493 131.435 67.5027 131.208C67.752 131.257 67.9693 131.195 68.1333 131.025C68.3787 130.74 68.1693 130.236 67.976 129.841C68.516 130.013 69.0813 130.155 69.6747 130.236C70.5667 130.009 71.4813 129.729 72.4 129.527C72.9507 129.476 73.5013 129.413 74.0493 129.336C77.0467 128.913 74.6947 127.9 73.38 127.035C71.7107 125.941 70.5573 124.684 69.8853 122.957C69.2 121.196 69.14 119.268 68.9973 117.428C68.7133 113.777 68.66 110.115 68.3253 106.469C68.14 104.481 67.884 102.501 67.5053 100.539C67.1747 98.808 67.2653 97.076 67.2627 95.3213C67.2627 93.456 67.3373 91.9173 68.448 90.244C69.3027 88.956 70.0053 88.3107 71.5387 87.524C74.9733 85.7587 78.7373 86.1907 82.3573 85.16C83.1653 85.848 84.2027 86.1573 85.2373 86.016C86.2707 85.876 86.776 84.7587 87.6093 85.3987C88.536 86.104 89.6613 86.172 90.6093 85.488C91.508 84.852 91.2894 85.4627 92.0307 86.26C92.4947 86.7574 93.028 87.1534 93.6147 87.3747C94.412 87.6734 95.2893 87.6733 96.084 87.3547C98.2733 86.4693 97.8093 83.7747 98.9587 82.0907C100.383 84.836 104.711 85.988 105.729 82.1573C105.957 81.296 105.735 80.2507 105.303 79.5547C105.74 79.1627 106.288 78.948 106.675 78.4747C107.74 78.02 108.591 76.6707 108.568 75.228C110.399 75.808 112.643 75.0014 113.691 72.9174C114.531 71.2547 113.871 69.9987 113.325 68.6493C113.98 68.5773 114.58 68.1587 115.016 67.2054Z" fill="black"/>
</svg>