<?xml version="1.0" encoding="utf-8"?>
<!-- Generator: Adobe Illustrator 28.0.0, SVG Export Plug-In . SVG Version: 6.00 Build 0)  -->
<svg version="1.1" id="Layer_1_copy" xmlns="http://www.w3.org/2000/svg" xmlns:xlink="http://www.w3.org/1999/xlink" x="0px"
	 y="0px" viewBox="0 0 512 512" style="enable-background:new 0 0 512 512;" xml:space="preserve">
<style type="text/css">
	.st0{display:none;}
	.st1{font-family:'Arial-Black';}
	.st2{font-size:556.3365px;}
	.st3{display:inline;}
</style>
<text transform="matrix(1 0 0 1 30.2354 447.9053)" class="st0 st1 st2">E</text>

<g>
	<path d="M202.1,172.1L97.5,153.3c8.7-33.3,25.4-58.9,50.1-76.6c24.7-17.7,59.7-26.6,105-26.6c52,0,89.6,9.7,112.7,29.1
		c23.2,19.4,34.8,43.7,34.8,73.1c0,17.2-4.7,32.8-14.1,46.7c-9.4,13.9-23.6,26.2-42.6,36.7c15.4,3.8,27.2,8.2,35.3,13.3
		c13.2,8.1,23.5,18.9,30.8,32.2c7.3,13.3,11,29.2,11,47.7c0,23.2-6.1,45.4-18.2,66.7c-12.1,21.3-29.6,37.7-52.4,49.2
		c-22.8,11.5-52.8,17.2-89.9,17.2c-36.2,0-64.8-4.3-85.7-12.8c-20.9-8.5-38.1-21-51.6-37.4c-13.5-16.4-23.9-37-31.1-61.8l110.6-14.7
		c4.3,22.3,11.1,37.7,20.2,46.3c9.1,8.6,20.8,12.9,34.9,12.9c14.8,0,27.2-5.4,37.1-16.3c9.9-10.9,14.8-25.4,14.8-43.5
		c0-18.5-4.8-32.8-14.3-42.9c-9.5-10.1-22.4-15.2-38.7-15.2c-8.7,0-20.6,2.2-35.9,6.5l5.7-79c6.2,0.9,11,1.4,14.4,1.4
		c14.5,0,26.6-4.6,36.3-13.9c9.7-9.2,14.5-20.2,14.5-32.9c0-12.1-3.6-21.8-10.9-29.1c-7.2-7.2-17.2-10.9-29.9-10.9
		c-13,0-23.6,3.9-31.8,11.8S205,152.3,202.1,172.1z"/>
</g>
<g class="st0">
	<path class="st3" d="M283.6,384.1H82v-91L283.6,53.5H380v244.8h50v85.8h-50v74.4h-96.4V384.1z M283.6,298.2V172.9L177.1,298.2
		H283.6z"/>
</g>
<g class="st0">
	<path class="st3" d="M139.9,53.5h262.7v88.3H224.6l-9.5,59.8c12.3-5.8,24.5-10.1,36.5-13c12-2.9,23.9-4.3,35.7-4.3
		c39.8,0,72.2,12,97,36.1c24.8,24.1,37.2,54.4,37.2,91c0,25.7-6.4,50.4-19.2,74.2c-12.8,23.7-30.9,41.8-54.3,54.3
		c-23.5,12.5-53.5,18.7-90.1,18.7c-26.3,0-48.8-2.5-67.5-7.5c-18.7-5-34.7-12.4-47.8-22.3c-13.1-9.9-23.8-21.1-31.9-33.5
		s-14.9-28.1-20.4-46.7l111.9-12.2c2.7,17.9,9.1,31.6,19,40.9c10,9.3,21.8,14,35.6,14c15.4,0,28.1-5.8,38.2-17.5
		c10.1-11.7,15.1-29.1,15.1-52.3c0-23.7-5.1-41.1-15.2-52.2c-10.1-11-23.6-16.6-40.5-16.6c-10.7,0-21,2.6-31,7.9
		c-7.4,3.8-15.6,10.7-24.4,20.6l-94.3-13.6L139.9,53.5z"/>
</g>
<g class="st0">
	<path class="st3" d="M411.7,146.5l-110,13.6c-2.9-15.4-7.7-26.3-14.5-32.6c-6.8-6.3-15.2-9.5-25.1-9.5c-17.9,0-31.9,9.1-41.8,27.2
		c-7.2,13-12.6,40.9-16,83.7c13.2-13.4,26.8-23.3,40.7-29.7c13.9-6.4,30.1-9.6,48.4-9.6c35.5,0,65.5,12.7,90.1,38
		c24.5,25.4,36.8,57.5,36.8,96.4c0,26.3-6.2,50.3-18.6,72c-12.4,21.7-29.6,38.2-51.6,49.3c-22,11.1-49.6,16.7-82.7,16.7
		c-39.8,0-71.8-6.8-95.9-20.4c-24.1-13.6-43.3-35.3-57.7-65.1c-14.4-29.8-21.6-69.2-21.6-118.3c0-71.9,15.1-124.6,45.4-158
		c30.2-33.4,72.2-50.1,125.8-50.1c31.7,0,56.7,3.7,75.1,11c18.4,7.3,33.6,18.1,45.8,32.2C396.1,107.4,405.3,125.2,411.7,146.5z
		 M207.9,323.9c0,21.6,5.4,38.4,16.3,50.7c10.9,12.2,24.2,18.3,39.9,18.3c14.5,0,26.6-5.5,36.4-16.6c9.8-11,14.7-27.5,14.7-49.4
		c0-22.5-5.1-39.6-15.2-51.3c-10.1-11.8-22.7-17.7-37.8-17.7c-15.4,0-28.3,5.7-38.7,17.1C213.1,286.4,207.9,302.7,207.9,323.9z"/>
</g>
<g class="st0">
	<path class="st3" d="M94.5,56.9h323v74.7c-28.1,25.4-51.5,52.8-70.4,82.3c-22.8,35.9-40.8,75.8-54.1,119.8
		c-10.5,34.2-17.6,74.7-21.2,121.4H161.6c8.7-65,22.4-119.5,41-163.5c18.7-44,48.2-91.1,88.6-141.3H94.5V56.9z"/>
</g>
<g class="st0">
	<path class="st3" d="M159.8,241.1c-17.4-9.2-30.1-19.6-38-31c-10.9-15.6-16.3-33.5-16.3-53.8c0-33.3,15.7-60.6,47-81.8
		c24.4-16.3,56.8-24.4,97-24.4c53.2,0,92.6,10.1,118,30.4c25.4,20.3,38.2,45.8,38.2,76.6c0,17.9-5.1,34.7-15.2,50.3
		c-7.6,11.6-19.6,22.8-35.9,33.7c21.5,10.3,37.6,24,48.2,41c10.6,17,15.9,35.9,15.9,56.5c0,19.9-4.6,38.5-13.7,55.8
		c-9.1,17.3-20.4,30.7-33.7,40.1c-13.3,9.4-29.9,16.3-49.7,20.8c-19.8,4.4-41,6.7-63.4,6.7c-42.2,0-74.4-5-96.7-14.9
		c-22.3-10-39.2-24.6-50.8-44c-11.6-19.4-17.4-41-17.4-64.9c0-23.4,5.4-43.1,16.3-59.4C120.4,262.5,137.2,249.9,159.8,241.1z
		 M203.6,334.2c0,17.6,5.3,31.9,16,43.1c10.7,11.1,22.9,16.7,36.7,16.7c13.2,0,25.1-5.7,35.6-17c10.5-11.3,15.8-25.7,15.8-43.1
		c0-17.6-5.3-32-15.9-43.2c-10.6-11.2-22.9-16.8-36.8-16.8c-13.8,0-25.8,5.4-36,16.3C208.7,301.1,203.6,315.8,203.6,334.2z
		 M209.5,162.8c0,13.8,4.3,24.9,12.9,33.3c8.6,8.4,20.1,12.6,34.4,12.6c12.7,0,23.1-4.2,31.2-12.5c8.1-8.3,12.2-19.1,12.2-32.3
		c0-13.8-4.3-24.9-12.8-33.5c-8.5-8.6-19.4-12.9-32.6-12.9c-13.4,0-24.3,4.2-32.7,12.6C213.8,138.5,209.5,149.4,209.5,162.8z"/>
</g>
<g class="st0">
	<path class="st3" d="M100.3,365.7l110-13.9c2.9,15.4,7.8,26.3,14.7,32.6c6.9,6.3,15.3,9.5,25.3,9.5c17.7,0,31.6-9,41.6-26.9
		c7.2-13.2,12.7-41.2,16.3-83.9c-13.2,13.6-26.8,23.5-40.7,29.9c-13.9,6.3-30.1,9.5-48.4,9.5c-35.7,0-65.8-12.7-90.3-38
		c-24.5-25.4-36.8-57.4-36.8-96.2c0-26.4,6.2-50.5,18.7-72.3c12.5-21.7,29.7-38.2,51.6-49.3c21.9-11.1,49.4-16.7,82.6-16.7
		c39.8,0,71.8,6.8,95.9,20.5c24.1,13.7,43.3,35.4,57.7,65.2c14.4,29.8,21.6,69.1,21.6,118c0,71.9-15.1,124.6-45.4,158
		c-30.2,33.4-72.2,50.1-125.8,50.1c-31.7,0-56.7-3.7-75-11c-18.3-7.3-33.5-18.1-45.6-32.2C116.2,404.6,106.9,386.9,100.3,365.7z
		 M304.1,188.1c0-21.5-5.4-38.4-16.3-50.7c-10.9-12.2-24.1-18.3-39.7-18.3c-14.7,0-26.9,5.5-36.5,16.6c-9.7,11-14.5,27.6-14.5,49.7
		c0,22.3,5,39.3,15.1,51.1c10.1,11.8,22.6,17.7,37.6,17.7c15.6,0,28.5-5.7,38.8-17.1C298.9,225.6,304.1,209.3,304.1,188.1z"/>
</g>
</svg>
