<?xml version="1.0" encoding="utf-8"?>
<!-- Generator: Adobe Illustrator 28.0.0, SVG Export Plug-In . SVG Version: 6.00 Build 0)  -->
<svg version="1.1" id="Layer_1_copy" xmlns="http://www.w3.org/2000/svg" xmlns:xlink="http://www.w3.org/1999/xlink" x="0px"
	 y="0px" viewBox="0 0 512 512" style="enable-background:new 0 0 512 512;" xml:space="preserve">
<style type="text/css">
	.st0{display:none;}
	.st1{font-family:'Arial-Black';}
	.st2{font-size:556.3365px;}
	.st3{display:inline;}
</style>
<text transform="matrix(1 0 0 1 30.2354 447.9053)" class="st0 st1 st2">E</text>

<g>
	<path d="M159.8,241.1c-17.4-9.2-30.1-19.6-38-31c-10.9-15.6-16.3-33.5-16.3-53.8c0-33.3,15.7-60.6,47-81.8
		c24.4-16.3,56.8-24.4,97-24.4c53.2,0,92.6,10.1,118,30.4c25.4,20.3,38.2,45.8,38.2,76.6c0,17.9-5.1,34.7-15.2,50.3
		c-7.6,11.6-19.6,22.8-35.9,33.7c21.5,10.3,37.6,24,48.2,41c10.6,17,15.9,35.9,15.9,56.5c0,19.9-4.6,38.5-13.7,55.8
		c-9.1,17.3-20.4,30.7-33.7,40.1c-13.3,9.4-29.9,16.3-49.7,20.8c-19.8,4.4-41,6.7-63.4,6.7c-42.2,0-74.4-5-96.7-14.9
		c-22.3-10-39.2-24.6-50.8-44c-11.6-19.4-17.4-41-17.4-64.9c0-23.4,5.4-43.1,16.3-59.4C120.4,262.5,137.2,249.9,159.8,241.1z
		 M203.6,334.2c0,17.6,5.3,31.9,16,43.1c10.7,11.1,22.9,16.7,36.7,16.7c13.2,0,25.1-5.7,35.6-17c10.5-11.3,15.8-25.7,15.8-43.1
		c0-17.6-5.3-32-15.9-43.2c-10.6-11.2-22.9-16.8-36.8-16.8c-13.8,0-25.8,5.4-36,16.3C208.7,301.1,203.6,315.8,203.6,334.2z
		 M209.5,162.8c0,13.8,4.3,24.9,12.9,33.3c8.6,8.4,20.1,12.6,34.4,12.6c12.7,0,23.1-4.2,31.2-12.5c8.1-8.3,12.2-19.1,12.2-32.3
		c0-13.8-4.3-24.9-12.8-33.5c-8.5-8.6-19.4-12.9-32.6-12.9c-13.4,0-24.3,4.2-32.7,12.6C213.8,138.5,209.5,149.4,209.5,162.8z"/>
</g>
<g class="st0">
	<path class="st3" d="M100.3,365.7l110-13.9c2.9,15.4,7.8,26.3,14.7,32.6c6.9,6.3,15.3,9.5,25.3,9.5c17.7,0,31.6-9,41.6-26.9
		c7.2-13.2,12.7-41.2,16.3-83.9c-13.2,13.6-26.8,23.5-40.7,29.9c-13.9,6.3-30.1,9.5-48.4,9.5c-35.7,0-65.8-12.7-90.3-38
		c-24.5-25.4-36.8-57.4-36.8-96.2c0-26.4,6.2-50.5,18.7-72.3c12.5-21.7,29.7-38.2,51.6-49.3c21.9-11.1,49.4-16.7,82.6-16.7
		c39.8,0,71.8,6.8,95.9,20.5c24.1,13.7,43.3,35.4,57.7,65.2c14.4,29.8,21.6,69.1,21.6,118c0,71.9-15.1,124.6-45.4,158
		c-30.2,33.4-72.2,50.1-125.8,50.1c-31.7,0-56.7-3.7-75-11c-18.3-7.3-33.5-18.1-45.6-32.2C116.2,404.6,106.9,386.9,100.3,365.7z
		 M304.1,188.1c0-21.5-5.4-38.4-16.3-50.7c-10.9-12.2-24.1-18.3-39.7-18.3c-14.7,0-26.9,5.5-36.5,16.6c-9.7,11-14.5,27.6-14.5,49.7
		c0,22.3,5,39.3,15.1,51.1c10.1,11.8,22.6,17.7,37.6,17.7c15.6,0,28.5-5.7,38.8-17.1C298.9,225.6,304.1,209.3,304.1,188.1z"/>
</g>
</svg>
