<svg width="89" height="113" viewBox="0 0 89 113" fill="none" xmlns="http://www.w3.org/2000/svg">
<path d="M44.4427 56.752C44.4667 56.748 44.4574 56.7493 44.4667 56.7467C44.4374 56.748 44.4187 56.748 44.4107 56.7493C44.408 56.7507 44.4053 56.7507 44.4027 56.752C44.408 56.7533 44.4267 56.7547 44.4427 56.752Z M5.88669 97.5573L16.592 101.756V59.4187L5.88669 55.2213V97.5573Z M57.664 29.6733L57.6254 29.6587C57.6214 29.6707 57.62 29.684 57.6174 29.696L57.664 29.6733Z M21.1254 103.532L24.1494 104.719V62.3827L21.1254 61.1973V103.532Z M22.1573 39.4667C20.784 38.2173 19.388 37.0533 17.9093 35.8187C17.668 35.6173 17.4187 35.4053 17.1733 35.2013L16.7907 35.012L0.534668 41.0307V51.016L16.592 57.4147V49.5747L28.104 43.9973C26.136 42.756 24.1693 41.2613 22.1573 39.4667Z M69.1093 102.989L82.9627 97.5573V55.2213L69.1093 60.6547V102.989Z M72.0187 34.9907L71.5147 35.2387C71.3387 35.3853 71.1574 35.5373 70.9827 35.6827C69.44 36.9613 67.9813 38.1693 66.5733 39.4493C64.5613 41.244 62.6027 42.7347 60.656 43.968L69.1093 48.064V58.6773L88.3333 51.016V41.0307L72.0187 34.9907Z M52.5493 47.48L61.5534 51.8413V61.6907L64.5747 60.484V51.0853L55.516 46.6147C54.64 46.948 53.6413 47.264 52.5493 47.48Z M61.5533 105.952L64.5747 104.768V62.432L61.5533 63.6173V105.952Z M28.6827 64.1613V106.496L44.424 112.669L57.0173 107.731V65.3947L44.424 70.3347L28.6827 64.1613Z M33.2227 46.6267L21.1254 52.596V59.224L24.1494 60.4267V53.3533L36.24 47.4947C35.12 47.28 34.1013 46.96 33.2227 46.6267Z M28.6827 56.3733V62.2333L44.4347 68.512L57.0173 63.4973V54.864L44.3827 48.6267L28.6827 56.3733Z M78.788 18.684C78.4027 17.772 77.8974 17.0933 77.2294 16.484L76.96 16.2507L76.4934 15.8893C76.1387 15.6173 75.892 15.4933 75.5934 15.3067C75.02 14.992 74.4414 14.724 73.8694 14.524C72.7227 14.1107 71.5907 13.8747 70.4774 13.7387C68.2507 13.4653 66.0867 13.664 64 14.06C61.1253 14.6413 58.404 15.776 55.9707 17.332C55.9 15.44 55.704 13.5133 55.2774 11.5573C54.7547 9.40666 54 7.18133 52.4067 5.08666C51.6027 4.04666 50.608 3.02266 49.2454 2.20399C47.9107 1.37733 46.156 0.82666 44.3627 0.831993L44.0587 0.842659L43.9694 0.85066L43.7894 0.86266C43.732 0.863993 43.4267 0.89466 43.152 0.93466C42.5654 1.01066 42.1734 1.12399 41.7547 1.23866C40.9427 1.49599 40.164 1.83333 39.5014 2.24266C38.1387 3.05066 37.144 4.06666 36.3067 5.07599C34.6654 7.12799 33.7374 9.27999 33.0654 11.4107C32.524 13.2347 32.192 15.0547 32.0107 16.86C29.8227 15.564 27.416 14.608 24.8867 14.0813C22.8067 13.6707 20.6427 13.4653 18.4174 13.732C17.304 13.8653 16.1734 14.1013 15.0294 14.5133C14.4574 14.7133 13.88 14.9813 13.3094 15.292C13.008 15.4827 12.7733 15.596 12.42 15.8667L11.94 16.2347L11.6707 16.468C11.0307 17.0467 10.5107 17.7213 10.1227 18.612C9.74003 19.484 9.60535 20.4733 9.66401 21.3227C9.80001 23.0453 10.4573 24.2293 11.0493 25.2413C12.312 27.228 13.7614 28.6307 15.212 29.9933C18.144 32.6467 21.1454 34.9427 23.932 37.476C26.84 40.0707 30.064 42.4227 33.76 43.9827C35.6054 44.7133 37.64 45.3187 39.7587 44.968C40.808 44.784 41.8107 44.3653 42.656 43.6707C42.7374 43.6067 42.8147 43.528 42.8947 43.4573C43.3694 43.5627 43.8587 43.62 44.3627 43.6C44.84 43.588 45.296 43.5053 45.7347 43.3853C45.8254 43.4667 45.912 43.5573 46.004 43.6307C46.8507 44.3373 47.848 44.7667 48.9 44.9587C51.0254 45.3293 53.0694 44.7253 54.92 43.9947C58.6307 42.4373 61.864 40.0773 64.7787 37.476C67.5707 34.9387 70.5854 32.6493 73.5374 30.012C74.9974 28.6573 76.4587 27.268 77.7454 25.3027C78.3494 24.3 79.0214 23.1373 79.1947 21.4213C79.2734 20.576 79.1587 19.576 78.788 18.684ZM51.348 35.04C50.7933 36.8027 50.0067 38.5227 48.8307 39.9187C48.108 40.7907 47.1974 41.52 46.2027 41.924C45.8894 41.5213 45.6493 41.0787 45.4773 40.5827C45.224 39.816 45.1307 38.9893 45.1534 38.148C45.1547 38.1 45.1534 38.052 45.1534 38.0027C45.192 37.14 45.3533 36.2653 45.6093 35.424C46.132 33.704 46.9 32.0307 47.9053 30.504C49.16 28.5747 50.684 26.78 52.3307 25.1787C52.524 28.472 52.2653 31.8307 51.348 35.04ZM44.504 9.49466C44.4894 9.49466 44.4627 9.49599 44.44 9.49599L44.4854 9.49466H44.504ZM40.1547 14.12C40.864 12.6827 41.712 11.3653 42.584 10.5067C43.0067 10.08 43.44 9.76933 43.7507 9.63199C43.892 9.55066 44.004 9.53199 44.0987 9.50799C44.0987 9.50799 44.1013 9.50666 44.1067 9.50533C44.1147 9.50399 44.1227 9.50266 44.1307 9.49999C44.1694 9.49866 44.196 9.49466 44.1627 9.50266C44.1787 9.50266 44.1907 9.50266 44.216 9.50266L44.364 9.49866C44.492 9.51733 44.6334 9.52666 44.952 9.66933C45.2614 9.79733 45.6934 10.1 46.152 10.4973C47.0707 11.312 48.0894 12.556 48.9507 13.9747C50.1774 15.976 51.1547 18.308 51.7334 20.7893C50.684 21.888 49.7747 23.048 48.896 24.244C47.7307 25.8573 46.6947 27.5627 45.8374 29.36C45.2694 30.5707 44.756 31.8133 44.356 33.1C43.9654 31.8453 43.4667 30.632 42.916 29.448C41.5547 26.6333 39.8334 24.0267 37.7254 21.648C38.2427 18.952 39.0494 16.3707 40.1547 14.12ZM42.6107 41.8013C41.6614 41.336 40.8307 40.5667 40.172 39.676C39.116 38.264 38.44 36.5547 37.932 34.828C37.156 31.9413 36.964 28.9147 37.164 25.9493C38.528 27.3707 39.7867 28.9227 40.856 30.5813C41.848 32.1093 42.6133 33.776 43.124 35.4947C43.3667 36.316 43.5173 37.1707 43.5547 38.0133C43.5547 38.068 43.56 38.124 43.5614 38.18C43.5827 39.0307 43.4827 39.864 43.2147 40.6347C43.064 41.0587 42.864 41.4453 42.6107 41.8013ZM39.552 43.6507C37.872 43.8747 36.112 43.2333 34.5747 42.3253C31.472 40.444 28.924 37.684 26.4454 34.96C23.8694 32.1147 21.244 29.2987 18.9227 26.4653C17.776 25.068 16.6587 23.6293 15.968 22.3507C15.6067 21.7333 15.456 21.136 15.4534 20.9533C15.4494 20.8573 15.452 20.88 15.448 20.88C15.428 20.8947 15.4974 20.7947 15.5574 20.736C16.2427 19.984 17.6454 19.44 19.176 19.1787C20.7134 18.928 22.3893 18.8787 24.052 19.0827C26.752 19.4067 29.4587 20.2427 31.8814 21.6307C31.9147 22.4413 31.968 23.248 32.0507 24.0493C32.504 28.148 33.5307 32.1533 35.2894 35.8373C36.1627 37.6787 37.2614 39.4387 38.7174 40.936C39.4694 41.716 40.3867 42.436 41.4134 42.9347C40.8627 43.3027 40.224 43.5787 39.552 43.6507ZM72.8667 22.3467C72.1494 23.6293 71.0147 25.0627 69.852 26.46C67.5 29.2893 64.852 32.104 62.2654 34.96C59.78 37.6907 57.2267 40.4613 54.1107 42.34C52.568 43.248 50.8 43.8853 49.1174 43.6453C48.3934 43.5587 47.7094 43.2333 47.1347 42.8173C48.1414 42.272 49.0147 41.5053 49.7267 40.6947C51.0654 39.1787 52.052 37.4293 52.8787 35.6253C54.5574 32.0107 55.4667 28.0587 55.808 24.0493L55.8067 24.0267C55.8467 23.4213 55.8827 22.8107 55.9147 22.1973C58.5974 20.4453 61.7094 19.4333 64.808 19.072C66.4787 18.8773 68.1627 18.9347 69.7094 19.1867C71.2534 19.452 72.6494 19.992 73.3454 20.7547C73.372 20.7813 73.4174 20.8467 73.4187 20.8547C73.4187 20.86 73.4187 20.8773 73.4147 20.928C73.4094 21.1187 73.24 21.7267 72.8667 22.3467Z" fill="white"/>
</svg>
