<svg xmlns="http://www.w3.org/2000/svg" width="101" height="101" viewBox="0 0 101 101" fill="none">
  <path d="M50.2334 49.9867L32.2614 42.824V36.1387L50.1733 27.3014L64.5867 34.416V44.264L50.2334 49.9867ZM53.0067 20.1347L50.1733 18.736L47.3707 20.1187L50.2067 21.492L53.0067 20.1347ZM27.0893 91.2947V42.9933L23.64 41.6414V89.9413L27.0893 91.2947ZM44.2494 24.3773L41.4933 23.0187L23.64 31.828V39.3894L27.0893 40.7627V32.692L44.2494 24.3773ZM56.1294 24.3613L69.7614 30.968V42.204L73.2094 40.828V30.104L58.8507 23.0187L56.1294 24.3613ZM73.2094 91.3507V43.0507L69.7614 44.4027V92.7027L73.2094 91.3507ZM28.6107 8.09469L25.1787 9.36534L41.444 17.2493L44.3267 15.852L28.6107 8.09469ZM71.7854 8.07068L56.0507 15.836L58.9627 17.2493L75.2533 9.35468L71.7854 8.07068ZM78.384 89.3213L94.1893 83.124V34.824L78.384 41.0227V89.3213ZM81.7013 11.7427L64.8067 20.08L78.384 26.6573V38.7667L100.316 30.0267V18.6347L81.7013 11.7427ZM64.5867 46.4307L50.2227 52.0667L32.2614 45.024V93.3227L50.2227 100.365L64.5867 94.7307V46.4307ZM50.2067 13.004L65.324 5.67735L50.2334 0.0880127L35.108 5.69067L50.2067 13.004ZM18.468 39.612L6.25334 34.824V83.124L18.468 87.9147V39.612ZM18.468 28.3813L35.5693 20.0933L18.6947 11.7667L0.149353 18.6347V30.0267L18.468 37.3254V28.3813Z" fill="white"/>
</svg>