<svg width="87" height="99" viewBox="0 0 87 99" fill="none" xmlns="http://www.w3.org/2000/svg">
<path d="M0.0866699 44.6813V60.136C0.0866699 61.3653 1.08533 62.364 2.31333 62.364H36.8947V38.9373C25.168 39.176 13.6307 40.2227 2.28267 42.084C1.06934 42.2827 0.0866699 43.4507 0.0866699 44.6813Z M6.52133 66.7187V96.916C6.52133 98.144 7.51733 99.1427 8.748 99.1427H36.8946V64.492H8.748C7.51733 64.492 6.52133 65.4893 6.52133 66.7187Z M71.7093 64.492H43.5613V99.1427H71.7093C72.9387 99.1427 73.936 98.144 73.936 96.916V66.7187C73.936 65.4893 72.9387 64.492 71.7093 64.492Z M78.1693 42.108C66.4573 40.3187 54.9226 39.2853 43.5613 38.9853V62.364H78.1426C79.3733 62.364 80.3693 61.3653 80.3693 60.136V44.6813C80.3693 43.4507 79.3853 42.2947 78.1693 42.108Z M42.5667 0.573334C42.5373 0.573334 42.5187 0.573334 42.5107 0.573334C42.5107 0.573334 42.5054 0.574666 42.5027 0.575999C42.508 0.577332 42.5267 0.578667 42.5427 0.578667C42.5667 0.574667 42.5573 0.574667 42.5667 0.573334Z M62.8773 15.4667C66.58 29.5293 55.2494 45.02 46.22 43.872C46.4227 43.688 46.6187 42.164 46.804 41.972C48.204 40.5147 49.264 38.8093 50.168 37.04C51.9974 33.5013 53.0734 29.5907 53.5854 25.5987L53.584 25.5773C54.02 21.6293 54.3427 17.456 53.5854 13.096C53.1534 10.9253 52.4934 8.67067 50.9907 6.51067C50.232 5.436 49.2814 4.37067 47.9547 3.496C46.656 2.61334 44.9267 1.988 43.1347 1.916H42.8307L42.7414 1.92L42.56 1.924C42.5027 1.92267 42.1974 1.94134 41.92 1.96934C41.3307 2.02 40.9347 2.116 40.512 2.21334C39.6907 2.436 38.8973 2.74 38.2173 3.12133C36.8213 3.86933 35.7867 4.844 34.9053 5.816C33.18 7.79733 32.16 9.908 31.3987 12.008C29.9507 16.228 29.5947 20.472 29.8493 24.5907C30.0213 27.1227 30.4414 29.616 31.088 32.0413C30.2054 30.6053 29.0693 29.2747 27.7387 28.1533C27.0507 27.5773 26.3294 27.06 25.524 26.5707L24.9973 26.2613L24.8667 26.1853L24.6813 26.0907L24.38 25.9387C23.984 25.7293 23.5707 25.5573 23.16 25.372C19.8387 23.98 16.108 23.5227 12.4667 24.068C10.6467 24.3627 8.82002 24.844 7.07735 25.7453C6.20535 26.1933 5.34669 26.7347 4.52669 27.4307C4.11469 27.772 3.71736 28.1773 3.33736 28.6133C3.14136 28.8693 2.98535 29.0333 2.76935 29.3747L2.47335 29.852L2.32668 30.12C1.97068 30.8067 1.73602 31.5613 1.68669 32.4573C1.63735 33.3387 1.84134 34.244 2.16534 34.9573C2.84001 36.4 3.77202 37.1747 4.57735 37.8253C6.24135 39.068 7.84136 39.7387 9.42936 40.3787C12.608 41.5853 15.7054 42.464 18.7014 43.6187C21.9627 44.864 25.352 45.332 28.7053 45.3893C30.3853 45.4133 32.056 45.356 33.7573 45.048C34.1867 44.9627 34.6133 44.86 35.0493 44.6853C35.4733 44.496 35.964 44.3267 36.3627 43.7453C36.5574 43.4573 36.64 43.0307 36.5667 42.6947C36.5493 42.6053 36.516 42.5347 36.488 42.4573C37.7774 43.6733 39.4413 44.6453 41.32 44.6467C41.8027 44.6547 42.2627 44.592 42.7107 44.488C65.7013 50.3827 86.704 11.856 86.704 11.856C86.704 11.856 77.12 18.7387 62.8773 15.4667ZM35.248 43.0413C35.1947 43.1493 34.908 43.352 34.5867 43.448C34.264 43.56 33.8987 43.6307 33.5294 43.6853C32.0267 43.8867 30.4294 43.7307 28.8907 43.4573C25.804 42.8653 22.82 41.772 20.16 40.3773C17.256 38.856 14.324 37.356 11.656 35.7653C10.3387 34.9853 9.03601 34.1627 8.16001 33.3867C7.82268 33.1147 7.59869 32.8173 7.50669 32.672C7.78269 32.004 8.64136 31.2 9.70536 30.5747C10.8107 29.9293 12.0947 29.3813 13.4494 29.04C16.1587 28.344 19.116 28.2613 21.9293 28.9693C22.2773 29.0693 22.6333 29.1547 22.9747 29.276L23.236 29.3627C23.2614 29.368 23.36 29.408 23.328 29.388L23.472 29.4413L24.04 29.6573C24.6734 29.9107 25.344 30.228 25.9747 30.5947C27.2387 31.328 28.3467 32.3187 29.3187 33.4773C30.284 34.6467 31.056 36.0107 31.808 37.4293C32.5547 38.852 33.204 40.3933 34.3267 41.7733C34.5867 42.1067 35.0067 42.468 35.1227 42.6507C35.2974 42.9173 35.2907 42.984 35.248 43.0413ZM37.3 40.5493C36.3054 39.0933 35.7013 37.3573 35.268 35.6107C34.4747 32.0667 34.5414 28.3547 35.1334 24.816C35.724 21.284 36.8133 17.864 38.3667 15.016C39.1373 13.6093 40.04 12.3293 40.9467 11.508C41.388 11.0987 41.8334 10.8093 42.1494 10.684C42.296 10.6093 42.4094 10.5947 42.5027 10.576C42.5027 10.576 42.5067 10.5747 42.5107 10.5733C42.5187 10.572 42.528 10.5707 42.5347 10.568C42.5734 10.5693 42.6013 10.5667 42.5667 10.5733C42.584 10.5733 42.5947 10.5733 42.6214 10.5747L42.7707 10.5773C42.8974 10.6013 43.0373 10.6173 43.3493 10.7733C43.652 10.9147 44.0707 11.2333 44.5134 11.6493C45.396 12.5027 46.3614 13.7893 47.1614 15.2427C48.7947 18.1813 49.908 21.7653 50.0307 25.472V25.448C50.204 29.1093 49.836 32.8613 48.6627 36.3907C48.0334 38.1293 47.1747 39.8133 45.9413 41.1587C44.7307 42.4987 43.06 43.4573 41.376 43.3147C39.6974 43.1667 38.2787 41.996 37.3 40.5493Z" fill="white"/>
</svg>
