<svg width="88" height="105" viewBox="0 0 88 105" fill="none" xmlns="http://www.w3.org/2000/svg">
<path d="M68.9293 43.6067C65.5293 46.7 61.7653 49.0187 57.7213 50.5213C55.2187 51.4373 53.084 51.9053 50.9867 52.0013C50.7653 52.012 50.5334 52.0187 50.3 52.0187C49.24 52.0187 48.24 51.8827 47.3054 51.644V58.0907C66.0787 57.5813 81.6307 53.136 86.9747 47.1507C86.464 43.3627 81.8333 39.9467 74.596 37.4133C73.0267 39.524 71.1533 41.5707 68.9293 43.6067Z M53.8306 44.8067C54.1853 44.6467 54.5493 44.4693 54.924 44.2707C57.6173 42.788 60.2453 40.6267 62.9173 37.6813V37.68C63.7133 36.7973 64.424 35.8587 65.0906 34.9C63.016 34.4933 60.8386 34.144 58.568 33.8587C58.0213 36.096 57.3027 38.2147 56.404 40.1933C55.6147 41.9413 54.7626 43.4693 53.8306 44.8067Z M0.359985 53.872C0.359985 61.6853 17.8413 68.088 40.084 68.72V59.2947C21.2453 58.7827 5.65332 54.308 0.359985 48.2907V53.872Z M24.472 37.68C27.1453 40.628 29.7707 42.788 32.4973 44.2893C33.1307 44.624 33.7373 44.9013 34.32 45.1253C33.2893 43.684 32.3827 42.0427 31.5814 40.164C30.7134 38.1467 30.0134 36.0133 29.4787 33.78C26.972 34.0787 24.5707 34.4547 22.2973 34.9C22.9613 35.8587 23.672 36.7973 24.472 37.68Z M3.97202 90.976C3.97202 98.1027 19.8387 103.951 40.084 104.579V71.128C23.872 70.668 10.1973 67.1413 3.97202 62.2373V90.976Z M47.3054 104.579C67.5494 103.951 83.4173 98.1027 83.4173 90.976V62.2373C77.188 67.1413 63.5134 70.668 47.3054 71.128V104.579Z M47.3054 59.2947V68.72C69.5467 68.088 87.0267 61.6853 87.0267 53.872V48.2907C81.7347 54.308 66.1427 58.7827 47.3054 59.2947Z M37.0987 52.0187C36.8627 52.0187 36.6253 52.0133 36.3907 52.0013C34.3053 51.9053 32.1667 51.4373 29.6773 50.5267C25.6333 49.024 21.8747 46.7107 18.5 43.6467C16.248 41.584 14.3627 39.524 12.7893 37.4147C5.55201 39.9467 0.921321 43.3627 0.411987 47.1507C5.75732 53.136 21.308 57.5813 40.084 58.0907V51.6507C39.1533 51.888 38.156 52.0187 37.0987 52.0187Z M44.0387 50.968L43.8934 50.9693C43.432 50.9693 42.9613 50.9227 42.4893 50.8453V58.1253C42.8933 58.1293 43.2893 58.1427 43.6933 58.1427C44.0987 58.1427 44.4947 58.1293 44.896 58.1253V50.9027C44.6093 50.9333 44.3227 50.9667 44.0387 50.968Z M42.4893 59.3293V68.7653C42.8907 68.768 43.2893 68.776 43.6933 68.776C44.096 68.776 44.4973 68.768 44.896 68.7653V59.3293C44.4947 59.3333 44.0987 59.3467 43.6933 59.3467C43.2893 59.3467 42.8933 59.3333 42.4893 59.3293Z M42.4893 71.168V104.627C42.8907 104.631 43.2893 104.637 43.6933 104.637C44.096 104.637 44.4973 104.631 44.896 104.627V71.168C44.4947 71.1707 44.0987 71.1827 43.6933 71.1827C43.2893 71.1827 42.8907 71.1707 42.4893 71.168Z M76.9427 21.6973C76.588 20.3427 75.8493 18.9413 74.7506 17.8467L74.364 17.5067C74.308 17.452 74.112 17.2973 73.9267 17.1613C73.5413 16.8653 73.2267 16.692 72.9013 16.5067C72.24 16.168 71.552 15.8933 70.8773 15.7387C69.5187 15.3933 68.224 15.384 67.0107 15.4867C64.5813 15.7307 62.4787 16.5507 60.5293 17.4947C59.3747 18.092 58.3 18.7733 57.2626 19.4933C57.2266 19.0733 57.1933 18.6533 57.1453 18.2347C56.8907 15.8347 56.4507 13.4253 55.6973 11.0413C54.9173 8.66933 53.852 6.29867 52.088 4.148C51.1933 3.09067 50.1306 2.06267 48.768 1.27467C47.42 0.492 45.7427 -0.036 44.0307 -0.024C42.32 -0.00533338 40.6613 0.550665 39.3387 1.35067C38 2.152 36.9427 3.16533 36.06 4.22133C34.308 6.35867 33.248 8.71467 32.4213 11.0627C31.4613 14 30.948 16.98 30.7506 19.952C29.524 19.0587 28.248 18.2133 26.86 17.4947C24.9093 16.5507 22.808 15.7307 20.3747 15.4867C19.164 15.384 17.8693 15.3933 16.5107 15.7387C15.836 15.8933 15.148 16.168 14.4866 16.5067C14.1586 16.692 13.844 16.8653 13.4613 17.1613C13.2733 17.2973 13.0787 17.452 13.0213 17.5067L12.6387 17.8467C11.5387 18.9413 10.8 20.3427 10.4427 21.6973C10.0733 23.064 10.0706 24.3733 10.164 25.5947C10.412 28.0427 11.2373 30.1573 12.2293 32.0933C14.2867 35.92 17.088 39.0907 20.084 41.832L20.12 41.864C23.1533 44.6173 26.672 46.8413 30.5053 48.2653C32.424 48.9667 34.4267 49.5013 36.5107 49.596C38.2973 49.6853 40.3093 49.3933 41.8693 48.236C42.56 48.452 43.2813 48.5787 44.0307 48.56C44.596 48.5587 45.1413 48.4707 45.6693 48.336C47.2053 49.404 49.1426 49.6813 50.8773 49.596C52.9613 49.5013 54.964 48.9667 56.8826 48.2653C60.724 46.8373 64.2507 44.6093 67.2867 41.848L67.3053 41.832C70.2973 39.0907 73.0987 35.92 75.156 32.0933C76.1507 30.1573 76.9746 28.0427 77.2213 25.5947C77.3146 24.3733 77.3147 23.064 76.9427 21.6973ZM45.8547 46.7413C44.8467 45.6813 44.4787 44.1733 44.5027 42.644C44.508 42.5613 44.5107 42.4787 44.5107 42.3947C44.5213 42.208 44.5306 42.02 44.5493 41.832C44.7426 40.016 45.424 38.2427 46.2533 36.5707C48 33.2453 50.516 30.344 53.3173 27.8773C53.464 27.7493 53.6253 27.636 53.7733 27.5107C53.792 31.2 53.364 34.9187 52.3027 38.4693C51.6387 40.5613 50.708 42.6013 49.3387 44.2827C48.4293 45.4133 47.2573 46.3507 45.964 46.8373C45.9293 46.804 45.888 46.776 45.8547 46.7413ZM37.1907 12.8853C38.0053 10.984 39.0653 9.21733 40.2973 7.884C41.524 6.52133 42.9147 5.8 44.0307 5.88133C45.1453 5.87067 46.4587 6.61733 47.6827 7.95733C48.9013 9.276 49.9587 11.0293 50.8173 12.9053C52.196 15.8653 53.044 19.1653 53.464 22.564C52.516 23.4453 51.6013 24.3547 50.748 25.308C48.0267 28.3853 45.7733 31.868 44.2787 35.688C44.06 36.236 43.8693 36.7973 43.6933 37.3627C43.5186 36.7973 43.3253 36.236 43.1093 35.688C41.612 31.868 39.3627 28.3853 36.6387 25.308C35.9747 24.5653 35.2813 23.8413 34.56 23.1413C34.9613 19.5507 35.8053 16.0373 37.1907 12.8853ZM38.808 44.2107C37.4506 42.5427 36.5267 40.516 35.8147 38.4467C34.74 35.1093 34.3027 31.5867 34.284 28.0827C36.9973 30.5053 39.432 33.3333 41.136 36.5707C41.9613 38.2427 42.6453 40.016 42.836 41.832C42.8573 42.02 42.8667 42.208 42.8747 42.3947C42.8773 42.4773 42.8773 42.5613 42.8826 42.644C42.9066 44.1 42.5653 45.5307 41.664 46.58C40.5786 46.0373 39.604 45.1893 38.808 44.2107ZM36.6147 48.1573C34.7813 47.9653 32.9947 47.2747 31.336 46.3987C28.0413 44.5867 25.1906 42.0573 22.6933 39.3027L22.6853 39.2947C20.1507 36.4933 18.188 33.28 17 29.96C16.4147 28.3213 16.016 26.6453 15.9746 25.1747C15.9213 23.6827 16.2533 22.5733 16.812 22.0227C17.3147 21.4107 18.4613 21.0053 19.9746 21.072C21.464 21.116 23.148 21.52 24.776 22.1547C26.8173 22.9307 28.8093 24.0267 30.708 25.3133C30.708 25.3427 30.708 25.3733 30.7106 25.404C30.9666 30.148 31.9173 34.8573 33.7947 39.22C34.724 41.4 35.9213 43.4973 37.5467 45.3C38.3227 46.1747 39.2733 46.9907 40.352 47.588C39.2533 48.1413 37.912 48.3027 36.6147 48.1573ZM70.3853 29.96C69.1973 33.28 67.2373 36.4933 64.7 39.2947L64.7187 39.2787C62.2133 42.0427 59.3546 44.5813 56.0493 46.3987C54.3933 47.2747 52.6067 47.9653 50.7707 48.1573C49.576 48.2907 48.3413 48.164 47.2947 47.7107C48.5053 47.0867 49.568 46.1907 50.432 45.2267C52.044 43.4387 53.2373 41.356 54.2106 39.1987C56.1746 34.872 57.112 30.1467 57.352 25.404V25.392C57.3627 25.2107 57.3627 25.0267 57.3693 24.844C59.06 23.76 60.8173 22.836 62.612 22.1547C64.2373 21.52 65.924 21.116 67.4147 21.072C68.9267 21.0053 70.0707 21.4107 70.576 22.0227C71.1333 22.5733 71.4667 23.6827 71.412 25.1747C71.3693 26.6453 70.972 28.3213 70.3853 29.96Z" fill="white"/>
</svg>
