<svg width="97" height="103" viewBox="0 0 97 103" fill="none" xmlns="http://www.w3.org/2000/svg">
<path d="M46.688 59.3373H50.812V35.1533C49.436 35.1387 48.06 35.1307 46.688 35.136V59.3373Z M47.6853 29.4893C45.2 14.3893 21.1067 -9.22934 5.62534 3.96799C-10.34 17.58 16.2027 31.42 45.0347 32.288C46.6107 32.336 47.9413 31.044 47.6853 29.4893ZM18.928 21.784C14.248 21.784 10.456 17.992 10.456 13.3133C10.456 8.63332 14.248 4.84133 18.928 4.84133C23.6067 4.84133 27.3987 8.63332 27.3987 13.3133C27.3987 17.992 23.6067 21.784 18.928 21.784ZM29.7267 28.036C27.4067 28.036 25.5267 26.156 25.5267 23.8347C25.5267 21.5147 27.4067 19.6347 29.7267 19.6347C32.048 19.6347 33.928 21.5147 33.928 23.8347C33.928 26.156 32.048 28.036 29.7267 28.036ZM39.1533 24.4467C37.4453 24.4467 36.0587 23.06 36.0587 21.3533C36.0587 19.644 37.4453 18.2587 39.1533 18.2587C40.8627 18.2587 42.2467 19.644 42.2467 21.3533C42.2467 23.06 40.8627 24.4467 39.1533 24.4467Z M4.60401 41.1027V57.04C4.60401 58.3093 5.63334 59.3373 6.90134 59.3373H42.5627V35.18C30.4693 35.4253 18.5707 36.5053 6.86801 38.4227C5.61601 38.6293 4.60401 39.8347 4.60401 41.1027Z M11.24 63.8293V100.469C11.24 101.737 12.2667 102.765 13.536 102.765H42.5627V61.5333H13.536C12.2667 61.5333 11.24 62.5613 11.24 63.8293Z M46.688 102.765H50.812V61.5333H46.688V102.765Z M91.8747 3.96799C76.3947 -9.22934 52.3 14.3893 49.816 29.4893C49.56 31.044 50.8907 32.336 52.4667 32.288C81.2987 31.42 107.843 17.58 91.8747 3.96799ZM57.42 27.3493C56.0493 27.3493 54.9373 26.2373 54.9373 24.8653C54.9373 23.4947 56.0493 22.384 57.42 22.384C58.7907 22.384 59.9027 23.4947 59.9027 24.8653C59.9027 26.2373 58.7907 27.3493 57.42 27.3493ZM66.048 25.2987C63.5347 25.2987 61.4973 23.26 61.4973 20.748C61.4973 18.2333 63.5347 16.196 66.048 16.196C68.5613 16.196 70.6 18.2333 70.6 20.748C70.6 23.26 68.5613 25.2987 66.048 25.2987ZM79.712 21.784C75.0333 21.784 71.2413 17.992 71.2413 13.3133C71.2413 8.63332 75.0333 4.84133 79.712 4.84133C84.3907 4.84133 88.184 8.63332 88.184 13.3133C88.184 17.992 84.3907 21.784 79.712 21.784Z M83.9653 61.5333H54.9373V102.765H83.9653C85.2347 102.765 86.2613 101.737 86.2613 100.469V63.8293C86.2613 62.5613 85.2347 61.5333 83.9653 61.5333Z M90.628 38.4493C78.5493 36.604 66.656 35.5373 54.9373 35.2293V59.3373H90.6C91.868 59.3373 92.896 58.3093 92.896 57.04V41.1027C92.896 39.8347 91.8813 38.6413 90.628 38.4493Z" fill="white"/>
</svg>
