<svg width="88" height="108" viewBox="0 0 88 108" fill="none" xmlns="http://www.w3.org/2000/svg">
<path d="M39.8734 107.711H4.72001V52.5707H39.8734V107.711ZM47.8827 52.5707V107.711H83.0374V52.5707H47.8827ZM39.56 32.6387H0.269348V48.6173H39.56V32.6387ZM48.1973 32.6387V48.6173H87.4867V32.6387H48.1973ZM46.524 26.944C47.0134 27.572 47.6947 27.9893 48.464 28.1533C48.58 28.1733 48.696 28.1907 48.812 28.2027L48.992 28.2187L49.4094 28.2307L50.0987 28.2453L51.476 28.252C53.312 28.236 55.156 28.168 57.0027 28.0413C60.692 27.756 64.3974 27.2533 68.084 26.296C69.928 25.824 71.7587 25.2187 73.5814 24.4467C75.4067 23.6787 77.1934 22.6947 78.9307 21.3587C79.8014 20.688 80.64 19.8933 81.404 18.92C82.1653 17.948 82.8653 16.776 83.2867 15.3693C83.7227 13.976 83.792 12.3493 83.4627 10.8933C83.1454 9.42666 82.5067 8.16534 81.7827 7.12667C81.0414 6.07467 80.2707 5.24533 79.3854 4.46133C78.6054 3.768 77.5947 3.00267 76.5533 2.444C74.4493 1.27333 71.9707 0.676004 69.6254 0.714671C67.2694 0.737337 65.0814 1.332 63.132 2.164C61.1707 2.98533 59.444 4.108 57.8654 5.32534C54.7294 7.796 52.2 10.7533 50.132 13.968C49.0934 15.5733 48.192 17.2627 47.4467 19.0333C46.7 20.792 46.1027 22.6733 45.8894 24.6307L45.888 24.656C45.7667 25.46 46.036 26.328 46.524 26.944ZM48.5547 25.096C49.34 21.932 51.2707 19.0133 53.5 16.5027C55.7574 13.9987 58.4147 11.8547 61.2187 10.2933C64.0054 8.732 67.0107 7.78933 69.5 7.98533C70.7427 8.07066 71.84 8.416 72.86 9.01467C73.3854 9.332 73.824 9.644 74.3774 10.1493C74.8254 10.564 75.2934 11.048 75.5867 11.4667C75.8867 11.8947 76.0654 12.2667 76.1467 12.5547C76.2214 12.848 76.2374 13.0693 76.188 13.4013C76.1014 14.064 75.4107 15.096 74.4107 16.0707C72.364 18.0413 69.3747 19.7147 66.3 21.0733C63.1907 22.4307 59.864 23.5053 56.4547 24.2573C54.7494 24.644 53.02 24.948 51.2773 25.164L49.968 25.3173L48.916 25.4267C48.804 25.4347 48.652 25.3893 48.5827 25.312C48.5147 25.236 48.532 25.1747 48.552 25.1053L48.5547 25.096ZM43.5934 24.656L43.592 24.6307C43.3774 22.6733 42.7813 20.792 42.0333 19.0333C41.2907 17.2627 40.3867 15.5733 39.3507 13.968C37.28 10.7533 34.752 7.796 31.616 5.32534C30.0374 4.108 28.312 2.98533 26.3493 2.164C24.4013 1.332 22.212 0.737337 19.8574 0.714671C17.512 0.676004 15.032 1.27333 12.928 2.444C11.8867 3.00267 10.876 3.768 10.096 4.46133C9.20936 5.24533 8.44002 6.07467 7.69869 7.12667C6.97469 8.16534 6.33469 9.42666 6.02002 10.8933C5.68935 12.3493 5.75735 13.976 6.19468 15.3693C6.61602 16.776 7.31602 17.948 8.07735 18.92C8.84269 19.8933 9.68002 20.688 10.5494 21.3587C12.2894 22.6947 14.076 23.6787 15.9 24.4467C17.7214 25.2187 19.5533 25.824 21.3987 26.296C25.0853 27.2533 28.7907 27.756 32.4787 28.0413C34.3253 28.168 36.168 28.236 38.0054 28.252L39.384 28.2453L40.072 28.2307L40.488 28.2187L40.6694 28.2027C40.7867 28.1907 40.9027 28.1733 41.0174 28.1533C41.788 27.9893 42.4693 27.572 42.9587 26.944C43.4453 26.328 43.7147 25.46 43.5934 24.656ZM40.9294 25.1053C40.9494 25.1747 40.968 25.236 40.9 25.312C40.8294 25.3893 40.6787 25.4347 40.5667 25.4267L39.5147 25.3173L38.204 25.164C36.4614 24.948 34.732 24.644 33.028 24.2573C29.6173 23.5053 26.292 22.4307 23.1814 21.0733C20.1067 19.7147 17.1174 18.0413 15.072 16.0707C14.072 15.096 13.3787 14.064 13.2947 13.4013C13.244 13.0693 13.26 12.848 13.3347 12.5547C13.4174 12.2667 13.5934 11.8947 13.896 11.4667C14.188 11.048 14.656 10.564 15.104 10.1493C15.656 9.644 16.0947 9.332 16.6214 9.01467C17.6414 8.416 18.7387 8.07066 19.9813 7.98533C22.472 7.78933 25.476 8.732 28.2627 10.2933C31.068 11.8547 33.724 13.9987 35.9813 16.5027C38.2093 19.0133 40.1414 21.932 40.9267 25.096L40.9294 25.1053Z" fill="white"/>
</svg>
