<svg xmlns="http://www.w3.org/2000/svg" width="77" height="116" viewBox="0 0 77 116" fill="none">
  <path d="M8.10398 17.912C8.44664 18.2067 8.76398 18.4174 9.05332 18.5867C9.19198 18.6694 9.35332 18.76 9.52532 18.8413L9.81731 18.98L10.112 19.1134L10.364 19.252C10.7267 19.4547 11.148 19.7547 11.576 20.0853C12.4346 20.752 13.3106 21.5773 14.1853 22.428C15.9213 24.1467 17.632 26.0414 19.3053 27.9774C26.0066 35.7654 32.3893 44.1094 39.236 52.1387L39.2733 52.1814C39.5427 52.4947 39.996 52.6187 40.3973 52.4507C40.8973 52.244 41.1387 51.6693 40.9267 51.1693C38.9667 46.4213 38 41.3867 37.6333 36.3227C37.3106 31.2494 37.5133 26.14 38.1253 21.044C38.4 18.4907 38.7573 15.944 39.1613 13.372L39.7787 9.46402C39.8787 8.80002 39.976 8.12534 40.064 7.41601C40.1026 7.06134 40.1387 6.69468 40.1627 6.30001L40.1933 5.63335L40.196 5.38668C40.196 5.07735 40.1666 4.81068 40.1026 4.49068C39.9786 3.87201 39.6733 3.21335 39.2746 2.71868C38.8786 2.21868 38.4333 1.87601 38.0427 1.63735C37.2533 1.17735 36.6253 1.01868 36.084 0.897345C35 0.680011 34.1613 0.682685 33.3493 0.698685C31.744 0.748019 30.3173 0.969351 28.9146 1.23735C26.124 1.79202 23.4707 2.53735 20.86 3.44801C18.2493 4.36801 15.6906 5.39468 13.1333 6.74135C11.8546 7.43735 10.5867 8.16535 9.23732 9.25735C8.56532 9.84535 7.84398 10.42 7.07598 11.728C6.88665 12.0707 6.69864 12.4707 6.56398 12.9827C6.42398 13.4893 6.3453 14.132 6.42396 14.816C6.4973 15.4973 6.75731 16.1813 7.08131 16.7067C7.40264 17.2347 7.76531 17.616 8.10398 17.912ZM28.676 7.65869C29.8427 7.39602 31.02 7.18402 32.04 7.10669C32.0546 7.10402 32.0693 7.10402 32.0827 7.10402C32.1053 7.10269 32.0213 8.30268 31.8853 9.78401C31.76 11.1267 31.6373 12.464 31.6373 12.464C31.3853 15.1054 31.164 17.7814 31.0493 20.472C30.9467 23.8587 31.396 29.612 31.7547 33.472C31.9587 35.6707 31.2133 35.9334 30.02 34.0747C27.9773 30.9014 24.9266 26.2533 22.8906 23.5853C21.2506 21.4467 19.5333 19.344 17.5853 17.3187C17.152 16.864 16.3493 16.1307 15.5613 15.4387C14.4187 14.4307 15.0387 12.8067 17.0307 11.8507C18.6667 11.0667 20.4787 10.2347 21.5947 9.82135C23.9307 8.96268 26.3213 8.18935 28.676 7.65869ZM42.7333 38.248C42.4933 40.34 42.348 42.4373 42.276 44.5427C42.24 45.5933 42.2293 46.6494 42.2933 47.716C42.328 48.248 42.3733 48.7853 42.4826 49.336C42.5413 49.6133 42.6093 49.892 42.7507 50.2C42.8293 50.3533 42.9186 50.5334 43.1546 50.7054C43.2773 50.7814 43.4493 50.84 43.608 50.8254C43.6853 50.8294 43.772 50.7987 43.8506 50.776L43.9507 50.732L43.984 50.7187C45.916 49.8747 47.7387 48.8493 49.5307 47.7813C51.3293 46.7107 53.112 45.6027 54.8453 44.4107C58.3266 42.044 61.7026 39.464 64.8386 36.4374C66.3773 34.8987 67.8746 33.2613 69.2133 31.3933C70.5333 29.5187 71.7373 27.4267 72.4747 24.896C72.8307 23.6333 73.076 22.2507 73.0427 20.784C73.02 19.3227 72.7426 17.7707 72.1333 16.3533C71.5373 14.9307 70.6773 13.6534 69.6933 12.6134C69.2027 12.092 68.6867 11.6173 68.1587 11.1907C67.888 10.9707 67.652 10.7813 67.336 10.5613L66.9426 10.2853L66.784 10.1774L66.536 10.0187C65.3533 9.27868 63.9573 8.62401 62.3493 8.29868C60.7493 7.96935 58.96 8.04801 57.392 8.52268C55.8133 8.98401 54.4906 9.78802 53.396 10.6493C52.296 11.5133 51.4186 12.4894 50.6493 13.4574C47.6506 17.392 46.2266 21.576 45.028 25.7173C43.9146 29.8813 43.1987 34.0587 42.7333 38.248ZM43.6533 49.8027C43.6533 49.8027 43.6493 49.804 43.6493 49.808C43.6253 49.8187 43.6053 49.828 43.5947 49.8267C43.6107 49.8107 43.64 49.8094 43.6533 49.8027ZM54.432 18.8213C55.584 17.0133 56.828 15.3267 58.1293 13.9894C59.4187 12.6467 60.808 11.7547 61.7346 11.5933C62.2013 11.4853 62.576 11.5147 63.0466 11.616C63.5106 11.7187 64.0853 11.9667 64.7133 12.3733C66.172 13.284 67.18 14.336 67.6813 15.3654C68.1987 16.388 68.368 17.7107 68.0853 19.4053C67.808 21.076 67.1107 22.956 66.1867 24.812C65.2693 26.68 64.148 28.5574 62.8773 30.3747C60.38 34.0534 57.4067 37.5627 54.192 40.86C50.9907 44.1094 47.5426 47.208 43.748 49.7387C43.7386 49.7174 43.732 49.6987 43.7253 49.672C43.6786 49.4747 43.648 49.216 43.64 48.952C43.6227 48.4187 43.664 47.8547 43.7186 47.2947C43.8373 46.1707 44.036 45.0427 44.2613 43.916C44.724 41.668 45.364 39.4427 46.0493 37.2507C47.456 32.868 49.176 28.592 51.2026 24.5787C52.1906 22.568 53.268 20.6253 54.432 18.8213Z M4.59468 69.3133H73.0133C74.4853 69.3133 75.8133 68.1267 75.9787 66.664L76.8254 59.176C77.092 56.816 75.3827 54.9013 73.0067 54.9013H4.60135C2.22535 54.9013 0.516013 56.816 0.784013 59.176L1.62935 66.664C1.79468 68.1267 3.12268 69.3133 4.59468 69.3133Z M4.664 71.4747L8.91734 109.107C9.33067 112.765 12.6493 115.731 16.332 115.731H61.276C64.9586 115.731 68.2773 112.765 68.692 109.107L72.944 71.4747H4.664ZM36.9253 73.0533C38.4586 73.0533 39.7027 74.2973 39.7027 75.832C39.7027 77.364 38.4586 78.6094 36.9253 78.6094C35.392 78.6094 34.1467 77.364 34.1467 75.832C34.1467 74.2973 35.392 73.0533 36.9253 73.0533ZM34.536 84.0533C36.0093 84.0533 37.2027 85.2467 37.2027 86.72C37.2027 88.192 36.0093 89.3867 34.536 89.3867C33.064 89.3867 31.8693 88.192 31.8693 86.72C31.8693 85.2467 33.064 84.0533 34.536 84.0533ZM10.276 79.8867C10.276 77.5853 12.1413 75.72 14.4426 75.72C16.744 75.72 18.6093 77.5853 18.6093 79.8867C18.6093 82.1867 16.744 84.0533 14.4426 84.0533C12.1413 84.0533 10.276 82.1867 10.276 79.8867ZM21.6893 110.385C19.7333 110.385 18.1467 108.799 18.1467 106.843C18.1467 104.888 19.7333 103.301 21.6893 103.301C23.644 103.301 25.2307 104.888 25.2307 106.843C25.2307 108.799 23.644 110.385 21.6893 110.385ZM21.1507 97.856C18.204 97.856 15.8133 95.4654 15.8133 92.5187C15.8133 89.5707 18.204 87.1814 21.1507 87.1814C24.0987 87.1814 26.488 89.5707 26.488 92.5187C26.488 95.4654 24.0987 97.856 21.1507 97.856ZM36.924 110.045C34.1346 110.045 31.8693 107.78 31.8693 104.989C31.8693 102.199 34.1346 99.9347 36.924 99.9347C39.716 99.9347 41.98 102.199 41.98 104.989C41.98 107.78 39.716 110.045 36.924 110.045ZM38.444 89.3867C38.444 86.6427 40.672 84.4147 43.416 84.4147C46.16 84.4147 48.388 86.6427 48.388 89.3867C48.388 92.1307 46.16 94.3587 43.416 94.3587C40.672 94.3587 38.444 92.1307 38.444 89.3867ZM48.6373 107.657C47.164 107.657 45.9706 106.463 45.9706 104.991C45.9706 103.517 47.164 102.324 48.6373 102.324C50.1093 102.324 51.304 103.517 51.304 104.991C51.304 106.463 50.1093 107.657 48.6373 107.657ZM55.8733 78.608C55.8733 76.4613 57.616 74.72 59.7613 74.72C61.9093 74.72 63.6507 76.4613 63.6507 78.608C63.6507 80.7547 61.9093 82.4974 59.7613 82.4974C57.616 82.4974 55.8733 80.7547 55.8733 78.608ZM65.3693 88.816C65.3693 90.5907 63.932 92.0307 62.156 92.0307C60.3827 92.0307 58.9426 90.5907 58.9426 88.816C58.9426 87.0414 60.3827 85.6027 62.156 85.6027C63.932 85.6027 65.3693 87.0414 65.3693 88.816ZM61.6093 110.027C59.852 110.027 58.4253 108.601 58.4253 106.843C58.4253 105.085 59.852 103.66 61.6093 103.66C63.3666 103.66 64.7933 105.085 64.7933 106.843C64.7933 108.601 63.3666 110.027 61.6093 110.027Z" fill="white"/>
</svg>