<svg xmlns="http://www.w3.org/2000/svg" width="88" height="114" viewBox="0 0 88 114" fill="none">
  <path d="M33.0893 113.215H6.33065V59.5933H33.0893V113.215ZM39.3453 113.215H49.0746V59.5933H39.3453V113.215ZM55.3307 59.5933V113.215H82.0907V59.5933H55.3307ZM39.3453 56.6533H49.0746V41.8893H39.3453V56.6533ZM55.3307 41.8893V56.6533H87.6507V41.8893H55.3307ZM33.0893 41.8893H0.074646V56.6533H33.0893V41.8893ZM38.7613 31.4147C39.328 32.8427 39.824 34.2933 40.2706 35.7613C40.4933 36.4946 40.7 37.2373 40.8573 38.0013C40.9333 38.384 41.0026 38.7693 41.0293 39.18C41.0386 39.384 41.0426 39.5933 41.0026 39.8373C40.976 39.9613 40.948 40.1027 40.8146 40.2693C40.74 40.348 40.6333 40.4213 40.516 40.4386C40.4627 40.4573 40.3973 40.4507 40.336 40.4493L40.2586 40.4386L40.2333 40.4347C38.7133 40.204 37.236 39.8267 35.7693 39.4093C34.3013 38.996 32.8386 38.5506 31.392 38.0373C28.4946 37.028 25.628 35.844 22.8493 34.304C21.4746 33.5107 20.112 32.6387 18.8173 31.576C17.532 30.504 16.2906 29.256 15.296 27.6133C14.8066 26.792 14.372 25.8613 14.1186 24.824C13.86 23.7893 13.7626 22.644 13.9266 21.5307C14.0773 20.416 14.4426 19.3533 14.94 18.4333C15.1866 17.976 15.46 17.5453 15.752 17.1427C15.9 16.9373 16.032 16.76 16.2133 16.5453L16.4386 16.2773L16.5306 16.172L16.676 16.0133C17.368 15.268 18.228 14.544 19.2986 14.012C20.364 13.4787 21.6413 13.1973 22.8346 13.236C24.032 13.2627 25.1186 13.5813 26.0506 13.98C26.9893 14.384 27.7893 14.9053 28.5146 15.4413C31.3666 17.648 33.16 20.3267 34.7853 23.0187C36.3546 25.744 37.644 28.552 38.7613 31.4147ZM40.368 39.8186C40.368 39.8186 40.3706 39.8187 40.3706 39.8213C40.388 39.8227 40.4026 39.8267 40.4093 39.8227C40.3973 39.8173 40.3773 39.8186 40.368 39.8186ZM28.5133 22.3493C27.4973 21.4173 26.4426 20.5733 25.412 19.96C24.3866 19.34 23.3733 19.0147 22.772 19.0693C22.4626 19.08 22.2346 19.16 21.9586 19.3027C21.6866 19.4427 21.3706 19.6933 21.0493 20.0507C20.2933 20.86 19.8426 21.6813 19.7 22.404C19.548 23.1253 19.664 23.976 20.1213 24.984C20.5733 25.976 21.32 27.028 22.2013 28.028C23.0826 29.0373 24.092 30.0173 25.1826 30.936C27.3466 32.8093 29.7813 34.4973 32.328 36.0133C34.8586 37.5 37.5186 38.852 40.2986 39.7946C40.3013 39.78 40.3027 39.7693 40.3027 39.7507C40.2987 39.6213 40.2733 39.452 40.2346 39.2893C40.1573 38.9533 40.0386 38.6107 39.9106 38.2707C39.6493 37.592 39.34 36.9213 39.0093 36.2613C38.3506 34.9386 37.5813 33.6613 36.7906 32.4133C35.1866 29.9227 33.4053 27.5493 31.4786 25.392C30.5306 24.3067 29.536 23.2787 28.5133 22.3493ZM49.0693 27.3107C48.4573 28.72 47.784 30.0973 47.0613 31.4533C46.7 32.1293 46.3213 32.8 45.8933 33.4507C45.6746 33.7747 45.4493 34.0973 45.1786 34.404C45.0413 34.5573 44.8986 34.7093 44.696 34.852C44.5893 34.92 44.4693 35.0027 44.2573 35.024C44.1506 35.028 44.0213 35.0027 43.928 34.9347C43.8786 34.908 43.8333 34.8586 43.792 34.8133L43.7453 34.752L43.7293 34.7293C42.8187 33.492 42.0413 32.1813 41.2973 30.8507C40.5533 29.52 39.8333 28.1693 39.1733 26.784C37.8387 24.0213 36.6493 21.156 35.7733 18.1013C35.3613 16.5707 35.0133 14.988 34.8493 13.3213C34.7 11.656 34.7027 9.89599 35.1627 8.02932C35.3973 7.10132 35.748 6.14132 36.3027 5.22532C36.852 4.30932 37.5933 3.43333 38.496 2.76133C39.3893 2.07733 40.4 1.58665 41.4 1.28799C41.9013 1.13865 42.3973 1.028 42.8867 0.950665C43.1413 0.909332 43.356 0.878668 43.6373 0.853334L43.9866 0.823997L44.1266 0.811993L44.34 0.80532C45.3573 0.766653 46.4773 0.864 47.6106 1.244C48.7413 1.62133 49.8426 2.324 50.66 3.19466C51.488 4.06133 52.0306 5.05199 52.4066 5.99599C52.7853 6.94399 52.9826 7.87732 53.116 8.77065C53.5746 12.348 52.9466 15.5093 52.1933 18.5627C51.376 21.5987 50.3026 24.496 49.0693 27.3107ZM44.2613 34.3907V34.392C44.2693 34.408 44.2786 34.4186 44.2853 34.4213C44.2813 34.408 44.2666 34.3987 44.2613 34.3907ZM48.232 13.6533C48.172 12.276 48.0226 10.936 47.7266 9.76933C47.4413 8.60533 46.9546 7.66399 46.4893 7.27466C46.264 7.06266 46.0466 6.96 45.752 6.864C45.46 6.772 45.0586 6.72532 44.58 6.75065C43.4746 6.78932 42.572 7.04933 41.96 7.46133C41.3427 7.86399 40.8226 8.54532 40.4333 9.58399C40.052 10.6053 39.836 11.876 39.7506 13.2093C39.6613 14.544 39.684 15.9506 39.804 17.3706C40.0106 20.2253 40.5373 23.1427 41.2666 26.012C42.004 28.8547 42.9293 31.692 44.228 34.324C44.24 34.3146 44.2506 34.3066 44.2613 34.296C44.3533 34.2013 44.4546 34.064 44.5413 33.92C44.724 33.6293 44.8826 33.3027 45.0306 32.9733C45.328 32.3067 45.5813 31.6133 45.816 30.9147C46.284 29.5133 46.644 28.0667 46.9693 26.624C47.596 23.7293 48.0133 20.7907 48.1773 17.904C48.2733 16.464 48.2973 15.0333 48.232 13.6533ZM56.7266 37.7093C55.3 38.272 53.8466 38.7693 52.3786 39.2187C51.6466 39.44 50.9026 39.6467 50.1413 39.804C49.756 39.88 49.3693 39.948 48.9613 39.976C48.7573 39.9867 48.5453 39.9907 48.304 39.9493C48.18 39.9213 48.0373 39.8946 47.8706 39.7613C47.7933 39.688 47.72 39.5787 47.7013 39.464C47.684 39.412 47.6893 39.344 47.692 39.2827L47.7013 39.2053L47.7066 39.1787C47.9373 37.66 48.316 36.184 48.7293 34.7173C49.144 33.2507 49.5906 31.7853 50.104 30.3387C51.1133 27.44 52.2973 24.5746 53.8373 21.796C54.6293 20.4213 55.5026 19.06 56.564 17.7627C57.636 16.4787 58.884 15.2373 60.528 14.2427C61.3493 13.7533 62.2786 13.32 63.316 13.0653C64.352 12.808 65.4973 12.7093 66.6106 12.872C67.7266 13.0227 68.7866 13.3893 69.7053 13.8867C70.1653 14.1347 70.5946 14.408 70.9973 14.6973C71.2026 14.8493 71.38 14.9787 71.5933 15.16L71.864 15.3853L71.9706 15.4773L72.128 15.6227C72.872 16.316 73.596 17.1773 74.1293 18.2467C74.6613 19.312 74.944 20.5867 74.9053 21.78C74.8773 22.9787 74.56 24.0653 74.16 24.996C73.7573 25.936 73.236 26.7373 72.6987 27.4613C70.492 30.3133 67.812 32.1067 65.1227 33.732C62.396 35.3027 59.5893 36.592 56.7266 37.7093ZM48.3213 39.316L48.32 39.3173C48.3173 39.3333 48.3133 39.3493 48.3173 39.356C48.324 39.344 48.32 39.324 48.3213 39.316ZM65.7933 27.46C66.7253 26.4427 67.5666 25.3907 68.1826 24.3587C68.8026 23.332 69.1253 22.3213 69.0706 21.7173C69.0626 21.4093 68.98 21.1813 68.8373 20.9053C68.6973 20.6346 68.448 20.3187 68.0907 19.996C67.2827 19.2413 66.46 18.788 65.7373 18.6466C65.016 18.496 64.1653 18.6107 63.1573 19.068C62.1653 19.52 61.1133 20.2653 60.112 21.148C59.1026 22.0293 58.1226 23.0387 57.204 24.132C55.332 26.296 53.6426 28.728 52.1293 31.2733C50.6413 33.8067 49.2893 36.4667 48.3453 39.2467C48.36 39.2493 48.3733 39.2493 48.3906 39.2493C48.5213 39.2466 48.688 39.2213 48.8533 39.1827C49.188 39.1027 49.5306 38.9853 49.8706 38.8586C50.548 38.5973 51.2186 38.2866 51.8813 37.956C53.2013 37.2973 54.4786 36.528 55.728 35.7373C58.2186 34.1346 60.5906 32.352 62.7493 30.4267C63.836 29.476 64.864 28.4827 65.7933 27.46Z" fill="white"/>
</svg>