<svg xmlns="http://www.w3.org/2000/svg" width="102" height="118" viewBox="0 0 102 118" fill="none">
  <path d="M50.468 36.212L72.9933 47.3267V57.4213L50.9893 66.1907L27.9426 57.004V47.3267L50.468 36.212ZM27.9426 59.2653V108.275L50.9773 117.308L72.9933 108.676V59.6653L50.9773 68.2987L27.9426 59.2653ZM40.78 27.9893C38.8946 26.1667 36.9267 24.5347 34.9333 23.1347C33.8893 22.3853 32.8573 21.7293 31.86 21.1747C30.7466 20.5467 29.748 20.092 28.888 19.82C28.3333 19.6413 27.7973 19.5427 27.372 19.5427C27.1333 19.5427 27.0173 19.576 26.9866 19.5867C26.8426 19.6267 26.78 19.6573 26.6306 19.784C26.568 19.836 26.3986 20.004 26.2 20.364C25.8093 21.044 25.6093 21.6907 25.6266 22.196C25.6373 22.6893 25.872 23.2333 26.324 23.8173C26.8213 24.4613 27.584 25.156 28.5307 25.8267C29.4373 26.4773 30.4533 27.0907 31.5546 27.6493C33.6053 28.7253 35.9586 29.6867 38.5586 30.5093C40.6773 31.164 42.532 31.6147 44.268 31.8907C44.0186 31.5467 43.7333 31.184 43.392 30.772C42.5146 29.7173 41.5346 28.7293 40.78 27.9893ZM53.196 10.9867C52.9533 10 52.5853 9.408 52.3946 9.25067C52.2853 9.14667 52.224 9.11067 52.0413 9.052C51.964 9.028 51.792 8.98533 51.4986 8.98533C51.4426 8.98533 51.384 8.988 51.3226 8.992C50.5346 9.02 49.8786 9.18933 49.4613 9.47066C49.0453 9.74 48.7093 10.224 48.4507 10.916C48.1667 11.676 47.9773 12.6907 47.904 13.852C47.8293 14.9573 47.844 16.144 47.9493 17.3827C48.116 19.6933 48.54 22.1973 49.2106 24.84C49.7693 26.9867 50.364 28.8027 51.044 30.4213C51.2026 30.0347 51.3626 29.6013 51.5346 29.0867C51.968 27.792 52.2906 26.4347 52.524 25.4C53.0773 22.8467 53.428 20.312 53.5666 17.876C53.6533 16.5867 53.6693 15.364 53.6133 14.2307C53.56 12.9547 53.4186 11.864 53.196 10.9867ZM75.3226 19.7827C75.176 19.6573 75.112 19.6267 75.0186 19.6013C74.9386 19.576 74.8213 19.5427 74.5853 19.5427C74.1587 19.5427 73.6213 19.6413 73.0733 19.82C72.208 20.092 71.2093 20.5467 70.0986 21.1733C69.0986 21.7293 68.0666 22.3853 67.0293 23.1307C65.0293 24.5347 63.06 26.1667 61.1706 27.9907C60.42 28.7293 59.44 29.7173 58.5627 30.772C58.2227 31.1827 57.9373 31.5453 57.688 31.8907C59.4226 31.6147 61.2773 31.164 63.4013 30.508C65.9973 29.6867 68.3507 28.7253 70.3907 27.6547C71.5027 27.0907 72.5187 26.4773 73.4213 25.828C74.372 25.156 75.1346 24.4613 75.6333 23.8147C76.084 23.2333 76.3186 22.6893 76.3293 22.208C76.3466 21.6907 76.1453 21.044 75.7626 20.376C75.5573 20.004 75.388 19.836 75.3226 19.7827ZM78.2426 106.619L95.592 99.8133V50.804L78.2426 57.608V106.619ZM6.36398 99.8133L22.6933 106.217V57.2067L6.36398 50.804V99.8133ZM101.809 34.376V45.936L78.2426 55.328V43.8293L62.2106 36.0613C61.568 36.108 60.892 36.1453 60.152 36.1813C59.428 36.2146 58.7 36.2386 57.972 36.2386C57.196 36.2386 56.4853 36.212 55.7987 36.1573L55.536 36.128L55.4293 36.112C55.2106 36.0707 54.9187 36.0027 54.5853 35.8333C54.0893 35.6067 53.6253 35.1867 53.3 34.648C53.1773 34.7573 53.0413 34.8653 52.888 34.9747C52.6106 35.1547 52.0773 35.5053 51.264 35.588L50.9786 35.604C50.3626 35.604 49.7733 35.4293 49.272 35.0987C48.9933 34.928 48.7867 34.7147 48.68 34.6C48.3307 35.1773 47.872 35.6 47.3173 35.8613C47.048 35.9987 46.764 36.0653 46.5546 36.1053L46.212 36.152C45.4827 36.2107 44.7746 36.2386 43.984 36.2386C43.256 36.2386 42.5293 36.2146 41.8013 36.1813C40.7187 36.132 39.7653 36.0707 38.8666 35.9933L22.6933 43.8293V54.9133L0.169312 45.936V34.376L18.6573 27.5293C18.4627 27.228 18.28 26.9227 18.12 26.608C17.508 25.4227 17.1266 24.1253 17.0186 22.8627C16.9 21.632 17.0146 20.3213 17.348 19.096C17.492 18.56 17.6773 18.0213 17.896 17.4987C18.008 17.2333 18.108 17.008 18.252 16.724L18.456 16.3227L18.5893 16.0813C19.2693 14.8907 20.0933 13.892 21.0506 13.1013C22.192 12.1507 23.624 11.468 25.0813 11.176C25.688 11.048 26.3453 10.9787 27.016 10.9787C27.644 10.9787 28.2973 11.04 28.9573 11.1587C30.2186 11.3813 31.264 11.796 31.9413 12.0893C35.3666 13.6493 37.724 15.9 39.6667 17.8893C40.0907 18.3427 40.504 18.8133 40.9173 19.288L41.1253 19.2107C41.088 19.0813 41.0467 18.9507 41.0107 18.8213C40.532 17.044 40.2493 15.5693 40.1093 14.152C39.9213 12.068 40.0307 10.3133 40.448 8.61467C40.7547 7.40533 41.1813 6.36134 41.7547 5.41734C42.4413 4.272 43.3426 3.26401 44.3573 2.50667C45.336 1.75734 46.5066 1.16534 47.7306 0.800008C48.2573 0.642675 48.8093 0.517343 49.3707 0.426676C49.668 0.38001 49.9093 0.344009 50.2226 0.317342L50.6613 0.281331L50.9507 0.268005C51.1133 0.260005 51.2653 0.257324 51.4173 0.257324C52.6013 0.257324 53.732 0.436005 54.7787 0.788005C56.1867 1.256 57.524 2.11333 58.5386 3.19733C59.3986 4.09466 60.0746 5.17467 60.596 6.48267C61.068 7.66133 61.2693 8.77201 61.3787 9.50667C61.856 13.224 61.192 16.4013 60.5293 19.0893L61.036 19.2787C61.4373 18.82 61.84 18.3667 62.2506 17.9293C64.224 15.9093 66.5853 13.6507 69.9666 12.108C70.684 11.8 71.7386 11.38 73.0013 11.1587C73.6573 11.04 74.3106 10.9787 74.94 10.9787C75.608 10.9787 76.2693 11.048 76.9026 11.1827C78.336 11.4707 79.7653 12.1533 80.9093 13.1053C81.8613 13.892 82.684 14.8893 83.3546 16.0613L83.5333 16.388L83.708 16.7333C83.848 17.008 83.9466 17.2347 84.0586 17.4987C84.2773 18.02 84.464 18.5573 84.6106 19.1013C84.9413 20.3213 85.0547 21.6347 84.9333 22.8893C84.8293 24.1267 84.4453 25.424 83.828 26.6213C83.672 26.928 83.4933 27.228 83.304 27.524L101.809 34.376ZM47.3626 32.8133C47.3413 32.5173 47.2813 32.2773 47.216 32.052C47.0946 31.6533 46.9413 31.2973 46.7893 30.9653C46.4587 30.2493 46.0867 29.588 45.8013 29.0933C45.068 27.8307 44.3467 26.6907 43.6 25.6173C41.9133 23.1627 40.2213 21.0413 38.416 19.1133C36.584 17.2387 34.3693 15.1187 31.248 13.6947C30.648 13.436 29.728 13.0707 28.6506 12.88C28.0893 12.7813 27.5413 12.7293 27.016 12.7293C26.468 12.7293 25.9266 12.7853 25.4226 12.892C24.248 13.1267 23.0906 13.6813 22.1653 14.4507C21.372 15.1067 20.6853 15.9427 20.116 16.9347L20.0133 17.1187L19.8106 17.5147C19.688 17.7573 19.604 17.9533 19.5093 18.1787C19.3213 18.6267 19.1613 19.0893 19.036 19.5547C18.756 20.5813 18.6627 21.676 18.7613 22.712C18.8507 23.7507 19.1693 24.824 19.68 25.8147C20.1013 26.644 20.6627 27.4173 21.4013 28.184C22.488 29.292 23.772 30.1987 25.452 31.04C26.6453 31.6267 27.96 32.1307 29.5986 32.6227C32.0706 33.3227 34.6786 33.804 37.8053 34.1333C39.0173 34.2653 40.3133 34.3613 41.8826 34.432C42.5826 34.4667 43.2826 34.4867 43.984 34.4867C44.716 34.4867 45.3813 34.464 46.0706 34.408L46.2226 34.388C46.2986 34.3747 46.432 34.348 46.5773 34.2747C46.8147 34.1627 47.024 33.9693 47.204 33.6587C47.3667 33.3187 47.3653 33.0387 47.3626 32.8133ZM56.0253 26.548C57.224 23.8133 58.1373 21.2547 58.82 18.7147C59.4493 16.168 60.084 13.168 59.6493 9.76534C59.552 9.11867 59.3786 8.14268 58.972 7.13068C58.536 6.03468 57.9733 5.14 57.2613 4.39333C56.444 3.51866 55.3613 2.82667 54.2213 2.44533C53.3546 2.15467 52.412 2.00667 51.4173 2.00667C51.288 2.00667 51.1613 2.01067 51.0307 2.01467L50.8067 2.02667L50.372 2.06134C50.1026 2.08267 49.896 2.11333 49.6493 2.15466C49.168 2.23066 48.6907 2.33866 48.232 2.47599C47.208 2.78266 46.2267 3.28001 45.404 3.90934C44.5693 4.53068 43.8253 5.368 43.2506 6.32133C42.7693 7.11866 42.408 8.00267 42.1466 9.032C41.776 10.536 41.6813 12.1067 41.8506 13.9813C41.98 15.304 42.2467 16.6827 42.692 18.34C43.4 20.8093 44.3666 23.28 45.7333 26.108C46.256 27.204 46.8573 28.3587 47.628 29.736C48.2226 30.8013 48.9506 32.052 49.848 33.2707L49.9413 33.3853C49.9946 33.4453 50.0906 33.5507 50.2333 33.6387C50.4466 33.7773 50.7066 33.8547 50.9786 33.8547L51.084 33.8507C51.4733 33.808 51.7146 33.6507 51.8826 33.5427C52.136 33.364 52.3106 33.18 52.46 33.012C52.7413 32.692 52.968 32.3653 53.1627 32.076C53.5053 31.5573 53.8347 30.9907 54.232 30.2493C54.912 28.972 55.4987 27.7613 56.0253 26.548ZM82.92 19.556C82.7946 19.0893 82.6346 18.6267 82.4466 18.1787C82.3506 17.9533 82.268 17.7573 82.144 17.5187L82 17.2293L81.836 16.9293C81.272 15.9427 80.5826 15.1067 79.7906 14.4507C78.8653 13.6813 77.708 13.1267 76.5427 12.8933C76.0293 12.7853 75.488 12.7293 74.94 12.7293C74.4146 12.7293 73.864 12.7813 73.3067 12.88C72.228 13.0707 71.308 13.436 70.692 13.7013C67.5853 15.1187 65.372 17.2387 63.528 19.128C61.7347 21.0413 60.0427 23.1627 58.3587 25.6133C57.6107 26.6907 56.8893 27.8307 56.1533 29.0933C55.868 29.588 55.496 30.2493 55.1653 30.9693C55.0133 31.2973 54.8613 31.6533 54.736 32.064C54.6733 32.2773 54.6133 32.5173 54.5906 32.888C54.5893 33.0387 54.588 33.3187 54.7906 33.7333C54.936 33.976 55.1413 34.164 55.3787 34.2747C55.5253 34.348 55.6586 34.3747 55.748 34.3893L55.936 34.4133C56.5747 34.464 57.2413 34.4867 57.972 34.4867C58.672 34.4867 59.3733 34.4667 60.072 34.432C61.6413 34.3613 62.9386 34.2653 64.1466 34.1333C67.2773 33.804 69.8853 33.3227 72.3707 32.6187C73.9973 32.1307 75.3093 31.6267 76.5093 31.0373C78.1826 30.1987 79.468 29.292 80.5573 28.1787C81.2947 27.4173 81.8547 26.644 82.272 25.8213C82.7867 24.824 83.1053 23.7507 83.192 22.724C83.292 21.676 83.1986 20.5813 82.92 19.556Z" fill="white"/>
</svg>