<svg width="330" height="132" viewBox="0 0 330 132" fill="none" xmlns="http://www.w3.org/2000/svg">
<path d="M57.664 87.9C65.832 87.9 72.476 94.5453 72.476 102.712C72.476 110.88 65.832 117.524 57.664 117.524C49.4973 117.524 42.8506 110.88 42.8506 102.712C42.8506 94.5453 49.4973 87.9 57.664 87.9Z M36.52 102.712C36.52 91.0533 46.0053 81.5693 57.6639 81.5693C69.3226 81.5693 78.8067 91.0533 78.8067 102.712C78.8067 114.371 69.3226 123.855 57.6639 123.855C46.0053 123.855 36.52 114.371 36.52 102.712ZM29.1813 102.712C29.1813 118.441 41.9333 131.193 57.6639 131.193C73.3933 131.193 86.1453 118.441 86.1453 102.712C86.1453 86.9826 73.3933 74.2307 57.6639 74.2307C41.9333 74.2307 29.1813 86.9826 29.1813 102.712Z M254.119 87.9C262.287 87.9 268.932 94.5453 268.932 102.712C268.932 110.88 262.287 117.524 254.119 117.524C245.952 117.524 239.307 110.88 239.307 102.712C239.307 94.5453 245.952 87.9 254.119 87.9Z M232.976 102.712C232.976 91.0533 242.461 81.5693 254.119 81.5693C265.777 81.5693 275.263 91.0533 275.263 102.712C275.263 114.371 265.777 123.855 254.119 123.855C242.461 123.855 232.976 114.371 232.976 102.712ZM225.637 102.712C225.637 118.441 238.388 131.193 254.119 131.193C269.849 131.193 282.601 118.441 282.601 102.712C282.601 86.9826 269.849 74.2307 254.119 74.2307C238.388 74.2307 225.637 86.9826 225.637 102.712Z M29.1813 40.1613C29.1813 40.1613 29.7866 24.7667 44.8479 17.0693C46.4826 16.2333 48.7573 15.5013 51.5413 14.8587V40.1613C38.1693 40.1613 29.1813 40.1613 29.1813 40.1613ZM60.2133 13.9387C71.536 11.3653 96.8333 10.6227 120.82 10.4987V40.1613H60.2133V13.9387ZM127.848 10.4773C140.957 10.4693 153.317 10.616 162.989 10.7093C197.461 11.044 210.513 36.48 210.513 36.48C210.513 43.8227 168.573 40.1826 127.848 40.1613V10.4773ZM298.868 51.356C298.868 51.356 316.272 57.564 318.948 68.944C318.948 68.944 307.904 74.6333 298.868 68.944C289.832 63.2533 298.868 51.356 298.868 51.356ZM0 87.9C0 102.84 5.02132 102.712 5.02132 102.712H23.0947C23.0947 102.712 24.0986 67.9387 57.6639 67.9387C91.2279 67.9387 92.0373 102.712 92.0373 102.712H220.888C220.888 102.712 218.212 69.948 254.119 69.948C290.027 69.948 287.824 102.712 287.824 102.712H325.643C325.643 102.712 329.324 102.745 329.324 90.028C329.324 77.3106 324.973 78.3147 324.973 78.3147C324.973 36.48 265.735 44.1773 230.94 34.1373C196.144 24.0973 220.555 0 126.175 0C31.7947 0 41.1653 4.68532 23.764 20.4147C6.35996 36.1453 8.03333 74.2307 8.03333 74.2307C5.69066 74.1627 0 72.96 0 87.9Z" fill="black"/>
</svg>
