<svg width="267" height="119" viewBox="0 0 267 119" fill="none" xmlns="http://www.w3.org/2000/svg">
<path d="M46.8646 86.538C52.9272 86.538 57.8592 91.47 57.8592 97.534C57.8592 103.598 52.9272 108.53 46.8646 108.53C40.8006 108.53 35.8672 103.598 35.8672 97.534C35.8672 91.47 40.8006 86.538 46.8646 86.538Z M31.1673 97.534C31.1673 88.8793 38.2086 81.838 46.8646 81.838C55.5193 81.838 62.5606 88.8793 62.5606 97.534C62.5606 106.19 55.5193 113.23 46.8646 113.23C38.2086 113.23 31.1673 106.19 31.1673 97.534ZM25.7206 97.534C25.7206 109.211 35.1859 118.678 46.8633 118.678C58.5406 118.678 68.0072 109.211 68.0072 97.534C68.0072 85.8567 58.5406 76.3913 46.8633 76.3913C35.1859 76.3913 25.7206 85.8567 25.7206 97.534Z M201.626 86.538C207.69 86.538 212.622 91.47 212.622 97.534C212.622 103.598 207.69 108.53 201.626 108.53C195.563 108.53 190.63 103.598 190.63 97.534C190.63 91.47 195.563 86.538 201.626 86.538Z M185.93 97.534C185.93 88.8793 192.971 81.838 201.626 81.838C210.282 81.838 217.323 88.8793 217.323 97.534C217.323 106.19 210.282 113.23 201.626 113.23C192.971 113.23 185.93 106.19 185.93 97.534ZM180.483 97.534C180.483 109.211 189.95 118.678 201.626 118.678C213.303 118.678 222.77 109.211 222.77 97.534C222.77 85.8567 213.303 76.3913 201.626 76.3913C189.95 76.3913 180.483 85.8567 180.483 97.534Z M15.5339 11.3526C18.9379 9.36594 31.9379 8.04195 46.5592 7.16462V36.5379H9.3286C9.3286 36.5379 6.77393 16.4633 15.5339 11.3526ZM56.4139 6.64594C76.6193 5.71394 95.8793 6.75527 95.8793 6.75527C95.8793 6.75527 117.81 13.5419 115.985 36.5379H56.4139V6.64594ZM2.75793 93.4779L10.4233 101.143H21.3739C21.3739 101.143 18.4526 72.3086 46.8633 72.3086C75.2739 72.3086 72.4753 101.143 72.4753 101.143H175.771C175.771 101.143 173.217 72.3086 201.626 72.3086C230.037 72.3086 226.873 101.143 226.873 101.143H266.293C266.293 84.8526 262.241 72.6073 256.019 63.4006C256.843 63.2006 257.633 62.9233 258.338 62.5113L256.185 46.8459C255.131 46.5713 254.009 46.49 252.861 46.6473C249.57 47.0993 247.01 49.3819 245.982 52.3139C223.57 33.5886 190.63 35.8073 190.63 35.8073H129.781C117.37 -1.42206 97.2952 0.00726818 97.2952 0.00726818L68.0072 0.0379485C35.0699 0.0379485 9.32859 -1.42204 2.75793 16.0966C-3.44741 46.758 2.75793 93.4779 2.75793 93.4779Z" fill="black"/>
</svg>
