<svg width="323" height="99" viewBox="0 0 323 99" fill="none" xmlns="http://www.w3.org/2000/svg">
<path d="M53.1653 57.6946C60.9173 57.6946 67.2227 64.0027 67.2227 71.7533C67.2227 79.5053 60.9173 85.8106 53.1653 85.8106C45.4146 85.8106 39.1067 79.5053 39.1067 71.7533C39.1067 64.0027 45.4146 57.6946 53.1653 57.6946Z M33.1 71.7533C33.1 60.688 42.1013 51.6853 53.1653 51.6853C64.2306 51.6853 73.232 60.688 73.232 71.7533C73.232 82.8187 64.2306 91.82 53.1653 91.82C42.1013 91.82 33.1 82.8187 33.1 71.7533ZM26.1347 71.7533C26.1347 86.6827 38.236 98.784 53.1653 98.784C68.0946 98.784 80.196 86.6827 80.196 71.7533C80.196 56.824 68.0946 44.7227 53.1653 44.7227C38.236 44.7227 26.1347 56.824 26.1347 71.7533Z M246.168 57.6946C253.92 57.6946 260.225 64.0027 260.225 71.7533C260.225 79.5053 253.92 85.8106 246.168 85.8106C238.417 85.8106 232.111 79.5053 232.111 71.7533C232.111 64.0027 238.417 57.6946 246.168 57.6946Z M226.101 71.7533C226.101 60.688 235.104 51.6853 246.168 51.6853C257.233 51.6853 266.235 60.688 266.235 71.7533C266.235 82.8187 257.233 91.82 246.168 91.82C235.104 91.82 226.101 82.8187 226.101 71.7533ZM219.137 71.7533C219.137 86.6827 231.24 98.784 246.168 98.784C261.097 98.784 273.199 86.6827 273.199 71.7533C273.199 56.824 261.097 44.7227 246.168 44.7227C231.24 44.7227 219.137 56.824 219.137 71.7533Z M291.532 46.6413C291.532 46.6413 308.211 54.032 315.981 61.9933C315.981 61.9933 292.289 68.2466 291.532 46.6413ZM0.837341 53.7266C0.837341 72.212 7.81333 68.724 7.81333 68.724V78.4893H21.416C21.416 78.4893 17.2307 40.6466 53.164 40.6466C89.1 40.6466 85.5934 78.4893 85.5934 78.4893H215.34C215.34 78.4893 209.76 40.6466 246.168 40.6466C282.576 40.6466 277.772 78.4893 277.772 78.4893C277.772 78.4893 304.28 78.4893 315.441 78.4893C326.603 78.4893 320.673 61.4 320.673 61.4C302.188 42.216 255.8 31.0546 255.8 31.0546H214.295C208.713 29.3106 178.021 2.80264 178.021 2.80264C171.8 -2.49603 171.743 2.10664 171.743 2.10664L202.435 32.7987C202.435 32.7987 180.104 32.7987 156.745 32.7987C156.745 32.7987 152.559 13.964 145.235 13.964C137.911 13.964 139.305 24.428 142.096 32.7987C136.563 32.7987 131.227 32.7987 126.4 32.7987C97.4507 32.7987 92.2187 13.2666 92.2187 13.2666C65.0147 13.2666 46.8787 27.916 46.8787 27.916H26.1347L15.8347 13.964H9.20933V38.38C9.20933 38.38 0.837341 35.24 0.837341 53.7266Z" fill="black"/>
</svg>
