<svg xmlns="http://www.w3.org/2000/svg" width="308" height="127" viewBox="0 0 308 127" fill="none">
  <path d="M43.9761 89.004C51.0734 89.004 56.8454 94.7787 56.8454 101.875C56.8454 108.972 51.0734 114.745 43.9761 114.745C36.8801 114.745 31.1068 108.972 31.1068 101.875C31.1068 94.7787 36.8801 89.004 43.9761 89.004Z M25.6054 101.875C25.6054 91.7454 33.8468 83.504 43.9761 83.504C54.1068 83.504 62.3467 91.7454 62.3467 101.875C62.3467 112.004 54.1068 120.245 43.9761 120.245C33.8468 120.245 25.6054 112.004 25.6054 101.875ZM19.2294 101.875C19.2294 115.543 30.3081 126.621 43.9761 126.621C57.6428 126.621 68.7228 115.543 68.7228 101.875C68.7228 88.208 57.6428 77.128 43.9761 77.128C30.3081 77.128 19.2294 88.208 19.2294 101.875Z M244.495 89.004C251.591 89.004 257.363 94.7787 257.363 101.875C257.363 108.972 251.591 114.745 244.495 114.745C237.397 114.745 231.623 108.972 231.623 101.875C231.623 94.7787 237.397 89.004 244.495 89.004Z M226.121 101.875C226.121 91.7454 234.364 83.504 244.495 83.504C254.623 83.504 262.864 91.7454 262.864 101.875C262.864 112.004 254.623 120.245 244.495 120.245C234.364 120.245 226.121 112.004 226.121 101.875ZM219.747 101.875C219.747 115.543 230.827 126.621 244.493 126.621C258.161 126.621 269.24 115.543 269.24 101.875C269.24 88.208 258.161 77.128 244.493 77.128C230.827 77.128 219.747 88.208 219.747 101.875Z M41.1121 35.74C58.9227 13.036 81.9521 9.59733 105.261 9.236V35.6267L41.1121 35.74ZM113.567 9.21067C121.593 9.25867 129.576 9.11866 137.335 9.10666C171.701 9.05333 202.343 35.4533 202.343 35.4533L113.567 35.612V9.21067ZM274.957 51.144C274.957 51.144 292.311 59.34 292.699 74.232C292.699 74.232 280.008 76.5627 275.605 71.512C271.203 66.4627 274.957 51.144 274.957 51.144ZM1.35074 101.875H15.2654C15.2654 101.875 14.4454 71.808 43.9761 71.808C73.5054 71.808 74.6014 101.875 74.6014 101.875H214.555C214.555 101.875 214.555 72.2173 244.493 72.2173C274.432 72.2173 275.119 101.875 275.119 101.875C301.719 101.875 306.22 103.727 307.039 89.004C307.856 74.2813 298.035 73.8547 298.035 73.8547C293.124 36.6147 221.103 34.5693 221.103 34.5693C221.103 34.5693 177.724 2.24133 151.125 1.42266C124.527 0.603996 90.1521 -2.26 63.5534 6.74267C36.9534 15.7453 10.7627 64.032 10.7627 64.032C-5.19592 75.4907 1.35074 101.875 1.35074 101.875Z" fill="black"/>
</svg>