<svg xmlns="http://www.w3.org/2000/svg" width="272" height="113" viewBox="0 0 272 113" fill="none">
  <path d="M44.948 68.6987C53.288 68.6987 60.072 75.484 60.072 83.824C60.072 92.1627 53.288 98.948 44.948 98.948C36.6093 98.948 29.824 92.1627 29.824 83.824C29.824 75.484 36.6093 68.6987 44.948 68.6987Z M23.3587 83.824C23.3587 71.9187 33.044 62.2347 44.948 62.2347C56.8533 62.2347 66.5373 71.9187 66.5373 83.824C66.5373 95.728 56.8533 105.413 44.948 105.413C33.044 105.413 23.3587 95.728 23.3587 83.824ZM15.8667 83.8227C15.8667 99.884 28.8867 112.905 44.948 112.905C61.0093 112.905 74.0293 99.884 74.0293 83.8227C74.0293 67.7613 61.0093 54.7413 44.948 54.7413C28.8867 54.7413 15.8667 67.7613 15.8667 83.8227Z M212.127 68.6987C220.465 68.6987 227.249 75.484 227.249 83.824C227.249 92.1627 220.465 98.948 212.127 98.948C203.787 98.948 197.001 92.1627 197.001 83.824C197.001 75.484 203.787 68.6987 212.127 68.6987Z M190.536 83.824C190.536 71.9187 200.221 62.2347 212.127 62.2347C224.031 62.2347 233.715 71.9187 233.715 83.824C233.715 95.728 224.031 105.413 212.127 105.413C200.221 105.413 190.536 95.728 190.536 83.824ZM183.044 83.8227C183.044 99.884 196.064 112.905 212.125 112.905C228.188 112.905 241.208 99.884 241.208 83.8227C241.208 67.7613 228.188 54.7413 212.125 54.7413C196.064 54.7413 183.044 67.7613 183.044 83.8227Z M32.4827 36.5814C32.4827 36.5814 35.5147 24.8294 57.5347 16.448V36.5814H32.4827ZM64.976 13.9787C75.116 11.0574 88.344 8.872 105.655 8.32534V36.5814H64.976V13.9787ZM116.072 8.24001C179.5 9.06401 198.668 36.5814 198.668 36.5814H116.072V8.24001ZM3.46266 93.8773H13.136C13.136 93.8773 4.33199 50.7187 44.948 50.7187C85.564 50.7187 77.3787 93.8773 77.3787 93.8773L177.089 92.6387C177.089 92.6387 174.983 49.728 212.125 49.728C249.268 49.728 247.532 92.6387 247.532 92.6387H268.616C268.616 92.6387 270.204 82.776 267.057 71.2707C267.881 71.4814 268.736 71.608 269.631 71.5547C270.127 71.5253 270.608 71.444 271.076 71.3334L270.087 54.8027C269.609 54.748 269.123 54.7254 268.625 54.7547C265.661 54.932 263.16 56.632 261.804 59.04C254.221 46.7694 238.949 35.8373 208.591 35.8373C208.591 35.8373 194.452 0.616028 105.407 0.616028C16.3613 0.616028 -9.93068 73.0427 3.46266 93.8773Z" fill="black"/>
</svg>