<svg xmlns="http://www.w3.org/2000/svg" width="272" height="132" viewBox="0 0 272 132" fill="none">
  <path d="M38.7253 87.364C47.1267 87.364 53.9613 94.2014 53.9613 102.603C53.9613 111.005 47.1267 117.84 38.7253 117.84C30.3227 117.84 23.4867 111.005 23.4867 102.603C23.4867 94.2014 30.3227 87.364 38.7253 87.364Z M16.9747 102.603C16.9747 90.6094 26.7307 80.8521 38.7253 80.8521C50.7187 80.8521 60.4747 90.6094 60.4747 102.603C60.4747 114.596 50.7187 124.353 38.7253 124.353C26.7307 124.353 16.9747 114.596 16.9747 102.603ZM9.42533 102.603C9.42533 118.784 22.5427 131.903 38.7253 131.903C54.9053 131.903 68.024 118.784 68.024 102.603C68.024 86.4214 54.9053 73.3041 38.7253 73.3041C22.5427 73.3041 9.42533 86.4214 9.42533 102.603Z M224.744 87.364C233.145 87.364 239.981 94.2014 239.981 102.603C239.981 111.005 233.145 117.84 224.744 117.84C216.343 117.84 209.507 111.005 209.507 102.603C209.507 94.2014 216.343 87.364 224.744 87.364Z M202.993 102.603C202.993 90.6094 212.751 80.8521 224.744 80.8521C236.737 80.8521 246.495 90.6094 246.495 102.603C246.495 114.596 236.737 124.353 224.744 124.353C212.751 124.353 202.993 114.596 202.993 102.603ZM195.444 102.603C195.444 118.784 208.563 131.903 224.744 131.903C240.925 131.903 254.043 118.784 254.043 102.603C254.043 86.4214 240.925 73.3041 224.744 73.3041C208.563 73.3041 195.444 86.4214 195.444 102.603Z M24.7733 47.8027C24.7733 47.8027 28.9907 30.0881 38.48 19.1241C40.4587 16.8374 44.5707 15.104 50.0787 13.816V47.8027H24.7733ZM56.404 12.6147C71.0133 10.3734 91.5827 10.2787 109.544 11.1293V47.8027H56.404V12.6147ZM117.135 11.5533C123.361 11.956 129.085 12.4587 133.863 13.008C161.344 16.1707 197.688 47.8027 197.688 47.8027H117.135V11.5533ZM229.74 51.5974C229.74 51.5974 243.973 53.9161 254.043 63.6174C254.043 63.6174 229.317 71.4187 229.74 51.5974ZM0.731995 69.6187V106.155H6.00933C6.00933 106.155 0.731995 69.6187 38.724 69.6187C76.716 69.6187 72.9933 106.155 72.9933 106.155H191.536C191.536 106.155 187.476 69.212 224.744 69.212C262.012 69.212 257.708 106.155 257.708 106.155H268.668C283.689 64.3414 237.409 46.072 223.607 44.448C209.804 42.824 159.871 7.50542 139.572 3.85209C119.275 0.19742 64.4693 -1.83195 38.724 7.10005C12.98 16.0307 11.6933 61.9054 11.6933 61.9054L0.731995 69.6187Z" fill="black"/>
</svg>