<?xml version="1.0" encoding="utf-8"?>
<!-- Generator: Adobe Illustrator 28.0.0, SVG Export Plug-In . SVG Version: 6.00 Build 0)  -->
<svg version="1.1" id="Layer_1_copy" xmlns="http://www.w3.org/2000/svg" xmlns:xlink="http://www.w3.org/1999/xlink" x="0px"
	 y="0px" viewBox="0 0 512 512" style="enable-background:new 0 0 512 512;" xml:space="preserve">
<style type="text/css">
	.st0{display:none;}
	.st1{display:inline;}
	.st2{font-family:'Arial-Black';}
	.st3{font-size:556.3365px;}
</style>
<!-- <g class="st0">
	<path class="st1" d="M315.8,382.2H176.1l-19.4,65.7H31.1L180.7,49.7H315l149.6,398.2H335.7L315.8,382.2z M290.3,296.1l-44-143.2
		l-43.5,143.2H290.3z"/>
</g> -->
<g>
	<path d="M71.3,49.7h230.4c38.4,0,67.9,9.5,88.4,28.5c20.6,19,30.8,42.6,30.8,70.6c0,23.5-7.3,43.7-22,60.6
		c-9.8,11.2-24.1,20.1-42.9,26.6c28.6,6.9,49.7,18.7,63.2,35.5c13.5,16.8,20.2,37.8,20.2,63.2c0,20.6-4.8,39.2-14.4,55.7
		c-9.6,16.5-22.7,29.5-39.4,39.1c-10.3,6-25.9,10.3-46.7,13c-27.7,3.6-46.1,5.4-55.1,5.4H71.3V49.7z M195.4,205.9h53.5
		c19.2,0,32.6-3.3,40.1-9.9c7.5-6.6,11.3-16.2,11.3-28.7c0-11.6-3.8-20.6-11.3-27.2c-7.5-6.5-20.6-9.8-39.3-9.8h-54.3V205.9z
		 M195.4,362.3h62.8c21.2,0,36.1-3.8,44.8-11.3c8.7-7.5,13-17.6,13-30.3c0-11.8-4.3-21.2-12.9-28.4c-8.6-7.2-23.7-10.7-45.2-10.7
		h-62.5V362.3z"/>
</g>
<text transform="matrix(1 0 0 1 30.2354 447.9053)" class="st0 st2 st3">C</text>
<text transform="matrix(1 0 0 1 30.2354 447.9053)" class="st0 st2 st3">D</text>
</svg>
