<?xml version="1.0" encoding="utf-8"?>
<!-- Generator: Adobe Illustrator 28.0.0, SVG Export Plug-In . SVG Version: 6.00 Build 0)  -->
<svg version="1.1" id="Layer_1_copy" xmlns="http://www.w3.org/2000/svg" xmlns:xlink="http://www.w3.org/1999/xlink" x="0px"
	 y="0px" viewBox="0 0 512 512" style="enable-background:new 0 0 512 512;" xml:space="preserve">
<style type="text/css">
	.st0{display:none;}
	.st1{display:inline;}
	.st2{font-family:'Arial-Black';}
	.st3{font-size:556.3365px;}
</style>

<g>
	<path d="M336.1,284.9L444,317.5c-7.2,30.2-18.7,55.5-34.2,75.8c-15.6,20.3-34.9,35.6-58,45.9c-23.1,10.3-52.5,15.5-88.1,15.5
		c-43.3,0-78.6-6.3-106.1-18.9c-27.4-12.6-51.1-34.7-71-66.4c-19.9-31.7-29.9-72.2-29.9-121.6c0-65.9,17.5-116.5,52.6-151.9
		c35-35.4,84.6-53.1,148.7-53.1c50.2,0,89.6,10.1,118.3,30.4c28.7,20.3,50,51.4,64,93.4l-108.7,24.2c-3.8-12.1-7.8-21-12-26.6
		c-6.9-9.4-15.3-16.7-25.3-21.7c-10-5.1-21.1-7.6-33.4-7.6c-27.9,0-49.3,11.2-64.1,33.6c-11.2,16.6-16.8,42.8-16.8,78.4
		c0,44.1,6.7,74.4,20.1,90.8c13.4,16.4,32.2,24.6,56.5,24.6c23.5,0,41.3-6.6,53.4-19.8C321.9,329.3,330.7,310.1,336.1,284.9z"/>
</g>
<text transform="matrix(1 0 0 1 30.2354 447.9053)" class="st0 st2 st3">D</text>
</svg>
