<?xml version="1.0" encoding="utf-8"?>
<!-- Generator: Adobe Illustrator 28.0.0, SVG Export Plug-In . SVG Version: 6.00 Build 0)  -->
<svg version="1.1" id="Layer_1_copy" xmlns="http://www.w3.org/2000/svg" xmlns:xlink="http://www.w3.org/1999/xlink" x="0px"
	 y="0px" viewBox="0 0 512 512" style="enable-background:new 0 0 512 512;" xml:space="preserve">
<style type="text/css">
	.st0{display:none;}
	.st1{font-family:'Arial-Black';}
	.st2{font-size:556.3365px;}
	.st3{display:inline;}
</style>
<text transform="matrix(1 0 0 1 30.2354 447.9053)" class="st0 st1 st2">E</text>
<!-- <g class="st0">
	<path class="st3" d="M315.8,382.2H176.1l-19.4,65.7H31.1L180.7,49.7H315l149.6,398.2H335.7L315.8,382.2z M290.3,296.1l-44-143.2
		l-43.5,143.2H290.3z"/>
</g>
<g class="st0">
	<path class="st3" d="M71.3,49.7h230.4c38.4,0,67.9,9.5,88.4,28.5c20.6,19,30.8,42.6,30.8,70.6c0,23.5-7.3,43.7-22,60.6
		c-9.8,11.2-24.1,20.1-42.9,26.6c28.6,6.9,49.7,18.7,63.2,35.5c13.5,16.8,20.2,37.8,20.2,63.2c0,20.6-4.8,39.2-14.4,55.7
		c-9.6,16.5-22.7,29.5-39.4,39.1c-10.3,6-25.9,10.3-46.7,13c-27.7,3.6-46.1,5.4-55.1,5.4H71.3V49.7z M195.4,205.9h53.5
		c19.2,0,32.6-3.3,40.1-9.9c7.5-6.6,11.3-16.2,11.3-28.7c0-11.6-3.8-20.6-11.3-27.2c-7.5-6.5-20.6-9.8-39.3-9.8h-54.3V205.9z
		 M195.4,362.3h62.8c21.2,0,36.1-3.8,44.8-11.3c8.7-7.5,13-17.6,13-30.3c0-11.8-4.3-21.2-12.9-28.4c-8.6-7.2-23.7-10.7-45.2-10.7
		h-62.5V362.3z"/>
</g>
<g class="st0">
	<path class="st3" d="M336.1,284.9L444,317.5c-7.2,30.2-18.7,55.5-34.2,75.8c-15.6,20.3-34.9,35.6-58,45.9
		c-23.1,10.3-52.5,15.5-88.1,15.5c-43.3,0-78.6-6.3-106.1-18.9c-27.4-12.6-51.1-34.7-71-66.4c-19.9-31.7-29.9-72.2-29.9-121.6
		c0-65.9,17.5-116.5,52.6-151.9c35-35.4,84.6-53.1,148.7-53.1c50.2,0,89.6,10.1,118.3,30.4c28.7,20.3,50,51.4,64,93.4l-108.7,24.2
		c-3.8-12.1-7.8-21-12-26.6c-6.9-9.4-15.3-16.7-25.3-21.7c-10-5.1-21.1-7.6-33.4-7.6c-27.9,0-49.3,11.2-64.1,33.6
		c-11.2,16.6-16.8,42.8-16.8,78.4c0,44.1,6.7,74.4,20.1,90.8c13.4,16.4,32.2,24.6,56.5,24.6c23.5,0,41.3-6.6,53.4-19.8
		C321.9,329.3,330.7,310.1,336.1,284.9z"/>
</g> -->
<g>
	<path d="M72.6,49.7h182.8c36,0,65.1,4.9,87.3,14.7c22.2,9.8,40.5,23.8,55,42.1c14.5,18.3,25,39.6,31.5,63.8
		c6.5,24.3,9.8,50,9.8,77.1c0,42.6-4.8,75.6-14.5,99c-9.7,23.5-23.1,43.1-40.3,58.9c-17.2,15.8-35.7,26.4-55.4,31.6
		c-27,7.2-51.4,10.9-73.3,10.9H72.6V49.7z M195.7,139.9v217.6h30.2c25.7,0,44-2.9,54.9-8.6c10.9-5.7,19.4-15.7,25.5-29.9
		c6.2-14.2,9.2-37.3,9.2-69.1c0-42.2-6.9-71.1-20.6-86.7c-13.8-15.6-36.6-23.4-68.5-23.4H195.7z"/>
</g>
<text transform="matrix(1 0 0 1 30.2354 447.9053)" class="st0 st1 st2">E</text>
</svg>
