<?xml version="1.0" encoding="utf-8"?>
<!-- Generator: Adobe Illustrator 28.0.0, SVG Export Plug-In . SVG Version: 6.00 Build 0)  -->
<svg version="1.1" id="Layer_1_copy" xmlns="http://www.w3.org/2000/svg" xmlns:xlink="http://www.w3.org/1999/xlink" x="0px"
	 y="0px" viewBox="0 0 512 512" style="enable-background:new 0 0 512 512;" xml:space="preserve">
<style type="text/css">
	.st0{display:none;}
	.st1{font-family:'Arial-Black';}
	.st2{font-size:556.3365px;}
	.st3{display:inline;}
</style>
<text transform="matrix(1 0 0 1 30.2354 447.9053)" class="st0 st1 st2">E</text>
<!-- <g class="st0">
	<path class="st3" d="M315.8,382.2H176.1l-19.4,65.7H31.1L180.7,49.7H315l149.6,398.2H335.7L315.8,382.2z M290.3,296.1l-44-143.2
		l-43.5,143.2H290.3z"/>
</g>
<g class="st0">
	<path class="st3" d="M71.3,49.7h230.4c38.4,0,67.9,9.5,88.4,28.5c20.6,19,30.8,42.6,30.8,70.6c0,23.5-7.3,43.7-22,60.6
		c-9.8,11.2-24.1,20.1-42.9,26.6c28.6,6.9,49.7,18.7,63.2,35.5c13.5,16.8,20.2,37.8,20.2,63.2c0,20.6-4.8,39.2-14.4,55.7
		c-9.6,16.5-22.7,29.5-39.4,39.1c-10.3,6-25.9,10.3-46.7,13c-27.7,3.6-46.1,5.4-55.1,5.4H71.3V49.7z M195.4,205.9h53.5
		c19.2,0,32.6-3.3,40.1-9.9c7.5-6.6,11.3-16.2,11.3-28.7c0-11.6-3.8-20.6-11.3-27.2c-7.5-6.5-20.6-9.8-39.3-9.8h-54.3V205.9z
		 M195.4,362.3h62.8c21.2,0,36.1-3.8,44.8-11.3c8.7-7.5,13-17.6,13-30.3c0-11.8-4.3-21.2-12.9-28.4c-8.6-7.2-23.7-10.7-45.2-10.7
		h-62.5V362.3z"/>
</g>
<g class="st0">
	<path class="st3" d="M336.1,284.9L444,317.5c-7.2,30.2-18.7,55.5-34.2,75.8c-15.6,20.3-34.9,35.6-58,45.9
		c-23.1,10.3-52.5,15.5-88.1,15.5c-43.3,0-78.6-6.3-106.1-18.9c-27.4-12.6-51.1-34.7-71-66.4c-19.9-31.7-29.9-72.2-29.9-121.6
		c0-65.9,17.5-116.5,52.6-151.9c35-35.4,84.6-53.1,148.7-53.1c50.2,0,89.6,10.1,118.3,30.4c28.7,20.3,50,51.4,64,93.4l-108.7,24.2
		c-3.8-12.1-7.8-21-12-26.6c-6.9-9.4-15.3-16.7-25.3-21.7c-10-5.1-21.1-7.6-33.4-7.6c-27.9,0-49.3,11.2-64.1,33.6
		c-11.2,16.6-16.8,42.8-16.8,78.4c0,44.1,6.7,74.4,20.1,90.8c13.4,16.4,32.2,24.6,56.5,24.6c23.5,0,41.3-6.6,53.4-19.8
		C321.9,329.3,330.7,310.1,336.1,284.9z"/>
</g>
<g class="st0">
	<path class="st3" d="M72.6,49.7h182.8c36,0,65.1,4.9,87.3,14.7c22.2,9.8,40.5,23.8,55,42.1c14.5,18.3,25,39.6,31.5,63.8
		c6.5,24.3,9.8,50,9.8,77.1c0,42.6-4.8,75.6-14.5,99c-9.7,23.5-23.1,43.1-40.3,58.9c-17.2,15.8-35.7,26.4-55.4,31.6
		c-27,7.2-51.4,10.9-73.3,10.9H72.6V49.7z M195.7,139.9v217.6h30.2c25.7,0,44-2.9,54.9-8.6c10.9-5.7,19.4-15.7,25.5-29.9
		c6.2-14.2,9.2-37.3,9.2-69.1c0-42.2-6.9-71.1-20.6-86.7c-13.8-15.6-36.6-23.4-68.5-23.4H195.7z"/>
</g>
<g class="st0">
	<path class="st3" d="M88.1,56.9h329.8v85H211.4v63.3H403v81.2H211.4v78.5h212.4v90.2H88.1V56.9z"/>
</g>
<g class="st0">
	<path class="st3" d="M103.9,56.9h304.2v85.6H227.5V212h154.3v80.4H227.5v162.7H103.9V56.9z"/>
</g>
<g class="st0">
	<path class="st3" d="M268.6,310.9V228h190.2v169.8c-36.4,24.8-68.6,41.7-96.6,50.7c-28,9-61.2,13.4-99.6,13.4
		c-47.3,0-85.8-8.1-115.6-24.2c-29.8-16.1-52.9-40.1-69.3-72C61.4,333.9,53.2,297.3,53.2,256c0-43.5,9-81.3,26.9-113.4
		C98,110.4,124.3,86,158.9,69.4c27-12.9,63.3-19.3,108.9-19.3c44,0,76.9,4,98.7,12c21.8,8,39.9,20.3,54.3,37.1
		c14.4,16.8,25.2,38,32.5,63.7L334.6,184c-4.9-15-13.2-26.5-24.9-34.5c-11.7-8-26.6-12-44.7-12c-27,0-48.5,9.4-64.5,28.1
		c-16,18.7-24,48.4-24,89c0,43.1,8.1,73.9,24.3,92.4c16.2,18.5,38.8,27.7,67.8,27.7c13.8,0,26.9-2,39.4-6
		c12.5-4,26.8-10.8,42.9-20.4v-37.5H268.6z"/>
</g>
<g class="st0">
	<path class="st3" d="M65.4,56.9h123.1v139.4H323V56.9h123.6v398.2H323V294H188.5v161.1H65.4V56.9z"/>
</g>
<g class="st0">
	<path class="st3" d="M194.3,56.9h123.3v398.2H194.3V56.9z"/>
</g> -->
<g>
	<path d="M292.8,53.5h123.3v216.4c0,45.4-4,80-12.1,103.7c-8.1,23.7-24.3,43.8-48.6,60.3c-24.4,16.5-55.6,24.7-93.6,24.7
		c-40.2,0-71.4-5.4-93.4-16.3c-22.1-10.9-39.2-26.8-51.2-47.7c-12-20.9-19.2-46.8-21.3-77.6l117.6-16c0.2,17.6,1.7,30.6,4.6,39.1
		c2.9,8.5,7.8,15.4,14.7,20.6c4.7,3.4,11.4,5.2,20.1,5.2c13.8,0,23.9-5.1,30.3-15.3c6.4-10.2,9.6-27.5,9.6-51.7V53.5z"/>
</g>
<g class="st0">
	<path class="st3" d="M44.9,56.9H168v150.5L296.9,56.9h163.7L315.2,207.2l151.8,247.9H315.5l-84-163.8L168,357.9v97.2H44.9V56.9z"/>
</g>
<g class="st0">
	<path class="st3" d="M98.4,56.9h123.1v300.2h192.1v98.1H98.4V56.9z"/>
</g>
<g class="st0">
	<path class="st3" d="M32,56.9h161.8l62.4,242.3l62-242.3H480v398.2H379.2V151.4l-77.7,303.7h-91.2l-77.5-303.7v303.7H32V56.9z"/>
</g>
<g class="st0">
	<path class="st3" d="M65.6,56.9h114.9l150,220.3V56.9h116v398.2h-116L181.3,236.5v218.7H65.6V56.9z"/>
</g>
<g class="st0">
	<path class="st3" d="M49.7,256.3c0-65,18.1-115.6,54.3-151.9c36.2-36.2,86.7-54.3,151.3-54.3c66.3,0,117.4,17.8,153.2,53.4
		s53.8,85.4,53.8,149.5c0,46.5-7.8,84.7-23.5,114.5c-15.7,29.8-38.3,53-67.9,69.5c-29.6,16.6-66.5,24.9-110.7,24.9
		c-44.9,0-82.1-7.2-111.5-21.5c-29.4-14.3-53.3-36.9-71.6-67.9C58.8,341.6,49.7,302.8,49.7,256.3z M172.7,256.8
		c0,40.2,7.5,69.1,22.4,86.7c14.9,17.6,35.3,26.3,61,26.3c26.4,0,46.9-8.6,61.4-25.8c14.5-17.2,21.7-48.1,21.7-92.6
		c0-37.5-7.6-64.9-22.7-82.2c-15.1-17.3-35.6-25.9-61.5-25.9c-24.8,0-44.7,8.8-59.8,26.3C180.3,187.2,172.7,216.3,172.7,256.8z"/>
</g>
<g class="st0">
	<path class="st3" d="M87,56.9h204.6c44.5,0,77.9,10.6,100.1,31.8c22.2,21.2,33.3,51.3,33.3,90.5c0,40.2-12.1,71.6-36.3,94.3
		c-24.2,22.6-61.1,34-110.7,34h-67.4v147.8H87V56.9z M210.6,226.7h30.2c23.7,0,40.4-4.1,50-12.4c9.6-8.2,14.4-18.8,14.4-31.6
		c0-12.5-4.2-23.1-12.5-31.8c-8.3-8.7-24-13-47-13h-35V226.7z"/>
</g>
<g class="st0">
	<path class="st3" d="M411.2,378c15.4,10.7,25.4,17.4,30.2,20.1c7.1,4,16.6,8.6,28.5,13.9l-34.2,69c-17.2-8.3-34.2-18.2-51.1-29.7
		c-16.8-11.5-28.6-20.1-35.3-25.9c-27.2,11.8-61.2,17.7-102.1,17.7c-60.5,0-108.2-15.8-143.2-47.3c-41.3-37.3-61.9-89.7-61.9-157.3
		c0-65.6,18.1-116.5,54.2-152.8c36.1-36.3,86.6-54.5,151.4-54.5c66.1,0,117.1,17.8,153.1,53.2c35.9,35.5,53.9,86.3,53.9,152.4
		C454.7,295.6,440.2,342.7,411.2,378z M317,314.9c9.8-17.6,14.7-43.8,14.7-78.8c0-40.2-7.5-68.9-22.4-86.1
		c-14.9-17.2-35.5-25.8-61.8-25.8c-24.4,0-44.3,8.8-59.5,26.3c-15.2,17.6-22.8,45-22.8,82.3c0,43.5,7.4,74,22.3,91.5
		c14.8,17.6,35.2,26.3,61.1,26.3c8.3,0,16.2-0.8,23.6-2.4c-10.3-10-26.6-19.4-48.9-28.3l19.3-44.3c10.9,2,19.3,4.4,25.4,7.3
		c6.1,2.9,17.9,10.5,35.5,22.8C307.6,308.9,312.1,311.9,317,314.9z"/>
</g>
<g class="st0">
	<path class="st3" d="M60.1,455.1V56.9h205.1c38,0,67.1,3.3,87.2,9.8c20.1,6.5,36.3,18.6,48.6,36.3c12.3,17.7,18.5,39.2,18.5,64.5
		c0,22.1-4.7,41.2-14.1,57.2c-9.4,16-22.4,29-38.9,39c-10.5,6.3-24.9,11.6-43.2,15.8c14.7,4.9,25.3,9.8,32,14.7
		c4.5,3.3,11.1,10.2,19.7,20.9c8.6,10.7,14.3,18.9,17.2,24.7l59.6,115.4h-139L247,333.4c-8.3-15.8-15.8-26-22.3-30.7
		c-8.9-6.2-18.9-9.2-30.2-9.2h-10.9v161.6H60.1z M183.7,218.2h51.9c5.6,0,16.5-1.8,32.6-5.4c8.1-1.6,14.8-5.8,20-12.5
		c5.2-6.7,7.7-14.4,7.7-23.1c0-12.9-4.1-22.7-12.2-29.6c-8.1-6.9-23.5-10.3-45.9-10.3h-54.1V218.2z"/>
</g>
<g class="st0">
	<path class="st3" d="M75.4,323.4l117.1-7.3c2.5,19,7.7,33.5,15.5,43.5c12.7,16.1,30.8,24.2,54.3,24.2c17.6,0,31.1-4.1,40.6-12.4
		c9.5-8.2,14.3-17.8,14.3-28.7c0-10.3-4.5-19.6-13.6-27.7c-9.1-8.1-30.1-15.8-63-23.1c-54-12.1-92.5-28.3-115.5-48.4
		c-23.2-20.1-34.8-45.7-34.8-76.9c0-20.5,5.9-39.8,17.8-58c11.9-18.2,29.7-32.5,53.5-42.9c23.8-10.4,56.5-15.6,97.9-15.6
		c50.9,0,89.7,9.5,116.4,28.4c26.7,18.9,42.6,49,47.7,90.3l-116,6.8c-3.1-17.9-9.6-31-19.4-39.1c-9.9-8.1-23.5-12.2-40.9-12.2
		c-14.3,0-25.1,3-32.3,9.1c-7.2,6.1-10.9,13.4-10.9,22.1c0,6.3,3,12,9,17.1c5.8,5.3,19.6,10.1,41.3,14.7
		c53.8,11.6,92.3,23.3,115.6,35.2c23.3,11.9,40.2,26.6,50.8,44.1c10.6,17.6,15.9,37.2,15.9,58.9c0,25.5-7.1,49.1-21.2,70.6
		c-14.1,21.6-33.9,37.9-59.2,49c-25.4,11.1-57.3,16.7-95.9,16.7c-67.7,0-114.6-13-140.7-39.1C93.6,396.7,78.8,363.6,75.4,323.4z"/>
</g>
<g class="st0">
	<path class="st3" d="M69,56.9H443v98.3H317.5v299.9H194.5V155.2H69V56.9z"/>
</g>
<g class="st0">
	<path class="st3" d="M324,53.5h122.8v237.3c0,23.5-3.7,45.7-11,66.6c-7.3,20.9-18.8,39.2-34.5,54.8c-15.7,15.7-32.1,26.6-49.3,33
		c-23.9,8.9-52.6,13.3-86.1,13.3c-19.4,0-40.5-1.4-63.4-4.1c-22.9-2.7-42.1-8.1-57.5-16.2c-15.4-8.1-29.5-19.5-42.2-34.3
		c-12.8-14.8-21.5-30.1-26.2-45.9c-7.6-25.3-11.4-47.8-11.4-67.3V53.5H188v242.9c0,21.7,6,38.7,18.1,50.9
		c12,12.2,28.7,18.3,50.1,18.3c21.2,0,37.8-6,49.8-18c12-12,18.1-29.1,18.1-51.2V53.5z"/>
</g>
<g class="st0">
	<path class="st3" d="M40.2,56.9h128.6l89.6,286.6l88.5-286.6h124.9L324,455.1H190.6L40.2,56.9z"/>
</g>
<g class="st0">
	<path class="st3" d="M10.3,80.3h103.1L150.5,277l54.3-196.7h102.7L362,276.8l37.2-196.4h102.5l-77.4,351.3H317.8l-61.6-221.2
		l-61.4,221.2H88.5L10.3,80.3z"/>
</g>
<g class="st0">
	<path class="st3" d="M52,56.9h135.6L258,179.4l68.6-122.5h134.2l-124,192.9l135.6,205.4H334.2l-78.6-127.9L177,455.1H39.5
		l137.4-207.5L52,56.9z"/>
</g>
<g class="st0">
	<path class="st3" d="M39.4,56.9h136.7l80.2,134.3l80.4-134.3h136L317.8,288.3v166.8H194.5V288.3L39.4,56.9z"/>
</g>
<g class="st0">
	<path class="st3" d="M88.5,56.9h348.3v79.6L213.2,369.5h231.7v85.6H67.1v-82.6l221.2-230.6H88.5V56.9z"/>
</g>
</svg>
