<?xml version="1.0" encoding="utf-8"?>
<!-- Generator: Adobe Illustrator 28.0.0, SVG Export Plug-In . SVG Version: 6.00 Build 0)  -->
<svg version="1.1" id="Layer_1_copy" xmlns="http://www.w3.org/2000/svg" xmlns:xlink="http://www.w3.org/1999/xlink" x="0px"
	 y="0px" viewBox="0 0 512 512" style="enable-background:new 0 0 512 512;" xml:space="preserve">
<style type="text/css">
	.st0{display:none;}
	.st1{font-family:'Arial-Black';}
	.st2{font-size:556.3365px;}
	.st3{display:inline;}
</style>
<text transform="matrix(1 0 0 1 30.2354 447.9053)" class="st0 st1 st2">E</text>

<g>
	<path d="M87,56.9h204.6c44.5,0,77.9,10.6,100.1,31.8c22.2,21.2,33.3,51.3,33.3,90.5c0,40.2-12.1,71.6-36.3,94.3
		c-24.2,22.6-61.1,34-110.7,34h-67.4v147.8H87V56.9z M210.6,226.7h30.2c23.7,0,40.4-4.1,50-12.4c9.6-8.2,14.4-18.8,14.4-31.6
		c0-12.5-4.2-23.1-12.5-31.8c-8.3-8.7-24-13-47-13h-35V226.7z"/>
</g>
<g class="st0">
	<path class="st3" d="M411.2,378c15.4,10.7,25.4,17.4,30.2,20.1c7.1,4,16.6,8.6,28.5,13.9l-34.2,69c-17.2-8.3-34.2-18.2-51.1-29.7
		c-16.8-11.5-28.6-20.1-35.3-25.9c-27.2,11.8-61.2,17.7-102.1,17.7c-60.5,0-108.2-15.8-143.2-47.3c-41.3-37.3-61.9-89.7-61.9-157.3
		c0-65.6,18.1-116.5,54.2-152.8c36.1-36.3,86.6-54.5,151.4-54.5c66.1,0,117.1,17.8,153.1,53.2c35.9,35.5,53.9,86.3,53.9,152.4
		C454.7,295.6,440.2,342.7,411.2,378z M317,314.9c9.8-17.6,14.7-43.8,14.7-78.8c0-40.2-7.5-68.9-22.4-86.1
		c-14.9-17.2-35.5-25.8-61.8-25.8c-24.4,0-44.3,8.8-59.5,26.3c-15.2,17.6-22.8,45-22.8,82.3c0,43.5,7.4,74,22.3,91.5
		c14.8,17.6,35.2,26.3,61.1,26.3c8.3,0,16.2-0.8,23.6-2.4c-10.3-10-26.6-19.4-48.9-28.3l19.3-44.3c10.9,2,19.3,4.4,25.4,7.3
		c6.1,2.9,17.9,10.5,35.5,22.8C307.6,308.9,312.1,311.9,317,314.9z"/>
</g>
<g class="st0">
	<path class="st3" d="M60.1,455.1V56.9h205.1c38,0,67.1,3.3,87.2,9.8c20.1,6.5,36.3,18.6,48.6,36.3c12.3,17.7,18.5,39.2,18.5,64.5
		c0,22.1-4.7,41.2-14.1,57.2c-9.4,16-22.4,29-38.9,39c-10.5,6.3-24.9,11.6-43.2,15.8c14.7,4.9,25.3,9.8,32,14.7
		c4.5,3.3,11.1,10.2,19.7,20.9c8.6,10.7,14.3,18.9,17.2,24.7l59.6,115.4h-139L247,333.4c-8.3-15.8-15.8-26-22.3-30.7
		c-8.9-6.2-18.9-9.2-30.2-9.2h-10.9v161.6H60.1z M183.7,218.2h51.9c5.6,0,16.5-1.8,32.6-5.4c8.1-1.6,14.8-5.8,20-12.5
		c5.2-6.7,7.7-14.4,7.7-23.1c0-12.9-4.1-22.7-12.2-29.6c-8.1-6.9-23.5-10.3-45.9-10.3h-54.1V218.2z"/>
</g>
<g class="st0">
	<path class="st3" d="M75.4,323.4l117.1-7.3c2.5,19,7.7,33.5,15.5,43.5c12.7,16.1,30.8,24.2,54.3,24.2c17.6,0,31.1-4.1,40.6-12.4
		c9.5-8.2,14.3-17.8,14.3-28.7c0-10.3-4.5-19.6-13.6-27.7c-9.1-8.1-30.1-15.8-63-23.1c-54-12.1-92.5-28.3-115.5-48.4
		c-23.2-20.1-34.8-45.7-34.8-76.9c0-20.5,5.9-39.8,17.8-58c11.9-18.2,29.7-32.5,53.5-42.9c23.8-10.4,56.5-15.6,97.9-15.6
		c50.9,0,89.7,9.5,116.4,28.4c26.7,18.9,42.6,49,47.7,90.3l-116,6.8c-3.1-17.9-9.6-31-19.4-39.1c-9.9-8.1-23.5-12.2-40.9-12.2
		c-14.3,0-25.1,3-32.3,9.1c-7.2,6.1-10.9,13.4-10.9,22.1c0,6.3,3,12,9,17.1c5.8,5.3,19.6,10.1,41.3,14.7
		c53.8,11.6,92.3,23.3,115.6,35.2c23.3,11.9,40.2,26.6,50.8,44.1c10.6,17.6,15.9,37.2,15.9,58.9c0,25.5-7.1,49.1-21.2,70.6
		c-14.1,21.6-33.9,37.9-59.2,49c-25.4,11.1-57.3,16.7-95.9,16.7c-67.7,0-114.6-13-140.7-39.1C93.6,396.7,78.8,363.6,75.4,323.4z"/>
</g>
<g class="st0">
	<path class="st3" d="M69,56.9H443v98.3H317.5v299.9H194.5V155.2H69V56.9z"/>
</g>
<g class="st0">
	<path class="st3" d="M324,53.5h122.8v237.3c0,23.5-3.7,45.7-11,66.6c-7.3,20.9-18.8,39.2-34.5,54.8c-15.7,15.7-32.1,26.6-49.3,33
		c-23.9,8.9-52.6,13.3-86.1,13.3c-19.4,0-40.5-1.4-63.4-4.1c-22.9-2.7-42.1-8.1-57.5-16.2c-15.4-8.1-29.5-19.5-42.2-34.3
		c-12.8-14.8-21.5-30.1-26.2-45.9c-7.6-25.3-11.4-47.8-11.4-67.3V53.5H188v242.9c0,21.7,6,38.7,18.1,50.9
		c12,12.2,28.7,18.3,50.1,18.3c21.2,0,37.8-6,49.8-18c12-12,18.1-29.1,18.1-51.2V53.5z"/>
</g>
<g class="st0">
	<path class="st3" d="M40.2,56.9h128.6l89.6,286.6l88.5-286.6h124.9L324,455.1H190.6L40.2,56.9z"/>
</g>
<g class="st0">
	<path class="st3" d="M10.3,80.3h103.1L150.5,277l54.3-196.7h102.7L362,276.8l37.2-196.4h102.5l-77.4,351.3H317.8l-61.6-221.2
		l-61.4,221.2H88.5L10.3,80.3z"/>
</g>
<g class="st0">
	<path class="st3" d="M52,56.9h135.6L258,179.4l68.6-122.5h134.2l-124,192.9l135.6,205.4H334.2l-78.6-127.9L177,455.1H39.5
		l137.4-207.5L52,56.9z"/>
</g>
<g class="st0">
	<path class="st3" d="M39.4,56.9h136.7l80.2,134.3l80.4-134.3h136L317.8,288.3v166.8H194.5V288.3L39.4,56.9z"/>
</g>
<g class="st0">
	<path class="st3" d="M88.5,56.9h348.3v79.6L213.2,369.5h231.7v85.6H67.1v-82.6l221.2-230.6H88.5V56.9z"/>
</g>
</svg>
