<?xml version="1.0" encoding="utf-8"?>
<!-- Generator: Adobe Illustrator 28.0.0, SVG Export Plug-In . SVG Version: 6.00 Build 0)  -->
<svg version="1.1" id="Layer_1_copy" xmlns="http://www.w3.org/2000/svg" xmlns:xlink="http://www.w3.org/1999/xlink" x="0px"
	 y="0px" viewBox="0 0 512 512" style="enable-background:new 0 0 512 512;" xml:space="preserve">
<style type="text/css">
	.st0{display:none;}
	.st1{font-family:'Arial-Black';}
	.st2{font-size:556.3365px;}
	.st3{display:inline;}
</style>
<text transform="matrix(1 0 0 1 30.2354 447.9053)" class="st0 st1 st2">E</text>

<g>
	<path d="M324,53.5h122.8v237.3c0,23.5-3.7,45.7-11,66.6c-7.3,20.9-18.8,39.2-34.5,54.8c-15.7,15.7-32.1,26.6-49.3,33
		c-23.9,8.9-52.6,13.3-86.1,13.3c-19.4,0-40.5-1.4-63.4-4.1c-22.9-2.7-42.1-8.1-57.5-16.2c-15.4-8.1-29.5-19.5-42.2-34.3
		c-12.8-14.8-21.5-30.1-26.2-45.9c-7.6-25.3-11.4-47.8-11.4-67.3V53.5H188v242.9c0,21.7,6,38.7,18.1,50.9
		c12,12.2,28.7,18.3,50.1,18.3c21.2,0,37.8-6,49.8-18c12-12,18.1-29.1,18.1-51.2V53.5z"/>
</g>
<g class="st0">
	<path class="st3" d="M40.2,56.9h128.6l89.6,286.6l88.5-286.6h124.9L324,455.1H190.6L40.2,56.9z"/>
</g>
<g class="st0">
	<path class="st3" d="M10.3,80.3h103.1L150.5,277l54.3-196.7h102.7L362,276.8l37.2-196.4h102.5l-77.4,351.3H317.8l-61.6-221.2
		l-61.4,221.2H88.5L10.3,80.3z"/>
</g>
<g class="st0">
	<path class="st3" d="M52,56.9h135.6L258,179.4l68.6-122.5h134.2l-124,192.9l135.6,205.4H334.2l-78.6-127.9L177,455.1H39.5
		l137.4-207.5L52,56.9z"/>
</g>
<g class="st0">
	<path class="st3" d="M39.4,56.9h136.7l80.2,134.3l80.4-134.3h136L317.8,288.3v166.8H194.5V288.3L39.4,56.9z"/>
</g>
<g class="st0">
	<path class="st3" d="M88.5,56.9h348.3v79.6L213.2,369.5h231.7v85.6H67.1v-82.6l221.2-230.6H88.5V56.9z"/>
</g>
</svg>
