<?xml version="1.0" encoding="utf-8"?>
<!-- Generator: Adobe Illustrator 28.0.0, SVG Export Plug-In . SVG Version: 6.00 Build 0)  -->
<svg version="1.1" id="Layer_1_copy" xmlns="http://www.w3.org/2000/svg" xmlns:xlink="http://www.w3.org/1999/xlink" x="0px"
	 y="0px" viewBox="0 0 512 512" style="enable-background:new 0 0 512 512;" xml:space="preserve">
<style type="text/css">
	.st0{display:none;}
	.st1{font-family:'Arial-Black';}
	.st2{font-size:556.3365px;}
	.st3{display:inline;}
</style>
<text transform="matrix(1 0 0 1 30.2354 447.9053)" class="st0 st1 st2">E</text>

<g>
	<path d="M10.3,80.3h103.1L150.5,277l54.3-196.7h102.7L362,276.8l37.2-196.4h102.5l-77.4,351.3H317.8l-61.6-221.2l-61.4,221.2H88.5
		L10.3,80.3z"/>
</g>
<g class="st0">
	<path class="st3" d="M52,56.9h135.6L258,179.4l68.6-122.5h134.2l-124,192.9l135.6,205.4H334.2l-78.6-127.9L177,455.1H39.5
		l137.4-207.5L52,56.9z"/>
</g>
<g class="st0">
	<path class="st3" d="M39.4,56.9h136.7l80.2,134.3l80.4-134.3h136L317.8,288.3v166.8H194.5V288.3L39.4,56.9z"/>
</g>
<g class="st0">
	<path class="st3" d="M88.5,56.9h348.3v79.6L213.2,369.5h231.7v85.6H67.1v-82.6l221.2-230.6H88.5V56.9z"/>
</g>
</svg>
